<svg width="369" height="220" viewBox="0 0 369 220" fill="none" xmlns="http://www.w3.org/2000/svg">
<path d="M279.933 59.1692C308.459 111.135 288.741 175.999 235.892 204.048C183.043 232.097 117.076 212.708 88.5503 160.743C60.0245 108.777 79.7427 43.9132 132.592 15.8639C185.44 -12.1841 251.408 7.20389 279.933 59.1692Z" fill="white"/>
<path d="M134.031 18.4866C82.7376 45.7106 63.5316 108.891 91.2179 159.327C118.904 209.764 183.159 228.648 234.452 201.425C285.746 174.201 304.952 111.021 277.266 60.5853C249.579 10.1493 185.325 -8.7361 134.031 18.4866ZM237.332 206.671C211.059 220.615 180.837 223.664 152.232 215.256C123.627 206.849 100.064 187.992 85.8828 162.159C71.7021 136.325 68.6013 106.608 77.1509 78.4812C85.7011 50.3546 104.879 27.1852 131.152 13.2412C157.424 -0.702759 187.646 -3.75211 216.252 4.6559C244.857 13.0626 268.42 31.9199 282.6 57.7532C296.781 83.5866 299.882 113.304 291.332 141.431C282.782 169.557 263.604 192.727 237.332 206.671Z" fill="#211C1D"/>
<path d="M292.523 99.8426C292.475 99.3493 292.417 98.8572 292.362 98.3639C292.324 98.0186 292.291 97.6732 292.249 97.3279C292.17 96.6732 292.08 96.0186 291.988 95.3639C291.963 95.1866 291.942 95.0079 291.916 94.8306C291.807 94.0759 291.685 93.3213 291.559 92.5666C291.547 92.4932 291.537 92.4199 291.524 92.3466C291.386 91.5306 291.235 90.7146 291.077 89.8986C291.075 89.8893 291.074 89.8799 291.071 89.8706C286.951 68.7106 276.151 48.0559 257.738 30.7359C233.158 7.61592 198.502 -2.13342 165.147 4.42525C144.057 8.57324 126.232 17.6439 112.153 29.8773C159.827 17.0946 211.883 37.6959 236.364 82.2932C237.31 84.0172 238.203 85.7546 239.044 87.5053C244.524 98.9199 239.979 112.569 228.753 118.692C219.173 123.919 208.906 129.416 198.078 135.163C158.966 155.921 125.616 172.988 103.368 181.457C106.419 184.8 109.659 187.927 113.063 190.825C130.934 194.132 178.03 177.149 210.535 162.045C217.827 158.657 224.942 155.048 231.747 151.315C239.059 147.303 247.644 153.969 245.385 161.897C239.839 181.377 228.711 199.301 212.762 213.159C220.639 211.047 228.398 208.025 235.892 204.048C274.713 183.444 295.656 142.975 292.733 102.345C292.673 101.511 292.603 100.677 292.523 99.8426Z" fill="#211C1D"/>
<path d="M262.34 35.5212C265.869 39.1052 269.17 42.9665 272.211 47.0919C290.89 41.6039 303.341 40.6212 305.944 45.3639C312.006 56.4052 262.431 94.2745 195.216 129.948C128.001 165.621 68.5994 185.589 62.5382 174.548C59.9347 169.805 67.6041 160.111 82.5201 147.768C80.6815 143.004 79.2096 138.172 78.0994 133.304C27.8983 166.628 -2.43682 195 3.52823 205.868C12.528 222.263 100.732 192.612 200.537 139.641C300.342 86.6706 373.955 30.4398 364.955 14.0452C358.989 3.17719 318.22 12.5426 262.34 35.5212Z" fill="white"/>
<path d="M76.3488 137.775C52.9397 153.488 34.0926 168.031 21.6947 179.96C3.94604 197.036 5.17456 203.113 5.97325 204.569C8.57134 209.303 26.1343 209.945 67.0821 196.181C104.151 183.72 151.077 162.787 199.217 137.237C247.356 111.688 290.906 84.6012 321.843 60.9692C356.017 34.8652 365.107 20.0759 362.509 15.3425C361.71 13.8865 357.218 9.54257 332.959 14.7599C316.014 18.4039 293.307 25.9158 267.102 36.5345C269.267 38.9025 271.337 41.3772 273.291 43.9318C293.672 38.1398 305.162 38.1865 308.39 44.0652C310.497 47.9038 308.661 53.1092 302.778 59.9799C297.83 65.7612 290.086 72.6906 279.764 80.5759C258.732 96.6412 229.174 115.029 196.536 132.352C163.897 149.675 132.043 163.88 106.843 172.352C94.4737 176.509 84.3334 179.072 76.7033 179.967C67.6329 181.032 62.1999 179.684 60.0932 175.847C56.866 169.967 63.1316 160.496 79.2405 146.921C78.1408 143.913 77.1736 140.853 76.3488 137.775ZM201.857 142.045C153.455 167.733 106.23 188.796 68.8792 201.352C50.6019 207.496 35.6385 211.279 24.4026 212.599C11.5464 214.107 3.91756 212.329 1.08352 207.165C-2.54649 200.552 2.92361 190.375 17.8084 176.053C31.0199 163.343 51.3301 147.777 76.5449 131.04L79.92 128.8L80.811 132.707C81.8947 137.46 83.3439 142.201 85.1178 146.799L85.8171 148.611L84.3095 149.859C62.4414 167.953 64.8695 173.043 64.9839 173.251C66.1693 175.411 76.0681 176.921 105.046 167.181C129.964 158.804 161.519 144.728 193.896 127.544C226.273 110.36 255.557 92.1479 276.354 76.2612C300.538 57.7879 304.686 48.8212 303.5 46.6612C303.386 46.4532 300.391 41.6639 273.007 49.7092L271.118 50.2652L269.961 48.6958C267.026 44.7145 263.79 40.9212 260.344 37.4212L257.511 34.5452L261.268 32.9999C289.335 21.4585 313.715 13.3052 331.771 9.42123C352.115 5.04524 363.769 6.13322 367.4 12.7466C370.234 17.9119 367.56 25.1558 359.222 34.8958C351.935 43.4078 340.507 53.6319 325.252 65.2839C294.081 89.0972 250.258 116.357 201.857 142.045Z" fill="#211C1D"/>
<path d="M262.34 35.5212C265.87 39.1052 269.17 42.9665 272.211 47.0918C282.324 44.1211 290.606 42.4731 296.493 42.3371L349.273 9.60912C331.458 10.5345 300.408 19.8678 262.34 35.5212Z" fill="#211C1D"/>
<path d="M277.72 148.003C275.373 149.855 273.066 151.769 270.638 153.519C268.715 154.903 266.81 156.332 264.84 157.649C262.896 158.949 260.918 160.201 258.956 161.475C254.937 164.084 250.716 166.408 246.513 168.715C242.232 171.064 237.88 173.317 233.454 175.392C224.452 179.611 215.299 183.536 205.926 186.897C201.295 188.559 196.664 190.248 191.955 191.688C187.314 193.108 182.663 194.459 177.975 195.723C173.436 196.947 168.846 197.979 164.239 198.921C160.4 199.705 156.546 200.337 152.676 200.957C152.439 200.995 152.203 201.033 151.966 201.071C154.801 200.313 157.652 199.599 160.469 198.776C164.938 197.471 169.38 196.105 173.813 194.687C178.303 193.251 182.744 191.641 187.149 189.976C191.59 188.296 196.037 186.616 200.399 184.745C209.398 180.885 218.29 176.769 226.906 172.136C231.177 169.84 235.447 167.533 239.599 165.031C243.676 162.572 247.669 160 251.62 157.351C255.457 154.777 259.213 152.068 262.82 149.191C264.471 147.873 266.147 146.593 267.726 145.193C268.999 144.065 270.289 142.955 271.57 141.836C271.731 141.695 271.892 141.555 272.053 141.413C273.705 143.335 275.358 145.256 277.01 147.176C277.247 147.452 277.483 147.727 277.72 148.003Z" fill="#211C1D"/>
<path d="M231.025 45.2758C226.316 48.6438 221.563 51.9345 216.677 55.0532C210.421 59.0478 203.972 62.8025 197.433 66.3319C190.733 69.9479 183.951 73.3879 177.093 76.7052C170.371 79.9572 163.513 82.9572 156.613 85.8252C150.486 88.3718 144.262 90.6732 138.009 92.8972C137.838 92.9585 137.667 93.0198 137.496 93.0798C142.75 90.5505 147.993 88.0038 153.189 85.3598C159.836 81.9772 166.393 78.4425 172.913 74.8292C179.449 71.2065 185.909 67.4172 192.225 63.4332C198.484 59.4839 204.668 55.4412 210.724 51.1945C215.945 47.5345 221.004 43.6759 225.983 39.7052C226.124 39.5932 226.265 39.4798 226.406 39.3678C227.945 41.3372 229.485 43.3065 231.025 45.2758Z" fill="#211C1D"/>
<path d="M103.159 120.004C104.298 119.636 105.438 119.272 106.581 118.919C108.291 118.391 109.965 117.803 111.653 117.213C115.1 116.011 118.549 114.748 121.915 113.337C128.868 110.421 135.81 107.496 142.685 104.404C149.788 101.209 156.835 97.8919 163.86 94.5332C170.736 91.2466 177.574 87.8759 184.384 84.4586C190.567 81.3559 196.711 78.1786 202.728 74.7746C203.14 74.5412 203.554 74.3119 203.967 74.0812C198.953 78.2492 193.593 81.8959 188.07 85.3772C181.642 89.4306 174.979 93.0972 168.243 96.6279C161.251 100.292 154.077 103.613 146.83 106.756C139.791 109.811 132.603 112.535 125.294 114.896C121.812 116.021 118.285 117.073 114.721 117.923C111.38 118.717 108.028 119.331 104.627 119.808C104.138 119.876 103.648 119.939 103.159 120.004Z" fill="#211C1D"/>
<path d="M179.36 33.5078C187.753 28.5078 195.905 23.0678 203.039 16.4011C204.714 14.8358 206.382 13.2278 207.846 11.4651C205.329 15.2918 202.113 18.7291 198.901 21.9958C195.263 25.6958 191.372 29.1678 187.309 32.4118C185.444 33.9011 183.548 35.3478 181.642 36.7878C180.881 35.6945 180.12 34.6012 179.36 33.5078Z" fill="white"/>
<path d="M214.496 56.4865C223.134 50.9745 231.59 44.9785 238.959 37.8732C240.707 36.1865 242.374 34.4399 243.976 32.6185C238.313 41.3252 231.001 49.0092 223.313 56.0185C221.517 57.6559 219.69 59.2572 217.849 60.8439C216.732 59.3919 215.614 57.9385 214.496 56.4865Z" fill="white"/>
<path d="M231.967 81.5399C237.16 78.4133 242.171 75.0426 247.034 71.4386C252.58 67.3293 258.007 63.0119 263.076 58.3399C265.338 56.2532 267.493 54.0906 269.517 51.7812C266.136 56.8946 262.102 61.5359 257.936 66.0426C253.166 71.2039 248.15 76.1959 242.866 80.8492C240.528 82.9079 238.14 84.8972 235.708 86.8479C234.461 85.0786 233.214 83.3093 231.967 81.5399Z" fill="white"/>
<path d="M252.09 67.2639C248.826 69.8745 245.586 72.5039 242.199 74.9599C237.08 78.6745 231.879 82.2919 226.479 85.6052C221.015 88.9572 215.504 92.2079 209.894 95.3212C204.095 98.5399 198.174 101.533 192.232 104.484C187.466 106.852 182.637 109.115 177.776 111.289C173.052 113.401 168.281 115.436 163.479 117.368C157.436 119.799 151.363 122.131 145.251 124.389C139.122 126.655 132.865 128.589 126.614 130.497C120.653 132.317 114.619 133.933 108.531 135.284C105.643 135.924 102.758 136.647 99.8331 137.111C97.503 137.479 95.1803 137.899 92.8523 138.281C92.5472 138.332 92.2421 138.381 91.937 138.431C95.9193 137.316 99.9279 136.299 103.876 135.073C109.737 133.252 115.571 131.367 121.339 129.277C127.357 127.097 133.289 124.708 139.206 122.283C145.112 119.863 150.974 117.297 156.739 114.568C162.294 111.936 167.793 109.209 173.277 106.439C176.877 104.619 180.405 102.665 183.955 100.756C189.656 97.6892 195.223 94.3825 200.77 91.0559C206.15 87.8292 211.473 84.4719 216.634 80.9159C219.27 79.0985 221.941 77.3279 224.515 75.4279C226.985 73.6052 229.521 71.8425 231.908 69.9145C234.263 68.0132 236.725 66.1985 238.978 64.1799C240.706 62.6305 242.45 61.0972 244.188 59.5572C244.409 59.3626 244.629 59.1666 244.85 58.9719C246.964 61.3932 249.08 63.8146 251.194 66.2372C251.493 66.5786 251.792 66.9212 252.09 67.2639Z" fill="#211C1D"/>
<path d="M238.017 94.8305C244.581 90.7478 250.757 86.1251 256.464 80.9398C257.747 79.7731 259 78.5785 260.236 77.3638C255.264 83.1971 249.787 88.6145 243.829 93.4771C242.4 94.6425 240.935 95.7611 239.459 96.8691C238.978 96.1905 238.498 95.5105 238.017 94.8305Z" fill="white"/>
<path d="M174.307 127.316C179.809 124.796 185.29 122.236 190.702 119.532C197.624 116.074 204.474 112.466 211.215 108.676C218.17 104.764 225.052 100.728 231.776 96.4398C238.363 92.2385 244.9 87.8585 250.99 82.9772C253.947 80.6052 256.853 78.1771 259.557 75.5265C260.846 74.2625 262.08 72.9438 263.244 71.5692C264.329 70.2892 265.412 68.8998 266.217 67.4305C266.471 66.9691 266.724 66.5065 266.977 66.0451C265.767 68.9665 264.189 71.6558 262.168 74.1158C259.884 76.8985 257.417 79.4878 254.775 81.9451C249.118 87.2091 242.882 91.8758 236.481 96.2251C229.906 100.694 223.08 104.79 216.127 108.662C209.276 112.477 202.237 115.992 195.074 119.204C188.744 122.041 182.303 124.634 175.717 126.844C175.247 127.001 174.777 127.158 174.307 127.316Z" fill="#211C1D"/>
<path d="M242.875 154.656C249.547 151.467 255.917 147.7 262.183 143.807C262.906 143.357 263.628 142.907 264.346 142.449C259.219 146.488 253.973 150.408 248.529 154.024C247.071 154.992 245.589 155.923 244.093 156.832C243.687 156.107 243.282 155.381 242.875 154.656Z" fill="white"/>
<path d="M225.004 194.788C233.705 190.443 242.16 185.557 250.5 180.58C252.392 179.451 254.267 178.297 256.122 177.111C248.308 182.913 240.121 188.277 231.893 193.491C230.021 194.677 228.134 195.837 226.224 196.963C225.817 196.237 225.41 195.513 225.004 194.788Z" fill="white"/>
<path d="M195.072 175.709C203.801 172.439 212.31 168.691 220.587 164.428C229.88 159.643 238.928 154.436 247.737 148.835C251.702 146.313 255.581 143.672 259.437 140.996C260.102 141.955 260.765 142.912 261.429 143.871C253.56 148.792 245.541 153.445 237.307 157.755C227.938 162.656 218.322 167.085 208.48 170.988C204.073 172.735 199.587 174.257 195.072 175.709Z" fill="#211C1D"/>
<path d="M234.607 174.963C240.54 171.776 246.355 168.384 252.075 164.84C258.702 160.732 265.206 156.428 271.427 151.743C274.149 149.692 276.721 147.489 279.206 145.169C274.709 150.28 269.658 154.833 264.42 159.2C258.404 164.215 252.178 169.003 245.807 173.575C243.045 175.556 240.257 177.499 237.431 179.392C236.489 177.916 235.548 176.44 234.607 174.963Z" fill="white"/>
<path d="M188.611 207.989C191.978 206.59 195.404 205.33 198.772 203.932C203.154 202.11 207.518 200.253 211.844 198.305C220.541 194.392 229.126 190.246 237.579 185.848C241.32 183.901 244.981 181.832 248.679 179.812C242.328 185.222 235.068 189.52 227.719 193.476C223.418 195.79 218.96 197.882 214.453 199.781C210.058 201.632 205.594 203.36 201.034 204.78C196.945 206.052 192.821 207.174 188.611 207.989Z" fill="#211C1D"/>
<path d="M318.97 23.3585C323.512 22.4651 328.524 21.6305 333.069 22.9371C335.397 23.6078 337.56 25.0105 338.473 27.3105C339.396 29.6358 338.939 32.2398 338.089 34.5158C336.26 39.4198 332.692 43.6931 329.131 47.4865C325.383 51.4798 321.249 55.1198 316.957 58.5358C313.304 61.4438 309.506 64.1532 305.656 66.8025C312.276 61.6772 318.696 56.3038 324.423 50.2091C327.756 46.6625 330.936 42.8692 333.369 38.6572C335.175 35.5292 338.521 28.8278 333.782 26.5838C331.514 25.5091 328.712 25.6652 326.279 25.9518C324.109 26.2078 321.986 26.6931 319.873 27.2318C319.572 25.9411 319.271 24.6492 318.97 23.3585Z" fill="#211C1D"/>
<path d="M303.814 32.7025C306.791 31.8945 309.936 31.4852 313.023 31.7745C316.005 32.0559 320.055 32.9639 321.261 36.0719C321.863 37.6225 321.384 39.1812 320.315 40.3945C320.7 38.8305 320.666 37.2025 319.287 36.1105C317.896 35.0092 315.893 34.8078 314.172 34.8065C310.918 34.8012 307.744 35.6226 304.668 36.5879C304.383 35.2932 304.099 33.9972 303.814 32.7025Z" fill="#211C1D"/>
<path d="M331.777 15.0772C335.949 14.7092 340.192 14.5958 344.333 15.3425C348.512 16.0972 354.007 18.0705 353.902 23.1012C353.859 25.1478 352.888 26.9932 351.877 28.7266C352.5 27.2319 353.064 25.7279 353.146 24.0945C353.245 22.0732 352.311 20.3198 350.542 19.2785C348.82 18.2625 346.728 17.9105 344.752 17.7719C342.587 17.6212 340.408 17.7239 338.254 17.9719C336.285 18.1985 334.345 18.5692 332.414 19.0012C332.201 17.6932 331.988 16.3852 331.777 15.0772Z" fill="#211C1D"/>
<path d="M322.745 31.8212C316.005 31.6839 309.263 31.7972 302.563 32.6052C301.386 32.7466 300.209 32.8919 299.032 33.0359C305.048 30.9212 311.106 29.0479 317.345 27.6679C318.885 27.3265 320.433 27.0172 321.981 26.7106C322.236 28.4146 322.49 30.1172 322.745 31.8212Z" fill="white"/>
<path d="M335.434 22.2065C328.937 22.1105 322.429 22.6052 315.977 23.3238C314.771 23.4572 313.565 23.5972 312.362 23.7518C318.351 21.9692 324.429 20.4078 330.571 19.2251C332.09 18.9331 333.614 18.6785 335.144 18.4518C335.241 19.7038 335.338 20.9558 335.434 22.2065Z" fill="white"/>
<path d="M307.303 40.1466C299.707 40.3266 292.144 40.8986 284.68 42.3572C282.887 42.7066 281.103 43.0932 279.322 43.4958C286.584 40.6598 294.009 38.4026 301.672 36.8772C303.387 36.5359 305.108 36.2279 306.831 35.9279C306.988 37.3332 307.146 38.7399 307.303 40.1466Z" fill="white"/>
<path d="M346.078 15.3519C339.575 14.6053 332.879 14.5159 326.415 15.6799C332.753 13.6453 339.511 12.8399 346.153 12.7213C346.129 13.5986 346.103 14.4746 346.078 15.3519Z" fill="white"/>
</svg>
