<svg width="371" height="366" viewBox="0 0 371 366" fill="none" xmlns="http://www.w3.org/2000/svg">
<path d="M370.857 204.667C370.857 293.367 297.729 365.273 207.52 365.273C117.312 365.273 44.1841 293.367 44.1841 204.667C44.1841 115.967 117.312 44.0613 207.52 44.0613C297.729 44.0613 370.857 115.967 370.857 204.667Z" fill="#211C1D"/>
<path d="M36.4032 88.3454C35.2451 75.384 40.3872 62.2093 49.509 52.8587L74.7766 78.1C73.7203 79.2787 72.7915 80.5733 72.0213 81.9667C66.5674 80.0107 61.0987 78.1 55.6055 76.26C59.5 77.896 63.4093 79.496 67.3349 81.06C68.7587 81.628 70.1866 82.1894 71.6118 82.752C70.9338 84.116 70.4008 85.5641 70.0401 87.0814C58.8287 87.3801 47.6037 87.7 36.4032 88.3454ZM61.4268 44.1107C69.2197 40.228 78.0026 38.3853 86.6973 39.0027C86.624 41.3067 86.5562 43.6107 86.4979 45.9147C86.2823 54.4001 86.1671 62.892 86.1413 71.3867C84.5927 71.7427 83.0984 72.2707 81.6774 72.9467C79.2515 67.66 76.7795 62.3947 74.2397 57.1627C75.7706 61.0454 77.3408 64.912 78.9463 68.7667C79.5837 70.296 80.2278 71.824 80.8705 73.3507C79.5714 74.036 78.347 74.848 77.2134 75.7734L50.9395 51.4547C54.0529 48.5307 57.5717 46.0307 61.4268 44.1107ZM48.812 229.7C46.264 210.861 47.0925 191.627 51.3043 173.076C54.8258 157.563 60.658 142.387 68.7234 128.589C71.3663 124.069 74.2261 119.681 77.2866 115.437C76.7103 117.064 76.134 118.689 75.5699 120.319C76.454 118.285 77.3273 116.247 78.1897 114.204C80.819 110.631 83.596 107.164 86.5128 103.816C86.5331 104.569 86.5481 105.323 86.5698 106.076C86.9915 121.04 87.4281 136.031 88.7014 150.953C89.115 144.329 89.3184 137.691 89.4906 131.057C89.7591 120.743 89.8743 110.416 89.8513 100.089C90.4479 99.4467 91.0527 98.812 91.6602 98.1774C94.9214 105.427 98.272 112.636 101.745 119.787C100.214 115.903 98.645 112.036 97.0395 108.181C95.5316 104.563 94.0047 100.951 92.4643 97.344C94.0454 95.7187 95.6618 94.1267 97.3134 92.5667C104.964 95.3787 112.65 98.1 120.379 100.689C116.484 99.0507 112.575 97.452 108.65 95.8867C105.163 94.4973 101.67 93.1253 98.1717 91.764C98.8049 91.1747 99.4423 90.5907 100.085 90.0121C102.021 89.9694 103.958 89.9267 105.893 89.8734C121.111 89.4587 136.357 89.0293 151.533 87.7773C144.796 87.3693 138.046 87.1693 131.299 87C122.185 86.772 113.063 86.6587 103.939 86.6467C108.807 82.536 113.933 78.7027 119.281 75.2094C119.465 75.1227 119.651 75.0373 119.837 74.9507C119.702 75.0027 119.568 75.0547 119.434 75.1067C121.683 73.6414 123.97 72.232 126.295 70.892C136.4 65.068 146.863 60.1893 157.979 56.4973C174.609 50.9747 192.555 48.06 210.108 48.3374C228.165 48.6227 245.992 51.508 263.06 57.3693C280.826 63.4707 297.421 72.516 312.108 84.092C319.354 89.804 326.229 96.132 332.327 103.025C337.138 108.464 341.556 114.123 345.848 119.959C345.941 120.087 346.039 120.213 346.134 120.343C344.63 117.831 343.198 115.259 341.585 112.815C331.455 97.4654 318.968 83.884 304.166 72.7587C289.4 61.6613 272.641 53.14 254.909 47.6707C236.29 41.9294 216.82 39.4614 197.331 40.404C178.102 41.3347 158.925 45.6107 141.259 53.176C133.226 56.616 125.262 60.4974 117.926 65.2294C113.051 68.3747 108.346 71.6974 103.806 75.2147C103.756 75.1774 103.704 75.14 103.654 75.1014C105.805 72.9187 107.955 70.736 110.102 68.5493C122.443 55.9747 134.728 43.3494 146.952 30.6654C156.721 20.5294 166.397 10.304 175.983 0C175.118 0.814667 174.251 1.62802 173.388 2.44403C162.538 12.7094 151.777 23.0627 141.081 33.4827C128.329 45.908 115.645 58.4027 103.042 70.9747C102.275 71.74 101.513 72.5107 100.745 73.276C99.0219 72.3801 97.1764 71.708 95.2685 71.3014C95.2333 71.2947 95.198 71.2894 95.1627 71.2827C96.9594 66.4133 98.7155 61.5307 100.415 56.6294C98.7494 60.4587 97.1235 64.3027 95.5316 68.1627C95.1248 69.1494 94.7234 70.1387 94.3193 71.1267C92.6677 70.8534 91.0242 70.7827 89.4106 70.8973C89.119 60.3093 88.8031 49.708 88.1997 39.128C89.435 39.256 90.6676 39.432 91.8934 39.6627C96.6652 40.56 101.484 42.1347 105.727 44.4814C105.773 44.5067 105.817 44.5333 105.863 44.5587C105.651 45.2253 105.875 45.9547 106.86 46.3134C107.435 46.5213 107.978 46.3813 108.396 46.0667C111.097 47.7813 113.595 49.7001 116.084 51.7787C114.175 49.9214 112.282 48.1507 110.174 46.5107C109.748 46.1787 109.306 45.8733 108.865 45.564C109.284 44.912 109.317 44.0334 108.621 43.4787C108.664 43.4881 108.626 43.4533 108.423 43.3333C107.727 43.0307 107.806 43.092 108.045 43.216C107.348 43.0787 106.689 43.3907 106.264 43.868C104.934 43.0774 103.563 42.3493 102.171 41.656C97.811 39.484 92.9891 38.1307 88.1088 37.4987C87.8783 33.6614 87.6085 29.8253 87.283 25.9947C87.0484 29.7787 86.8843 33.5653 86.7528 37.3533C85.5121 37.2267 84.27 37.132 83.0333 37.096C70.4144 36.732 58.2931 41.6067 49.3056 49.9427L12.3396 15.728L47.9265 51.2787C45.0802 54.1374 42.5852 57.3573 40.5417 60.884C35.7767 69.108 33.6641 79.044 34.7258 88.448C31.2979 88.656 27.8726 88.8907 24.4514 89.172C27.9269 89.38 31.405 89.5334 34.8858 89.6574C35.6506 95.12 37.3442 100.343 39.9288 105.248C42.2462 109.647 45.4653 113.329 48.9286 116.873C45.8654 113.224 42.9716 109.507 40.92 105.191C38.5782 100.265 37.1978 95.0893 36.5442 89.7107C39.2657 89.8 41.9872 89.8773 44.7087 89.944C52.9857 90.1467 61.2682 90.26 69.5533 90.292C69.4232 92.1133 69.5425 93.9333 69.8951 95.7053C65.2928 97.7627 60.7082 99.856 56.1479 101.997C60.0966 100.491 64.0303 98.948 67.9492 97.3693C68.657 97.084 69.3649 96.7934 70.0727 96.508C70.5324 98.4187 71.2551 100.264 72.226 101.979C69.6876 104.553 67.1383 107.117 64.6053 109.697C52.6236 121.901 40.6706 134.131 28.8327 146.471C19.1508 156.564 9.52319 166.709 0 176.948C0.866484 176.133 1.73302 175.32 2.59679 174.504C13.2522 164.425 23.8331 154.269 34.3407 144.041C46.8539 131.863 59.2491 119.567 71.6402 107.269C72.4728 106.443 73.3026 105.612 74.1339 104.784C74.1678 104.825 74.2003 104.867 74.2342 104.908C67.141 114.297 61.1245 124.441 56.0829 135.099C48.1909 151.783 43.6131 170.109 42.093 188.423C40.577 206.685 42.3289 225.148 47.2661 242.819C49.7856 251.839 53.0644 260.749 57.3114 269.128C60.7461 275.903 64.6039 282.319 68.7818 288.672C68.7275 288.572 68.6733 288.472 68.619 288.371C67.362 286.016 66.0522 283.68 64.8602 281.293C56.7554 265.061 51.2378 247.632 48.812 229.7Z" fill="white"/>
</svg>
