<svg width="314" height="361" viewBox="0 0 314 361" fill="none" xmlns="http://www.w3.org/2000/svg">
<path d="M311.763 270.382L297.777 260.275L126.022 47.2617C125.816 47.007 125.572 46.787 125.298 46.6097L94.9667 26.935C92.808 25.5337 90.1014 25.6497 88.0742 27.231C86.047 28.811 85.3147 31.375 86.2083 33.763L98.0476 65.3524L75.1651 36.9723C55.0556 12.0323 21.4092 2.90302 7.87764 0.13501C5.97924 -0.252991 4.01846 0.204346 2.49838 1.38834C0.970171 2.58035 0.0697924 4.36438 0.0291124 6.28171C-0.25836 19.9484 1.22239 54.4004 21.1325 79.0937L44.0164 107.474L15.436 88.935C13.2759 87.535 10.5707 87.651 8.54344 89.231C6.51487 90.8123 5.78262 93.3763 6.67758 95.763L19.2463 129.296C19.3602 129.598 19.5216 129.879 19.7237 130.13L191.479 343.143L198.298 358.838C198.623 359.587 199.251 360.187 200.023 360.483C200.797 360.78 201.674 360.759 202.428 360.424C208.402 357.788 214.026 354.427 219.151 350.432L219.582 350.094C224.537 346.175 229.005 341.668 232.858 336.703C233.364 336.054 233.585 335.219 233.467 334.411C233.349 333.603 232.898 332.862 232.232 332.383L218.245 322.276L198.561 297.863L251.324 256.728L271.009 281.142L277.827 296.838C278.153 297.586 278.782 298.186 279.554 298.483C280.327 298.78 281.204 298.759 281.959 298.424C287.931 295.788 293.557 292.427 298.681 288.432L299.113 288.094C304.067 284.175 308.534 279.668 312.391 274.7C312.894 274.054 313.115 273.22 312.998 272.41C312.88 271.604 312.43 270.866 311.763 270.382Z" fill="#211C1D"/>
<path d="M22.5728 77.971C47.2967 108.634 198.225 295.818 198.225 295.818L249.376 255.942C249.376 255.942 100.026 70.7149 73.7252 38.0949C53.9086 13.5176 20.4859 4.55896 7.50357 1.9043C4.63563 1.31763 1.92771 3.43893 1.86805 6.31894C1.59278 19.4016 2.94877 53.6323 22.5728 77.971Z" fill="#211C1D"/>
<path d="M3.91016 7.92053C3.91016 7.92053 4.02949 9.28452 4.25323 11.8405C4.47968 14.3952 4.83088 18.1418 5.52516 22.8725C6.20316 27.6031 7.20795 33.3311 8.92464 39.7552C10.6386 46.1725 13.0293 53.3191 16.6891 60.6285C18.5224 64.2778 20.6758 67.9592 23.2264 71.5485C23.8624 72.4472 24.5295 73.3338 25.2156 74.2191C25.9058 75.0938 26.6272 75.9791 27.3527 76.8725C28.8023 78.6578 30.2735 80.4711 31.7665 82.3085C37.7207 89.6685 44.0003 97.4312 50.4955 105.46C53.7337 109.483 57.026 113.574 60.3577 117.714C63.6854 121.858 67.0523 126.052 70.4464 130.28C77.2345 138.736 84.1311 147.327 91.0278 155.918C104.799 173.115 118.571 190.312 131.483 206.435C144.377 222.571 156.411 237.631 166.726 250.54C187.317 276.387 201.045 293.619 201.045 293.619C201.045 293.619 187.113 276.547 166.215 250.939C155.785 238.119 143.617 223.163 130.58 207.139C117.561 191.102 103.672 173.994 89.7843 156.887C82.8497 148.326 75.9165 139.764 69.0917 131.336C65.6787 127.123 62.2927 122.943 58.9488 118.813C55.609 114.678 52.3099 110.594 49.065 106.577C42.5955 98.5258 36.3416 90.7445 30.4105 83.3645C28.9311 81.5178 27.472 79.6951 26.0347 77.9005C25.316 77.0031 24.6027 76.1151 23.8962 75.2085C23.202 74.2991 22.5267 73.3885 21.8826 72.4658C20.593 70.6245 19.4065 68.7618 18.3122 66.8951C17.2234 65.0245 16.2348 63.1458 15.3263 61.2805C13.5106 57.5471 12.019 53.8592 10.8054 50.2899C9.58908 46.7219 8.60463 43.2859 7.83171 40.0232C6.28316 33.4979 5.42616 27.7179 4.89054 22.9512C4.38204 18.1779 4.18001 14.4165 4.05526 11.8525C3.96034 9.28848 3.91016 7.92053 3.91016 7.92053Z" fill="white"/>
<path d="M7.96997 3.51367C7.96997 3.51367 9.31647 3.87634 11.84 4.55768C14.3554 5.26701 18.0437 6.32704 22.6636 7.91237C27.2726 9.52304 32.8119 11.6737 38.9329 14.6604C41.9934 16.1523 45.1772 17.887 48.4411 19.8737C51.705 21.859 55.0218 24.1377 58.3115 26.7377C59.9549 28.0377 61.593 29.4177 63.1998 30.891C64.8026 32.3697 66.3797 33.9364 67.9119 35.5963C68.6794 36.4243 69.4307 37.2817 70.1724 38.1577C70.9114 39.043 71.6301 39.9296 72.3556 40.8257C73.8092 42.615 75.2845 44.4337 76.7815 46.2764C82.752 53.6564 89.0479 61.4403 95.5621 69.4923C98.8084 73.5257 102.109 77.627 105.451 81.7777C108.787 85.9337 112.164 90.1404 115.567 94.379C122.374 102.859 129.29 111.472 136.206 120.087C150.015 137.331 163.825 154.575 176.77 170.742C189.7 186.922 201.768 202.023 212.112 214.967C232.76 240.886 246.526 258.164 246.526 258.164C246.526 258.164 232.555 241.044 211.6 215.366C201.142 202.511 188.94 187.514 175.869 171.446C162.813 155.364 148.887 138.21 134.961 121.056C128.009 112.471 121.056 103.887 114.213 95.4363C110.79 91.211 107.396 87.019 104.041 82.8764C100.693 78.731 97.3846 74.6364 94.1302 70.607C87.6431 62.535 81.373 54.7323 75.4255 47.3324C73.9421 45.4803 72.479 43.6523 71.0375 41.8523C70.3175 40.9523 69.6015 40.0564 68.891 39.1937C68.1709 38.3324 67.4428 37.4883 66.697 36.6723C63.7165 33.4017 60.557 30.4897 57.3541 27.8923C50.9375 22.703 44.3935 18.7644 38.4176 15.6457C32.4349 12.5204 26.9811 10.239 22.4412 8.50169C17.904 6.74702 14.2659 5.54837 11.7817 4.74303C9.29614 3.9417 7.96997 3.51367 7.96997 3.51367Z" fill="white"/>
<path d="M4.2356 5.22565C4.2356 5.22565 4.50137 5.44296 5.01394 5.86163C5.52922 6.27896 6.28723 6.90564 7.27304 7.7283C8.25072 8.55896 9.46026 9.57898 10.861 10.803C11.5621 11.415 12.3133 12.075 13.1079 12.7857C13.9039 13.495 14.7541 14.2443 15.6368 15.0523C17.4078 16.6643 19.3536 18.4657 21.45 20.447C23.5383 22.439 25.7797 24.611 28.1446 26.963C29.3202 28.1443 30.5366 29.3617 31.7651 30.6377C33.0004 31.907 34.2723 33.2123 35.5524 34.575C36.1952 35.255 36.8447 35.9443 37.5023 36.6416C38.1505 37.3483 38.8055 38.0643 39.4685 38.7883C40.1316 39.5137 40.8001 40.247 41.4781 40.9883C42.1453 41.7377 42.8206 42.4963 43.5026 43.263C44.879 44.7843 46.235 46.3803 47.6235 48.003C47.9707 48.4083 48.3192 48.815 48.669 49.2243C49.0134 49.639 49.3592 50.055 49.7077 50.4723C50.4006 51.3096 51.1017 52.1537 51.8081 53.0043C54.5947 56.4203 57.4776 59.951 60.4404 63.5803C61.9185 65.3963 63.4182 67.2376 64.9356 69.1003C66.4462 70.9696 67.9757 72.8617 69.5216 74.7737C72.6133 78.599 75.7714 82.5056 78.9824 86.4803C85.38 94.4483 91.9905 102.683 98.7068 111.05C105.405 119.431 112.211 127.944 119.016 136.459C132.608 153.502 146.201 170.544 158.943 186.522C171.658 202.52 183.525 217.452 193.697 230.251C203.844 243.07 212.302 253.751 218.221 261.228C224.127 268.715 227.502 272.994 227.502 272.994C227.502 272.994 224.035 268.787 217.967 261.426C211.914 254.052 203.265 243.52 192.888 230.883C182.533 218.226 170.454 203.459 157.512 187.636C144.598 171.794 130.821 154.895 117.047 137.995C110.168 129.538 103.289 121.082 96.5168 112.756C89.764 104.418 83.1182 96.2123 76.6867 88.2696C73.4838 84.2883 70.3352 80.3736 67.253 76.5416C65.7126 74.6256 64.1871 72.731 62.6819 70.8577C61.1822 68.9803 59.7014 67.1256 58.241 65.295C55.3202 61.6363 52.478 58.0763 49.7294 54.6336C46.9794 51.211 44.262 47.951 41.6151 44.8497C40.9534 44.075 40.2984 43.307 39.6503 42.5484C38.9926 41.7977 38.3417 41.055 37.699 40.3217C37.0549 39.5883 36.4175 38.863 35.7884 38.1484C35.1524 37.4377 34.5246 36.7363 33.9035 36.043C32.6736 34.6483 31.4505 33.311 30.2613 32.0097C29.0816 30.7003 27.9046 29.4563 26.7777 28.239C24.5254 25.8017 22.387 23.5457 20.3923 21.4763C18.4072 19.3977 16.5671 17.503 14.8883 15.8056C13.2177 14.1017 11.718 12.587 10.3986 11.283C9.08871 9.96967 7.96188 8.86432 7.04794 7.96698C6.13264 7.0723 5.43022 6.38565 4.95698 5.92435C4.48102 5.46301 4.2356 5.22565 4.2356 5.22565Z" fill="white"/>
<path d="M57.4558 49.775C82.2503 80.5243 233.604 268.236 233.604 268.236L241.117 262.38C241.117 262.38 91.345 76.6297 64.9681 43.9177C43.3629 17.1217 4.93117 3.71231 5.90614 4.31097C16.3189 10.7003 36.0663 23.247 57.4558 49.775Z" fill="white"/>
<path d="M216.069 324.495L44.0545 111.162L13.7249 91.487C11.4888 90.0363 8.66834 92.2349 9.59448 94.7056L22.1592 128.231L194.173 341.564L201.155 357.636C205.711 355.626 211.565 352.512 217.635 347.712C223.323 343.214 227.479 338.596 230.391 334.846C225.616 331.395 220.843 327.946 216.069 324.495Z" fill="white"/>
<path d="M201.811 355.966C207.016 353.562 211.929 350.568 216.431 347.059C216.566 346.952 216.702 346.846 216.839 346.739C221.181 343.304 225.128 339.391 228.587 335.092L215.316 325.502C215.225 325.436 215.144 325.359 215.073 325.271L43.1852 112.094L13.0251 92.5297C12.1816 91.9818 11.463 92.4484 11.2636 92.6044C11.0629 92.7604 10.4378 93.3431 10.7863 94.2737L23.2805 127.611L195.168 340.788C195.239 340.876 195.297 340.972 195.341 341.074L201.811 355.966ZM218.009 349.016C213.004 352.918 207.509 356.202 201.676 358.776C201.365 358.914 201.011 358.922 200.693 358.8C200.376 358.678 200.122 358.435 199.988 358.127L193.072 342.21L21.1638 129.007C21.0811 128.903 21.0146 128.787 20.9672 128.663L8.40247 95.1378C7.78821 93.4964 8.29128 91.7351 9.68524 90.6484C11.0792 89.5618 12.9397 89.4817 14.4245 90.4444L44.7541 110.119C44.8667 110.192 44.967 110.282 45.0497 110.386L216.958 323.588L231.143 333.839C231.417 334.038 231.599 334.336 231.648 334.668C231.696 335 231.607 335.336 231.399 335.603C227.631 340.458 223.268 344.859 218.431 348.684C218.29 348.796 218.15 348.907 218.009 349.016Z" fill="#211C1D"/>
<path d="M28.3806 123.382L10.3132 91.7722C9.55251 92.4629 9.16199 93.5522 9.59456 94.7056L22.1593 128.231L194.173 341.564L201.155 357.636L210.76 352.552L200.393 336.715L28.3806 123.382Z" fill="#211C1D"/>
<path d="M10.7268 93.8244C11.3207 95.1831 11.9242 96.5391 12.5059 97.903L14.2632 101.99L16.0138 106.079L17.7482 110.176L21.1843 118.38L24.5811 126.6L24.478 126.423C28.0972 130.84 31.7204 135.254 35.3111 139.692L46.1035 152.994L51.499 159.644L56.8729 166.312L67.6192 179.65L89.0833 206.346L99.8147 219.694L105.18 226.368L110.566 233.027L153.63 286.314C157.222 290.751 160.778 295.218 164.352 299.67L175.062 313.035C178.613 317.504 182.179 321.963 185.706 326.451C189.246 330.93 192.764 335.424 196.267 339.932L196.276 339.944C196.297 339.97 196.313 339.998 196.324 340.026L197.994 344.075L199.645 348.134L201.294 352.192L202.924 356.259L201.062 352.29L199.219 348.312L197.378 344.335L195.558 340.348L195.613 340.442C191.949 336.06 188.302 331.666 184.673 327.256C181.034 322.855 177.432 318.424 173.816 314.006L163.025 300.704C159.431 296.267 155.819 291.844 152.244 287.394L109.303 234.012L103.937 227.338L98.5509 220.679L87.7815 207.36L66.2415 180.723L55.4857 167.394L50.1091 160.728L44.7543 154.046L34.0446 140.68C30.4675 136.231 26.9242 131.754 23.3769 127.282L23.3688 127.272C23.3281 127.22 23.2956 127.163 23.2725 127.106L20.0697 118.811L16.9061 110.5L15.3399 106.34L13.7914 102.172L12.2482 98.0018C11.7302 96.6138 11.2326 95.2177 10.7268 93.8244Z" fill="white"/>
<path d="M11.9092 92.9031C13.1526 93.7124 14.4029 94.5138 15.6382 95.3351C16.8789 96.1511 18.1156 96.9697 19.3468 97.7977C20.5781 98.6257 21.8175 99.4418 23.0406 100.279L26.7221 102.778C27.952 103.606 29.167 104.455 30.3901 105.294L34.0527 107.815L41.3439 112.907C41.4157 112.956 41.4795 113.015 41.5324 113.079L41.5568 113.108L47.0147 119.712C48.8358 121.911 50.642 124.122 52.4455 126.335L63.2677 139.612L68.6659 146.262L74.0384 152.931L84.7806 166.271L106.208 192.995L116.938 206.346L122.302 213.02L127.689 219.678L149.25 246.299L160.035 259.606L170.794 272.932C174.389 277.368 177.941 281.838 181.515 286.29L192.185 299.686C195.715 304.172 199.272 308.638 202.765 313.152C204.518 315.404 206.276 317.654 208.008 319.922C209.747 322.186 211.493 324.443 213.213 326.722L213.041 326.571L216.466 328.804L219.876 331.06L223.278 333.33C224.413 334.086 225.535 334.862 226.664 335.626C225.464 334.975 224.256 334.335 223.063 333.674L219.476 331.696L215.9 329.703L212.338 327.688C212.283 327.656 212.235 327.616 212.196 327.571L212.167 327.538C210.303 325.371 208.465 323.184 206.62 321.004C204.769 318.828 202.942 316.632 201.112 314.44C197.438 310.067 193.827 305.643 190.191 301.24L179.359 287.97C175.766 283.532 172.15 279.114 168.579 274.66L157.836 261.32L147.119 247.96L125.676 221.247L120.312 214.572L114.926 207.914L104.154 194.598L82.5771 167.988L71.8186 154.662L66.4407 147.996L61.0872 141.312L50.4074 127.924C48.6283 125.692 46.8506 123.458 45.0892 121.214L39.7953 114.483L40.0082 114.684L32.915 109.33L29.3867 106.628C28.2124 105.726 27.0299 104.834 25.8624 103.922L22.3517 101.196C21.1788 100.292 20.0208 99.3671 18.8546 98.4538C17.6871 97.5405 16.5277 96.6177 15.3711 95.6924C14.209 94.7737 13.0618 93.8337 11.9092 92.9031Z" fill="#211C1D"/>
<path d="M38.1233 147.359C39.6298 144.127 41.9879 141.266 44.5955 138.828C47.5719 136.046 51.0107 133.703 54.7668 132.062C56.3859 131.354 58.1026 130.727 59.8532 130.419C57.327 132.803 54.4983 134.894 51.7579 137.031C48.6987 139.416 45.6518 141.819 42.5628 144.168C41.1146 145.27 39.6583 146.376 38.1233 147.359Z" fill="white"/>
<path d="M57.6145 171.532C59.121 168.3 61.4791 165.438 64.0867 163C67.0631 160.219 70.5019 157.876 74.258 156.234C75.8771 155.527 77.5938 154.899 79.3444 154.592C76.8182 156.976 73.9895 159.067 71.2491 161.204C68.1899 163.59 65.143 165.992 62.054 168.342C60.6058 169.443 59.1495 170.55 57.6145 171.532Z" fill="white"/>
<path d="M95.7031 218.77C97.2096 215.539 99.5677 212.676 102.175 210.239C105.152 207.458 108.591 205.115 112.347 203.472C113.966 202.764 115.682 202.138 117.433 201.831C114.907 204.215 112.078 206.306 109.338 208.442C106.279 210.828 103.232 213.23 100.143 215.579C98.6945 216.68 97.2381 217.787 95.7031 218.77Z" fill="white"/>
<path d="M192.926 339.346C195.454 336.966 198.283 334.875 201.021 332.736C204.079 330.348 207.121 327.942 210.212 325.594C211.661 324.494 213.118 323.387 214.654 322.407C214.052 323.783 213.211 325.079 212.324 326.294C211.139 327.916 209.787 329.412 208.331 330.802C205.402 333.596 201.952 335.942 198.236 337.6C196.534 338.36 194.759 338.982 192.926 339.346Z" fill="white"/>
<path d="M188.466 333.816C190.996 331.436 193.825 329.346 196.562 327.207C199.62 324.819 202.663 322.411 205.753 320.064C207.203 318.964 208.659 317.858 210.195 316.876C209.593 318.254 208.753 319.55 207.866 320.763C206.681 322.387 205.329 323.882 203.872 325.272C200.944 328.067 197.494 330.412 193.777 332.071C192.075 332.831 190.3 333.451 188.466 333.816Z" fill="white"/>
<path d="M184.007 328.287C186.537 325.907 189.365 323.816 192.104 321.678C195.162 319.29 198.204 316.882 201.295 314.535C202.744 313.434 204.201 312.328 205.737 311.347C205.135 312.724 204.294 314.02 203.407 315.234C202.222 316.856 200.87 318.352 199.414 319.743C196.485 322.538 193.035 324.883 189.319 326.542C187.617 327.302 185.842 327.922 184.007 328.287Z" fill="white"/>
<path d="M61.2241 132.507C57.2321 134.534 53.4203 136.947 49.892 139.68C46.2457 142.506 42.8856 145.684 39.878 149.148L37.947 147.527C41.0618 143.939 44.5535 140.638 48.3191 137.719C51.9748 134.887 55.9235 132.387 60.0593 130.288L61.2241 132.507Z" fill="#211C1D"/>
<path d="M80.7153 156.68C76.7233 158.707 72.9115 161.12 69.3832 163.854C65.741 166.682 62.3768 169.858 59.3692 173.322L57.4382 171.699C60.553 168.112 64.0447 164.812 67.8103 161.892C71.4661 159.06 75.4147 156.56 79.5505 154.462L80.7153 156.68Z" fill="#211C1D"/>
<path d="M118.804 203.919C114.812 205.944 111 208.359 107.472 211.092C103.839 213.899 100.465 217.096 97.4578 220.559L95.5269 218.938C98.5955 215.403 102.028 212.148 105.732 209.26C105.788 209.218 105.843 209.174 105.899 209.131C109.555 206.299 113.503 203.799 117.639 201.699L118.804 203.919Z" fill="#211C1D"/>
<path d="M206.182 333.84C202.401 336.788 198.317 339.392 194.04 341.586L192.866 339.371C197.063 337.219 201.066 334.659 204.769 331.754C208.36 328.938 211.698 325.776 214.692 322.356L216.618 323.984C213.521 327.523 210.067 330.794 206.353 333.707C206.296 333.751 206.239 333.796 206.182 333.84Z" fill="#211C1D"/>
<path d="M201.723 328.311C197.943 331.258 193.86 333.863 189.583 336.056L188.407 333.842C192.542 331.722 196.491 329.203 200.145 326.354C200.201 326.31 200.255 326.267 200.31 326.224C203.9 323.41 207.238 320.248 210.234 316.826L212.159 318.456C209.059 321.995 205.607 325.266 201.894 328.178C201.837 328.222 201.78 328.266 201.723 328.311Z" fill="#211C1D"/>
<path d="M197.265 322.78C193.483 325.73 189.399 328.335 185.123 330.526L183.949 328.311C188.082 326.192 192.031 323.674 195.686 320.824C195.742 320.78 195.796 320.738 195.852 320.695C199.443 317.879 202.781 314.718 205.775 311.296L207.701 312.926C204.604 316.464 201.15 319.735 197.436 322.647C197.379 322.692 197.322 322.736 197.265 322.78Z" fill="#211C1D"/>
<path d="M174.357 317.172L181.164 325.719C181.164 325.719 186.405 323.844 193.833 318.054C199.447 313.678 202.759 308.375 202.759 308.375L199.237 304.006L174.357 317.172Z" fill="#211C1D"/>
<path d="M295.599 262.495L123.585 49.1616L93.2556 29.4856C91.0196 28.0363 88.1991 30.2349 89.1252 32.7056L101.69 66.2296L273.704 279.564L280.686 295.636C285.242 293.626 291.095 290.511 297.165 285.711C302.853 281.214 307.01 276.595 309.921 272.846C305.147 269.395 300.374 265.946 295.599 262.495Z" fill="white"/>
<path d="M281.342 293.966C286.547 291.56 291.459 288.568 295.961 285.059C296.097 284.952 296.232 284.846 296.369 284.738C300.711 281.304 304.659 277.391 308.118 273.092L294.847 263.502C294.756 263.435 294.674 263.358 294.604 263.271L122.716 50.0938L92.5558 30.5284C91.7124 29.9818 90.9937 30.4485 90.7944 30.6045C90.5937 30.7605 89.9686 31.3418 90.3171 32.2738L102.811 65.6111L274.699 278.788C274.77 278.875 274.828 278.971 274.871 279.074L281.342 293.966ZM297.54 287.015C292.535 290.918 287.039 294.2 281.207 296.775C280.895 296.912 280.541 296.922 280.224 296.799C279.906 296.678 279.653 296.435 279.518 296.127L272.603 280.208L100.695 67.0058C100.612 66.9018 100.545 66.7858 100.498 66.6618L87.9332 33.1378C87.319 31.4965 87.822 29.7338 89.216 28.6471C90.61 27.5605 92.4704 27.4804 93.9552 28.4445L124.285 48.1191C124.397 48.1911 124.496 48.2818 124.58 48.3858L296.489 261.588L310.674 271.839C310.948 272.038 311.13 272.336 311.178 272.667C311.227 272.999 311.138 273.336 310.93 273.603C307.162 278.458 302.798 282.859 297.961 286.684C297.82 286.796 297.681 286.906 297.54 287.015Z" fill="#211C1D"/>
<path d="M107.911 61.3802L89.844 29.7709C89.0833 30.463 88.6928 31.5522 89.1253 32.7056L101.69 66.2296L273.704 279.564L280.686 295.636L290.291 290.551L279.924 274.715L107.911 61.3802Z" fill="#211C1D"/>
<path d="M90.2576 31.8231C90.8515 33.1831 91.4549 34.5377 92.0353 35.903L93.794 39.9898L95.5446 44.0791L97.2789 48.1751L100.715 56.3804L104.112 64.5991L104.009 64.4231C107.627 68.8404 111.251 73.2524 114.842 77.6924L125.634 90.9937L131.03 97.6444L136.404 104.311L147.15 117.65L168.614 144.346L179.345 157.694L184.711 164.368L190.096 171.027L233.161 224.314C236.753 228.75 240.308 233.218 243.883 237.668L254.593 251.034C258.144 255.504 261.71 259.962 265.237 264.45C268.776 268.93 272.295 273.424 275.798 277.931L275.807 277.943C275.828 277.968 275.844 277.998 275.855 278.026L277.525 282.075L279.176 286.134L280.824 290.191L282.454 294.259L280.593 290.29L278.75 286.311L276.908 282.334L275.087 278.347L275.144 278.442C271.48 274.059 267.833 269.666 264.204 265.255C260.564 260.855 256.963 256.424 253.346 252.006L242.555 238.703C238.962 234.266 235.35 229.844 231.775 225.392L188.832 172.012L183.466 165.338L178.082 158.679L167.312 145.36L145.772 118.723L135.016 105.394L129.64 98.7271L124.285 92.0444L113.575 78.6804C109.998 74.2297 106.455 69.7538 102.908 65.2818L102.898 65.2711C102.859 65.2204 102.826 65.1631 102.803 65.1057L99.6004 56.8098L96.4369 48.5004L94.8707 44.3391L93.3221 40.1724L91.779 36.0018C91.261 34.6138 90.7634 33.2164 90.2576 31.8231Z" fill="white"/>
<path d="M91.4399 30.9018C92.6834 31.7124 93.9336 32.5138 95.1689 33.3351C96.4097 34.1511 97.6463 34.9698 98.8776 35.7977C100.109 36.6244 101.348 37.4418 102.571 38.2778L106.253 40.7765C107.483 41.6058 108.698 42.4538 109.921 43.2924L113.583 45.8151L120.875 50.9058C120.947 50.9564 121.01 51.0151 121.063 51.0791L121.088 51.1084L126.545 57.7111C128.365 59.9111 130.173 62.1217 131.976 64.3338L142.798 77.6125L148.195 84.2617L153.569 90.9298L164.311 104.27L185.739 130.994L196.469 144.344L201.833 151.019L207.219 157.678L228.781 184.299L239.565 197.606L250.325 210.932C253.92 215.367 257.471 219.838 261.046 224.288L271.715 237.686C275.246 242.171 278.803 246.636 282.296 251.151C284.049 253.404 285.806 255.654 287.539 257.92C289.278 260.186 291.024 262.443 292.744 264.722L292.571 264.571L295.997 266.804L299.407 269.059L302.809 271.33C303.944 272.084 305.066 272.86 306.195 273.626C304.995 272.974 303.787 272.334 302.594 271.674L299.007 269.695L295.431 267.702L291.869 265.687C291.813 265.656 291.766 265.616 291.727 265.571L291.697 265.536C289.834 263.371 287.996 261.184 286.151 259.004C284.3 256.827 282.473 254.632 280.643 252.44C276.969 248.066 273.358 243.643 269.721 239.239L258.89 225.97C255.296 221.532 251.681 217.112 248.109 212.659L237.366 199.319L226.649 185.959L205.207 159.247L199.843 152.571L194.457 145.914L183.685 132.596L162.108 105.987L151.349 92.6604L145.971 85.9964L140.618 79.3125L129.938 65.9231C128.159 63.6911 126.381 61.4578 124.619 59.2125L119.326 52.4818L119.539 52.6845L112.446 47.3284L108.917 44.6284C107.743 43.7258 106.561 42.8325 105.393 41.9205L101.882 39.1965C100.71 38.2911 99.5515 37.3671 98.384 36.4538C97.2179 35.5405 96.0585 34.6178 94.9005 33.6924C93.7397 32.7724 92.5925 31.8338 91.4399 30.9018Z" fill="#211C1D"/>
<path d="M117.654 85.3577C119.161 82.127 121.519 79.2643 124.126 76.827C127.103 74.0457 130.541 71.703 134.298 70.0603C135.917 69.3523 137.632 68.7257 139.383 68.419C136.858 70.803 134.028 72.8937 131.289 75.0297C128.229 77.4163 125.181 79.8176 122.094 82.167C120.645 83.2683 119.189 84.375 117.654 85.3577Z" fill="white"/>
<path d="M137.145 109.531C138.652 106.3 141.01 103.438 143.617 101C146.594 98.219 150.033 95.8763 153.789 94.2337C155.408 93.5257 157.123 92.899 158.874 92.5923C156.349 94.9763 153.519 97.067 150.78 99.203C147.721 101.59 144.672 103.991 141.585 106.34C140.137 107.442 138.68 108.548 137.145 109.531Z" fill="white"/>
<path d="M175.234 156.77C176.74 153.538 179.098 150.676 181.706 148.239C184.682 145.458 188.121 143.114 191.877 141.472C193.496 140.764 195.213 140.138 196.962 139.83C194.438 142.214 191.609 144.304 188.868 146.442C185.809 148.827 182.762 151.23 179.673 153.579C178.225 154.68 176.769 155.787 175.234 156.77Z" fill="white"/>
<path d="M272.455 277.346C274.985 274.966 277.812 272.875 280.552 270.736C283.609 268.348 286.652 265.94 289.742 263.594C291.191 262.494 292.648 261.387 294.185 260.406C293.583 261.783 292.742 263.079 291.855 264.292C290.67 265.915 289.318 267.411 287.86 268.802C284.933 271.596 281.483 273.942 277.766 275.6C276.064 276.36 274.29 276.98 272.455 277.346Z" fill="white"/>
<path d="M267.997 271.816C270.527 269.436 273.354 267.344 276.093 265.207C279.151 262.819 282.194 260.411 285.284 258.064C286.732 256.963 288.19 255.858 289.726 254.876C289.124 256.254 288.284 257.55 287.397 258.763C286.212 260.386 284.86 261.882 283.402 263.272C280.475 266.067 277.025 268.412 273.308 270.071C271.606 270.83 269.831 271.451 267.997 271.816Z" fill="white"/>
<path d="M263.538 266.287C266.068 263.907 268.896 261.815 271.635 259.676C274.693 257.288 277.735 254.882 280.826 252.535C282.274 251.434 283.732 250.328 285.268 249.347C284.666 250.724 283.824 252.019 282.938 253.234C281.753 254.856 280.401 256.352 278.944 257.743C276.016 260.536 272.566 262.882 268.85 264.54C267.146 265.3 265.373 265.922 263.538 266.287Z" fill="white"/>
<path d="M140.755 70.5071C136.763 72.5338 132.951 74.9471 129.423 77.6804C125.787 80.5031 122.416 83.6844 119.409 87.1484L117.476 85.5257C120.592 81.9377 124.077 78.6497 127.85 75.7191C131.505 72.8871 135.454 70.3871 139.59 68.2871L140.755 70.5071Z" fill="#211C1D"/>
<path d="M160.246 94.6804C156.254 96.7071 152.442 99.1205 148.914 101.854C145.28 104.679 141.907 107.858 138.9 111.322L136.968 109.699C140.084 106.111 143.567 102.822 147.341 99.8924C150.997 97.0604 154.945 94.5604 159.081 92.4604L160.246 94.6804Z" fill="#211C1D"/>
<path d="M198.335 141.918C194.343 143.944 190.531 146.358 187.003 149.092C186.949 149.134 186.894 149.175 186.841 149.218C183.266 152.006 179.952 155.147 176.989 158.559L175.056 156.938C178.171 153.35 181.649 150.044 185.43 147.13C189.086 144.298 193.034 141.798 197.17 139.699L198.335 141.918Z" fill="#211C1D"/>
<path d="M285.713 271.839C281.932 274.787 277.848 277.392 273.571 279.584L272.397 277.37C276.594 275.219 280.59 272.663 284.3 269.754C287.89 266.938 291.229 263.775 294.223 260.355L296.147 261.984C293.051 265.523 289.598 268.794 285.883 271.706C285.827 271.751 285.77 271.795 285.713 271.839Z" fill="#211C1D"/>
<path d="M281.254 266.31C277.474 269.258 273.391 271.863 269.113 274.055L267.938 271.84C272.073 269.72 276.021 267.202 279.676 264.352C279.731 264.31 279.786 264.267 279.841 264.224C283.431 261.41 286.769 258.247 289.764 254.826L291.689 256.455C288.591 259.995 285.138 263.266 281.425 266.176C281.368 266.222 281.311 266.266 281.254 266.31Z" fill="#211C1D"/>
<path d="M276.796 260.78C273.014 263.728 268.929 266.334 264.654 268.526L263.48 266.311C267.613 264.192 271.561 261.674 275.217 258.823C275.273 258.78 275.327 258.738 275.383 258.694C278.973 255.879 282.312 252.716 285.306 249.296L287.23 250.926C284.134 254.464 280.681 257.735 276.967 260.647C276.91 260.691 276.853 260.736 276.796 260.78Z" fill="#211C1D"/>
<path d="M274.682 236.704L281.592 245.171C281.592 245.171 278.539 249.762 271.113 255.551C265.497 259.928 259.493 261.891 259.493 261.891L255.969 257.52L274.682 236.704Z" fill="#211C1D"/>
<path d="M295.834 210.34C295.624 210.104 295.407 209.863 295.205 209.612C293.245 207.183 289.313 203.36 283.516 198.254C275.103 190.842 267.754 190.21 262.851 189.787C262.09 189.722 261.371 189.66 260.727 189.572C258.637 189.286 255.553 189.051 250.84 188.692C244.196 188.186 234.156 187.419 220.177 185.964C202.026 184.074 194.325 176.727 189.228 171.864C188.214 170.898 187.258 169.983 186.289 169.159C180.406 164.134 139.871 128.075 134.515 123.251L133.593 122.108C121.709 107.37 93.2828 91.531 90.6047 90.3017C90.2765 90.151 89.9118 89.9737 89.4955 89.7723C85.3421 87.7563 78.3912 84.3831 72.8668 88.6897C67.3452 92.9937 69.0985 100.418 70.1481 104.859L70.1752 104.975C70.266 105.358 70.3487 105.712 70.4179 106.036C71.0254 108.883 80.2218 139.703 92.1112 154.447L93.093 155.666C97.1013 162.691 123.187 209.072 126.695 215.619C127.291 216.732 127.98 217.862 128.712 219.06C132.36 225.043 137.873 234.084 135.606 251.892C133.854 265.655 132.322 275.439 131.309 281.914C130.596 286.467 130.124 289.476 129.933 291.538C129.872 292.18 129.766 292.892 129.652 293.667C128.959 298.415 127.911 305.591 133.331 315.335C137.064 322.048 139.952 326.684 141.912 329.116C142.118 329.371 142.312 329.639 142.53 329.94C143.811 331.707 147.216 336.398 153.854 333.7C156.607 332.582 188.982 316.095 204.894 307.975L209.233 313.356C210.33 314.716 212.097 315.399 213.846 315.136L219.677 314.252L225.411 318.834C226.602 319.792 228.207 320.15 229.702 319.788C233.853 318.79 237.82 316.89 241.176 314.296L241.275 314.219C242.172 313.52 243.033 312.764 243.849 311.958C251.81 320.24 254.053 321.512 257.37 320.399C257.959 320.203 258.507 319.91 258.995 319.53C259.485 319.147 259.899 318.691 260.22 318.183C262.071 315.275 261.364 312.884 255.21 303.684C256.523 302.92 257.756 302.044 258.941 301.039C262.074 298.379 264.552 294.962 266.112 291.159C266.631 289.891 266.581 288.459 265.973 287.228L262.739 280.682L264.94 275.31C265.605 273.696 265.333 271.844 264.232 270.479L259.896 265.1C273.693 249.28 295.334 224.403 297.02 222.091C301.206 216.35 297.331 212.015 295.834 210.34Z" fill="white"/>
<path d="M293.8 212.172C293.549 211.891 293.287 211.599 293.043 211.296C291.183 208.988 287.359 205.279 281.676 200.274C273.947 193.464 267.421 192.902 262.651 192.491C261.825 192.42 261.043 192.354 260.347 192.258C258.347 191.984 255.293 191.751 250.671 191.4C244.006 190.891 233.935 190.123 219.887 188.66C200.788 186.671 192.681 178.938 187.308 173.811C186.323 172.871 185.392 171.982 184.482 171.206C178.481 166.082 137.305 129.451 132.49 125.104L131.431 123.794C119.86 109.442 92.0595 93.9631 89.4356 92.7578C89.0926 92.5991 88.7115 92.4151 88.2749 92.2031C84.4768 90.3604 78.7355 87.5738 74.5793 90.8138C70.4259 94.0524 71.8741 100.183 72.8328 104.242L72.8613 104.36C72.9562 104.766 73.0443 105.14 73.1162 105.48C73.7101 108.264 82.6909 138.402 94.2711 152.763L95.3898 154.15C98.7175 159.97 125.442 207.464 129.133 214.355C129.695 215.403 130.362 216.496 131.076 217.666C134.92 223.967 140.728 233.492 138.342 252.23C136.588 266.012 135.051 275.83 134.034 282.326C133.328 286.832 132.863 289.808 132.678 291.787C132.613 292.475 132.501 293.238 132.383 294.051C131.702 298.706 130.771 305.082 135.75 314.034C139.41 320.614 142.211 325.122 144.073 327.431C144.317 327.734 144.546 328.051 144.774 328.364C146.051 330.124 148.188 333.07 152.8 331.195C155.622 330.048 192.953 311.016 205.642 304.538L211.394 311.671C211.877 312.271 212.655 312.572 213.427 312.456L220.465 311.39L227.156 316.735C227.681 317.156 228.388 317.314 229.047 317.155C232.818 316.247 236.422 314.522 239.472 312.164L239.561 312.095C241.114 310.884 242.538 309.495 243.809 307.95C253.528 318.232 254.754 318.412 256.488 317.83C256.776 317.734 257.043 317.591 257.283 317.404C257.523 317.218 257.725 316.994 257.882 316.744C258.85 315.223 258.959 314.023 251.201 302.654C253.361 301.73 255.311 300.54 257.138 298.987C259.94 296.607 262.159 293.55 263.553 290.146C263.782 289.587 263.76 288.955 263.493 288.414L259.723 280.784L262.384 274.292C262.675 273.582 262.558 272.766 262.072 272.164L256.323 265.032C265.633 254.359 292.993 222.96 294.78 220.511C297.687 216.522 295.259 213.804 293.8 212.172Z" fill="#211C1D"/>
<path d="M130.619 126.951C135.351 131.23 176.891 168.174 182.745 173.172C188.599 178.171 196.163 188.808 219.608 191.25C243.052 193.692 255.199 194.183 259.981 194.838C264.764 195.492 271.49 194.796 279.908 202.212C285.68 207.298 289.291 210.835 290.969 212.915C292.645 214.994 294.647 216.222 292.627 218.992C290.607 221.763 251.952 266.04 251.952 266.04L246.313 270.438L130.619 126.951Z" fill="white"/>
<path d="M246.519 268.683L251.068 265.136C264.448 249.811 290.025 220.416 291.595 218.264C292.646 216.824 292.311 216.342 290.864 214.724C290.574 214.399 290.274 214.064 289.973 213.691C288.788 212.22 285.932 209.198 279.06 203.143C272.305 197.191 266.765 196.714 262.315 196.331C261.435 196.255 260.604 196.183 259.806 196.074C257.934 195.818 254.923 195.588 250.367 195.242C243.677 194.731 233.565 193.959 219.473 192.492C199.028 190.363 190.337 182.071 184.588 176.584C183.638 175.679 182.744 174.824 181.912 174.115C177.634 170.462 155.394 150.722 141.257 138.135L246.519 268.683ZM252.742 267.019L247.102 271.416C246.553 271.844 245.754 271.754 245.317 271.214L129.624 127.727C129.211 127.216 129.268 126.479 129.754 126.036C130.236 125.592 130.99 125.59 131.479 126.031C135.91 130.038 177.558 167.088 183.577 172.23C184.462 172.984 185.382 173.862 186.356 174.792C191.856 180.039 200.167 187.97 219.742 190.008C233.797 191.472 243.887 192.242 250.564 192.751C255.166 193.102 258.206 193.334 260.156 193.6C260.89 193.7 261.69 193.77 262.536 193.843C267.108 194.236 273.369 194.775 280.755 201.283C286.38 206.238 290.151 209.891 291.964 212.139C292.224 212.463 292.504 212.774 292.772 213.075C294.18 214.648 295.93 216.607 293.659 219.72C291.63 222.503 254.496 265.044 252.917 266.854C252.864 266.915 252.805 266.97 252.742 267.019Z" fill="#211C1D"/>
<path d="M285.398 208.891C276.979 201.474 264.089 200.727 259.307 200.072C254.525 199.419 242.378 198.927 218.932 196.486C195.489 194.044 187.923 183.406 182.07 178.407C178.647 175.484 153.901 150.327 132.993 129.08C143.125 138.14 177.462 168.662 182.745 173.172C188.599 178.171 196.162 188.808 219.608 191.25C243.052 193.692 255.199 194.183 259.981 194.838C264.764 195.492 271.49 194.796 279.908 202.212C285.68 207.298 289.291 210.835 290.969 212.915C291.987 214.178 293.125 215.127 293.408 216.299C291.459 214.356 288.808 211.896 285.398 208.891Z" fill="#211C1D"/>
<path d="M263.282 229.764L264.857 228.451L287.738 209.363C288.594 210.248 289.332 211.04 289.953 211.739L267.9 231.794L266.293 233.255L237.469 259.468L233.531 254.584L263.282 229.764Z" fill="#211C1D"/>
<path d="M273.448 241.11C273.448 241.11 273.155 240.791 272.643 240.234C272.139 239.671 271.407 238.876 270.55 237.904C270.121 237.418 269.658 236.89 269.167 236.332C268.677 235.774 268.16 235.184 267.626 234.575C266.564 233.351 265.44 232.038 264.322 230.718C263.766 230.056 263.208 229.395 262.661 228.744C262.117 228.09 261.581 227.444 261.062 226.822C260.023 225.576 259.085 224.387 258.264 223.38C257.443 222.376 256.788 221.512 256.316 220.92C255.852 220.32 255.588 219.978 255.588 219.978C255.588 219.978 255.91 220.268 256.476 220.778C257.032 221.295 257.845 222.016 258.785 222.915C259.728 223.811 260.845 224.84 262.01 225.974C262.593 226.539 263.195 227.123 263.806 227.716C264.415 228.314 265.034 228.92 265.652 229.527C266.883 230.744 268.109 231.967 269.249 233.12C269.818 233.7 270.365 234.26 270.886 234.792C271.405 235.324 271.896 235.827 272.349 236.292C273.254 237.222 273.99 238.012 274.513 238.559C275.03 239.111 275.326 239.427 275.326 239.427L273.448 241.11Z" fill="#211C1D"/>
<path d="M206.159 301.74L213.096 310.344L221.087 309.135L228.53 315.08C230.649 314.57 234.374 313.387 238.129 310.484C241.975 307.514 244.039 304.138 245.034 302.214C246.988 301.914 251.498 300.955 255.718 297.371C259.165 294.442 260.808 291.127 261.538 289.347C260.142 286.519 258.746 283.692 257.349 280.864L260.369 273.491L253.432 264.887L206.159 301.74Z" fill="#211C1D"/>
<path d="M244.542 301.602C244.647 301.519 244.775 301.463 244.912 301.442C247.528 301.042 251.499 299.926 255.198 296.78C257.556 294.776 259.443 292.222 260.669 289.372L256.634 281.206C256.537 281.007 256.529 280.778 256.613 280.572L259.46 273.62L253.304 265.984L207.273 301.867L213.431 309.504L220.966 308.363C221.187 308.33 221.412 308.39 221.587 308.528L228.721 314.227C231.946 313.395 235.021 311.894 237.638 309.871L237.718 309.81C240.457 307.675 242.742 304.926 244.326 301.859C244.379 301.758 244.452 301.671 244.542 301.602ZM255.527 298.539C251.941 301.334 248.193 302.466 245.556 302.92C243.877 306.043 241.515 308.842 238.705 311.032L238.62 311.099C235.724 313.338 232.3 314.976 228.718 315.838C228.477 315.896 228.222 315.84 228.03 315.686L220.859 309.959L213.217 311.116C212.935 311.159 212.651 311.05 212.474 310.83L205.536 302.226C205.264 301.888 205.322 301.398 205.665 301.13L252.939 264.276C253.282 264.008 253.781 264.064 254.054 264.403L260.991 273.006C261.169 273.226 261.212 273.523 261.105 273.783L258.217 280.835L262.252 289.006C262.35 289.204 262.358 289.434 262.274 289.639C260.96 292.844 258.873 295.722 256.236 297.962C256 298.162 255.764 298.354 255.527 298.539Z" fill="#211C1D"/>
<path d="M244.245 267.899C210.375 225.892 137.837 135.931 129.355 125.411C118.243 111.63 91.3179 96.4952 88.3157 95.1178C85.3135 93.7392 79.461 90.3338 76.2256 92.8551C72.9915 95.3765 75.0296 101.756 75.7089 104.944C76.3896 108.134 85.2348 137.363 96.3473 151.144C103.977 160.607 211.179 293.56 211.179 293.56L206.159 301.74L253.432 264.887L244.245 267.899Z" fill="white"/>
<path d="M210.876 296.47L246.991 268.315L244.646 269.084C244.139 269.25 243.582 269.087 243.25 268.675L128.361 126.187C117.226 112.378 90.3199 97.4151 87.7788 96.2498C87.4059 96.0778 86.9896 95.8764 86.5407 95.6591C83.8057 94.3311 79.2265 92.1097 77.0148 93.8337C74.8046 95.5577 75.9599 100.448 76.6501 103.371C76.7626 103.85 76.8684 104.294 76.9525 104.688C77.5288 107.388 86.2099 136.562 97.3426 150.368L212.173 292.784C212.502 293.192 212.539 293.759 212.265 294.204L210.876 296.47ZM254.221 265.866L206.948 302.719C206.467 303.095 205.781 303.078 205.32 302.679C204.859 302.279 204.754 301.614 205.071 301.096L209.636 293.656L95.352 151.92C83.9332 137.759 75.0541 107.958 74.4656 105.202C74.3856 104.822 74.2839 104.395 74.1754 103.935C73.2953 100.211 71.9665 94.5818 75.4365 91.8764C78.9078 89.1698 84.1786 91.7271 87.6649 93.4191C88.0961 93.6284 88.4948 93.8218 88.8527 93.9857C91.4468 95.1764 118.929 110.471 130.35 124.636L244.687 266.438L253.03 263.703C253.616 263.511 254.256 263.76 254.549 264.292C254.843 264.826 254.705 265.49 254.221 265.866Z" fill="#211C1D"/>
<path d="M110.665 140.712L110.618 140.75C109.532 141.596 107.953 141.416 107.092 140.348L106.824 140.016C105.963 138.948 106.146 137.396 107.232 136.55L107.279 136.512C108.365 135.666 109.944 135.846 110.805 136.914L111.073 137.246C111.934 138.314 111.751 139.866 110.665 140.712Z" fill="#211C1D"/>
<path d="M115.944 136.598L115.897 136.635C114.811 137.482 113.232 137.302 112.371 136.234L112.103 135.902C111.242 134.834 111.423 133.282 112.51 132.435L112.558 132.398C113.645 131.551 115.223 131.73 116.084 132.798L116.351 133.131C117.212 134.199 117.03 135.751 115.944 136.598Z" fill="#211C1D"/>
<path d="M94.278 98.4044C91.2392 96.6271 89.0533 95.4565 88.3157 95.1178C85.3135 93.7391 79.461 90.3338 76.2256 92.8551C72.9915 95.3764 75.0296 101.756 75.7089 104.944C75.8771 105.728 76.5374 108.088 77.6046 111.403C77.6046 111.403 78.9566 109.88 80.8943 107.996L81.2021 108.378C81.5357 108.79 82.1445 108.859 82.5649 108.532L90.3049 102.499C90.7239 102.171 90.7944 101.572 90.4622 101.159L90.1544 100.778C92.4623 99.3511 94.278 98.4044 94.278 98.4044Z" fill="#211C1D"/>
<path d="M82.192 122.314L80.2678 121.219C82.8659 116.802 86.2519 112.976 90.3402 109.842C94.2482 106.846 98.6403 104.608 103.39 103.194L104.034 105.286C99.5461 106.622 95.3994 108.735 91.707 111.566C87.8479 114.519 84.6464 118.14 82.192 122.314Z" fill="#211C1D"/>
<path d="M94.6562 108.231L91.9401 104.863C91.6079 104.451 90.9977 104.382 90.5787 104.708L84.8265 109.192C84.4062 109.52 84.3357 110.119 84.6693 110.532L87.3731 113.886C88.4525 112.82 89.662 111.747 91.0235 110.704C92.2493 109.763 93.4697 108.944 94.6562 108.231Z" fill="#211C1D"/>
<path d="M89.9148 108.279C90.2512 108.696 90.1807 109.303 89.7548 109.634C89.3303 109.964 88.7131 109.895 88.3767 109.478C88.0404 109.059 88.1109 108.452 88.5354 108.122C88.9613 107.791 89.5785 107.86 89.9148 108.279Z" fill="white"/>
<path d="M91.9882 106.662C92.3246 107.079 92.2541 107.686 91.8295 108.018C91.4036 108.348 90.7865 108.278 90.4501 107.86C90.1138 107.443 90.1843 106.836 90.6102 106.506C91.0347 106.175 91.6518 106.244 91.9882 106.662Z" fill="white"/>
<path d="M87.8212 109.911C88.1576 110.328 88.0857 110.935 87.6611 111.266C87.2366 111.598 86.6195 111.527 86.2831 111.11C85.9454 110.692 86.0172 110.086 86.4418 109.755C86.8663 109.423 87.4835 109.494 87.8212 109.911Z" fill="white"/>
<path d="M205.036 250.82L203.294 252.178L113.823 141.216L115.566 139.858L205.036 250.82Z" fill="#211C1D"/>
<path d="M213.518 304.452L225.006 301.623L220.631 291.858L212.99 297.619L213.518 304.452ZM226.606 302.767C226.518 302.835 226.416 302.886 226.305 302.912L212.99 306.191C212.763 306.247 212.523 306.202 212.333 306.067C212.143 305.932 212.024 305.723 212.006 305.494L211.374 297.316C211.354 297.052 211.476 296.791 211.683 296.638L220.466 290.015C220.66 289.868 220.911 289.819 221.147 289.878C221.383 289.938 221.578 290.1 221.676 290.319L226.839 301.84C226.933 302.051 226.927 302.292 226.826 302.498C226.773 302.604 226.697 302.695 226.606 302.767Z" fill="#211C1D"/>
<path d="M211.095 250.85C210.506 248.919 211.175 246.831 212.782 245.579L218.603 241.04C220.345 239.682 224.141 239.114 228.126 240.788C232.11 242.463 239.873 248.072 246.528 256.324C253.182 264.578 253.432 264.887 253.432 264.887L233.154 280.695C233.154 280.695 216.683 260.267 214.02 256.964C212.651 255.267 211.698 252.823 211.095 250.85Z" fill="white"/>
<path d="M233.36 278.942L251.649 264.684L245.533 257.1C238.699 248.626 231.081 243.388 227.627 241.936C224.196 240.495 220.824 240.903 219.392 242.019L213.571 246.558C212.364 247.498 211.869 249.042 212.312 250.49C213.066 252.96 214.001 254.931 215.015 256.188L233.36 278.942ZM254.221 265.866L233.943 281.674C233.394 282.103 232.595 282.012 232.159 281.471L213.024 257.74C211.794 256.215 210.737 254.018 209.878 251.208C209.135 248.775 209.965 246.18 211.992 244.6L217.815 240.062C219.808 238.507 224.04 237.712 228.625 239.64C233.189 241.559 241.146 247.639 247.524 255.548L254.428 264.111C254.864 264.652 254.771 265.438 254.221 265.866Z" fill="#211C1D"/>
<path d="M225.94 289.11C227.402 287.442 229.131 286.024 230.88 284.66C232.631 283.295 234.427 281.962 236.414 280.944C234.954 282.614 233.222 284.03 231.473 285.394C229.722 286.758 227.924 288.09 225.94 289.11C227.909 288.098 227.391 287.455 225.94 289.11Z" fill="white"/>
<path d="M227.802 292.494C229.433 290.695 231.357 289.124 233.271 287.626C235.181 286.13 237.19 284.646 239.34 283.499C237.725 285.283 235.82 286.84 233.926 288.327C232 289.84 229.972 291.334 227.802 292.494C229.012 291.162 228.605 292.064 227.802 292.494Z" fill="white"/>
<path d="M229.664 295.879C231.074 294.367 232.673 293.034 234.269 291.718C235.867 290.399 237.526 289.148 239.24 287.976C240.224 287.302 241.219 286.632 242.268 286.054C240.871 287.554 239.288 288.874 237.709 290.18C236.088 291.52 234.406 292.788 232.666 293.975C231.688 294.642 230.701 295.304 229.664 295.879C231.002 294.444 230.537 295.396 229.664 295.879Z" fill="white"/>
<path d="M231.527 299.264C233.069 297.652 234.792 296.219 236.518 294.802C238.285 293.351 240.113 291.968 241.998 290.668C243.041 289.95 244.092 289.235 245.194 288.608C243.655 290.223 241.929 291.655 240.205 293.071C238.442 294.52 236.62 295.899 234.738 297.195C233.69 297.916 232.635 298.635 231.527 299.264C233.008 297.715 232.453 298.738 231.527 299.264Z" fill="white"/>
<path d="M233.388 302.65C235.081 300.928 236.948 299.376 238.816 297.846C240.696 296.306 242.636 294.838 244.634 293.446C245.771 292.652 246.923 291.867 248.121 291.164C246.429 292.887 244.562 294.439 242.692 295.971C240.814 297.508 238.873 298.974 236.88 300.363C235.74 301.158 234.588 301.944 233.388 302.65C234.964 301.047 234.248 302.144 233.388 302.65Z" fill="white"/>
<path d="M213.755 296.643C215.095 295.722 216.635 295.124 218.168 294.588C219.597 294.088 221.069 293.644 222.588 293.524C221.25 294.447 219.708 295.044 218.176 295.579C216.746 296.078 215.274 296.52 213.755 296.643C215.31 296.518 215.034 295.764 213.755 296.643Z" fill="white"/>
<path d="M214.128 299.051C215.622 298.076 217.308 297.427 218.989 296.838C220.568 296.284 222.185 295.782 223.859 295.615C222.366 296.594 220.677 297.242 218.996 297.83C217.419 298.38 215.8 298.882 214.128 299.051C215.836 298.879 215.559 298.116 214.128 299.051Z" fill="white"/>
<path d="M214.5 301.459C216.131 300.438 217.948 299.743 219.761 299.104C221.503 298.492 223.285 297.928 225.129 297.707C223.501 298.732 221.681 299.424 219.868 300.062C218.125 300.674 216.344 301.235 214.5 301.459C216.363 301.234 216.082 300.467 214.5 301.459Z" fill="white"/>
<path d="M214.872 303.868C216.655 302.792 218.62 302.044 220.584 301.354C222.475 300.688 224.404 300.07 226.4 299.798C224.618 300.876 222.652 301.622 220.688 302.312C218.797 302.976 216.868 303.594 214.872 303.868C216.889 303.591 216.608 302.82 214.872 303.868Z" fill="white"/>
<path d="M215.245 306.276C217.197 305.136 219.328 304.334 221.46 303.584C223.483 302.874 225.54 302.21 227.67 301.89C225.72 303.031 223.587 303.832 221.456 304.58C219.433 305.291 217.374 305.952 215.245 306.276C217.414 305.946 217.132 305.175 215.245 306.276Z" fill="white"/>
<path d="M246.253 271.308C245.788 272.735 245.011 274.043 244.192 275.298C243.313 276.643 242.368 277.979 241.15 279.054C241.613 277.626 242.391 276.318 243.212 275.064C244.092 273.719 245.038 272.384 246.253 271.308C245.777 272.768 245.094 272.335 246.253 271.308Z" fill="white"/>
<path d="M248.553 272.214C248.002 273.776 247.139 275.212 246.233 276.596C245.266 278.072 244.241 279.542 242.931 280.747C243.48 279.184 244.344 277.748 245.251 276.364C246.219 274.89 247.246 273.42 248.553 272.214C247.99 273.811 247.3 273.37 248.553 272.214Z" fill="white"/>
<path d="M250.853 273.119C250.213 274.834 249.247 276.411 248.244 277.94C247.2 279.531 246.097 281.112 244.713 282.44C245.35 280.724 246.317 279.148 247.32 277.62C248.366 276.028 249.469 274.45 250.853 273.119C250.206 274.852 249.51 274.411 250.853 273.119Z" fill="white"/>
<path d="M253.152 274.026C252.426 275.874 251.375 277.58 250.285 279.239C249.154 280.962 247.968 282.674 246.493 284.134C247.219 282.284 248.271 280.579 249.361 278.921C250.493 277.198 251.68 275.487 253.152 274.026C252.418 275.892 251.719 275.448 253.152 274.026Z" fill="white"/>
<path d="M255.452 274.931C254.645 276.896 253.521 278.716 252.356 280.491C251.129 282.36 249.85 284.22 248.275 285.827C249.077 283.862 250.204 282.042 251.369 280.267C252.598 278.398 253.878 276.54 255.452 274.931C254.63 276.932 253.931 276.487 255.452 274.931Z" fill="white"/>
<path d="M228.247 313.906C230.64 312.8 232.946 311.578 235.115 310.082C237.275 308.591 239.237 306.842 241.021 304.93C241.897 303.991 242.71 303.002 243.514 302.003C241.251 306.782 237.013 310.622 232.11 312.703C230.864 313.232 229.574 313.632 228.247 313.906Z" fill="white"/>
<path d="M245.149 300.73C247.543 299.623 249.849 298.4 252.017 296.906C254.177 295.414 256.141 293.664 257.924 291.754C258.8 290.814 259.612 289.824 260.416 288.827C258.153 293.604 253.916 297.444 249.012 299.526C247.766 300.055 246.477 300.455 245.149 300.73Z" fill="white"/>
<path d="M204.152 251.51C203.166 252.278 204.69 258.46 216.624 273.262C225.403 284.148 253.843 315.964 255.637 315.363C256.643 313.783 231.623 279.299 222.846 268.412C210.91 253.611 205.136 250.742 204.152 251.51Z" fill="white"/>
<path d="M205.219 252.835C205.61 254.872 208.228 260.836 217.62 272.486C225.036 281.683 243.264 302.099 251.714 310.498C245.325 300.492 229.265 278.386 221.85 269.188C212.457 257.539 207.149 253.672 205.219 252.835ZM256.426 316.342C256.313 316.43 256.186 316.499 256.047 316.546C255.005 316.895 254.02 317.224 237.805 299.455C229.437 290.284 220.111 279.595 215.63 274.038C205.378 261.323 200.792 252.535 203.363 250.531C203.814 250.179 205.188 249.108 210.198 253.158C213.892 256.143 218.61 261.15 223.841 267.636C228.321 273.195 236.78 284.56 243.95 294.663C257.849 314.24 257.298 315.107 256.715 316.026C256.636 316.147 256.538 316.254 256.426 316.342Z" fill="#211C1D"/>
<path d="M97.5962 152.694C100.754 158.202 127.862 206.395 131.477 213.139C135.091 219.884 143.9 229.552 140.971 252.554C138.042 275.556 135.758 287.298 135.315 292.024C134.873 296.752 132.65 303.034 138.074 312.784C141.794 319.47 144.472 323.734 146.149 325.814C147.825 327.892 148.584 330.09 151.789 328.787C154.993 327.484 207.652 300.578 207.652 300.578L213.291 296.18L97.5962 152.694Z" fill="white"/>
<path d="M206.958 299.524L211.507 295.978L106.245 165.431C115.482 181.831 129.952 207.615 132.6 212.558C133.114 213.515 133.755 214.567 134.436 215.682C138.557 222.438 144.785 232.648 142.232 252.708C140.47 266.534 138.928 276.391 137.907 282.912C137.213 287.354 136.753 290.287 136.58 292.139C136.507 292.927 136.387 293.739 136.263 294.599C135.627 298.947 134.835 304.359 139.189 312.184C143.615 320.143 145.958 323.567 147.144 325.038C147.445 325.411 147.709 325.775 147.963 326.126C149.235 327.88 149.638 328.311 151.303 327.634C153.793 326.622 188.732 308.838 206.958 299.524ZM214.081 297.159L208.441 301.557C208.377 301.606 208.31 301.648 208.238 301.686C206.086 302.786 155.492 328.634 152.274 329.942C148.674 331.406 147.134 329.283 145.896 327.576C145.66 327.251 145.414 326.913 145.154 326.59C143.34 324.339 140.583 319.896 136.96 313.383C132.2 304.827 133.095 298.71 133.747 294.244C133.869 293.416 133.983 292.635 134.051 291.911C134.231 289.983 134.695 287.019 135.397 282.532C136.416 276.024 137.955 266.188 139.711 252.399C142.156 233.194 136.199 223.428 132.257 216.967C131.559 215.822 130.9 214.74 130.353 213.722C126.625 206.767 99.4417 158.457 96.4897 153.307C96.1643 152.739 96.3406 152.018 96.8884 151.658C97.4376 151.294 98.1793 151.407 98.5915 151.918L214.287 295.404C214.722 295.946 214.63 296.731 214.081 297.159Z" fill="#211C1D"/>
<path d="M144.092 319.744C139.305 309.035 141.788 299.258 142.231 294.53C142.674 289.802 145.352 278.55 148.282 255.548C151.211 232.547 141.425 219.656 137.81 212.911C135.697 208.968 115.433 180.315 99.1636 155.454C105.824 167.219 127.966 207.188 131.477 213.139C135.433 219.844 143.899 229.552 140.97 252.554C138.041 275.556 135.758 287.298 135.315 292.024C134.872 296.752 132.65 303.034 138.074 312.784C141.793 319.47 144.472 323.734 146.149 325.814C147.167 327.076 147.848 328.382 148.942 328.922C147.463 326.612 145.935 323.868 144.092 319.744Z" fill="#211C1D"/>
<path d="M178.275 312.779C192.208 305.704 206.073 298.62 206.073 298.62L211.713 294.223L205.198 286.142L173.787 307.015L178.275 312.779Z" fill="#211C1D"/>
<path d="M175.969 316.883C175.969 316.883 175.723 316.53 175.294 315.908C174.872 315.283 174.256 314.398 173.543 313.319C173.186 312.779 172.8 312.195 172.39 311.576C171.984 310.958 171.554 310.304 171.11 309.63C170.228 308.274 169.296 306.822 168.373 305.364C167.913 304.635 167.453 303.904 167 303.186C166.552 302.464 166.111 301.754 165.684 301.067C164.827 299.694 164.062 298.39 163.389 297.283C162.715 296.178 162.187 295.235 161.8 294.584C161.426 293.927 161.21 293.552 161.21 293.552C161.21 293.552 161.49 293.883 161.979 294.464C162.458 295.051 163.163 295.875 163.971 296.891C164.779 297.906 165.743 299.075 166.74 300.354C167.239 300.992 167.754 301.652 168.278 302.323C168.798 302.996 169.326 303.68 169.855 304.364C170.906 305.735 171.95 307.111 172.919 308.407C173.402 309.056 173.867 309.686 174.309 310.282C174.749 310.879 175.165 311.443 175.55 311.964C176.317 313.006 176.936 313.888 177.379 314.5C177.814 315.116 178.063 315.47 178.063 315.47L175.969 316.883Z" fill="#211C1D"/>
<path d="M159.392 316.394L159.252 318.278C159.299 319.591 159.548 320.839 160.043 321.998C163.822 320.099 168.364 317.804 173.101 315.404L169.433 309.72L159.392 316.394Z" fill="#211C1D"/>
<path d="M165.676 303.896L164.602 302.231C163.845 303.623 163.11 305.047 162.436 306.478L165.676 303.896Z" fill="#211C1D"/>
<path d="M163.979 256.464C170.645 266.408 177.123 277.959 170.651 291.372C169.723 293.295 168.359 295.618 166.895 298.16L169.335 301.296L199.582 279.178L97.5962 152.694C102.616 160.354 157.637 247.007 163.979 256.464Z" fill="#211C1D"/>
<path d="M169.147 303.151L167.487 304.359L143.368 321.912C144.05 322.932 144.666 323.819 145.216 324.574L170.103 308.035L171.916 306.83L204.446 285.211L200.508 280.327L169.147 303.151Z" fill="#211C1D"/>
<path d="M98.8532 137.255L96.9927 140.236C96.8937 140.395 96.769 140.531 96.6252 140.643C96.3744 140.839 96.0639 140.959 95.7344 140.978C95.2177 141.008 94.7174 140.79 94.3946 140.39L90.6792 135.782C90.1083 135.074 90.2697 133.7 90.37 133.368L92.5952 126.083C92.625 125.988 92.6644 125.899 92.7105 125.815C90.6304 121.926 88.572 117.872 86.6342 113.918C86.4742 113.591 86.9475 113.234 86.7888 112.908C86.4729 112.26 85.5304 111.647 85.2213 111.007C81.6753 103.636 78.6515 96.8578 76.8209 92.4738C76.6148 92.5818 76.4154 92.7071 76.2256 92.8551C72.9915 95.3765 75.0296 101.756 75.7089 104.944C76.3896 108.134 85.2348 137.363 96.3473 151.144C103.977 160.607 211.179 293.56 211.179 293.56L206.159 301.74L214.292 295.4L219.311 287.219C219.311 287.219 112.109 154.267 104.481 144.804C102.79 142.708 100.947 140 99.0349 136.904C98.9833 137.024 98.9237 137.142 98.8532 137.255Z" fill="#211C1D"/>
<path d="M108.37 149.157C106.497 150.19 104.659 151.271 102.863 152.426C104.331 150.862 105.858 149.362 107.431 147.898C107.743 148.318 108.056 148.737 108.37 149.157Z" fill="white"/>
<path d="M131.534 177.886C129.663 178.919 127.824 180 126.027 181.155C127.496 179.591 129.023 178.09 130.596 176.627C130.909 177.047 131.221 177.466 131.534 177.886Z" fill="white"/>
<path d="M154.63 206.528C152.757 207.563 150.92 208.643 149.123 209.798C150.591 208.234 152.118 206.734 153.691 205.27C154.003 205.69 154.316 206.11 154.63 206.528Z" fill="white"/>
<path d="M177.726 235.174C175.854 236.207 174.016 237.287 172.218 238.443C173.688 236.879 175.215 235.378 176.787 233.914C177.1 234.334 177.413 234.754 177.726 235.174Z" fill="white"/>
<path d="M99.988 155.634C100.392 154.603 100.993 153.628 101.587 152.695C102.352 151.494 103.202 150.343 104.102 149.236C105.927 146.991 107.952 144.922 110.092 142.964C114.457 138.972 119.424 135.504 124.736 132.847C126.167 132.132 127.648 131.49 129.158 130.955C130.395 130.516 131.689 130.078 132.997 129.9C130.757 130.944 128.619 132.202 126.532 133.513C124.086 135.047 121.704 136.682 119.375 138.382C114.649 141.833 110.108 145.532 105.832 149.511C103.769 151.431 101.758 153.446 99.988 155.634Z" fill="#211C1D"/>
<path d="M123.101 184.298C123.504 183.267 124.106 182.294 124.7 181.36C125.465 180.158 126.315 179.008 127.214 177.902C129.04 175.655 131.065 173.587 133.205 171.628C137.568 167.636 142.537 164.17 147.849 161.511C149.279 160.796 150.761 160.155 152.27 159.619C153.507 159.182 154.802 158.743 156.109 158.566C153.87 159.61 151.732 160.867 149.645 162.176C147.199 163.712 144.817 165.346 142.488 167.047C137.762 170.496 133.22 174.196 128.944 178.176C126.882 180.096 124.871 182.111 123.101 184.298Z" fill="#211C1D"/>
<path d="M146.213 212.963C146.617 211.931 147.219 210.958 147.813 210.024C148.578 208.823 149.427 207.672 150.327 206.566C152.154 204.319 154.178 202.251 156.318 200.294C160.681 196.3 165.648 192.834 170.961 190.176C172.392 189.46 173.873 188.819 175.383 188.284C176.62 187.846 177.915 187.407 179.222 187.23C176.983 188.274 174.845 189.531 172.757 190.842C170.31 192.376 167.931 194.011 165.601 195.711C160.874 199.162 156.333 202.862 152.057 206.84C149.995 208.76 147.984 210.775 146.213 212.963Z" fill="#211C1D"/>
<path d="M169.326 241.627C169.73 240.596 170.331 239.622 170.925 238.688C171.689 237.487 172.54 236.338 173.44 235.23C175.265 232.984 177.29 230.916 179.429 228.958C183.793 224.966 188.761 221.499 194.074 218.84C195.505 218.126 196.986 217.483 198.496 216.948C199.733 216.511 201.026 216.072 202.335 215.894C200.095 216.938 197.957 218.196 195.87 219.506C193.423 221.04 191.042 222.675 188.713 224.375C183.987 227.826 179.446 231.526 175.17 235.504C173.106 237.424 171.096 239.439 169.326 241.627Z" fill="#211C1D"/>
<path d="M188.768 265.487C187.469 263.884 186.17 262.28 184.871 260.676C181.382 256.37 177.893 252.063 174.404 247.755C169.947 242.252 165.498 236.743 161.054 231.231C156.288 225.319 151.519 219.41 146.758 213.495C141.828 207.368 136.894 201.246 131.975 195.111C126.989 188.892 122.003 182.674 117.017 176.456C112.13 170.36 107.243 164.266 102.356 158.171C101.156 156.674 99.9556 155.176 98.7609 153.676C97.5568 152.163 96.331 150.666 95.2394 149.07C93.0874 145.923 91.2365 142.58 89.4995 139.199C86.1176 132.614 83.1981 125.804 80.5987 118.887C79.3484 115.564 78.1728 112.214 77.1422 108.818C76.2025 105.718 75.3116 102.571 74.8126 99.3684C74.6214 98.1364 74.4899 96.8857 74.6228 95.6404C74.5346 96.9697 74.7489 98.2924 75.0106 99.5937C75.3455 101.266 75.7889 102.915 76.2703 104.551C77.2561 107.903 78.4345 111.202 79.6658 114.474C82.2571 121.355 85.2118 128.114 88.4798 134.711C90.2114 138.204 92.0406 141.659 94.0895 144.984C95.1309 146.675 96.2252 148.34 97.4429 149.914C98.6484 151.472 99.9325 152.974 101.175 154.504C106.147 160.638 111.12 166.77 116.092 172.903C121.193 179.194 126.293 185.484 131.393 191.774C136.432 197.988 141.46 204.21 146.487 210.434C151.374 216.483 156.254 222.539 161.137 228.592C165.658 234.199 170.177 239.806 174.685 245.422C178.355 249.996 182.027 254.57 185.698 259.144C186.729 260.428 187.761 261.712 188.791 262.998C189.075 263.35 189.357 263.702 189.64 264.055C189.697 264.127 190.005 264.407 190.002 264.507C190.001 264.588 189.7 264.76 189.629 264.815C189.342 265.039 189.054 265.263 188.768 265.487Z" fill="white"/>
<path d="M201.913 258.007C200.137 257.002 197.917 257.167 196.31 258.419L190.489 262.958C188.746 264.316 187.317 267.82 188.067 272.018C188.817 276.214 192.6 284.926 199.254 293.178C205.909 301.431 206.159 301.74 206.159 301.74L226.436 285.932C226.436 285.932 209.965 265.504 207.302 262.202C205.932 260.504 203.73 259.034 201.913 258.007Z" fill="white"/>
<path d="M206.365 299.987L224.652 285.73L206.307 262.978C205.292 261.719 203.554 260.375 201.28 259.09C199.947 258.336 198.306 258.458 197.1 259.398L191.277 263.936C189.846 265.052 188.673 268.188 189.319 271.8C189.968 275.439 193.417 283.927 200.25 292.402L206.365 299.987ZM227.226 286.911L206.948 302.719C206.399 303.148 205.599 303.058 205.164 302.516L198.259 293.954C191.882 286.044 187.675 277.04 186.817 272.234C185.955 267.404 187.707 263.534 189.7 261.979L195.521 257.442C197.548 255.86 200.306 255.658 202.547 256.924C205.132 258.386 207.067 259.9 208.297 261.426L227.432 285.156C227.869 285.698 227.775 286.483 227.226 286.911Z" fill="#211C1D"/>
<path d="M110.76 174.494C112.409 177.235 114.057 179.975 115.714 182.71C118.282 186.946 120.865 191.172 123.448 195.399C126.129 199.786 128.821 204.166 131.499 208.552C132.887 210.828 134.246 213.123 135.666 215.38C137.079 217.63 138.428 219.916 139.547 222.324C141.666 226.887 142.914 231.784 143.448 236.764C143.984 241.743 143.845 246.772 143.314 251.746C142.756 256.966 142.004 262.176 141.263 267.375C140.519 272.598 139.703 277.808 138.858 283.015C138.442 285.584 137.99 288.15 137.627 290.726C137.452 291.975 137.319 293.227 137.106 294.472C136.886 295.756 136.654 297.039 136.492 298.332C136.184 300.791 136.172 303.259 136.557 305.71C136.893 307.852 137.486 309.947 138.283 311.966C138.588 312.736 138.918 313.495 139.258 314.252C137.27 310.623 135.853 306.768 135.545 302.63C135.355 300.091 135.618 297.592 135.967 295.08C136.299 292.675 136.509 290.258 136.842 287.852C137.532 282.854 138.316 277.864 139.052 272.871C139.813 267.703 140.556 262.532 141.251 257.356C141.914 252.427 142.553 247.51 142.504 242.528C142.457 237.695 141.814 232.831 140.371 228.203C139.616 225.78 138.634 223.426 137.464 221.168C136.257 218.84 134.824 216.638 133.484 214.383C130.853 209.955 128.243 205.516 125.656 201.063C123.188 196.812 120.73 192.559 118.317 188.279C116.065 184.282 113.819 180.278 111.676 176.222C111.372 175.646 111.065 175.07 110.76 174.494Z" fill="white"/>
<path d="M88.6548 116.383C86.9652 117.418 85.4153 118.664 83.9277 119.96C85.0505 118.284 86.2533 116.646 87.6472 115.176C87.9835 115.579 88.3198 115.98 88.6548 116.383Z" fill="white"/>
<path d="M206.623 297.794L222.423 285.476L218.916 281.128C214.768 283.012 206.522 285.664 201.093 280.23C195.703 274.834 193.13 270.103 191.57 266.072C190.974 267.162 190.44 269.06 190.882 271.531C191.48 274.879 194.89 283.243 201.494 291.432L206.623 297.794Z" fill="#211C1D"/>
<path d="M217.502 245.855C217.47 245.754 217.443 245.651 217.42 245.548L214.556 247.78C213.862 248.322 213.577 249.21 213.832 250.042C214.529 252.323 215.369 254.114 216.26 255.219L233.618 276.748L237.785 273.499C233.455 268.13 222.55 254.604 220.427 251.971C219.057 250.272 218.104 247.828 217.502 245.855Z" fill="#211C1D"/>
<path d="M91.9241 134.812L95.6395 139.42L97.4999 136.439C97.7359 136.06 97.706 135.576 97.4254 135.228L96.3514 133.895C96.0558 133.53 95.5527 133.398 95.112 133.57L91.9241 134.812Z" fill="#211C1D"/>
<path d="M94.1165 126.532L91.8914 133.816L95.1213 132.558C95.4319 132.436 95.6678 132.18 95.7587 131.864L96.3621 129.783C96.4624 129.438 96.3784 129.066 96.137 128.796L94.1165 126.532Z" fill="#211C1D"/>
<path d="M112.275 121.482L113.35 122.815C113.631 123.163 114.103 123.302 114.531 123.162L117.908 122.06L114.192 117.452L112.234 120.22C111.963 120.603 111.979 121.116 112.275 121.482Z" fill="#211C1D"/>
<path d="M113.214 117.194L105.493 117.663L107.274 120.114C107.487 120.406 107.835 120.572 108.2 120.555L110.398 120.452C110.732 120.436 111.039 120.27 111.231 119.999L113.214 117.194Z" fill="#211C1D"/>
<path d="M98.8572 128.902L106.757 122.742C107.192 122.402 107.294 121.792 106.99 121.335L106.98 121.319L104.407 117.779C103.538 118.012 100.933 118.816 98.6158 120.623C96.2916 122.434 94.9058 124.74 94.48 125.519L97.4103 128.803C97.794 129.198 98.4219 129.24 98.8572 128.902Z" fill="#211C1D"/>
<path d="M216.624 273.262C225.403 284.148 253.843 315.964 255.637 315.363L204.152 251.51C203.166 252.278 204.69 258.46 216.624 273.262Z" fill="#211C1D"/>
<path d="M82.2613 100.203C81.8001 100.562 82.0443 101.65 82.793 102.578C83.5417 103.506 84.563 103.987 85.0242 103.627C85.4853 103.268 85.2412 102.18 84.4925 101.252C83.7438 100.324 82.7224 99.8431 82.2613 100.203Z" fill="white"/>
<path d="M79.8624 102.096C79.8434 102.108 79.8244 102.12 79.8082 102.134C79.3633 102.48 79.4827 103.551 80.0727 104.52C80.6912 105.536 81.6406 106.144 82.1452 105.848C82.6579 105.551 82.548 104.432 81.9349 103.424C81.3164 102.408 80.367 101.8 79.8624 102.096Z" fill="white"/>
<path d="M84.7332 98.2938C84.7169 98.3071 84.6993 98.3218 84.6843 98.3378C84.2761 98.7525 84.6613 99.8004 85.5266 100.624C86.3526 101.41 87.3862 101.767 87.8297 101.422C87.8473 101.408 87.8636 101.394 87.8799 101.378C88.0643 101.19 88.0915 100.847 87.9531 100.436C87.8012 99.9871 87.4757 99.5084 87.0362 99.0911C86.2116 98.3058 85.178 97.9471 84.7332 98.2938Z" fill="white"/>
</svg>
