<svg width="364" height="276" viewBox="0 0 364 276" fill="none" xmlns="http://www.w3.org/2000/svg">
<path d="M359.779 260.518C343.226 250.171 288.433 215.822 278.375 208.677C266.241 200.055 255.264 191.168 250.694 186.848C249.107 185.348 247.591 183.647 246.189 181.787C245.375 180.712 245.275 179.259 245.934 178.087L264.609 144.875C266.491 141.528 267.791 137.766 268.48 133.675L270.466 133.112C275.347 131.73 279.389 128.562 281.846 124.192C284.304 119.822 284.883 114.771 283.478 109.972L277.349 89.0417C275.945 84.2431 272.723 80.2697 268.276 77.8524C263.832 75.4351 258.697 74.8658 253.816 76.2471L248.371 77.7884L282.411 7.24442C283.42 5.12842 282.253 2.4964 279.636 0.985718L279.46 0.887054C276.746 -0.588928 273.718 -0.186279 272.416 1.82172L229.551 67.9991L227.828 62.1191C226.423 57.3204 223.201 53.3471 218.757 50.9297C214.311 48.5137 209.176 47.9431 204.294 49.3244L183.009 55.3511C172.933 58.2031 167.096 68.5844 169.997 78.4924L171.747 84.4697C169.576 86.6964 167.786 89.0537 166.415 91.4924L147.511 125.111C146.782 126.408 145.297 127.094 143.818 126.819C138.633 125.853 131.229 124.341 125.401 122.624C115.778 119.791 98.0587 113.107 87.4813 108.323C76.9946 103.579 14.3608 75.3937 11.7817 74.2337C7.9876 72.5271 3.43414 74.0031 1.41505 77.5924L1.01097 78.3138C-0.993199 81.8764 0.0631218 86.3084 3.46533 88.6231C21.5991 100.966 114.886 164.068 170.658 194.388C226.514 224.755 331.933 266.465 352.497 274.518C356.244 275.984 360.542 274.477 362.493 270.998C364.542 267.358 363.35 262.758 359.779 260.518Z" fill="#211C1D"/>
<path d="M231.722 90.447L244.076 132.639C244.661 134.637 246.782 135.791 248.814 135.215L269.377 129.394C277.381 127.128 282 118.912 279.696 111.043L273.567 90.1124C271.263 82.243 262.907 77.7004 254.904 79.9657L234.341 85.787C232.31 86.363 231.136 88.4484 231.722 90.447Z" fill="white"/>
<path d="M268.286 125.666L247.835 131.455C247.835 131.455 242.687 96.3324 254.713 107.823C267.341 119.887 276.34 115.065 276.34 115.065C276.374 119.85 273.186 124.279 268.286 125.666Z" fill="#211C1D"/>
<path d="M256.924 83.6243L248.939 89.555L247.348 86.4803L256.924 83.6243Z" fill="#211C1D"/>
<path d="M235.708 78.7029C238.318 80.1216 240.859 81.6376 243.328 83.2323L280.435 6.3336C280.935 5.28559 280.126 3.75626 278.531 2.83493C276.849 1.86426 274.935 1.92693 274.257 2.97493L227.734 74.7976C230.411 75.9723 233.074 77.2709 235.708 78.7029Z" fill="#211C1D"/>
<path d="M233.214 77.3469C232.929 76.2389 233.889 75.1522 234.424 74.2522C235.058 73.1842 235.693 72.1149 236.328 71.0469C237.896 68.4069 239.465 65.7656 241.034 63.1256C244.475 57.3336 247.91 51.5363 251.359 45.7483C258.327 34.0589 265.358 22.4056 272.436 10.7816C273.516 9.00826 274.595 7.23625 275.675 5.46292C275.866 5.14825 276.035 4.78959 276.262 4.49892C276.828 3.76959 278.152 3.80824 278.19 4.93358C278.218 5.79358 277.277 6.97358 276.909 7.68558C275.772 9.88291 274.635 12.0789 273.499 14.2763C267.151 26.5416 260.744 38.7803 254.263 50.9789C251.187 56.7709 248.109 62.5616 245.032 68.3536C243.655 70.9442 242.278 73.5362 240.902 76.1269C240.344 77.1762 239.877 78.4069 239.159 79.3562C238.401 80.3589 236.93 80.3122 235.834 79.9336C234.618 79.5136 233.634 78.5443 233.214 77.3469Z" fill="white"/>
<path d="M227.347 88.0683L184.437 100.216C182.405 100.791 180.284 99.6376 179.699 97.6403L173.779 77.4203C171.474 69.551 176.094 61.335 184.097 59.0696L205.383 53.043C213.386 50.7776 221.742 55.3203 224.046 63.1896L229.967 83.4096C230.552 85.407 229.379 87.4936 227.347 88.0683Z" fill="white"/>
<path d="M216.004 55.8244C212.889 54.131 209.289 53.7324 205.869 54.7004L184.583 60.727C177.521 62.7257 173.431 70.0004 175.464 76.9444L181.384 97.163C181.537 97.687 181.889 98.1204 182.374 98.3844C182.859 98.6484 183.419 98.7097 183.952 98.559L226.862 86.411C227.962 86.1004 228.599 84.967 228.282 83.887L222.362 63.667C221.377 60.303 219.119 57.519 216.004 55.8244ZM180.677 101.402C179.372 100.692 178.427 99.5257 178.014 98.1177L172.094 77.8977C169.526 69.127 174.693 59.9377 183.612 57.4124L204.898 51.387C209.219 50.163 213.766 50.6684 217.701 52.807C221.635 54.947 224.488 58.4644 225.732 62.7137L231.652 82.9324C232.504 85.8404 230.79 88.8884 227.833 89.7257L184.922 101.874C183.489 102.279 181.982 102.111 180.677 101.402Z" fill="#211C1D"/>
<path d="M177.57 76.3471L183.458 96.4564C183.458 96.4564 216.447 82.0671 200.155 78.1617C183.05 74.0617 182.418 64.0031 182.418 64.0031C178.278 66.5191 176.159 71.5297 177.57 76.3471Z" fill="#211C1D"/>
<path d="M265.525 82.747C262.41 81.0537 258.81 80.655 255.389 81.623L234.826 87.4443C233.727 87.7563 233.09 88.8883 233.407 89.9697L245.761 132.162C245.915 132.686 246.266 133.12 246.751 133.383C247.236 133.647 247.796 133.708 248.328 133.558L268.892 127.736C272.313 126.768 275.145 124.548 276.867 121.486C278.59 118.422 278.996 114.883 278.011 111.519L271.883 90.5897C270.898 87.2257 268.64 84.4403 265.525 82.747ZM245.054 136.401C243.749 135.692 242.803 134.525 242.391 133.116L230.037 90.923C229.185 88.015 230.899 84.9683 233.856 84.131L254.419 78.3097C258.74 77.0857 263.287 77.5897 267.221 79.7297C271.156 81.8683 274.009 85.387 275.252 89.635L281.381 110.566C282.625 114.813 282.112 119.284 279.937 123.154C277.761 127.023 274.183 129.827 269.862 131.051L249.299 136.872C247.867 137.277 246.359 137.111 245.054 136.401Z" fill="#211C1D"/>
<path d="M359.051 269.131C358.053 270.905 355.869 271.677 353.955 270.918C333.851 263.051 228.29 221.299 172.562 191.001C116.922 160.752 23.6548 97.6577 5.7041 85.4403C3.97656 84.2643 3.43687 81.995 4.45387 80.1857L4.85932 79.4657C5.8953 77.623 8.19778 76.8763 10.1436 77.7523C24.1538 84.0577 76.5147 107.622 85.8367 111.839C96.619 116.715 114.388 123.42 124.272 126.331C130.339 128.118 138.041 129.68 143.085 130.62C146.233 131.207 149.404 129.74 150.955 126.984L169.859 93.3643C179.563 76.107 211.549 65.5443 235.718 78.6843C259.888 91.8243 271.929 123.859 261.164 143.003L242.489 176.215C241.081 178.719 241.293 181.799 243.029 184.096C244.276 185.747 245.935 187.718 247.966 189.637C252.872 194.275 264.259 203.42 276.07 211.812C286.385 219.14 343.386 254.851 357.667 263.784C359.493 264.931 360.096 267.264 359.051 269.131Z" fill="white"/>
<path d="M234.87 80.1924C211.936 67.7244 180.798 77.4724 171.393 94.1991L152.489 127.818C150.568 131.234 146.657 133.042 142.758 132.315C137.435 131.322 129.819 129.765 123.769 127.983C113.772 125.039 96.0659 118.363 85.104 113.405C74.7465 108.72 12.0759 80.5191 9.41404 79.3204C8.3089 78.8231 6.98273 79.2537 6.39423 80.2991L5.98878 81.0204C5.4057 82.0577 5.71216 83.3497 6.70204 84.0231C24.8019 96.3417 117.902 159.316 173.41 189.494C228.961 219.694 334.092 261.291 354.603 269.318C355.694 269.744 356.947 269.304 357.515 268.291C358.112 267.238 357.766 265.891 356.726 265.238C340.145 254.864 285.25 220.462 275.044 213.21C262.7 204.441 251.467 195.339 246.75 190.88C244.938 189.167 243.213 187.231 241.621 185.124C239.481 182.292 239.219 178.467 240.955 175.38L259.63 142.168C264.549 133.419 264.649 121.406 259.904 109.208C255.073 96.7911 245.949 86.2164 234.87 80.1924ZM171.714 192.511C116.058 162.254 22.8303 99.1937 4.706 86.8591C2.22994 85.1724 1.4611 81.9457 2.92016 79.351L3.3256 78.6311C4.7955 76.0164 8.11091 74.9417 10.8731 76.1844C13.5363 77.3831 76.209 105.586 86.5697 110.272C97.2233 115.091 115.076 121.823 124.776 124.679C130.681 126.419 138.169 127.95 143.411 128.927C145.819 129.375 148.234 128.259 149.42 126.149L168.324 92.5297C173.347 83.5977 184.036 76.2804 196.919 72.9577C210.866 69.3591 224.946 70.8577 236.567 77.1751C261.155 90.5431 274.099 123.563 262.699 143.837L244.024 177.048C242.952 178.955 243.114 181.318 244.437 183.068C245.912 185.022 247.508 186.813 249.181 188.395C253.81 192.77 264.885 201.739 277.098 210.415C287.226 217.611 342.048 251.971 358.608 262.331C361.208 263.958 362.077 267.318 360.584 269.971C359.163 272.491 356.033 273.598 353.305 272.531C332.76 264.477 227.449 222.812 171.714 192.511Z" fill="#211C1D"/>
<path d="M215.515 114.615C199.465 105.89 179.261 111.61 170.387 127.391C161.513 143.172 167.33 163.039 183.38 171.765C199.429 180.489 219.634 174.77 228.508 158.988C237.381 143.207 231.564 123.341 215.515 114.615Z" fill="#211C1D"/>
<path d="M215.409 114.803C199.491 106.15 179.38 111.843 170.579 127.495C161.778 143.147 167.568 162.922 183.486 171.575C199.404 180.23 219.515 174.536 228.316 158.884C237.117 143.232 231.327 123.458 215.409 114.803ZM183.274 171.952C167.144 163.183 161.277 143.146 170.195 127.286C179.113 111.425 199.491 105.656 215.621 114.425C231.751 123.195 237.618 143.232 228.7 159.092C219.781 174.952 199.403 180.722 183.274 171.952Z" fill="#211C1D"/>
<path d="M357.667 263.784C338.624 256.158 289.791 232.324 252.154 208.343C252.154 208.343 242.001 183.92 240.754 182.27C239.866 181.094 240.398 179.955 240.488 178.882C240.574 177.859 240.181 176.906 240.868 175.682L253.49 146.792L227.569 143.579L205.864 131.777L184.158 119.977L170.672 101.768L151.889 128.292C150.065 128.196 148.117 129.803 147.246 130.544L144.406 131.907L118.862 135.211C57.3676 109.167 8.61273 77.391 8.61273 77.391L4.85932 79.4657L4.45387 80.1857C3.43687 81.995 3.97656 84.2644 5.7041 85.4404C23.6548 97.6577 116.922 160.752 172.562 191.001C228.29 221.299 333.851 263.051 353.955 270.918C355.869 271.677 358.053 270.905 359.051 269.131C360.096 267.264 359.493 264.931 357.667 263.784Z" fill="#211C1D"/>
<path d="M205.204 96.9443C207.095 94.3043 209.008 91.6443 210.912 89.0123C211.51 88.1856 211.224 87.0296 210.306 86.5683C209.236 86.031 208.163 85.4963 207.095 84.967C206.576 84.7096 205.96 84.7336 205.462 85.0283C201.778 87.207 198.087 89.4416 194.467 91.683C198.053 93.3936 201.659 95.1603 205.204 96.9443Z" fill="#211C1D"/>
<path d="M193.424 89.779C196.809 87.6763 200.252 85.5843 203.686 83.5416C204.373 83.1323 204.675 82.3083 204.409 81.5643C204.319 81.3123 204.228 81.059 204.137 80.807C203.841 79.9843 202.947 79.523 202.091 79.7536C199.32 80.5003 196.542 81.271 193.808 82.055C193.693 84.6243 193.564 87.2163 193.424 89.779Z" fill="#211C1D"/>
<path d="M249.318 108.35C249.385 112.307 249.413 116.286 249.403 120.212C251.528 118.738 253.693 117.251 255.851 115.786C255.072 113.094 254.26 110.371 253.428 107.663C253.172 106.828 252.299 106.328 251.434 106.52C251.167 106.579 250.902 106.638 250.636 106.696C249.853 106.871 249.305 107.562 249.318 108.35Z" fill="#211C1D"/>
<path d="M240.763 105.242C239.501 108.244 238.229 111.251 236.967 114.212C240.388 116.216 243.828 118.28 247.208 120.356C247.214 116.142 247.175 111.88 247.093 107.662C247.082 107.09 246.775 106.564 246.277 106.268C245.254 105.66 244.223 105.051 243.192 104.447C242.305 103.927 241.157 104.304 240.763 105.242Z" fill="#211C1D"/>
<path d="M207.337 97.7137C209.696 98.407 216.542 100.548 222.12 103.58L222.257 103.655C227.834 106.687 233.319 111.249 235.17 112.846C236.902 108.75 238.644 104.591 240.362 100.454C240.781 99.443 240.688 98.3017 240.119 97.3643C238.624 94.9017 235.067 91.2617 230.539 88.799C225.983 86.323 220.955 85.295 218.04 85.359C216.93 85.3843 215.898 85.9123 215.25 86.799C212.61 90.4163 209.955 94.0777 207.337 97.7137Z" fill="#211C1D"/>
<path d="M219.51 107.51C215.995 105.599 212.365 104.176 208.722 103.218L206.14 107.808C209.783 108.768 213.413 110.191 216.928 112.101C220.718 114.162 224.092 116.636 227.005 119.4L229.586 114.81C226.673 112.044 223.3 109.571 219.51 107.51Z" fill="#211C1D"/>
<path d="M235.755 154.043C238.993 147.139 239.772 139.584 237.718 132.21C235.52 124.32 230.477 117.219 223.881 112.272C213.812 104.723 200.204 101.787 188.01 105.65C183.666 107.024 179.541 109.291 176.169 112.324C174.592 113.743 173.195 115.334 171.941 117.034C171.708 117.351 171.155 118.603 170.802 118.71C170.614 118.766 169.845 118.189 169.651 118.083C173.406 111.839 178.846 107.111 185.72 104.392C193.258 101.411 201.785 101.066 209.636 103C224.747 106.723 237.581 119.008 240.224 134.336C240.954 138.568 240.893 142.943 239.868 147.123C239.379 149.118 238.692 151.063 237.807 152.922C237.654 153.243 237.219 154.53 236.908 154.627C236.713 154.688 235.953 154.143 235.755 154.043Z" fill="#211C1D"/>
<path d="M212.112 143.628C210.981 145.637 208.744 139.336 203.282 136.367C197.821 133.398 191.204 134.886 192.334 132.875C193.464 130.866 200.212 129.146 205.673 132.115C211.135 135.084 213.241 141.618 212.112 143.628Z" fill="white"/>
<path d="M243.027 143.575C241.388 147.861 239.077 151.898 236.808 155.888C235.083 158.923 233.311 161.935 231.492 164.916C233.03 161.791 234.518 158.639 235.959 155.468C237.818 151.379 239.723 147.242 240.941 142.915C241.636 143.135 242.332 143.355 243.027 143.575Z" fill="white"/>
<path d="M182.59 148.399C180.814 143.641 180.941 138.398 183.422 133.879C186.531 128.215 192.469 124.479 199.038 124.232C204.152 124.041 209.213 125.948 212.854 129.472C217.586 134.055 219.616 140.989 217.793 147.308C215.939 153.742 210.827 158.43 204.221 159.923C209.514 158.024 213.722 154.242 215.655 148.968C217.74 143.279 216.481 136.683 212.45 132.112C211.173 130.663 209.368 129.195 207.766 128.38C202.592 125.748 196.503 125.554 191.314 128.289C186.767 130.687 183.485 135 182.399 139.94C181.777 142.766 181.927 145.601 182.59 148.399Z" fill="white"/>
<path d="M355.488 268.198C345.59 264.491 335.722 260.718 325.947 256.704C313.601 251.637 301.395 246.265 289.378 240.48C277.126 234.589 265.054 228.318 253.302 221.507C247.408 218.091 241.445 214.634 235.915 210.665C230.294 206.629 225.474 201.663 221.038 196.415C216.585 191.147 212.46 185.614 207.774 180.536C203.169 175.546 198.029 171.08 192.284 167.394C186.49 163.675 180.177 160.736 173.599 158.634C167.024 156.531 160.209 155.312 153.369 154.401C146.493 153.484 139.577 152.827 132.76 151.53C125.841 150.212 119.378 148.002 112.975 145.142C100.281 139.47 87.8984 133.147 75.7573 126.412C64.0984 119.944 52.655 113.1 41.4402 105.914C31.3217 99.4284 21.3809 92.6844 11.5662 85.7631C10.1234 84.7471 8.68058 83.7298 7.23779 82.7138C16.0043 88.5484 24.7695 94.3858 33.6784 100.01C44.8939 107.09 56.2834 113.919 67.865 120.407C79.9922 127.2 92.3566 133.577 104.976 139.441C111.263 142.361 117.59 145.465 124.262 147.448C130.851 149.408 137.673 150.375 144.488 151.208C151.354 152.048 158.241 152.792 165.017 154.206C171.754 155.611 178.326 157.707 184.538 160.643C190.816 163.611 196.687 167.4 201.936 171.906C207.083 176.324 211.552 181.416 215.796 186.666C220.209 192.124 224.486 197.724 229.51 202.666C234.381 207.456 239.935 211.186 245.723 214.807C257.465 222.154 269.575 228.922 281.909 235.256C293.63 241.277 305.559 246.905 317.595 252.291C328.482 257.158 339.494 261.744 350.562 266.211C352.204 266.865 353.846 267.531 355.488 268.198Z" fill="white"/>
<path d="M219.821 63.4535L222.454 72.9469L218.96 73.2562L219.821 63.4535Z" fill="#211C1D"/>
</svg>
