<svg width="202" height="299" viewBox="0 0 202 299" fill="none" xmlns="http://www.w3.org/2000/svg">
<path d="M197.293 267.159C197.397 266.775 197.505 266.377 197.633 265.988C198.635 262.935 199.739 257.307 200.915 249.261C202.534 238.164 198.943 231.711 196.565 227.439C196.159 226.711 195.74 225.959 195.412 225.291C194.46 223.352 192.841 220.509 190.377 216.185C186.854 210.003 181.531 200.659 174.48 187.423C164.969 169.569 167.153 157.917 168.597 150.207C168.868 148.764 169.125 147.4 169.293 146.108C170.376 137.763 179.117 79.8586 180.247 72.712L180.793 71.0493C187.004 52.14 184.487 18.1946 184.014 15.144C183.953 14.752 183.894 14.3093 183.827 13.804C183.253 9.47461 182.293 2.22931 176.47 0.379974C170.649 -1.46805 165.56 3.85599 162.495 7.064C162.16 7.41333 161.851 7.7373 161.569 8.01865C159.372 10.2213 137.137 36.3106 130.929 55.2146L130.347 56.9853C126.922 63.6 99.6773 115.388 95.6269 122.716C94.995 123.861 94.3916 125.115 93.7529 126.441C90.3385 133.527 85.1789 144.233 66.8444 153.243C53.2437 159.928 43.3639 164.447 36.7656 167.465C32.2447 169.533 29.2575 170.9 27.3414 171.92C26.6892 172.268 25.9339 172.621 25.1271 173.001C20.659 175.097 13.9062 178.267 8.61912 188.199C4.78842 195.396 2.33678 200.596 1.33198 203.653C1.20587 204.039 1.05809 204.417 0.910282 204.803C0.122446 206.843 -1.51833 211.088 3.36869 214.309C6.14036 216.137 46.3946 237.985 59.6291 245.16C59.6481 245.188 59.6671 245.216 59.6875 245.243C59.739 245.313 59.7918 245.383 59.838 245.437C59.9193 245.533 60.0061 245.623 60.1119 245.724C60.1349 245.745 60.1593 245.768 60.1837 245.791L52.62 251.911L52.4288 252.491C52.0898 253.524 52.3759 254.655 53.1746 255.443L58.8942 261.067L58.2555 269.944C58.1891 270.864 58.5864 271.779 59.3213 272.395C62.8429 275.333 67.06 277.644 71.5267 279.081L71.6501 279.12C73.9078 279.837 76.2456 280.335 78.6294 280.608C75.1472 295.043 75.6747 296.348 77.5663 297.773C77.8836 298.012 78.2375 298.196 78.6186 298.316C78.9996 298.437 79.3956 298.493 79.7915 298.481C82.1591 298.413 83.3564 297.673 88.9865 284.316C91.0476 285.543 93.243 286.528 95.5387 287.257C95.9089 287.376 96.2886 287.488 96.6724 287.595C100.989 288.789 105.577 289.053 109.942 288.359C110.809 288.22 111.563 287.728 112.01 287.015L116.774 279.445L124.759 278.173C125.877 277.995 126.781 277.241 127.12 276.208L127.299 275.663L125.105 266.269C125.17 266.257 125.235 266.244 125.303 266.227C125.394 266.204 125.482 266.176 125.55 266.153C125.577 266.144 125.605 266.135 125.632 266.124C144.311 268.355 186.399 273.352 189.642 273.46C195.523 273.657 196.718 269.269 197.293 267.159Z" fill="#211C1D"/>
<path d="M176.827 72.0307C175.754 78.7667 166.894 137.519 165.834 145.673C164.775 153.829 159.593 166.868 171.392 189.013C183.189 211.159 190.009 222.169 192.273 226.78C194.536 231.391 199.195 236.909 197.464 248.773C196.276 256.908 195.21 262.211 194.315 264.935C193.42 267.657 193.499 270.16 189.762 270.035C186.025 269.909 122.493 262.296 122.493 262.296L115.107 259.951L176.827 72.0307Z" fill="white"/>
<path d="M116.832 259.083L122.79 260.975C144.779 263.609 186.905 268.591 189.808 268.688C191.751 268.753 191.991 268.169 192.601 265.925C192.725 265.475 192.851 265.009 193.012 264.52C193.644 262.596 194.695 258.268 196.108 248.583C197.498 239.06 194.619 233.888 192.306 229.732C191.849 228.911 191.416 228.135 191.039 227.365C190.152 225.56 188.562 222.767 186.152 218.54C182.616 212.331 177.269 202.948 170.179 189.637C159.889 170.324 162.257 157.697 163.823 149.341C164.082 147.963 164.326 146.661 164.475 145.503C165.25 139.543 169.959 108.111 172.987 88.108L116.832 259.083ZM122.073 263.577L114.687 261.232C113.967 261.004 113.572 260.244 113.804 259.537L175.524 71.616C175.744 70.948 176.45 70.5573 177.144 70.72C177.839 70.8813 178.292 71.5439 178.18 72.2386C177.176 78.5466 168.283 137.459 167.193 145.844C167.034 147.076 166.783 148.413 166.517 149.829C165.019 157.821 162.754 169.899 172.606 188.388C179.679 201.665 185.013 211.028 188.543 217.223C190.976 221.493 192.584 224.315 193.506 226.195C193.853 226.901 194.269 227.648 194.709 228.439C197.086 232.708 200.339 238.555 198.82 248.965C197.663 256.892 196.585 262.404 195.618 265.348C195.48 265.772 195.362 266.204 195.248 266.623C194.654 268.805 193.914 271.521 189.714 271.38C185.961 271.255 124.925 263.944 122.328 263.633C122.241 263.623 122.156 263.604 122.073 263.577Z" fill="#211C1D"/>
<path d="M194.654 257.612C196.386 245.747 189.355 233.928 187.092 229.317C184.827 224.707 178.008 213.695 166.211 191.549C154.412 169.404 159.593 156.367 160.652 148.211C161.272 143.441 169.426 106.557 176.303 75.3999C174.099 89.7599 166.79 138.315 165.834 145.673C164.775 153.829 159.593 166.868 171.392 189.013C183.189 211.159 190.008 222.169 192.273 226.78C194.536 231.391 199.195 236.909 197.464 248.773C196.276 256.908 195.21 262.211 194.315 264.935C193.771 266.589 193.586 268.16 192.687 269.112C193.294 266.231 193.953 262.42 194.654 257.612Z" fill="#211C1D"/>
<path d="M162.375 250.588L164.517 251.192L195.625 259.96C195.328 261.245 195.046 262.369 194.78 263.336L163.287 255.877L160.992 255.333L119.826 245.584L121.927 239.188L162.375 250.588Z" fill="#211C1D"/>
<path d="M158.104 266.344C158.104 266.344 158.22 265.896 158.422 265.111C158.635 264.329 158.921 263.208 159.295 261.869C159.484 261.2 159.687 260.476 159.903 259.709C160.12 258.943 160.347 258.135 160.585 257.3C161.066 255.631 161.592 253.852 162.128 252.076C162.398 251.189 162.669 250.303 162.935 249.429C163.207 248.557 163.474 247.7 163.733 246.869C164.247 245.208 164.771 243.668 165.199 242.343C165.623 241.016 166.019 239.921 166.277 239.151C166.548 238.383 166.703 237.944 166.703 237.944C166.703 237.944 166.631 238.403 166.504 239.207C166.364 240.007 166.193 241.156 165.935 242.523C165.682 243.891 165.411 245.492 165.073 247.197C164.906 248.049 164.733 248.931 164.558 249.827C164.377 250.72 164.193 251.629 164.008 252.537C163.636 254.352 163.253 256.165 162.883 257.861C162.693 258.709 162.51 259.528 162.337 260.305C162.162 261.081 161.996 261.815 161.843 262.493C161.537 263.848 161.254 264.971 161.07 265.759C160.875 266.545 160.762 266.995 160.762 266.995L158.104 266.344Z" fill="#211C1D"/>
<path d="M66.3941 244.481L55.3481 253.417L62.0413 260L61.3078 270.2C63.2699 271.837 66.9989 274.551 72.4432 276.301C78.0177 278.093 82.7651 278.033 85.3456 277.833C86.985 279.44 91.0353 282.997 97.4709 284.779C102.729 286.235 107.127 285.825 109.383 285.465C111.207 282.567 113.032 279.669 114.856 276.771L124.2 275.28L121.061 261.841L66.3941 244.481Z" fill="#211C1D"/>
<path d="M85.6088 277.032C85.7634 277.081 85.9058 277.165 86.0224 277.277C88.2178 279.431 92.0498 282.405 97.6949 283.967C101.294 284.963 105.109 285.211 108.76 284.688L114.029 276.316C114.157 276.113 114.378 275.973 114.637 275.932L123.447 274.528L119.893 262.355L67.037 245.571L56.4073 253.24L62.7182 259.447C62.9039 259.629 63.0002 259.869 62.9826 260.108L62.2802 269.883C65.319 272.343 68.9151 274.28 72.7105 275.501L72.8271 275.539C76.8151 276.805 81.096 277.305 85.2074 276.985C85.343 276.975 85.48 276.991 85.6088 277.032ZM96.1897 285.277C90.9677 283.619 87.2726 280.856 85.0095 278.715C80.7774 278.983 76.3934 278.44 72.301 277.14L72.1763 277.101C67.9767 275.749 64.005 273.573 60.6909 270.808C60.4686 270.621 60.3479 270.357 60.3669 270.092L61.0733 260.267L54.6717 253.971C54.4357 253.739 54.3489 253.417 54.4425 253.129L65.4885 244.195C65.6336 243.752 66.157 243.521 66.6573 243.681L121.325 261.04C121.825 261.199 122.112 261.687 121.967 262.128L125.106 275.568C125.011 275.856 124.75 276.067 124.42 276.119L115.483 277.544L110.211 285.92C110.083 286.124 109.862 286.263 109.603 286.304C105.541 286.951 101.268 286.705 97.246 285.592C96.8867 285.492 96.5341 285.387 96.1897 285.277Z" fill="#211C1D"/>
<path d="M116.187 256.607C134.255 201.592 172.951 83.7719 177.476 69.9959C183.405 51.9452 181.106 19.1359 180.568 15.6626C180.028 12.1892 179.635 4.98788 175.399 3.64255C171.163 2.29721 166.561 7.91188 164.057 10.4199C161.554 12.9279 140.174 38.2185 134.246 56.2679C130.175 68.6612 72.9871 242.785 72.9871 242.785L62.5188 243.251L124.431 262.911L116.187 256.607Z" fill="white"/>
<path d="M70.1517 244.26L117.45 259.279L115.346 257.671C114.892 257.323 114.706 256.732 114.883 256.193L176.172 69.5813C182.113 51.496 179.669 18.8053 179.213 15.8653C179.147 15.4346 179.082 14.9466 179.011 14.4213C178.587 11.2133 177.874 5.84396 174.979 4.92398C172.082 4.00531 168.311 7.95062 166.058 10.308C165.687 10.6946 165.346 11.052 165.035 11.364C162.916 13.4866 141.488 38.6 135.549 56.6826L74.2902 243.199C74.1153 243.733 73.6204 244.105 73.0495 244.131L70.1517 244.26ZM124.011 264.193L62.0985 244.533C61.4679 244.332 61.0733 243.717 61.1614 243.072C61.2496 242.427 61.7947 241.935 62.4564 241.905L71.9755 241.481L132.943 55.8546C139.034 37.3066 160.917 11.644 163.08 9.47595C163.378 9.17729 163.706 8.8333 164.062 8.46263C166.934 5.45865 171.274 0.917297 175.821 2.3613C180.366 3.80396 181.186 9.98395 181.729 14.0719C181.795 14.5773 181.858 15.0453 181.921 15.46C182.386 18.4613 184.872 51.8586 178.78 70.4093L117.785 256.123L125.273 261.848C125.798 262.249 125.954 262.963 125.642 263.541C125.331 264.119 124.644 264.393 124.011 264.193Z" fill="#211C1D"/>
<path d="M153.071 62.8946L151.531 62.4053C150.516 62.0839 149.959 61.0133 150.287 60.0159L150.907 58.128C151.235 57.1306 152.323 56.5826 153.337 56.9053L154.877 57.3946C155.892 57.716 156.449 58.7866 156.121 59.7839L155.501 61.6719C155.173 62.6693 154.085 63.2173 153.071 62.8946Z" fill="#211C1D"/>
<path d="M159.984 65.0892L158.444 64.6012C157.429 64.2785 156.872 63.2092 157.2 62.2105L157.82 60.3239C158.148 59.3252 159.235 58.7785 160.25 59.0998L161.79 59.5892C162.804 59.9119 163.362 60.9812 163.034 61.9785L162.414 63.8665C162.086 64.8638 160.998 65.4119 159.984 65.0892Z" fill="#211C1D"/>
<path d="M181.135 22.8893C180.938 19.1453 180.7 16.516 180.568 15.6626C180.028 12.1893 179.635 4.98794 175.399 3.6426C171.163 2.29727 166.561 7.91195 164.057 10.4199C163.442 11.0359 161.684 13.0319 159.298 15.9559C159.298 15.9559 161.496 16.2373 164.376 16.8199L164.212 17.3199C164.034 17.8599 164.335 18.4399 164.885 18.6146L175.022 21.8333C175.571 22.0079 176.161 21.7106 176.337 21.1706L176.501 20.6706C179.185 21.8546 181.135 22.8893 181.135 22.8893Z" fill="#211C1D"/>
<path d="M152.087 26.5306L151.933 24.1786C157.519 23.828 163.036 24.5253 168.342 26.2573C173.415 27.9133 178.084 30.4493 182.217 33.7946L180.694 35.6146C176.789 32.4546 172.379 30.0586 167.587 28.4946C162.582 26.8573 157.363 26.1986 152.087 26.5306Z" fill="#211C1D"/>
<path d="M172.394 29.1027L173.842 24.692C174.02 24.152 173.719 23.572 173.17 23.3974L165.636 21.0053C165.087 20.8307 164.497 21.1267 164.319 21.668L162.876 26.06C164.494 26.3747 166.197 26.8 167.964 27.376C169.556 27.896 171.033 28.4827 172.394 29.1027Z" fill="#211C1D"/>
<path d="M169.515 24.9466C169.336 25.4932 168.739 25.7932 168.183 25.6172C167.627 25.4412 167.321 24.8546 167.5 24.3079C167.679 23.7612 168.276 23.4599 168.832 23.6372C169.388 23.8132 169.694 24.3999 169.515 24.9466Z" fill="white"/>
<path d="M172.231 25.8094C172.05 26.356 171.453 26.656 170.897 26.48C170.341 26.3027 170.036 25.716 170.216 25.1694C170.395 24.6227 170.992 24.3227 171.548 24.5C172.104 24.676 172.41 25.2627 172.231 25.8094Z" fill="white"/>
<path d="M166.771 24.076C166.592 24.6226 165.995 24.9226 165.439 24.7466C164.883 24.5693 164.578 23.984 164.757 23.436C164.937 22.8893 165.534 22.5893 166.09 22.7666C166.646 22.9426 166.952 23.5293 166.771 24.076Z" fill="white"/>
<path d="M108.313 211.796L106.033 211.072L153.761 65.748L156.043 66.472L108.313 211.796Z" fill="#211C1D"/>
<path d="M61.4448 250.412L72.1409 259.249L78.7487 249.648L67.8126 246.001L61.4448 250.412ZM72.1138 261.364C71.9863 261.324 71.867 261.26 71.7639 261.175L59.3674 250.932C59.1572 250.757 59.0352 250.512 59.0379 250.263C59.0392 250.012 59.164 249.781 59.3782 249.633L66.999 244.356C67.2444 244.185 67.5875 244.145 67.8804 244.245L80.4518 248.437C80.7285 248.529 80.9508 248.729 81.0552 248.979C81.1583 249.228 81.1325 249.499 80.9847 249.715L73.1877 261.044C73.044 261.251 72.804 261.385 72.5301 261.411C72.3891 261.423 72.248 261.407 72.1138 261.364Z" fill="#211C1D"/>
<path d="M111.912 217.159C113.321 215.484 115.628 214.825 117.731 215.493L125.356 217.915C127.637 218.64 130.427 221.648 131.283 226.165C132.137 230.683 131.664 240.888 128.115 251.697C124.565 262.505 124.431 262.911 124.431 262.911L97.8738 254.479C97.8738 254.479 106.661 227.724 108.082 223.399C108.813 221.175 110.472 218.872 111.912 217.159Z" fill="white"/>
<path d="M99.5987 253.611L123.55 261.216L126.811 251.283C130.457 240.183 130.677 230.328 129.935 226.412C129.199 222.523 126.81 219.792 124.936 219.197L117.311 216.776C115.73 216.273 114.025 216.761 112.969 218.017C111.165 220.16 109.927 222.164 109.385 223.812L99.5987 253.611ZM124.011 264.193L97.4536 255.76C96.7335 255.531 96.3389 254.772 96.5708 254.064L106.779 222.984C107.435 220.987 108.807 218.739 110.858 216.301C112.634 214.189 115.496 213.369 118.153 214.212L125.778 216.633C128.388 217.463 131.645 220.721 132.63 225.92C133.609 231.095 132.821 241.752 129.419 252.111L125.736 263.325C125.502 264.033 124.731 264.421 124.011 264.193Z" fill="#211C1D"/>
<path d="M85.1111 252.903C87.7607 253.275 90.3479 254.035 92.8959 254.844C95.4451 255.652 97.9958 256.521 100.366 257.747C97.7151 257.376 95.1292 256.615 92.5813 255.804C90.032 254.995 87.4827 254.124 85.1111 252.903C87.7404 253.272 87.4637 254.115 85.1111 252.903Z" fill="white"/>
<path d="M83.0581 256.545C85.9532 256.997 88.8265 257.845 91.6199 258.727C94.4092 259.605 97.2527 260.583 99.863 261.881C96.9951 261.437 94.1488 260.597 91.3799 259.728C88.5635 258.843 85.6942 257.853 83.0581 256.545C85.2033 256.88 84.0344 257.031 83.0581 256.545Z" fill="white"/>
<path d="M81.0051 260.189C83.4663 260.604 85.8799 261.292 88.276 261.989C90.6761 262.687 93.0491 263.479 95.3828 264.365C96.7266 264.875 98.0704 265.396 99.3613 266.017C96.9232 265.609 94.5326 264.927 92.1582 264.239C89.7229 263.533 87.3146 262.731 84.947 261.828C83.6181 261.321 82.2852 260.804 81.0051 260.189C83.3402 260.583 82.0831 260.705 81.0051 260.189Z" fill="white"/>
<path d="M78.9521 263.832C81.6018 264.309 84.2012 265.056 86.7844 265.812C89.4313 266.588 92.0511 267.457 94.6302 268.427C96.0554 268.963 97.4833 269.508 98.8596 270.153C96.21 269.679 93.6105 268.931 91.0273 268.176C88.3872 267.403 85.7742 266.536 83.2019 265.567C81.7699 265.028 80.3353 264.479 78.9521 263.832C81.4987 264.291 80.1102 264.373 78.9521 263.832Z" fill="white"/>
<path d="M76.8992 267.476C79.7603 268.028 82.574 268.835 85.3701 269.657C88.1811 270.484 90.9622 271.407 93.7081 272.425C95.273 273.005 96.8391 273.601 98.3579 274.289C95.4954 273.74 92.6789 272.931 89.8842 272.108C87.076 271.283 84.2975 270.359 81.5557 269.341C79.9881 268.76 78.4206 268.164 76.8992 267.476C79.5637 267.989 77.9894 267.968 76.8992 267.476Z" fill="white"/>
<path d="M69.3015 246.136C71.1308 246.828 72.781 247.887 74.3635 248.973C75.8402 249.988 77.2911 251.075 78.4545 252.389C76.6239 251.7 74.9737 250.64 73.3926 249.551C71.9172 248.536 70.4677 247.449 69.3015 246.136C71.0467 246.796 70.4961 247.481 69.3015 246.136Z" fill="white"/>
<path d="M67.1848 247.861C69.1741 248.661 70.9762 249.824 72.7132 251.017C74.3431 252.136 75.9527 253.321 77.2694 254.749C75.2774 253.952 73.478 252.787 71.741 251.593C70.111 250.473 68.5028 249.287 67.1848 247.861C69.0914 248.628 68.5313 249.319 67.1848 247.861Z" fill="white"/>
<path d="M65.0681 249.585C67.1984 250.483 69.1334 251.739 71.0115 253.024C72.815 254.259 74.5954 255.557 76.0829 257.109C73.9513 256.215 72.0176 254.957 70.1409 253.671C68.3388 252.436 66.5584 251.136 65.0681 249.585C67.1347 250.456 66.5746 251.152 65.0681 249.585Z" fill="white"/>
<path d="M62.9526 251.309C65.2402 252.316 67.3284 253.676 69.3597 255.067C71.3178 256.407 73.2555 257.807 74.8977 259.469C72.6087 258.467 70.5205 257.105 68.4892 255.713C66.5325 254.372 64.5975 252.971 62.9526 251.309C65.1792 252.288 64.6137 252.987 62.9526 251.309Z" fill="white"/>
<path d="M60.8359 253.035C63.3025 254.157 65.5602 255.637 67.7664 257.148C69.8587 258.581 71.9294 260.075 73.7125 261.829C71.2446 260.711 68.9868 259.228 66.782 257.717C64.6897 256.283 62.6204 254.788 60.8359 253.035C63.2211 254.12 62.6543 254.82 60.8359 253.035Z" fill="white"/>
<path d="M116.633 261.167C114.907 261.564 113.083 261.608 111.283 261.584C109.352 261.557 107.385 261.464 105.489 260.973C107.214 260.573 109.039 260.531 110.839 260.556C112.77 260.584 114.737 260.679 116.633 261.167C114.866 261.573 114.823 260.7 116.633 261.167Z" fill="white"/>
<path d="M117.324 263.783C115.405 264.179 113.397 264.219 111.409 264.189C109.29 264.159 107.136 264.069 105.047 263.569C106.964 263.171 108.974 263.132 110.962 263.163C113.081 263.195 115.235 263.285 117.324 263.783C115.363 264.188 115.321 263.307 117.324 263.783Z" fill="white"/>
<path d="M118.014 266.399C115.884 266.801 113.667 266.829 111.47 266.795C109.183 266.759 106.867 266.664 104.605 266.167C106.734 265.76 108.952 265.735 111.149 265.769C113.437 265.807 115.753 265.904 118.014 266.399C115.862 266.805 115.819 265.919 118.014 266.399Z" fill="white"/>
<path d="M118.705 269.013C116.383 269.415 113.98 269.439 111.595 269.401C109.119 269.361 106.616 269.265 104.163 268.763C106.483 268.359 108.887 268.336 111.274 268.376C113.748 268.416 116.252 268.513 118.705 269.013C116.36 269.419 116.317 268.527 118.705 269.013Z" fill="white"/>
<path d="M119.396 271.629C116.905 272.025 114.338 272.048 111.788 272.008C109.102 271.965 106.388 271.869 103.721 271.359C106.211 270.96 108.777 270.94 111.328 270.98C114.016 271.024 116.728 271.121 119.396 271.629C116.859 272.033 116.816 271.139 119.396 271.629Z" fill="white"/>
<path d="M62.2693 269.267C65.0071 270.811 67.799 272.209 70.7646 273.323C73.722 274.433 76.7961 275.215 79.9068 275.74C81.435 275.997 82.97 276.169 84.5063 276.328C78.2403 277.013 71.5402 275.363 66.1149 272.095C64.7358 271.263 63.4544 270.319 62.2693 269.267Z" fill="white"/>
<path d="M86.8875 277.084C89.6252 278.627 92.4172 280.027 95.3828 281.14C98.3389 282.251 101.414 283.032 104.525 283.557C106.052 283.815 107.587 283.987 109.124 284.145C102.858 284.831 96.1584 283.18 90.7331 279.912C89.3527 279.08 88.0712 278.136 86.8875 277.084Z" fill="white"/>
<path d="M107.156 211.428C105.866 211.019 101.135 216.063 94.7686 235.447C90.0863 249.705 78.0667 293.832 79.6899 295.055C81.7334 294.996 98.2318 252.292 102.915 238.033C109.282 218.649 108.445 211.837 107.156 211.428Z" fill="white"/>
<path d="M106.586 213.163C104.96 214.727 101.083 220.604 96.0729 235.861C92.1161 247.905 84.3909 276.203 81.782 288.683C87.0894 277.06 97.6553 249.664 101.612 237.62C106.623 222.364 106.975 215.367 106.586 213.163ZM79.2693 296.336C79.1215 296.289 78.9819 296.217 78.8571 296.124C77.9133 295.413 77.0238 294.743 83.538 269.804C86.8995 256.935 91.0747 242.312 93.4653 235.033C98.934 218.381 104.21 209.077 107.576 210.147C108.167 210.335 109.966 210.905 109.269 217.749C108.756 222.795 107.009 229.952 104.218 238.448C101.828 245.727 96.5163 259.989 91.5872 272.36C82.0383 296.335 80.9169 296.367 79.729 296.401C79.5717 296.405 79.4158 296.384 79.2693 296.336Z" fill="#211C1D"/>
<path d="M133.58 58.2973C130.442 64.3773 102.682 117.128 98.6901 124.352C94.6981 131.577 91.1454 145.132 68.4039 156.309C45.6611 167.487 33.5805 172.496 29.0012 174.935C24.422 177.372 17.3613 179.168 11.7082 189.788C7.83272 197.069 5.54378 201.984 4.64882 204.707C3.75522 207.431 2.20397 209.415 5.30921 211.463C8.4158 213.509 64.4742 243.872 64.4742 243.872L71.8603 246.217L133.58 58.2973Z" fill="white"/>
<path d="M65.0191 242.631L70.9774 244.521L127.131 73.5479C117.69 91.5092 102.819 119.701 99.8941 124.996C99.3273 126.021 98.751 127.217 98.1408 128.484C94.4403 136.163 88.8495 147.767 69.0153 157.515C55.3468 164.232 45.429 168.768 38.8673 171.769C34.3993 173.813 31.4473 175.164 29.6533 176.119C28.8899 176.525 28.0776 176.907 27.2179 177.309C22.8706 179.351 17.4588 181.889 12.9216 190.412C8.30849 199.08 6.58503 203.195 5.95314 205.121C5.79177 205.609 5.61821 206.06 5.45007 206.496C4.6107 208.667 4.45745 209.279 6.07245 210.344C8.48477 211.935 45.6161 232.121 65.0191 242.631ZM71.4384 247.499L64.0537 245.153C63.9696 245.127 63.8896 245.093 63.8137 245.052C61.522 243.811 7.66575 214.637 4.54695 212.581C1.0566 210.28 2.07225 207.652 2.88856 205.54C3.0445 205.135 3.20724 204.717 3.34555 204.293C4.31374 201.347 6.71927 196.256 10.4944 189.164C15.4546 179.845 21.5715 176.975 26.0382 174.879C26.8654 174.491 27.6464 174.124 28.3488 173.749C30.216 172.756 33.1979 171.392 37.712 169.327C44.2601 166.332 54.1562 161.805 67.7908 155.105C86.7789 145.773 92.1269 134.675 95.6647 127.331C96.2926 126.029 96.8838 124.8 97.4872 123.709C101.604 116.26 129.425 63.3732 132.357 57.6879C132.681 57.0612 133.444 56.7852 134.101 57.0519C134.762 57.3199 135.103 58.0425 134.883 58.7105L73.1633 246.631C72.9314 247.339 72.1585 247.728 71.4384 247.499Z" fill="#211C1D"/>
<path d="M8.95662 199.261C15.8668 188.632 26.2741 184.973 30.8533 182.535C35.4325 180.097 47.3016 175.728 70.0444 164.551C92.7873 153.373 98.6954 137.028 102.687 129.804C105.021 125.58 119.045 90.5599 131.999 61.3318C125.247 74.2478 102.02 117.695 98.6899 124.352C94.9379 131.853 91.1452 145.132 68.4037 156.309C45.6609 167.487 33.5802 172.496 29.001 174.935C24.4218 177.372 17.3611 179.168 11.708 189.788C7.83251 197.069 5.54357 201.984 4.64861 204.707C4.10621 206.361 3.32246 207.743 3.48518 209.032C4.70694 206.345 6.29615 203.355 8.95662 199.261Z" fill="#211C1D"/>
<path d="M35.7634 225.253C50.556 233.315 65.3161 241.309 65.3161 241.309L72.7022 243.655L76.1777 233.069L38.3385 217.845L35.7634 225.253Z" fill="#211C1D"/>
<path d="M30.6392 225.675C30.6392 225.675 30.8154 225.245 31.1246 224.496C31.4432 223.749 31.8826 222.677 32.4399 221.401C32.7192 220.764 33.0216 220.073 33.3403 219.343C33.6617 218.613 34.0007 217.844 34.3519 217.047C35.0611 215.459 35.8286 213.768 36.6056 212.08C36.9961 211.239 37.388 210.396 37.7731 209.567C38.1622 208.739 38.5473 207.925 38.9189 207.137C39.6592 205.56 40.3915 204.105 40.999 202.849C41.6038 201.593 42.1489 200.563 42.5109 199.833C42.8865 199.108 43.1008 198.695 43.1008 198.695C43.1008 198.695 42.9652 199.14 42.7279 199.919C42.4784 200.692 42.1489 201.808 41.7041 203.128C41.2634 204.448 40.7712 205.999 40.2003 207.643C39.9169 208.464 39.624 209.315 39.3257 210.177C39.0219 211.039 38.7128 211.915 38.405 212.789C37.7826 214.537 37.152 216.281 36.5499 217.913C36.2448 218.727 35.9492 219.513 35.6699 220.26C35.3892 221.005 35.1221 221.711 34.8767 222.361C34.3858 223.661 33.9505 224.736 33.6576 225.493C33.3552 226.245 33.1817 226.676 33.1817 226.676L30.6392 225.675Z" fill="#211C1D"/>
<path d="M21.169 210.755L19.3655 211.76C18.1953 212.587 17.2041 213.553 16.4434 214.683C20.4368 216.883 25.2479 219.516 30.2732 222.259L33.2659 215.623L21.169 210.755Z" fill="#211C1D"/>
<path d="M36.3318 208.823L37.2092 206.879C35.4857 207.044 33.7473 207.247 32.0374 207.509L36.3318 208.823Z" fill="#211C1D"/>
<path d="M78.5995 178.949C73.5145 190.78 66.8497 203.405 50.7364 205.719C48.4271 206.051 45.4914 206.239 42.2953 206.467L40.8945 210.496L79.1731 223.949L133.58 58.2972C129.593 67.3092 83.4363 167.696 78.5995 178.949Z" fill="#211C1D"/>
<path d="M39.0899 211.44L36.9935 210.697L6.54587 199.919C6.02245 201.132 5.58175 202.205 5.22241 203.143L35.2036 215.205L37.3894 216.084L76.5778 231.851L78.6796 225.455L39.0899 211.44Z" fill="#211C1D"/>
<path d="M148.419 50.1693L144.585 50.312C144.383 50.3186 144.184 50.2906 143.995 50.2319C143.666 50.1266 143.372 49.924 143.156 49.6453C142.818 49.2066 142.721 48.6346 142.892 48.112L144.874 42.0759C145.179 41.1493 146.528 40.4693 146.892 40.36L154.871 37.964C154.975 37.9333 155.079 37.9159 155.185 37.9053C157.488 33.7439 159.956 29.5026 162.406 25.428C162.608 25.0906 163.217 25.2933 163.419 24.96C163.822 24.2933 163.816 23.0946 164.216 22.4399C168.821 14.9013 173.197 8.17728 176.103 3.93861C175.88 3.82127 175.647 3.72128 175.399 3.64261C171.163 2.29729 166.561 7.91196 164.057 10.42C161.554 12.928 140.174 38.2186 134.246 56.2679C130.175 68.6613 72.9871 242.785 72.9871 242.785L62.5188 243.251L73.1702 246.633L83.6385 246.167C83.6385 246.167 140.826 72.044 144.897 59.6506C145.799 56.9053 147.168 53.66 148.849 50.12C148.709 50.1466 148.565 50.1639 148.419 50.1693Z" fill="#211C1D"/>
<path d="M143.252 65.6866C141.19 64.652 139.104 63.6773 136.974 62.7826C139.281 63.144 141.564 63.5933 143.84 64.104C143.644 64.632 143.448 65.1586 143.252 65.6866Z" fill="white"/>
<path d="M130.895 103.312C128.831 102.279 126.746 101.304 124.617 100.409C126.923 100.769 129.205 101.219 131.482 101.731C131.287 102.257 131.09 102.785 130.895 103.312Z" fill="white"/>
<path d="M118.574 140.825C116.511 139.792 114.425 138.817 112.296 137.922C114.603 138.282 116.885 138.732 119.162 139.244C118.966 139.77 118.77 140.297 118.574 140.825Z" fill="white"/>
<path d="M106.254 178.339C104.19 177.305 102.105 176.33 99.9756 175.436C102.281 175.796 104.564 176.247 106.841 176.757C106.644 177.285 106.449 177.812 106.254 178.339Z" fill="white"/>
<path d="M132.328 62.1665C133.509 61.9052 134.758 61.8532 135.965 61.8185C137.521 61.7745 139.077 61.8372 140.626 61.9678C143.769 62.2358 146.867 62.7838 149.933 63.5012C156.189 64.9625 162.323 67.2718 167.927 70.3692C169.437 71.2025 170.908 72.1252 172.299 73.1372C173.438 73.9665 174.614 74.8465 175.558 75.8932C173.266 74.5425 170.839 73.4078 168.394 72.3505C165.53 71.1105 162.615 69.9878 159.669 68.9505C153.693 66.8438 147.6 65.0505 141.411 63.6599C138.425 62.9879 135.383 62.4185 132.328 62.1665Z" fill="#211C1D"/>
<path d="M119.998 99.7078C121.181 99.4465 122.43 99.3945 123.636 99.3598C125.19 99.3158 126.748 99.3771 128.297 99.5091C131.439 99.7771 134.537 100.325 137.605 101.042C143.858 102.504 149.994 104.812 155.597 107.91C157.107 108.744 158.578 109.666 159.969 110.678C161.11 111.508 162.284 112.388 163.229 113.434C160.936 112.084 158.509 110.949 156.065 109.892C153.201 108.652 150.285 107.529 147.339 106.49C141.363 104.385 135.27 102.592 129.081 101.2C126.095 100.529 123.053 99.9598 119.998 99.7078Z" fill="#211C1D"/>
<path d="M107.668 137.248C108.851 136.988 110.1 136.936 111.306 136.901C112.86 136.857 114.418 136.918 115.967 137.05C119.109 137.318 122.207 137.866 125.275 138.584C131.528 140.045 137.664 142.353 143.269 145.45C144.777 146.285 146.249 147.208 147.64 148.22C148.779 149.049 149.955 149.929 150.899 150.976C148.606 149.625 146.18 148.49 143.735 147.433C140.871 146.193 137.956 145.07 135.009 144.032C129.033 141.926 122.939 140.133 116.751 138.741C113.765 138.07 110.723 137.501 107.668 137.248Z" fill="#211C1D"/>
<path d="M95.3381 174.789C96.5206 174.529 97.7695 174.477 98.9763 174.443C100.53 174.399 102.088 174.46 103.637 174.592C106.779 174.859 109.879 175.408 112.944 176.124C119.198 177.585 125.334 179.895 130.939 182.992C132.446 183.825 133.919 184.749 135.31 185.761C136.449 186.589 137.625 187.469 138.569 188.517C136.277 187.165 133.85 186.032 131.405 184.973C128.541 183.735 125.626 182.611 122.681 181.573C116.705 179.468 110.611 177.675 104.422 176.283C101.436 175.612 98.3946 175.043 95.3381 174.789Z" fill="#211C1D"/>
<path d="M85.1965 206.217C85.8827 204.112 86.5688 202.007 87.255 199.901C89.0978 194.247 90.9419 188.592 92.7847 182.936C95.1387 175.712 97.5049 168.491 99.8766 161.271C102.42 153.529 104.959 145.787 107.508 138.047C110.148 130.032 112.786 122.016 115.441 114.007C118.132 105.887 120.823 97.768 123.514 89.648C126.153 81.6893 128.791 73.732 131.429 65.7733C132.078 63.8186 132.726 61.864 133.381 59.912C134.041 57.944 134.673 55.9666 135.476 54.0493C137.061 50.2693 139.003 46.636 141.05 43.08C145.035 36.1573 149.503 29.5066 154.26 23.0746C156.545 19.984 158.899 16.9413 161.381 14.0013C163.647 11.3173 165.987 8.64798 168.61 6.2933C169.62 5.38531 170.683 4.52264 171.898 3.89464C170.633 4.61331 169.553 5.59195 168.523 6.60129C167.198 7.89728 165.959 9.27596 164.753 10.6786C162.284 13.5546 159.977 16.5666 157.73 19.6106C153.001 26.0146 148.6 32.6653 144.536 39.4946C142.383 43.112 140.325 46.7946 138.516 50.5906C137.596 52.5213 136.733 54.4826 136.025 56.4986C135.324 58.4946 134.722 60.5266 134.068 62.5373C131.447 70.5933 128.825 78.6506 126.203 86.7066C123.514 94.9706 120.827 103.233 118.138 111.497C115.481 119.66 112.811 127.819 110.14 135.976C107.543 143.908 104.937 151.836 102.334 159.767C99.9227 167.109 97.5104 174.451 95.0818 181.788C93.1047 187.764 91.1263 193.739 89.1493 199.715C88.5933 201.392 88.0387 203.071 87.4828 204.749C87.3309 205.209 87.179 205.669 87.0258 206.129C86.9946 206.224 86.9227 206.663 86.8305 206.72C86.7546 206.767 86.4183 206.605 86.3247 206.576C85.9491 206.456 85.5721 206.337 85.1965 206.217Z" fill="white"/>
<path d="M99.8875 213.341C99.741 211.172 98.263 209.312 96.1585 208.644L88.5337 206.223C86.2529 205.499 82.1998 206.335 78.8193 209.507C75.4388 212.679 69.7517 221.228 66.2017 232.037C62.6517 242.845 62.5188 243.251 62.5188 243.251L89.0761 251.684C89.0761 251.684 97.863 224.931 99.284 220.604C100.014 218.381 100.038 215.559 99.8875 213.341Z" fill="white"/>
<path d="M64.2435 242.384L88.1932 249.989L97.9808 220.191C98.5219 218.543 98.709 216.205 98.5205 213.429C98.4107 211.803 97.3191 210.427 95.738 209.925L88.1132 207.504C86.2392 206.909 82.6756 207.749 79.7657 210.481C76.834 213.231 71.151 221.351 67.5061 232.451L64.2435 242.384ZM88.6556 252.965L62.0984 244.533C61.3783 244.304 60.9824 243.545 61.2156 242.837L64.8985 231.623C68.3007 221.264 74.0013 212.167 77.8741 208.532C81.7631 204.883 86.345 204.112 88.9553 204.941L96.5801 207.363C99.2351 208.205 101.07 210.517 101.254 213.252C101.468 216.408 101.243 219.021 100.587 221.019L90.3791 252.099C90.1472 252.805 89.3756 253.195 88.6556 252.965Z" fill="#211C1D"/>
<path d="M121.562 82.9546C120.047 86.0479 118.532 89.1412 117.029 92.2399C114.699 97.0399 112.387 101.848 110.075 106.656C107.678 111.645 105.291 116.64 102.89 121.628C101.643 124.215 100.362 126.787 99.1511 129.389C97.9443 131.983 96.6655 134.54 95.1373 136.968C92.2423 141.567 88.5187 145.597 84.2934 149.049C80.0708 152.5 75.398 155.387 70.5435 157.893C65.445 160.525 60.2393 162.977 55.0526 165.435C49.8428 167.903 44.5992 170.3 39.342 172.669C36.7493 173.839 34.139 174.976 31.5707 176.196C30.3246 176.789 29.1028 177.423 27.8404 177.979C26.5359 178.553 25.226 179.116 23.9487 179.747C21.5214 180.944 19.261 182.411 17.2554 184.216C15.5021 185.795 13.9454 187.572 12.58 189.483C12.0579 190.213 11.563 190.957 11.0762 191.711C13.1997 187.785 15.8696 184.229 19.4617 181.481C21.6638 179.796 24.1019 178.532 26.6024 177.336C28.9957 176.192 31.328 174.931 33.7214 173.784C38.6965 171.403 43.7178 169.111 48.7146 166.772C53.8864 164.351 59.0487 161.913 64.1893 159.431C69.0831 157.067 73.9525 154.688 78.4694 151.664C82.852 148.731 86.9051 145.253 90.2652 141.212C92.0253 139.096 93.5861 136.821 94.9461 134.437C96.3482 131.98 97.5008 129.399 98.7565 126.868C101.223 121.897 103.713 116.939 106.228 111.992C108.63 107.272 111.04 102.557 113.504 97.8679C115.804 93.4892 118.113 89.1133 120.533 84.7959C120.876 84.1826 121.219 83.5679 121.562 82.9546Z" fill="white"/>
<path d="M161.364 28.684C159.41 27.812 157.345 27.1906 155.272 26.6533C157.473 26.6413 159.688 26.7226 161.864 27.0746C161.698 27.6106 161.531 28.148 161.364 28.684Z" fill="white"/>
<path d="M66.3984 241.299L87.091 247.869L88.9609 242.175C84.76 239.641 77.4065 233.953 79.1177 225.912C80.8168 217.929 83.5952 212.828 86.3384 209.04C84.9892 209.167 82.9376 209.832 80.947 211.699C78.2499 214.229 72.6577 222.243 69.1348 232.968L66.3984 241.299Z" fill="#211C1D"/>
<path d="M120.303 219.824C120.377 219.735 120.454 219.651 120.534 219.568L116.785 218.377C115.875 218.089 114.894 218.369 114.287 219.091C112.622 221.071 111.489 222.883 111.015 224.329L101.755 252.525L107.211 254.259C109.522 247.225 115.339 229.512 116.473 226.063C117.202 223.839 118.862 221.536 120.303 219.824Z" fill="#211C1D"/>
<path d="M146.504 42.5933L144.521 48.6293L148.355 48.4866C148.842 48.4693 149.265 48.1533 149.415 47.6973L149.989 45.9519C150.146 45.4733 149.966 44.9493 149.544 44.6626L146.504 42.5933Z" fill="#211C1D"/>
<path d="M155.371 39.5745L147.392 41.9705L150.473 44.0665C150.77 44.2679 151.144 44.3225 151.489 44.2145L153.748 43.5025C154.123 43.3839 154.412 43.0865 154.514 42.7119L155.371 39.5745Z" fill="#211C1D"/>
<path d="M170.843 52.5745L170.269 54.3198C170.12 54.7758 170.276 55.2758 170.66 55.5705L173.685 57.8905L175.667 51.8545L171.97 51.7838C171.458 51.7745 171 52.0945 170.843 52.5745Z" fill="#211C1D"/>
<path d="M175.318 50.8373L170.27 44.3066L169.1 47.344C168.961 47.7066 169.018 48.1133 169.251 48.4253L170.66 50.3026C170.874 50.5879 171.21 50.7586 171.571 50.7666L175.318 50.8373Z" fill="#211C1D"/>
<path d="M156.045 45.1746L166.392 48.46C166.963 48.6413 167.58 48.3653 167.816 47.824L167.824 47.8053L169.515 43.4186C168.783 42.7906 166.49 40.9733 163.455 40.0093C160.412 39.0426 157.478 39.2 156.513 39.2893L155.269 43.84C155.139 44.416 155.475 44.9933 156.045 45.1746Z" fill="#211C1D"/>
<path d="M94.7686 235.447C90.0863 249.705 78.0667 293.832 79.6899 295.055L107.156 211.428C105.866 211.019 101.135 216.063 94.7686 235.447Z" fill="#211C1D"/>
<path d="M172.305 13.3626C171.701 13.1719 170.855 14.0372 170.455 15.2519C170.056 16.4679 170.228 17.6572 170.832 17.8492C171.436 18.0399 172.283 17.1759 172.682 15.9599C173.082 14.7439 172.91 13.5546 172.305 13.3626Z" fill="white"/>
<path d="M169.142 12.3799C169.12 12.3693 169.098 12.3613 169.075 12.3533C168.493 12.1693 167.587 12.9146 167.056 14.0146C166.498 15.1693 166.511 16.3693 167.083 16.6373C167.662 16.9119 168.617 16.1453 169.17 15.0026C169.728 13.8479 169.714 12.6479 169.142 12.3799Z" fill="white"/>
<path d="M175.527 14.4025C175.504 14.3945 175.481 14.3892 175.458 14.3852C174.834 14.2732 174.108 15.2399 173.875 16.4959C173.651 17.6945 173.943 18.8198 174.525 19.0052C174.548 19.0118 174.571 19.0185 174.594 19.0225C174.876 19.0732 175.206 18.8919 175.496 18.5239C175.816 18.1212 176.057 17.5478 176.177 16.9105C176.4 15.7118 176.107 14.5865 175.527 14.4025Z" fill="white"/>
</svg>
