<svg width="354" height="325" viewBox="0 0 354 325" fill="none" xmlns="http://www.w3.org/2000/svg">
<path d="M353.225 202.256C352.733 200.642 351.463 199.373 349.831 198.864L268.712 173.555C269.242 172.184 269.421 170.776 269.245 169.357C269.131 168.44 268.909 167.557 268.581 166.725L270.308 161.306C271.222 158.435 270.541 155.307 268.581 153.074L274.52 147.284C277.522 144.36 278.454 140.405 277.218 135.848C276.661 133.8 275.796 132.112 275.081 130.951C275.184 130.728 275.281 130.505 275.371 130.285L279.876 125.896C283.323 122.531 283.544 117.838 280.452 113.624C280.09 113.144 278.287 110.784 275.91 109.251C275.931 109.131 275.95 109.011 275.967 108.891C276.249 106.811 275.91 103.664 272.704 100.478C269.671 97.4642 266.631 97.0375 264.616 97.1975C263.265 97.3042 261.891 97.7442 260.735 98.4109C258.118 95.9442 254.825 94.7975 251.163 95.1041C250.848 95.1175 250.523 95.1576 250.177 95.2109C248.15 93.9576 246.151 93.1575 244.103 92.7975L243.254 92.0109C243.32 91.9176 243.363 91.8508 243.372 91.8374C246.265 87.2241 248.234 82.7308 248.914 79.1975C249.248 77.4775 254.684 55.2908 259.053 37.4642C262.4 23.8108 265.561 10.9176 266.167 8.27759C266.812 5.49091 266.456 3.30423 265.109 1.78421C263.986 0.504211 262.244 -0.135803 260.328 0.0242004C259.369 0.104187 258.44 0.384155 257.716 0.797516C256.598 1.45084 255.563 2.21082 253.989 3.37082C252.935 4.14413 251.625 5.11755 249.908 6.31757C245.2 9.63754 241.227 16.6109 239.829 20.2242C238.94 22.5309 221.973 65.9576 212.176 90.8509C211.15 90.7709 210.1 90.7709 209.049 90.8509C202.783 91.3709 197.995 94.8509 197.789 95.0109C193.485 98.2376 171.831 114.638 168.193 120.544C165.404 125.064 165.649 129.583 166.175 132.222C163.275 134.164 157.5 138.035 150.183 142.943L98.6873 134.419C97.6608 134.248 96.5828 134.257 95.5427 134.448C95.2837 134.495 95.0166 134.558 94.7237 134.639C94.6545 134.655 94.5881 134.672 94.5311 134.688C94.2559 134.771 93.9765 134.871 93.6768 134.992C93.6307 135.009 93.5806 135.029 93.5521 135.041C92.5717 135.456 91.6876 136.026 90.9269 136.73L79.3032 147.452C76.3526 150.186 75.5715 154.384 77.3438 157.862L89.3132 183.936L86.9063 185.571C86.8589 185.6 86.8182 185.628 86.7775 185.655L86.5212 185.823C86.4534 185.867 86.3884 185.915 86.3273 185.964C80.4518 189.963 76.4733 192.701 74.503 194.104L73.4006 194.888C61.5627 203.308 50.3797 211.262 39.2795 224.779C28.1698 238.308 20.282 253.209 8.61088 276.143C-4.50842 301.921 -0.228871 313.888 5.67109 319.388C10.0876 323.504 16.8174 325.225 25.6734 324.503C32.0127 323.985 39.289 322.2 46.7158 319.34C77.7235 307.399 139.85 275.043 173.227 257.659L174.801 256.839C181.51 253.344 187.306 250.327 191.321 248.269C213.351 236.987 219.522 236.319 228.863 235.308L228.988 235.295C229.963 235.19 230.969 235.08 232.027 234.956C234.091 234.714 237.764 234.296 242.463 233.762L243.524 233.641C263.214 231.404 299.863 227.24 312.594 225.303C326.46 223.192 342.19 217.498 346.94 212.867C348.83 211.027 350.892 208.617 352.289 206.92C353.367 205.612 353.717 203.868 353.225 202.256Z" fill="#211C1D"/>
<path d="M88.5498 188.547C88.5172 188.574 88.4834 188.6 88.4467 188.626C82.4953 192.674 78.4815 195.436 76.5139 196.836L75.4129 197.62C63.7648 205.906 52.7623 213.731 41.9495 226.898C31.0568 240.163 23.2462 254.922 11.6781 277.654C-0.49874 301.583 2.97399 312.226 8.03187 316.94C11.7093 320.367 17.5483 321.78 25.3887 321.14C31.4012 320.65 38.3439 318.942 45.4656 316.199C76.2685 304.336 139.28 271.52 173.132 253.891L173.195 253.858C179.92 250.355 185.728 247.331 189.736 245.278C212.336 233.703 218.761 233.008 228.488 231.956L228.612 231.942C229.577 231.838 230.572 231.73 231.619 231.607C233.802 231.35 237.784 230.898 242.873 230.319L243.13 230.29C262.797 228.055 299.404 223.896 312.069 221.97C324.882 220.019 340.351 214.539 344.525 210.471C346.305 208.736 348.279 206.428 349.623 204.798C349.987 204.356 350.105 203.768 349.939 203.226C349.772 202.68 349.344 202.252 348.792 202.08L265.131 175.976C264.753 175.859 264.457 175.57 264.335 175.199C264.213 174.83 264.281 174.424 264.517 174.111C265.246 173.143 266.066 171.603 265.84 169.766C265.733 168.911 265.496 168.11 265.131 167.384C264.991 167.106 264.965 166.786 265.06 166.491L267.035 160.296C267.775 157.97 266.815 155.471 264.7 154.218C264.376 154.026 264.16 153.698 264.115 153.33C264.07 152.96 264.201 152.591 264.469 152.33L272.106 144.888C274.182 142.864 274.805 140.039 273.903 136.718C273.354 134.698 272.33 132.859 271.553 131.812C271.275 131.436 271.241 130.938 271.466 130.53C271.813 129.896 272.106 129.264 272.334 128.655C272.396 128.49 272.494 128.339 272.621 128.215L277.461 123.504C279.72 121.304 279.795 118.491 277.671 115.611C276.521 114.038 274.531 112.091 272.874 111.491C272.562 111.384 272.308 111.144 272.174 110.838C272.04 110.544 272.037 110.198 272.164 109.904C272.365 109.424 272.499 108.931 272.566 108.451C272.746 107.118 272.494 105.064 270.267 102.851C268.164 100.771 266.187 100.451 264.899 100.558C263.306 100.691 262.133 101.464 261.734 101.851C261.585 101.998 261.398 102.144 261.146 102.318C260.61 102.678 259.875 102.571 259.475 102.064C257.384 99.411 254.683 98.1977 251.446 98.4644C251.014 98.491 250.54 98.5711 249.956 98.6911C249.629 98.7577 249.287 98.691 249.011 98.5043C246.181 96.5844 243.434 95.7577 240.614 95.971C240.361 95.9843 240.114 95.9177 239.904 95.7977C239.73 95.971 239.504 96.0911 239.257 96.1445L239.15 96.1577C238.679 96.2511 238.195 96.0645 237.916 95.6778C237.637 95.2911 237.612 94.7843 237.854 94.371C238.955 92.5043 239.828 91.0644 240.452 90.0644C243.13 85.7844 244.939 81.7043 245.545 78.571C245.891 76.771 251.111 55.4778 255.717 36.6778C259.063 23.0245 262.222 10.1311 262.822 7.53107C263.205 5.87772 263.101 4.65112 262.519 3.98444C261.954 3.34445 260.998 3.35779 260.613 3.38446C260.097 3.42444 259.684 3.57104 259.468 3.70438C258.51 4.26437 257.532 4.98441 256.052 6.06439C254.984 6.85107 253.655 7.83774 251.904 9.06439C248.028 11.7977 244.385 17.9311 243.035 21.4244C242.094 23.8511 224.485 68.9445 214.745 93.6778C214.529 94.2245 213.947 94.5444 213.363 94.4244C212.069 94.1711 210.712 94.1044 209.333 94.2111C204.036 94.6511 200.032 97.5711 199.864 97.6911C191.134 104.238 173.884 117.811 171.126 122.291C168.409 126.695 169.332 131.119 169.856 132.818C170.01 133.322 169.815 133.867 169.371 134.163C167.146 135.654 160.361 140.198 151.383 146.222C151.121 146.396 150.801 146.467 150.488 146.415L98.1177 137.746C97.4831 137.64 96.816 137.646 96.1638 137.766C96.0078 137.794 95.8329 137.836 95.6118 137.898C95.5739 137.908 95.5359 137.918 95.4979 137.926C95.3284 137.979 95.1522 138.043 94.9555 138.123C94.9379 138.131 94.9068 138.142 94.881 138.152C94.2789 138.41 93.7406 138.759 93.2768 139.188L81.6546 149.908C79.8172 151.612 79.3317 154.234 80.4491 156.431L93.1982 184.198C93.4409 184.728 93.2646 185.354 92.7765 185.684C91.3947 186.622 90.0699 187.522 88.8088 188.379C88.7871 188.395 88.764 188.408 88.741 188.423L88.5498 188.547ZM25.5921 323.542C17.0262 324.242 10.5513 322.608 6.34637 318.69C0.686427 313.414 -3.3626 301.826 9.48686 276.575C21.1295 253.699 28.9943 238.839 40.043 225.384C51.0605 211.967 62.1919 204.05 73.9769 195.668L75.078 194.884C77.0442 193.484 81.0308 190.74 86.9294 186.728C86.9714 186.691 87.0175 186.655 87.065 186.624L87.3199 186.458C87.3592 186.431 87.3985 186.406 87.4446 186.378C88.4386 185.702 89.4732 184.999 90.5431 184.272L78.2374 157.464C76.6523 154.352 77.3424 150.594 79.9758 148.154L91.5981 137.432C92.2761 136.804 93.0639 136.298 93.9399 135.927C93.9616 135.918 94.0023 135.902 94.0335 135.891C94.3115 135.776 94.5678 135.686 94.8159 135.612C94.8607 135.598 94.9135 135.586 94.9664 135.574C95.2349 135.498 95.4844 135.439 95.7203 135.395C96.6506 135.227 97.6079 135.218 98.5245 135.37L150.409 143.958C158.376 138.614 164.559 134.471 167.274 132.652C166.691 130.244 166.192 125.638 169.031 121.038C172.653 115.158 195.761 97.7444 198.384 95.771C198.581 95.6243 203.136 92.3045 209.131 91.8111C210.38 91.7178 211.616 91.7444 212.818 91.8911C222.624 66.9844 239.816 22.971 240.746 20.571C242.103 17.051 245.946 10.291 250.479 7.10437C252.208 5.89105 253.525 4.91782 254.584 4.14447C256.127 3.01114 257.147 2.25104 258.217 1.6377C258.817 1.27771 259.596 1.05112 260.409 0.984436C262.011 0.851105 263.453 1.37115 264.37 2.41113C265.5 3.69113 265.783 5.59772 265.211 8.06439C264.609 10.6777 261.448 23.5844 258.1 37.2377C253.5 56.011 248.287 77.2777 247.952 79.0244C247.291 82.4377 245.368 86.811 242.537 91.331C242.48 91.4244 241.284 93.1844 241.223 93.2911L242.941 93.5977C245.307 93.851 247.626 94.7311 249.967 96.2244C250.433 96.1444 250.847 96.091 251.244 96.0644C254.892 95.7577 258.103 96.9978 260.599 99.6511C261.529 98.9711 262.976 98.3044 264.697 98.1577C266.504 98.0111 269.24 98.4111 272.007 101.158C274.935 104.064 275.247 106.904 274.994 108.771C274.951 109.091 274.887 109.411 274.803 109.718C277.35 111.118 279.403 113.851 279.658 114.198C282.489 118.051 282.313 122.171 279.186 125.211L274.536 129.743C274.369 130.163 274.179 130.588 273.967 131.016C274.607 131.991 275.649 133.808 276.27 136.096C277.411 140.3 276.567 143.934 273.831 146.6L267.201 153.06C269.406 155.036 270.296 158.12 269.372 161.016L267.539 166.768C267.908 167.614 268.153 168.522 268.271 169.474C268.499 171.312 268.02 172.906 267.372 174.148L349.534 199.784C350.857 200.196 351.886 201.224 352.285 202.534C352.685 203.84 352.4 205.252 351.527 206.314C350.147 207.991 348.109 210.372 346.251 212.182C341.621 216.694 326.14 222.267 312.443 224.351C299.732 226.286 263.094 230.448 243.412 232.684L243.154 232.712C238.071 233.291 234.092 233.743 231.91 233.999C230.855 234.123 229.852 234.232 228.881 234.338L228.755 234.351C219.305 235.374 213.06 236.048 190.868 247.415C186.868 249.464 181.063 252.487 174.341 255.988L174.296 256.012C140.661 273.528 77.7845 306.34 46.3592 318.443C39.0192 321.268 31.8378 323.032 25.5921 323.542Z" fill="#211C1D"/>
<path d="M93.9916 187.743L79.4539 156.074C78.3312 153.867 78.8139 151.198 80.639 149.507L92.2573 138.79C93.5522 137.588 95.3449 137.055 97.0995 137.344L162.017 148.091L93.9916 187.743Z" fill="white"/>
<path d="M95.7867 138.487C94.7847 138.57 93.83 138.988 93.0978 139.666L81.4769 150.386C80.0368 151.72 79.6625 153.791 80.5494 155.535L94.546 186.02L158.513 148.732L96.896 138.532C96.5299 138.472 96.1569 138.458 95.7867 138.487ZM93.4395 189.467L78.3364 156.57C76.9831 153.91 77.5621 150.702 79.7982 148.63L91.4191 137.911C92.969 136.474 95.1983 135.808 97.3028 136.156L165.52 147.448L93.4395 189.467Z" fill="#211C1D"/>
<path d="M105.88 180.815L88.3371 149.924C87.2821 148.231 87.5844 146.042 89.0584 144.686L97.0995 137.344C95.3449 137.055 93.5522 137.588 92.2573 138.79L80.639 149.507C78.8139 151.198 78.3312 153.867 79.4539 156.074L93.9916 187.743L105.88 180.815Z" fill="#211C1D"/>
<path d="M87.1734 145.131L81.4769 150.386C80.0368 151.72 79.6625 153.791 80.5494 155.535L94.546 186.02L104.228 180.376L87.267 150.511C86.2391 148.863 86.2432 146.79 87.1734 145.131ZM93.4395 189.467L78.3364 156.57C76.9831 153.91 77.5621 150.702 79.7982 148.63L91.4191 137.911C92.969 136.474 95.1969 135.808 97.3028 136.156L99.7571 136.563L89.8923 145.568C88.8508 146.527 88.6352 148.095 89.381 149.295L107.531 181.252L93.4395 189.467Z" fill="#211C1D"/>
<path d="M144.721 154.829L96.0283 140.696L145.581 151.563L144.721 154.829Z" fill="#211C1D"/>
<path d="M94.3385 185.27C92.3519 181.426 90.364 177.582 88.4167 173.718C86.9997 170.904 85.5963 168.084 84.22 165.251C82.9209 162.575 81.5242 159.891 80.4693 157.11C79.916 155.648 79.4618 154.023 79.7736 152.458C80.0353 151.146 80.8124 150.134 81.7561 149.212C81.009 150.043 80.3621 150.93 80.1085 152.03C79.7926 153.4 80.1384 154.798 80.6429 156.082C81.1581 157.395 81.8564 158.643 82.5236 159.886C83.2504 161.24 83.9922 162.586 84.742 163.927C87.5869 169.02 90.5132 174.072 93.4977 179.088C94.4944 180.762 95.491 182.436 96.4863 184.11C95.7704 184.496 95.0544 184.883 94.3385 185.27Z" fill="white"/>
<path d="M229.998 99.1576C236.654 95.3843 241.831 93.6776 248.468 98.4243C255.106 103.184 256.897 104.598 258.398 103.144C259.053 102.504 260.108 102.038 260.717 101.451C261.325 100.851 265.1 98.331 269.249 102.451C273.4 106.571 270.996 110.304 269.949 111.318C271.557 109.744 275.103 113.091 276.653 115.211C278.203 117.318 279.229 120.384 276.444 123.104C273.659 125.811 270.583 128.81 270.583 128.81C270.583 128.81 268.753 129.538 270.027 130.803C271.302 132.067 276.021 139.682 271.089 144.488C266.156 149.294 262.211 153.138 262.211 153.138L263.039 153.491C265.551 154.563 266.835 157.326 266.016 159.896L263.589 167.514L255.052 164.976L253.806 134.984L232.48 111.998L224.253 104.744L229.998 99.1576Z" fill="#211C1D"/>
<path d="M256.24 164.071L262.782 166.015L264.847 159.535C265.481 157.548 264.494 155.426 262.552 154.596L260.063 153.535L270.225 143.632C271.998 141.906 272.494 139.55 271.701 136.628C271.015 134.098 269.576 132.066 269.157 131.651C268.33 130.83 268.285 130.046 268.392 129.532C268.591 128.579 269.419 128.039 269.869 127.808L275.582 122.238C277.861 120.024 276.882 117.571 275.66 115.918C274.171 113.891 271.876 112.038 270.939 112.118C270.871 112.131 270.845 112.144 270.811 112.171L269.086 110.464C269.473 110.091 270.166 109.118 270.334 107.891C270.544 106.344 269.886 104.798 268.379 103.304C266.959 101.891 265.479 101.238 263.984 101.358C262.679 101.464 261.754 102.131 261.58 102.304C261.192 102.678 260.721 102.984 260.267 103.278C259.893 103.504 259.505 103.758 259.261 103.998C258.713 104.531 258.086 104.824 257.399 104.891C255.595 105.038 253.583 103.584 248.722 100.104L247.747 99.3977C244.926 97.3843 242.336 96.5443 239.596 96.771C236.622 97.011 233.589 98.5177 230.747 100.118L226.039 104.704L233.386 111.184L255.011 134.496L256.24 164.071ZM264.395 169.012L253.862 165.882L252.599 135.472L231.616 112.851L222.467 104.798L229.248 98.1844L229.385 98.1043C232.514 96.331 235.891 94.651 239.394 94.371C242.708 94.1043 245.912 95.1044 249.19 97.451L250.166 98.1577C253.861 100.811 256.302 102.558 257.196 102.478C257.248 102.478 257.345 102.478 257.536 102.291C257.959 101.878 258.476 101.544 258.931 101.251C259.299 101.011 259.646 100.798 259.855 100.584C260.4 100.064 261.84 99.1177 263.78 98.9577C265.329 98.8377 267.684 99.1844 270.12 101.611C272.696 104.158 272.979 106.611 272.762 108.211C272.677 108.838 272.503 109.424 272.278 109.958C274.418 110.731 276.616 113.104 277.647 114.504C280.13 117.878 280.006 121.318 277.306 123.958L271.271 129.836L271.043 129.927C271.009 129.942 270.968 129.963 270.929 129.986C271.804 130.875 273.335 133.298 274.07 136.007C275.091 139.77 274.357 142.998 271.95 145.343L264.315 152.784C266.881 154.306 268.106 157.371 267.185 160.255L264.395 169.012Z" fill="#211C1D"/>
<path d="M7.01511 316.54C0.849378 310.792 -0.296456 298.787 10.6614 277.252C21.6206 255.719 29.7797 240.079 40.9328 226.498C52.0859 212.916 63.4437 205.015 75.4972 196.436C87.5507 187.858 169.133 133.242 169.133 133.242C169.133 133.242 166.618 127.551 170.109 121.891C173.601 116.224 198.854 97.2909 198.854 97.2909C198.854 97.2909 209.363 89.5176 218.679 97.0509C225.719 102.744 231.395 109.211 231.395 109.211C231.395 109.211 236.73 104.918 241.364 101.758C246.001 98.5975 253.872 94.9976 258.922 102.291C263.972 109.584 267.873 115.278 271.081 121.198C274.288 127.122 268.246 134.819 262.453 138.202C256.661 141.584 258.051 140.682 258.051 140.682L261.639 164.324C261.639 164.324 264.362 165.658 264.822 169.365C265.231 172.667 262.283 175.006 262.283 175.006L347.775 201.68C348.948 202.046 349.381 203.456 348.606 204.396C347.267 206.022 345.287 208.338 343.509 210.07C339.649 213.832 324.758 219.483 311.051 221.57C295.097 223.996 241.295 229.948 230.602 231.206C219.027 232.567 213.674 232.096 188.719 244.878C164.822 257.118 81.4812 301.536 44.4475 315.798C30.699 321.092 14.606 323.616 7.01511 316.54Z" fill="white"/>
<path d="M208.418 95.0109C203.471 95.4243 199.628 98.2242 199.59 98.2509C190.925 104.744 173.823 118.184 171.158 122.518C168.052 127.547 170.166 132.554 170.259 132.764L170.655 133.676L169.822 134.238C169.007 134.784 88.1175 188.94 76.2159 197.412L75.1135 198.196C63.5332 206.434 52.5957 214.212 41.886 227.255C31.0706 240.426 23.2885 255.134 11.7571 277.792C-0.0848818 301.062 3.10036 311.231 7.85721 315.665C11.2228 318.801 16.8977 320.142 24.2702 319.539C30.1661 319.059 36.9882 317.376 44.0014 314.676C74.7446 302.837 137.724 270.038 171.558 252.416C178.305 248.903 184.132 245.868 188.152 243.808C210.956 232.13 217.473 231.424 227.337 230.358C228.336 230.25 229.368 230.137 230.455 230.009C232.677 229.748 236.758 229.284 241.972 228.692C261.639 226.458 298.246 222.298 310.863 220.378C324.43 218.314 339.089 212.682 342.647 209.215C344.381 207.523 346.327 205.248 347.655 203.637C347.804 203.456 347.777 203.267 347.748 203.171C347.718 203.073 347.634 202.9 347.404 202.828L259.74 175.475L261.515 174.067C261.535 174.051 263.926 172.09 263.606 169.511C263.237 166.53 261.115 165.414 261.094 165.403L260.522 165.124L256.995 141.879L256.748 141.184C256.63 140.85 256.556 140.208 257.377 139.676L258.98 138.635L259.006 138.803C259.661 138.427 260.57 137.9 261.828 137.165C267.086 134.095 272.852 127.035 269.999 121.771C266.899 116.051 263.2 110.611 257.909 102.971C256.009 100.224 253.596 99.0109 250.531 99.2642C247.384 99.5175 244.189 101.304 242.063 102.744C237.523 105.838 232.225 110.104 232.172 110.144L231.247 110.891L230.468 109.998C230.411 109.931 224.772 103.531 217.9 97.9843C215.114 95.7309 211.923 94.7309 208.418 95.0109ZM24.4736 321.942C16.2698 322.611 10.1122 321.087 6.17171 317.414C0.812799 312.419 -2.94738 301.303 9.56578 276.714C21.1704 253.91 29.0081 239.1 39.9782 225.74C50.894 212.45 61.9603 204.578 73.6775 196.244L74.7786 195.46C86.0795 187.417 159.275 138.386 167.665 132.767C167.056 130.786 166.116 126.039 169.061 121.264C172.633 115.464 197.072 97.1042 198.109 96.3309C198.295 96.1975 202.572 93.0776 208.214 92.6109C212.379 92.2776 216.161 93.4509 219.457 96.1176C224.98 100.584 229.721 105.571 231.535 107.558C233.272 106.184 237.183 103.144 240.667 100.771C244.117 98.4108 247.368 97.1042 250.328 96.8642C254.238 96.5442 257.561 98.1843 259.935 101.611C265.271 109.318 269.004 114.811 272.162 120.637C275.895 127.527 268.95 135.809 263.079 139.238C261.395 140.22 260.163 140.932 259.395 141.367L262.769 163.602C263.747 164.282 265.638 165.991 266.038 169.219C266.312 171.424 265.378 173.24 264.484 174.427L348.145 200.531C349.084 200.824 349.812 201.552 350.095 202.479C350.377 203.404 350.177 204.404 349.558 205.155C348.193 206.812 346.185 209.159 344.37 210.926C339.971 215.214 324.49 220.743 311.239 222.76C298.574 224.687 261.936 228.85 242.254 231.086C237.043 231.679 232.967 232.142 230.747 232.403C229.651 232.531 228.61 232.643 227.604 232.752C218.016 233.79 211.682 234.475 189.285 245.946C185.272 248.002 179.448 251.035 172.705 254.546C138.828 272.19 75.7684 305.031 44.895 316.92C37.6648 319.704 30.6028 321.44 24.4736 321.942Z" fill="#211C1D"/>
<path d="M217.949 134.663C221.156 138.388 222.738 143.031 223.669 147.765C222.856 147.851 222.044 147.936 221.232 148.02C221.134 143.366 220.379 138.722 217.949 134.663Z" fill="#211C1D"/>
<path d="M215.903 136.103C219.122 139.815 220.726 144.454 221.662 149.184C220.849 149.268 220.037 149.354 219.225 149.439C219.123 144.79 218.345 140.148 215.903 136.103Z" fill="#211C1D"/>
<path d="M213.858 137.543C217.088 141.24 218.715 145.875 219.655 150.602C218.843 150.687 218.03 150.772 217.218 150.858C217.112 146.212 216.311 141.574 213.858 137.543Z" fill="#211C1D"/>
<path d="M211.812 138.981C215.052 142.664 216.704 147.297 217.649 152.02C216.837 152.105 216.025 152.191 215.212 152.275C215.101 147.636 214.275 142.999 211.812 138.981Z" fill="#211C1D"/>
<path d="M209.767 140.422C213.019 144.09 214.692 148.719 215.642 153.439C214.83 153.523 214.018 153.608 213.206 153.694C213.089 149.06 212.242 144.424 209.767 140.422Z" fill="#211C1D"/>
<path d="M207.721 141.862C210.985 145.515 212.681 150.14 213.636 154.856C212.823 154.942 212.011 155.027 211.199 155.112C211.078 150.483 210.208 145.85 207.721 141.862Z" fill="#211C1D"/>
<path d="M205.676 143.302C208.949 146.94 210.67 151.562 211.629 156.275C210.816 156.36 210.004 156.446 209.192 156.53C209.067 151.906 208.172 147.275 205.676 143.302Z" fill="#211C1D"/>
<path d="M203.629 144.74C206.873 148.319 208.762 153.004 209.623 157.693C208.811 157.777 207.997 157.863 207.185 157.948C207.154 153.365 206.105 148.651 203.629 144.74Z" fill="#211C1D"/>
<path d="M201.583 146.18C204.838 149.744 206.751 154.426 207.616 159.111C206.804 159.196 205.992 159.282 205.179 159.367C205.143 154.79 204.07 150.075 201.583 146.18Z" fill="#211C1D"/>
<path d="M199.539 147.62C202.802 151.17 204.74 155.847 205.609 160.53C204.797 160.615 203.985 160.7 203.173 160.784C203.133 156.212 202.035 151.5 199.539 147.62Z" fill="#211C1D"/>
<path d="M197.492 149.06C200.766 152.594 202.733 157.27 203.602 161.948C202.79 162.032 201.978 162.118 201.166 162.203C201.124 157.636 199.999 152.924 197.492 149.06Z" fill="#211C1D"/>
<path d="M195.447 150.499C198.73 154.019 200.722 158.691 201.595 163.366C200.783 163.451 199.971 163.536 199.159 163.622C199.011 159.022 197.999 154.404 195.447 150.499Z" fill="#211C1D"/>
<path d="M193.401 151.939C196.741 155.494 198.601 160.091 199.59 164.784C198.778 164.87 197.965 164.955 197.152 165.039C197 160.444 195.964 155.83 193.401 151.939Z" fill="#211C1D"/>
<path d="M191.355 153.379C194.707 156.918 196.59 161.512 197.583 166.203C196.771 166.287 195.959 166.372 195.146 166.458C194.989 161.867 193.929 157.255 191.355 153.379Z" fill="#211C1D"/>
<path d="M189.31 154.819C192.628 158.298 194.681 162.953 195.576 167.62C194.764 167.705 193.952 167.791 193.139 167.876C192.978 163.291 191.893 158.68 189.31 154.819Z" fill="#211C1D"/>
<path d="M187.264 156.258C190.59 159.72 192.676 164.376 193.569 169.039C192.757 169.124 191.945 169.21 191.133 169.294C191.072 164.754 189.821 160.051 187.264 156.258Z" fill="#211C1D"/>
<path d="M185.219 157.698C188.552 161.143 190.67 165.799 191.562 170.458C190.75 170.542 189.938 170.627 189.126 170.712C189.066 166.179 187.783 161.472 185.219 157.698Z" fill="#211C1D"/>
<path d="M183.173 159.138C186.514 162.566 188.665 167.222 189.557 171.875C188.745 171.96 187.932 172.046 187.12 172.131C187.09 169.848 186.661 167.526 186.053 165.33C185.437 163.102 184.481 161.048 183.173 159.138Z" fill="#211C1D"/>
<path d="M181.127 160.576C182.868 162.35 184.221 164.351 185.279 166.587C186.281 168.707 187.109 170.991 187.55 173.294C186.738 173.379 185.926 173.464 185.113 173.548C185.085 171.271 184.641 168.947 184.029 166.756C183.405 164.531 182.443 162.483 181.127 160.576Z" fill="#211C1D"/>
<path d="M179.082 162.016C180.828 163.783 182.188 165.779 183.253 168.011C184.262 170.127 185.102 172.41 185.543 174.712C184.731 174.796 183.919 174.882 183.106 174.967C183.079 172.692 182.622 170.368 182.003 168.184C181.373 165.962 180.404 163.918 179.082 162.016Z" fill="#211C1D"/>
<path d="M177.036 163.456C178.789 165.215 180.156 167.206 181.227 169.434C182.243 171.546 183.097 173.83 183.536 176.13C182.724 176.215 181.912 176.3 181.1 176.386C181.074 174.115 180.605 171.788 179.978 169.611C179.341 167.392 178.365 165.352 177.036 163.456Z" fill="#211C1D"/>
<path d="M174.991 164.896C176.749 166.648 178.123 168.634 179.202 170.858C180.224 172.964 181.09 175.248 181.529 177.548C180.717 177.634 179.905 177.719 179.093 177.803C179.068 175.536 178.585 173.21 177.954 171.039C177.309 168.822 176.325 166.786 174.991 164.896Z" fill="#211C1D"/>
<path d="M172.945 166.335C174.71 168.082 176.09 170.06 177.177 172.28C178.204 174.382 179.086 176.667 179.524 178.967C178.712 179.052 177.899 179.136 177.087 179.222C177.064 176.958 176.566 174.631 175.929 172.465C175.277 170.252 174.286 168.22 172.945 166.335Z" fill="#211C1D"/>
<path d="M170.9 167.775C172.669 169.515 174.058 171.487 175.152 173.703C176.185 175.8 177.08 178.086 177.517 180.384C176.705 180.47 175.892 180.555 175.08 180.64C175.059 178.38 174.547 176.052 173.905 173.894C173.246 171.682 172.246 169.655 170.9 167.775Z" fill="#211C1D"/>
<path d="M168.854 169.215C170.63 170.948 172.025 172.915 173.126 175.127C174.166 177.219 175.073 179.506 175.51 181.803C174.698 181.888 173.886 181.974 173.073 182.058C173.053 179.803 172.528 177.473 171.88 175.32C171.213 173.112 170.207 171.089 168.854 169.215Z" fill="#211C1D"/>
<path d="M166.807 170.655C168.591 172.38 169.993 174.342 171.1 176.55C172.147 178.638 173.067 180.924 173.503 183.222C172.691 183.307 171.879 183.391 171.067 183.476C171.048 181.224 170.511 178.894 169.854 176.748C169.182 174.542 168.169 172.524 166.807 170.655Z" fill="#211C1D"/>
<path d="M164.762 172.093C166.527 173.789 167.934 175.717 169.034 177.893C170.109 180.019 171.018 182.306 171.496 184.639C170.684 184.724 169.872 184.81 169.06 184.895C168.999 182.603 168.487 180.271 167.804 178.087C167.125 175.916 166.11 173.932 164.762 172.093Z" fill="#211C1D"/>
<path d="M162.716 173.534C164.486 175.223 165.902 177.146 167.008 179.316C168.09 181.439 169.009 183.724 169.491 186.058C168.679 186.143 167.866 186.228 167.054 186.312C166.99 184.024 166.47 181.694 165.779 179.515C165.092 177.347 164.071 175.367 162.716 173.534Z" fill="#211C1D"/>
<path d="M160.671 174.974C162.446 176.656 163.867 178.572 164.982 180.739C166.071 182.858 167.003 185.143 167.484 187.476C166.672 187.562 165.859 187.646 165.047 187.731C164.983 185.446 164.451 183.115 163.754 180.942C163.059 178.776 162.031 176.8 160.671 174.974Z" fill="#211C1D"/>
<path d="M158.625 176.412C160.407 178.088 161.835 180 162.956 182.163C164.053 184.276 164.994 186.561 165.477 188.893C164.665 188.979 163.853 189.064 163.04 189.15C162.996 186.874 162.429 184.528 161.729 182.369C161.027 180.207 159.992 178.235 158.625 176.412Z" fill="#211C1D"/>
<path d="M156.579 177.852C158.366 179.522 159.802 181.428 160.93 183.586C162.034 185.696 162.988 187.98 163.47 190.312C162.658 190.398 161.846 190.483 161.034 190.567C160.989 188.295 160.41 185.948 159.703 183.796C158.995 181.638 157.953 179.67 156.579 177.852Z" fill="#211C1D"/>
<path d="M154.534 179.292C156.327 180.955 157.768 182.855 158.905 185.009C160.015 187.115 160.981 189.399 161.465 191.731C160.652 191.815 159.839 191.9 159.027 191.986C158.982 189.716 158.392 187.37 157.679 185.224C156.963 183.067 155.913 181.104 154.534 179.292Z" fill="#211C1D"/>
<path d="M152.488 180.731C154.287 182.388 155.735 184.282 156.879 186.432C157.996 188.534 158.972 190.818 159.458 193.148C158.645 193.234 157.833 193.319 157.021 193.404C156.975 191.138 156.373 188.791 155.653 186.651C154.93 184.498 153.874 182.539 152.488 180.731Z" fill="#211C1D"/>
<path d="M150.443 182.171C152.247 183.822 153.703 185.71 154.853 187.856C155.977 189.952 156.965 192.236 157.451 194.567C156.639 194.652 155.826 194.738 155.014 194.822C154.969 192.56 154.354 190.212 153.628 188.079C152.897 185.928 151.834 183.974 150.443 182.171Z" fill="#211C1D"/>
<path d="M148.397 183.611C150.207 185.254 151.669 187.138 152.827 189.279C153.958 191.371 154.959 193.655 155.444 195.986C154.632 196.071 153.82 196.155 153.007 196.24C152.963 193.982 152.335 191.634 151.604 189.506C150.865 187.358 149.795 185.407 148.397 183.611Z" fill="#211C1D"/>
<path d="M146.351 185.051C148.167 186.687 149.636 188.564 150.801 190.703C151.939 192.791 152.95 195.074 153.437 197.403C152.625 197.488 151.813 197.574 151.001 197.659C150.956 195.403 150.316 193.055 149.578 190.934C148.832 188.788 147.756 186.842 146.351 185.051Z" fill="#211C1D"/>
<path d="M144.306 186.491C146.127 188.12 147.603 189.992 148.775 192.125C149.919 194.209 150.943 196.492 151.431 198.822C150.619 198.907 149.807 198.992 148.995 199.078C148.95 196.824 148.296 194.475 147.553 192.36C146.801 190.217 145.716 188.276 144.306 186.491Z" fill="#211C1D"/>
<path d="M142.26 187.93C144.087 189.552 145.569 191.419 146.749 193.548C147.9 195.628 148.936 197.91 149.425 200.24C148.612 200.326 147.8 200.41 146.988 200.495C146.943 198.247 146.276 195.896 145.527 193.788C144.768 191.648 143.677 189.711 142.26 187.93Z" fill="#211C1D"/>
<path d="M140.215 189.369C142.047 190.985 143.537 192.847 144.724 194.972C145.882 197.047 146.928 199.329 147.418 201.657C146.606 201.743 145.793 201.828 144.981 201.913C144.936 199.668 144.257 197.317 143.503 195.215C142.736 193.079 141.637 191.145 140.215 189.369Z" fill="#211C1D"/>
<path d="M138.169 190.81C140.007 192.419 141.504 194.274 142.698 196.395C143.863 198.466 144.922 200.748 145.411 203.076C144.599 203.162 143.787 203.247 142.974 203.331C142.931 201.09 142.238 198.738 141.477 196.643C140.703 194.508 139.598 192.58 138.169 190.81Z" fill="#211C1D"/>
<path d="M136.122 192.248C137.966 193.852 139.47 195.702 140.672 197.819C141.843 199.884 142.915 202.166 143.404 204.495C142.592 204.58 141.78 204.664 140.967 204.751C140.924 202.512 140.219 200.159 139.453 198.07C138.67 195.939 137.558 194.015 136.122 192.248Z" fill="#211C1D"/>
<path d="M134.078 193.688C135.927 195.286 137.438 197.13 138.645 199.242C139.824 201.303 140.908 203.584 141.399 205.912C140.586 205.998 139.774 206.083 138.962 206.168C138.917 203.934 138.2 201.579 137.427 199.498C136.638 197.368 135.519 195.448 134.078 193.688Z" fill="#211C1D"/>
<path d="M132.031 195.128C133.886 196.718 135.404 198.556 136.619 200.664C137.804 202.722 138.899 205.003 139.392 207.331C138.579 207.416 137.767 207.502 136.955 207.586C136.912 205.355 136.181 203 135.402 200.924C134.605 198.799 133.479 196.883 132.031 195.128Z" fill="#211C1D"/>
<path d="M129.987 196.568C131.873 198.172 133.401 200.032 134.639 202.166C135.815 204.191 136.898 206.452 137.385 208.75C136.573 208.835 135.76 208.919 134.948 209.004C134.929 208.007 134.705 206.992 134.483 206.023C134.197 204.776 133.831 203.55 133.377 202.352C132.572 200.23 131.44 198.318 129.987 196.568Z" fill="#211C1D"/>
<path d="M127.94 198.007C129.832 199.606 131.368 201.46 132.613 203.588C133.796 205.61 134.891 207.871 135.378 210.167C134.566 210.252 133.754 210.338 132.941 210.423C132.922 209.427 132.695 208.414 132.469 207.447C132.179 206.202 131.809 204.975 131.352 203.779C130.54 201.659 129.401 199.752 127.94 198.007Z" fill="#211C1D"/>
<path d="M125.896 199.447C127.793 201.039 129.336 202.887 130.587 205.011C131.775 207.03 132.884 209.29 133.371 211.586C132.559 211.671 131.747 211.756 130.934 211.84C130.915 210.847 130.684 209.834 130.456 208.87C130.163 207.626 129.789 206.4 129.326 205.206C128.507 203.09 127.361 201.187 125.896 199.447Z" fill="#211C1D"/>
<path d="M123.849 200.887C125.752 202.472 127.302 204.315 128.561 206.434C129.756 208.447 130.876 210.708 131.366 213.004C130.553 213.09 129.741 213.174 128.929 213.259C128.909 212.267 128.673 211.255 128.442 210.292C128.145 209.05 127.767 207.826 127.302 206.634C126.475 204.519 125.322 202.622 123.849 200.887Z" fill="#211C1D"/>
<path d="M121.803 202.327C123.712 203.904 125.269 205.742 126.535 207.858C127.737 209.866 128.869 212.127 129.359 214.423C128.546 214.507 127.734 214.592 126.922 214.678C126.903 213.687 126.662 212.675 126.43 211.716C126.127 210.474 125.746 209.251 125.276 208.06C124.442 205.95 123.282 204.055 121.803 202.327Z" fill="#211C1D"/>
<path d="M119.758 203.766C121.672 205.338 123.236 207.168 124.51 209.28C125.718 211.284 126.862 213.546 127.352 215.84C126.54 215.926 125.727 216.011 124.915 216.096C124.896 215.107 124.651 214.096 124.416 213.139C124.111 211.898 123.725 210.676 123.25 209.488C122.409 207.379 121.243 205.49 119.758 203.766Z" fill="#211C1D"/>
<path d="M117.712 205.206C119.632 206.771 121.202 208.596 122.484 210.703C123.699 212.703 124.855 214.963 125.345 217.259C124.533 217.344 123.72 217.43 122.908 217.514C122.889 216.527 122.64 215.516 122.402 214.562C122.093 213.322 121.704 212.102 121.225 210.915C120.376 208.81 119.204 206.924 117.712 205.206Z" fill="#211C1D"/>
<path d="M115.667 206.646C117.591 208.203 119.17 210.023 120.456 212.127C121.678 214.122 122.847 216.382 123.338 218.676C122.526 218.763 121.713 218.847 120.901 218.932C120.882 217.947 120.629 216.936 120.389 215.984C120.077 214.746 119.682 213.527 119.199 212.343C118.344 210.24 117.163 208.359 115.667 206.646Z" fill="#211C1D"/>
<path d="M113.621 208.084C115.552 209.636 117.136 211.451 118.431 213.55C119.659 215.54 120.84 217.8 121.332 220.096C120.52 220.18 119.708 220.266 118.896 220.351C118.877 219.367 118.618 218.358 118.375 217.408C118.059 216.17 117.662 214.952 117.175 213.77C116.311 211.67 115.123 209.794 113.621 208.084Z" fill="#211C1D"/>
<path d="M111.575 209.524C113.511 211.07 115.103 212.878 116.405 214.972C117.64 216.959 118.833 219.218 119.326 221.514C118.513 221.599 117.701 221.684 116.889 221.77C116.87 220.786 116.607 219.778 116.363 218.831C116.043 217.594 115.64 216.379 115.149 215.196C114.279 213.1 113.084 211.228 111.575 209.524Z" fill="#211C1D"/>
<path d="M109.53 210.964C111.472 212.503 113.069 214.304 114.379 216.395C115.62 218.376 116.825 220.636 117.319 222.931C116.506 223.018 115.694 223.102 114.882 223.187C114.863 222.207 114.596 221.198 114.349 220.254C114.025 219.018 113.619 217.804 113.125 216.624C112.246 214.53 111.044 212.663 109.53 210.964Z" fill="#211C1D"/>
<path d="M107.484 212.403C109.431 213.935 111.036 215.731 112.353 217.818C113.601 219.796 114.818 222.055 115.312 224.351C114.5 224.435 113.687 224.52 112.875 224.606C112.857 223.627 112.585 222.619 112.335 221.676C112.009 220.442 111.598 219.23 111.099 218.051C110.213 215.96 109.005 214.096 107.484 212.403Z" fill="#211C1D"/>
<path d="M105.439 213.843C107.392 215.368 109.004 217.159 110.327 219.24C111.582 221.215 112.812 223.472 113.306 225.768C112.494 225.854 111.682 225.939 110.868 226.024C110.851 225.046 110.574 224.039 110.322 223.1C109.991 221.867 109.576 220.655 109.073 219.479C108.181 217.391 106.966 215.531 105.439 213.843Z" fill="#211C1D"/>
<path d="M103.393 215.283C105.351 216.802 106.97 218.586 108.3 220.664C109.561 222.632 110.803 224.891 111.299 227.187C110.487 227.272 109.675 227.356 108.863 227.442C108.845 226.466 108.563 225.46 108.308 224.523C107.973 223.291 107.555 222.08 107.048 220.906C106.148 218.82 104.926 216.966 103.393 215.283Z" fill="#211C1D"/>
<path d="M101.346 216.723C103.311 218.234 104.937 220.014 106.274 222.087C107.542 224.051 108.796 226.31 109.293 228.604C108.48 228.69 107.668 228.775 106.856 228.86C106.838 227.886 106.552 226.88 106.296 225.946C105.957 224.715 105.534 223.506 105.023 222.332C104.115 220.251 102.887 218.4 101.346 216.723Z" fill="#211C1D"/>
<path d="M17.4819 261.391C19.5688 258.568 23.2029 257.224 26.6838 257.411C28.6405 257.516 30.5131 258.078 32.2881 258.874C34.078 259.678 35.8693 260.479 37.666 261.27C41.277 262.859 45.0969 264.206 48.4299 266.328C51.668 268.39 54.6974 270.994 56.6378 274.311C58.5999 277.663 59.8108 281.507 60.7044 285.258C59.4542 282.206 58.1118 279.147 56.41 276.31C54.2811 272.76 51.1514 270.052 47.577 267.946C45.7939 266.894 43.9023 266.136 41.9795 265.374C39.9549 264.571 37.9277 263.775 35.9154 262.943C32.1891 261.403 28.4235 259.182 24.2253 260.003C23.2015 260.203 22.213 260.576 21.3303 261.128C20.9343 261.376 20.5601 261.658 20.217 261.974C20.0651 262.112 19.9214 262.258 19.7858 262.411C19.7261 262.478 19.5512 262.779 19.4739 262.796C19.2841 262.839 18.7254 262.298 18.5437 262.166C18.1898 261.908 17.8358 261.65 17.4819 261.391Z" fill="#211C1D"/>
<path d="M65.5007 213.752L67.8859 211.43C67.9794 211.338 68.1124 211.296 68.2425 211.318L74.1058 212.264C74.4381 212.318 74.5683 212.72 74.3296 212.954L71.6976 215.518C71.5986 215.615 71.4562 215.655 71.3193 215.627L65.7055 214.438C65.3841 214.37 65.2688 213.979 65.5007 213.752Z" fill="#211C1D"/>
<path d="M74.3959 216.054L77.047 213.471C77.1487 213.372 77.2937 213.332 77.432 213.364L84.7354 215.055C85.0514 215.13 85.1626 215.515 84.9321 215.739L81.9217 218.672C81.8146 218.776 81.6573 218.815 81.5122 218.772L74.5682 216.731C74.2685 216.643 74.1736 216.271 74.3959 216.054Z" fill="#211C1D"/>
<path d="M332.249 209.168C327.739 210.34 323.317 210.918 310.316 211.882C299.473 212.686 217.327 216.323 217.327 216.323L231.338 213.575C236.338 208.186 243.11 203.306 248.391 198.946C257.905 191.092 275.106 194.622 288.715 195.607L255.248 184.8L340.416 204.263L282.733 186.967L305.914 192.365C309.177 192.195 312.352 191.97 315.369 191.644L262.225 175.062C262.225 175.062 265.173 172.724 264.763 169.422C264.305 165.714 261.581 164.382 261.581 164.382L258 140.778C258.352 140.596 259.433 139.987 262.396 138.258C268.187 134.876 274.23 127.179 271.023 121.251C267.815 115.331 263.913 109.638 258.864 102.344C253.815 95.0509 245.942 98.6509 241.307 101.811C236.671 104.971 231.338 109.264 231.338 109.264C231.338 109.264 230.926 108.731 230.214 107.851C230.215 107.851 230.221 107.851 230.221 107.851C230.221 107.851 237.568 94.9442 240.478 90.2909C243.386 85.6509 245.139 81.4509 245.731 78.3975C246.322 75.3309 261.585 13.5309 262.999 7.39752C264.414 1.27753 259.562 1.25085 257.823 2.26419C256.086 3.27753 254.347 4.74423 250.174 7.69089C246.002 10.6242 242.276 16.9709 240.873 20.5975C239.47 24.2242 208.721 102.917 206.736 107.571C204.751 112.211 200.984 122.264 199.804 127.491C199.804 127.491 206.907 126.595 213.455 129.179C222.622 132.799 223.148 144.047 223.315 145.582C206.286 157.599 122.443 216.904 108.837 226.311C97.1171 234.414 82.7598 237.224 70.4365 235.86C70.4365 235.86 66.1434 241.831 64.1948 245.987C65.1643 242.419 68.3848 235.593 68.3848 235.593L69.7883 231.852L62.4429 229.131C62.4429 229.131 57.0676 237.307 54.0207 242.956C56.01 237.394 60.8496 228.374 60.8496 228.374L54.4804 225.906C54.4804 225.906 50.4219 230.435 46.0773 239.171C47.295 234.38 50.5575 229.134 50.5575 229.134L47.4021 225.067C44.1762 227.86 40.618 233.734 40.618 233.734L45.1362 241.795L61.9343 247.671L74.7486 248.959L78.7406 240.132C78.7406 240.132 75.8944 250.18 76.1954 250.58C80.4953 256.286 82.1211 262.918 82.1211 262.918C82.1211 262.918 55.9327 284.263 38.6057 298.228C29.9761 305.183 21.2177 303.376 18.0393 305.684C8.47676 312.627 2.22152 303.796 3.31446 296.232C1.02146 306.34 2.90496 312.82 6.95669 316.596C14.5489 323.672 30.6406 321.148 44.3904 315.855C81.4228 301.594 164.764 257.174 188.661 244.934C213.615 232.152 212.932 233.298 224.505 231.936C224.505 231.935 224.505 231.933 224.504 231.932C226.794 231.681 229.307 231.408 230.544 231.263C241.238 230.006 295.039 224.054 310.994 221.626C324.7 219.539 339.59 213.888 343.451 210.127C345.23 208.393 347.21 206.079 348.548 204.452C348.548 204.452 336.76 207.996 332.249 209.168Z" fill="#211C1D"/>
<path d="M75.2488 252.391C78.3581 255.987 81.0566 260.124 82.7814 264.551C81.9976 264.778 81.2138 265.004 80.4301 265.231C79.5229 260.719 77.6164 256.334 75.2488 252.391Z" fill="#211C1D"/>
<path d="M73.3342 254.211C76.4015 257.739 79.0728 261.795 80.7828 266.14C79.999 266.368 79.2166 266.598 78.4328 266.826C77.5406 262.394 75.6598 258.086 73.3342 254.211Z" fill="#211C1D"/>
<path d="M71.418 256.031C74.4432 259.49 77.0888 263.464 78.7824 267.731C78 267.96 77.2176 268.191 76.4352 268.42C75.5592 264.067 73.7015 259.836 71.418 256.031Z" fill="#211C1D"/>
<path d="M69.5034 257.852C72.4866 261.24 75.1009 265.136 76.7837 269.32C76.0013 269.552 75.2203 269.784 74.4379 270.015C73.5768 265.74 71.7449 261.588 69.5034 257.852Z" fill="#211C1D"/>
<path d="M67.5889 259.672C70.5287 262.991 73.1186 266.806 74.7852 270.911C74.0028 271.144 73.2217 271.378 72.4406 271.611C71.5945 267.415 69.7883 263.339 67.5889 259.672Z" fill="#211C1D"/>
<path d="M65.6729 261.492C68.5706 264.742 71.1334 268.476 72.7864 272.5C72.0053 272.735 71.2243 272.971 70.4433 273.206C69.5903 269.086 67.8357 265.1 65.6729 261.492Z" fill="#211C1D"/>
<path d="M63.7581 263.312C66.6124 266.492 69.1495 270.146 70.7862 274.09C70.0065 274.327 69.2255 274.564 68.4444 274.802C67.6077 270.76 65.8788 266.851 63.7581 263.312Z" fill="#211C1D"/>
<path d="M61.8433 265.134C64.6542 268.243 67.1669 271.815 68.7873 275.679C68.0076 275.919 67.2279 276.158 66.4469 276.396C65.6265 272.435 63.9207 268.602 61.8433 265.134Z" fill="#211C1D"/>
<path d="M59.9287 266.954C62.6977 269.994 65.1819 273.486 66.7874 277.268C66.009 277.51 65.2293 277.751 64.4496 277.992C63.655 274.111 61.96 270.35 59.9287 266.954Z" fill="#211C1D"/>
<path d="M58.0127 268.774C60.7396 271.744 63.1926 275.156 64.7886 278.858C64.0103 279.102 63.2319 279.344 62.4536 279.588C61.6739 275.786 60.0033 272.1 58.0127 268.774Z" fill="#211C1D"/>
<path d="M56.0981 270.593C58.783 273.496 61.2089 276.826 62.7887 280.447C62.0117 280.692 61.2333 280.939 60.4563 281.184C59.6929 277.46 58.0467 273.852 56.0981 270.593Z" fill="#211C1D"/>
<path d="M54.1833 272.415C56.8235 275.245 59.225 278.495 60.7898 282.036C60.0128 282.284 59.2358 282.532 58.4588 282.78C57.7117 279.135 56.0885 275.603 54.1833 272.415Z" fill="#211C1D"/>
<path d="M52.2673 274.235C54.8654 276.996 57.2412 280.164 58.7897 283.624C58.0141 283.875 57.2371 284.125 56.4614 284.376C55.7333 280.809 54.1305 277.355 52.2673 274.235Z" fill="#211C1D"/>
<path d="M50.3525 276.055C52.9072 278.747 55.2558 281.834 56.7895 285.214C56.0152 285.467 55.2395 285.72 54.4639 285.974C53.752 282.486 52.1723 279.104 50.3525 276.055Z" fill="#211C1D"/>
<path d="M48.438 277.875C50.9493 280.497 53.2708 283.503 54.7909 286.802C54.0166 287.058 53.2423 287.313 52.468 287.569C51.7683 284.16 50.2157 280.857 48.438 277.875Z" fill="#211C1D"/>
<path d="M46.522 279.696C48.9899 282.247 51.287 285.172 52.7908 288.39C52.0178 288.648 51.2435 288.908 50.4706 289.167C49.7886 285.836 48.2577 282.608 46.522 279.696Z" fill="#211C1D"/>
<path d="M44.6074 281.516C47.0347 284.002 49.2924 286.842 50.7908 289.978C50.0179 290.24 49.2463 290.502 48.4747 290.764C47.7927 287.51 46.3051 284.367 44.6074 281.516Z" fill="#211C1D"/>
<path d="M42.6926 283.336C45.0765 285.752 47.3084 288.511 48.7906 291.566C48.019 291.831 47.2488 292.096 46.4772 292.362C45.806 289.184 44.3483 286.122 42.6926 283.336Z" fill="#211C1D"/>
<path d="M40.7778 285.156C43.1183 287.503 45.3232 290.179 46.7903 293.152C46.0201 293.422 45.2499 293.69 44.4811 293.959C43.8112 290.859 42.3942 287.878 40.7778 285.156Z" fill="#211C1D"/>
<path d="M38.8618 286.978C41.1589 289.254 43.3366 291.848 44.7902 294.739C44.0214 295.012 43.2525 295.284 42.485 295.558C42.2667 294.938 42.146 294.274 41.9386 293.647C41.6565 292.788 41.3338 291.942 40.9812 291.108C40.3765 289.679 39.6551 288.314 38.8618 286.978Z" fill="#211C1D"/>
<path d="M121.753 239.567C122.809 240.615 122.801 242.306 121.735 243.343C120.671 244.382 118.95 244.373 117.895 243.327C116.839 242.279 116.847 240.588 117.913 239.55C118.977 238.512 120.698 238.519 121.753 239.567Z" fill="white"/>
<path d="M132.858 231.762C133.871 232.766 133.863 234.387 132.842 235.383C131.82 236.379 130.171 236.372 129.158 235.367C128.145 234.363 128.153 232.74 129.174 231.744C130.197 230.748 131.846 230.756 132.858 231.762Z" fill="white"/>
<path d="M143.964 223.955C144.934 224.918 144.927 226.47 143.948 227.423C142.97 228.376 141.39 228.37 140.421 227.407C139.451 226.446 139.458 224.894 140.437 223.939C141.415 222.986 142.995 222.994 143.964 223.955Z" fill="white"/>
<path d="M155.07 216.15C155.996 217.068 155.989 218.552 155.055 219.463C154.119 220.374 152.61 220.367 151.684 219.448C150.758 218.529 150.764 217.046 151.7 216.135C152.634 215.224 154.143 215.23 155.07 216.15Z" fill="white"/>
<path d="M166.175 208.343C167.058 209.22 167.051 210.635 166.16 211.503C165.27 212.372 163.831 212.366 162.947 211.488C162.064 210.612 162.071 209.198 162.962 208.33C163.854 207.46 165.291 207.467 166.175 208.343Z" fill="white"/>
<path d="M177.281 200.538C178.12 201.372 178.115 202.718 177.267 203.543C176.419 204.37 175.05 204.363 174.211 203.53C173.37 202.696 173.377 201.351 174.225 200.524C175.072 199.698 176.44 199.704 177.281 200.538Z" fill="white"/>
<path d="M188.387 192.732C189.183 193.523 189.177 194.799 188.373 195.583C187.569 196.367 186.27 196.362 185.474 195.57C184.677 194.779 184.682 193.503 185.486 192.719C186.292 191.936 187.589 191.942 188.387 192.732Z" fill="white"/>
<path d="M199.493 184.927C200.247 185.673 200.24 186.882 199.48 187.623C198.719 188.364 197.491 188.359 196.737 187.611C195.983 186.863 195.988 185.655 196.749 184.915C197.51 184.172 198.739 184.179 199.493 184.927Z" fill="white"/>
<path d="M210.598 177.12C211.31 177.826 211.304 178.964 210.587 179.663C209.869 180.362 208.711 180.356 208 179.651C207.289 178.946 207.295 177.808 208.012 177.11C208.73 176.41 209.887 176.415 210.598 177.12Z" fill="white"/>
<path d="M221.703 169.315C222.372 169.978 222.366 171.047 221.692 171.703C221.018 172.36 219.93 172.355 219.263 171.692C218.596 171.03 218.6 169.96 219.274 169.304C219.948 168.648 221.036 168.652 221.703 169.315Z" fill="white"/>
<path d="M30.707 265.607L33.6414 260.742L48.0462 267.039L43.2798 272.487C42.5923 273.272 41.4519 273.503 40.5054 273.048L31.686 268.819C30.4683 268.235 30.0168 266.752 30.707 265.607Z" fill="#211C1D"/>
<path d="M185.355 122.744C190.032 122.931 194.46 125.118 197.934 128.11C197.331 128.651 196.729 129.194 196.125 129.736C193.415 126.388 189.651 123.691 185.355 122.744Z" fill="#211C1D"/>
<path d="M187.46 121.038C192.133 121.278 196.501 123.438 199.978 126.428C199.374 126.97 198.772 127.512 198.17 128.055C195.458 124.704 191.745 122.051 187.46 121.038Z" fill="#211C1D"/>
<path d="M189.568 119.331C194.235 119.638 198.542 121.758 202.021 124.744C201.419 125.291 200.816 125.838 200.214 126.374C197.502 123.011 193.841 120.398 189.568 119.331Z" fill="#211C1D"/>
<path d="M58.467 207.558C60.7356 206.078 63.8504 206.507 66.3942 206.876C69.395 207.312 72.3525 208.035 75.2815 208.802C78.5521 209.658 81.8011 210.598 85.0582 211.51C88.158 212.376 91.2158 213.434 93.9481 215.148C96.7645 216.915 98.8216 219.311 100.404 222.178C98.964 219.874 97.2297 217.848 94.9245 216.334C92.4552 214.712 89.6307 213.687 86.7709 212.955C83.591 212.143 80.3597 211.482 77.1527 210.784C74.0963 210.119 71.0223 209.491 67.917 209.086C66.3075 208.876 64.6775 208.716 63.0517 208.759C61.9601 208.788 60.7844 208.864 59.8841 209.524C59.4108 208.868 58.9389 208.212 58.467 207.558Z" fill="#211C1D"/>
<path d="M86.7273 187.227C89.0759 185.69 92.3086 186.127 94.9474 186.504C98.134 186.962 101.274 187.726 104.385 188.536C107.897 189.451 111.386 190.458 114.883 191.427C118.165 192.336 121.437 193.382 124.394 195.082C125.92 195.96 127.382 197.046 128.545 198.363C129.569 199.522 130.354 200.776 131.06 202.139C129.63 199.696 127.806 197.656 125.342 196.172C122.634 194.543 119.553 193.582 116.491 192.832C113.101 192.003 109.68 191.271 106.27 190.524C103.052 189.82 99.8168 189.155 96.5461 188.728C94.8592 188.507 93.1534 188.339 91.4503 188.387C90.3085 188.419 89.0867 188.506 88.143 189.192C87.6711 188.538 87.1992 187.882 86.7273 187.227Z" fill="#211C1D"/>
<path d="M119.135 165.363C121.521 164.112 124.606 164.852 127.09 165.427C130.034 166.109 132.92 167.028 135.793 167.952C139.022 168.99 142.273 169.983 145.484 171.076C148.505 172.106 151.481 173.431 154.024 175.359C156.66 177.358 158.461 179.963 159.922 182.87C158.595 180.551 157.066 178.375 154.953 176.676C152.527 174.727 149.623 173.444 146.663 172.493C143.57 171.501 140.376 170.78 137.237 169.942C134.314 169.16 131.387 168.372 128.424 167.751C126.856 167.422 125.268 167.13 123.666 167.016C122.579 166.94 121.323 166.864 120.362 167.45C119.954 166.754 119.544 166.059 119.135 165.363Z" fill="#211C1D"/>
<path d="M191.855 159.555C191.34 158.227 190.718 156.975 189.802 155.864C188.762 154.606 187.47 153.608 186.049 152.798C182.944 151.027 179.421 150.256 175.963 149.458C172.284 148.61 168.605 147.755 164.886 147.096C161.52 146.498 158.05 145.956 154.62 146.122C153.722 146.166 152.811 146.258 151.947 146.514C151.619 146.61 151.283 146.731 150.983 146.896C150.767 147.015 150.767 147.112 150.614 147.015C150.5 146.943 150.394 146.698 150.318 146.588C150.168 146.372 150.019 146.158 149.87 145.942C149.676 145.662 149.482 145.382 149.288 145.103C151.832 143.694 154.883 143.844 157.698 144.152C160.776 144.49 163.815 145.155 166.815 145.891C170.189 146.719 173.525 147.686 176.863 148.639C180.049 149.55 183.269 150.496 186.095 152.258C187.547 153.163 188.857 154.254 189.891 155.611C190.802 156.807 191.392 158.14 191.855 159.555Z" fill="#211C1D"/>
<path d="M168.106 132.478C170.847 131.059 173.623 130.06 176.72 129.724C178.42 129.54 180.145 129.46 181.852 129.583C183.668 129.714 185.474 130.034 187.259 130.375C190.966 131.086 194.633 132.002 198.286 132.946C201.734 133.835 205.161 134.76 208.244 136.579C211.314 138.388 213.866 140.895 215.234 144.182C213.939 141.452 211.806 139.271 209.205 137.696C206.294 135.932 203.064 134.974 199.745 134.272C196.186 133.52 192.622 132.787 189.031 132.198C185.676 131.647 182.283 131.162 178.881 131.487C177.032 131.664 175.179 131.964 173.425 132.582C171.971 133.094 170.623 133.818 169.296 134.584C168.9 133.882 168.502 133.179 168.106 132.478Z" fill="#211C1D"/>
<path d="M191.675 117.63C196.334 117.978 200.585 120.067 204.066 123.065C203.462 123.606 202.86 124.148 202.257 124.691C199.546 121.321 195.933 118.738 191.675 117.63Z" fill="#211C1D"/>
<path d="M193.782 115.923C198.433 116.323 202.629 118.385 206.11 121.383C205.508 121.925 204.904 122.467 204.302 123.01C201.59 119.634 198.025 117.081 193.782 115.923Z" fill="#211C1D"/>
<path d="M195.888 114.217C200.53 114.666 204.673 116.702 208.153 119.701C207.551 120.243 206.947 120.786 206.345 121.328C203.636 117.947 200.117 115.422 195.888 114.217Z" fill="#211C1D"/>
<path d="M197.995 112.51C202.626 113.007 206.72 115.019 210.198 118.019C209.594 118.562 208.992 119.105 208.389 119.646C205.682 116.262 202.208 113.762 197.995 112.51Z" fill="#211C1D"/>
<path d="M200.103 110.803C204.722 111.346 208.766 113.338 212.241 116.338C211.639 116.881 211.036 117.423 210.434 117.965C207.73 114.578 204.298 112.099 200.103 110.803Z" fill="#211C1D"/>
<path d="M202.208 109.097C204.434 109.379 206.584 109.947 208.618 110.889C210.708 111.855 212.556 113.164 214.285 114.657C213.683 115.2 213.081 115.742 212.477 116.283C211.17 114.642 209.722 113.155 208 111.929C206.234 110.67 204.276 109.758 202.208 109.097Z" fill="#211C1D"/>
<path d="M204.316 107.39C206.497 107.689 208.617 108.24 210.614 109.167C212.722 110.147 214.583 111.467 216.33 112.976C215.726 113.518 215.124 114.061 214.521 114.602C213.202 112.941 211.741 111.435 210 110.191C208.267 108.952 206.34 108.061 204.316 107.39Z" fill="#211C1D"/>
<path d="M206.423 105.683C208.595 106 210.704 106.552 212.692 107.483C214.787 108.466 216.636 109.791 218.373 111.294C217.771 111.837 217.168 112.379 216.566 112.921C215.233 111.241 213.763 109.711 212.003 108.454C210.298 107.236 208.405 106.362 206.423 105.683Z" fill="#211C1D"/>
<path d="M239.638 82.9729C239.638 82.9729 239.902 81.8595 240.367 79.9125C240.852 77.9699 241.505 75.186 242.359 71.8636C243.216 68.5407 244.174 64.6541 245.276 60.5099C246.376 56.3647 247.549 51.9432 248.723 47.5208C249.938 43.1115 251.154 38.7005 252.295 34.5661C253.43 30.4303 254.566 26.5901 255.5 23.2875C256.439 19.9875 257.28 17.2516 257.841 15.3287C258.421 13.4125 258.754 12.3183 258.754 12.3183C258.754 12.3183 258.489 13.4303 258.025 15.3781C257.54 17.3193 256.888 20.1047 256.033 23.4276C255.176 26.7484 254.22 30.6365 253.117 34.7808C252.015 38.9261 250.843 43.3475 249.668 47.7688C248.452 52.1792 247.237 56.5901 246.097 60.7245C244.958 64.8595 243.825 68.7005 242.89 72.0021C241.951 75.3032 241.112 78.038 240.551 79.9604C239.97 81.8765 239.638 82.9729 239.638 82.9729Z" fill="white"/>
<path d="M244.511 100.201C249.487 100.664 254.311 102.397 258.233 105.489C261.833 108.326 264.784 112.061 266.424 116.329C267.368 118.785 267.988 121.257 268.353 123.858C267.588 121.805 266.906 119.738 265.948 117.758C264.79 115.362 263.417 113.152 261.786 111.041C259.144 107.621 255.587 104.95 251.753 102.949C249.45 101.747 246.986 100.971 244.511 100.201Z" fill="white"/>
<path d="M256.555 105.381L262.834 100.931L257.525 106.467L256.555 105.381Z" fill="white"/>
<path d="M265.973 117.065L272.844 112.566L266.894 118.193L265.973 117.065Z" fill="white"/>
<path d="M204.457 124.279C206.747 117.5 209.089 110.738 211.505 103.999C214.601 95.3672 217.771 86.7636 220.981 78.1713C224.318 69.2407 227.745 60.3432 231.19 51.4516C234.552 42.7729 238.007 34.1303 241.501 25.5021C242.323 23.4713 243.154 21.4459 243.991 19.4219C244.833 17.3833 245.93 15.5432 247.362 13.8459C249.958 10.7713 253.141 8.26614 256.61 6.20627C257.132 5.89534 257.667 5.60894 258.198 5.31414C255.251 7.34747 252.471 9.58854 250.091 12.2568C248.585 13.9432 247.204 15.798 246.216 17.8303C245.298 19.7183 244.719 21.7995 244.006 23.7699C240.879 32.4115 237.703 41.038 234.435 49.6287C231.065 58.4849 227.692 67.3396 224.205 76.1516C220.819 84.7089 217.436 93.2672 213.934 101.779C210.917 109.11 207.857 116.421 204.709 123.697C204.625 123.891 204.541 124.086 204.457 124.279Z" fill="white"/>
<path d="M246.268 91.5792L237.139 99.4688L246.125 88.2098L246.268 91.5792Z" fill="white"/>
<path d="M185 111.794L206.756 93.0001L208.295 94.8761L185 111.794Z" fill="#211C1D"/>
<path d="M79.9285 210.203C84.2161 207.218 88.5038 204.231 92.7915 201.244C100.5 195.876 108.231 190.538 115.953 185.19C124.625 179.184 133.297 173.18 141.968 167.178C150.384 161.352 158.81 155.54 167.247 149.746C174.515 144.754 181.809 139.795 189.116 134.858C189.322 134.718 189.529 134.579 189.736 134.439C183.318 139.136 176.897 143.828 170.444 148.478C162.277 154.36 154.107 160.239 145.918 166.092C137.308 172.247 128.697 178.4 120.086 184.555C112.422 190.031 104.77 195.524 97.0913 200.982C93.6064 203.458 90.1215 205.934 86.6366 208.41C85.526 209.199 84.4168 209.987 83.3076 210.776C83.1245 210.906 82.9428 211.034 82.7611 211.164C82.6648 211.232 82.3909 211.502 82.2743 211.504C82.1753 211.506 81.9665 211.334 81.8797 211.286C81.5922 211.127 81.3061 210.967 81.02 210.808C80.6553 210.607 80.2919 210.406 79.9285 210.203Z" fill="#211C1D"/>
<path d="M41.9065 293.555C41.9065 293.555 41.9689 293.747 42.0774 294.083C42.1845 294.416 42.3446 294.922 42.5087 295.511C42.8478 296.696 43.1977 298.303 43.4269 299.911C43.6575 301.52 43.8013 303.128 43.8976 304.334C43.9857 305.539 44.0441 306.343 44.0441 306.343C44.0441 306.343 43.8623 305.556 43.5883 304.376C43.3076 303.198 42.9169 301.632 42.4476 300.106C41.9797 298.579 41.4073 297.111 40.9109 296.042C40.6627 295.498 40.4538 295.08 40.2938 294.76C40.1337 294.444 40.0415 294.264 40.0415 294.264L41.9065 293.555Z" fill="white"/>
<path d="M2.85894 309.252C6.96084 311.455 10.3223 313.203 10.3223 313.203L40.8513 298.627C40.8513 298.627 41.6771 297.694 40.8825 295.984C39.8004 293.654 38.4051 290.595 37.521 289.387C35.4273 286.527 33.152 285.191 33.152 285.191L33.7323 284.28C34.3886 283.25 33.9724 281.886 32.8455 281.38L24.2037 277.508C23.3345 277.118 22.3053 277.372 21.7263 278.12L20.0056 280.343C17.7573 279.482 11.6933 278.962 7.8341 283.119C2.64469 294.846 1.47989 303.33 2.85894 309.252Z" fill="#211C1D"/>
<path d="M168.588 128.936C171.713 123.318 180.256 122.944 191.047 128.398C178.004 125.955 173.823 128.511 169.21 133.703L168.588 128.936Z" fill="#211C1D"/>
<path d="M270.635 126.595C270.635 126.595 270.959 126.052 271.535 125.331C271.82 124.971 272.167 124.557 272.554 124.131C272.939 123.704 273.362 123.264 273.801 122.837C274.239 122.411 274.694 121.998 275.132 121.611C275.567 121.238 275.987 120.904 276.361 120.624C277.102 120.064 277.656 119.758 277.656 119.758C277.656 119.758 277.334 120.291 276.757 121.024C276.473 121.384 276.125 121.798 275.739 122.224C275.354 122.651 274.929 123.091 274.491 123.518C274.052 123.944 273.598 124.357 273.16 124.731C272.725 125.104 272.303 125.451 271.93 125.718C271.19 126.282 270.635 126.595 270.635 126.595Z" fill="white"/>
<path d="M262.925 150.124C262.925 150.124 263.021 149.948 263.211 149.662C263.399 149.374 263.677 148.971 264.038 148.518C264.746 147.594 265.787 146.464 266.907 145.416C268.03 144.371 269.231 143.407 270.208 142.763C270.688 142.432 271.112 142.182 271.414 142.012C271.717 141.842 271.901 141.756 271.901 141.756C271.901 141.756 271.805 141.933 271.617 142.22C271.427 142.508 271.15 142.912 270.789 143.365C270.083 144.289 269.04 145.419 267.919 146.464C266.795 147.509 265.592 148.472 264.617 149.118C264.137 149.447 263.712 149.698 263.41 149.868C263.109 150.039 262.925 150.124 262.925 150.124Z" fill="white"/>
<path d="M253.189 177.97C253.189 177.97 253.312 177.767 253.549 177.432C253.787 177.098 254.132 176.628 254.577 176.094C255.449 175.01 256.712 173.664 258.053 172.402C259.396 171.14 260.819 169.962 261.962 169.155C262.526 168.744 263.02 168.426 263.37 168.208C263.721 167.991 263.932 167.879 263.932 167.879C263.932 167.879 263.809 168.082 263.572 168.416C263.336 168.751 262.99 169.222 262.545 169.756C261.673 170.842 260.411 172.186 259.068 173.447C257.723 174.707 256.299 175.884 255.158 176.692C254.594 177.103 254.101 177.422 253.75 177.639C253.4 177.858 253.189 177.97 253.189 177.97Z" fill="white"/>
<path d="M100.007 218.028C100.007 218.028 100.156 218.179 100.418 218.444C100.546 218.579 100.713 218.731 100.884 218.928C101.058 219.123 101.254 219.343 101.467 219.583C101.881 220.074 102.35 220.66 102.825 221.311C103.292 221.966 103.776 222.679 104.225 223.414C105.13 224.882 105.926 226.416 106.456 227.618C106.726 228.216 106.928 228.734 107.063 229.124C107.129 229.324 107.181 229.474 107.213 229.627C107.244 229.764 107.26 229.839 107.26 229.839L104.823 230.094C104.823 230.094 104.822 230.064 104.821 230.007C104.826 229.966 104.807 229.835 104.787 229.678C104.738 229.355 104.644 228.863 104.498 228.27C104.215 227.08 103.73 225.494 103.126 223.946C102.827 223.168 102.491 222.407 102.156 221.698C101.816 220.992 101.467 220.347 101.154 219.799C100.99 219.531 100.839 219.284 100.707 219.066C100.576 218.844 100.438 218.664 100.336 218.51C100.126 218.203 100.007 218.028 100.007 218.028Z" fill="#211C1D"/>
<path d="M98.0203 218.879C98.0203 218.879 98.1708 219.03 98.4311 219.295C98.5599 219.43 98.7267 219.582 98.8976 219.778C99.0711 219.974 99.2678 220.194 99.482 220.434C99.8942 220.924 100.363 221.51 100.838 222.162C101.307 222.815 101.79 223.528 102.239 224.264C103.143 225.731 103.941 227.267 104.471 228.468C104.741 229.067 104.941 229.584 105.077 229.974C105.142 230.175 105.195 230.324 105.226 230.478C105.257 230.615 105.273 230.688 105.273 230.688L102.837 230.944C102.837 230.944 102.835 230.914 102.834 230.858C102.839 230.815 102.821 230.684 102.8 230.527C102.751 230.205 102.658 229.712 102.511 229.119C102.228 227.931 101.744 226.343 101.139 224.795C100.841 224.019 100.504 223.256 100.17 222.548C99.8292 221.843 99.4807 221.196 99.1674 220.65C99.0034 220.38 98.8542 220.135 98.7199 219.916C98.5897 219.695 98.4514 219.515 98.3497 219.36C98.1409 219.053 98.0203 218.879 98.0203 218.879Z" fill="#211C1D"/>
<path d="M96.5151 221.058C98.2006 222.763 99.6394 224.635 100.879 226.679C101.539 227.77 102.147 228.891 102.689 230.043C103.116 230.951 103.551 231.886 103.768 232.867C102.956 232.952 102.144 233.038 101.332 233.123C101.332 232.187 100.997 231.195 100.747 230.3C100.416 229.118 100.019 227.952 99.5689 226.807C98.7688 224.774 97.7518 222.866 96.5151 221.058Z" fill="#211C1D"/>
<path d="M94.4863 222.072C96.1244 223.715 97.5197 225.523 98.7211 227.498C99.3313 228.5 99.8941 229.534 100.399 230.591C100.815 231.464 101.239 232.364 101.451 233.312C100.638 233.396 99.8263 233.482 99.014 233.567C99.0262 232.707 98.7171 231.786 98.4947 230.964C98.1882 229.836 97.818 228.724 97.3976 227.634C96.6383 225.667 95.6715 223.822 94.4863 222.072Z" fill="#211C1D"/>
<path d="M92.4592 223.088C93.9847 224.604 95.2946 226.27 96.4255 228.091C97.0466 229.092 97.6202 230.124 98.1314 231.186C98.5287 232.01 98.9314 232.86 99.1348 233.756C98.3226 233.84 97.5104 233.926 96.6981 234.011C96.7198 233.191 96.4201 232.298 96.2099 231.512C95.9184 230.42 95.5645 229.343 95.1604 228.288C94.4552 226.451 93.5562 224.726 92.4592 223.088Z" fill="#211C1D"/>
<path d="M90.4307 224.103C91.864 225.512 93.102 227.06 94.1719 228.755C94.7509 229.674 95.2878 230.62 95.7706 231.592C96.1842 232.424 96.614 233.291 96.8174 234.2C96.0052 234.286 95.1929 234.37 94.3807 234.455C94.4119 233.72 94.1461 232.916 93.9658 232.212C93.6987 231.167 93.3691 230.136 92.9908 229.124C92.329 227.351 91.4775 225.684 90.4307 224.103Z" fill="#211C1D"/>
<path d="M88.4021 225.118C89.7445 226.422 90.9094 227.852 91.9182 229.422C92.4837 230.302 93.0084 231.21 93.479 232.142C93.883 232.939 94.3034 233.77 94.5001 234.644C93.6878 234.73 92.8755 234.814 92.0633 234.899C92.0972 234.174 91.841 233.383 91.6633 232.686C91.4206 231.731 91.1263 230.791 90.7873 229.867C90.173 228.191 89.3798 226.615 88.4021 225.118Z" fill="#211C1D"/>
<path d="M86.3735 226.134C87.6699 227.374 88.7913 228.742 89.7635 230.243C90.7087 231.702 91.7921 233.38 92.1826 235.088C91.3704 235.174 90.5582 235.258 89.7459 235.343C89.8042 234.678 89.548 233.912 89.3893 233.272C89.1601 232.34 88.8781 231.422 88.5513 230.519C87.9885 228.974 87.2658 227.519 86.3735 226.134Z" fill="#211C1D"/>
<path d="M84.345 227.148C85.5722 228.306 86.6366 229.584 87.5614 230.99C88.4605 232.354 89.4951 233.927 89.8666 235.532C89.0544 235.618 88.2421 235.703 87.4285 235.787C87.5058 235.164 87.2509 234.424 87.1072 233.82C86.901 232.96 86.6474 232.11 86.3518 231.275C85.8379 229.823 85.1708 228.454 84.345 227.148Z" fill="#211C1D"/>
<path d="M82.3164 228.163C83.4758 229.236 84.4806 230.424 85.3579 231.732C86.2054 232.998 87.2034 234.479 87.5492 235.976C86.7369 236.062 85.9247 236.146 85.1125 236.231C85.1803 235.69 84.9768 235.044 84.8602 234.52C84.6772 233.703 84.4466 232.895 84.1768 232.1C83.7063 230.715 83.0893 229.41 82.3164 228.163Z" fill="#211C1D"/>
<path d="M80.2878 229.179C81.3998 230.187 82.3638 231.312 83.2046 232.551C83.9897 233.706 84.9118 235.047 85.2318 236.42C84.4196 236.506 83.6073 236.591 82.7951 236.675C82.894 236.187 82.6785 235.548 82.5768 235.07C82.4181 234.32 82.2147 233.58 81.976 232.851C81.5543 231.562 80.993 230.343 80.2878 229.179Z" fill="#211C1D"/>
<path d="M78.2593 230.194C79.2817 231.098 80.1699 232.104 80.9496 233.219C81.7062 234.3 82.608 235.567 82.9144 236.864C82.1022 236.95 81.2899 237.035 80.4777 237.119C80.5712 236.7 80.399 236.147 80.319 235.734C80.1794 235.01 79.9922 234.292 79.7712 233.587C79.3983 232.396 78.8952 231.271 78.2593 230.194Z" fill="#211C1D"/>
<path d="M76.2319 231.21C77.1608 232.01 77.9771 232.902 78.6945 233.891C79.4213 234.892 80.3135 236.088 80.5983 237.308C79.7847 237.394 78.9724 237.479 78.1602 237.564C78.289 237.188 78.0924 236.584 78.0219 236.206C77.8998 235.543 77.7371 234.888 77.5432 234.244C77.2218 233.182 76.7825 232.175 76.2319 231.21Z" fill="#211C1D"/>
<path d="M74.2034 232.224C75.1119 232.98 75.9011 233.834 76.5994 234.78C77.2422 235.654 78.0232 236.686 78.2808 237.752C77.4686 237.838 76.6564 237.923 75.8441 238.007C75.954 237.699 75.8156 237.222 75.7668 236.903C75.676 236.318 75.5458 235.739 75.3913 235.167C75.1119 234.138 74.7173 233.162 74.2034 232.224Z" fill="#211C1D"/>
<path d="M72.1748 233.239C72.99 233.891 73.7061 234.627 74.3422 235.451C74.958 236.248 75.7203 237.204 75.9644 238.196C75.152 238.282 74.3396 238.367 73.5271 238.452C73.6397 238.184 73.5216 237.712 73.4809 237.418C73.4036 236.852 73.2883 236.292 73.1446 235.74C72.9167 234.868 72.5926 234.04 72.1748 233.239Z" fill="#211C1D"/>
<path d="M70.1462 234.255C70.9153 234.839 71.5894 235.507 72.1916 236.259C72.7423 236.946 73.4299 237.774 73.647 238.64C72.8345 238.726 72.022 238.811 71.2096 238.896C71.3371 238.771 71.2354 238.306 71.2177 238.116C71.1716 237.626 71.0889 237.139 70.9831 236.656C70.8 235.822 70.5233 235.024 70.1462 234.255Z" fill="#211C1D"/>
<path d="M140.959 259.775C145.532 255.159 150.367 250.794 155.406 246.674C161.28 241.87 167.385 237.347 173.533 232.887C179.783 228.352 186.095 223.887 192.527 219.602C198.889 215.363 205.261 211.135 211.756 207.091C217.084 203.775 222.447 200.525 227.88 197.38C228.031 197.292 228.181 197.206 228.333 197.118C223.811 200.21 219.299 203.316 214.787 206.422C208.579 210.691 202.413 215.023 196.269 219.38C189.923 223.88 183.618 228.431 177.335 233.018C171.132 237.546 165.059 242.24 158.888 246.809C153.348 250.909 147.859 255.11 142.147 258.978C141.751 259.244 141.355 259.509 140.959 259.775Z" fill="white"/>
<path d="M213.158 129.747L229.056 119.438L214.015 130.923L213.158 129.747Z" fill="white"/>
<path d="M210.786 128.958L220.556 122.971L211.642 130.132L210.786 128.958Z" fill="white"/>
<path d="M208.146 128.4L215.161 124.344L209.003 129.575L208.146 128.4Z" fill="white"/>
<path d="M214.616 131.363L227.784 122.984L215.473 132.539L214.616 131.363Z" fill="white"/>
<path d="M217.256 130.032C217.256 130.032 217.461 130.158 217.82 130.376C218.002 130.487 218.221 130.623 218.474 130.778C218.742 130.951 219.045 131.147 219.374 131.36C219.704 131.572 220.029 131.82 220.387 132.071C220.744 132.322 221.102 132.619 221.476 132.907C221.843 133.212 222.219 133.528 222.588 133.864C222.953 134.207 223.321 134.548 223.666 134.922C224.021 135.276 224.342 135.672 224.664 136.043C224.968 136.438 225.269 136.815 225.525 137.211C225.795 137.591 226.014 137.991 226.225 138.358C226.421 138.738 226.602 139.094 226.736 139.438C226.889 139.771 226.979 140.099 227.078 140.375C227.158 140.66 227.217 140.91 227.269 141.112C227.338 141.524 227.379 141.759 227.379 141.759C227.379 141.759 227.273 141.547 227.09 141.175C226.984 140.998 226.859 140.782 226.707 140.542C226.537 140.31 226.371 140.04 226.139 139.778C225.928 139.504 225.667 139.231 225.396 138.947C225.107 138.674 224.816 138.383 224.477 138.118C224.154 137.839 223.787 137.584 223.427 137.322C223.048 137.079 222.677 136.823 222.276 136.604C221.888 136.372 221.477 136.17 221.081 135.968C220.68 135.774 220.276 135.596 219.888 135.428C219.488 135.275 219.118 135.111 218.746 134.986C218.377 134.862 218.03 134.727 217.713 134.635C217.398 134.54 217.11 134.455 216.853 134.378C216.574 134.302 216.329 134.234 216.128 134.179C215.721 134.068 215.488 134.006 215.488 134.006L217.256 130.032Z" fill="white"/>
<path d="M202.638 125.952L194.65 131.462L200.991 124.171L202.638 125.952Z" fill="#211C1D"/>
<path d="M23.6469 282.263C23.0351 283.251 22.1685 283.831 21.7114 283.558C21.2543 283.284 21.3804 282.262 21.9921 281.274C22.6038 280.284 23.4692 279.704 23.9263 279.978C24.3834 280.251 24.2586 281.274 23.6469 282.263Z" fill="white"/>
<path d="M27.2808 283.704C26.669 284.693 25.8023 285.274 25.3453 285C24.8882 284.727 25.0143 283.704 25.6247 282.715C26.2364 281.727 27.1031 281.147 27.5602 281.42C28.0173 281.693 27.8925 282.716 27.2808 283.704Z" fill="white"/>
<path d="M30.7226 285.414C30.1109 286.403 29.2441 286.983 28.7871 286.71C28.33 286.436 28.4548 285.412 29.0665 284.424C29.6782 283.435 30.5449 282.856 31.0019 283.128C31.459 283.402 31.3343 284.426 30.7226 285.414Z" fill="white"/>
<path d="M35.4359 266.067C34.8242 267.056 33.9575 267.636 33.5004 267.363C33.0434 267.09 33.1681 266.067 33.7799 265.078C34.3916 264.09 35.2582 263.51 35.7153 263.783C36.1724 264.056 36.0476 265.079 35.4359 266.067Z" fill="white"/>
<path d="M39.07 267.509C38.4582 268.497 37.5916 269.077 37.1345 268.804C36.6774 268.531 36.8022 267.508 37.4139 266.52C38.0256 265.531 38.8923 264.951 39.3494 265.224C39.8065 265.498 39.6817 266.521 39.07 267.509Z" fill="white"/>
<path d="M42.5103 269.219C41.8999 270.207 41.0332 270.787 40.5761 270.514C40.119 270.24 40.2438 269.218 40.8555 268.228C41.4672 267.24 42.334 266.66 42.791 266.934C43.2481 267.207 43.122 268.23 42.5103 269.219Z" fill="white"/>
<path d="M340.796 212.058C337.145 213.454 333.449 214.76 329.728 215.967C327.024 216.843 324.308 217.671 321.528 218.287C318.736 218.907 315.91 219.384 313.084 219.831C301.843 221.608 290.506 222.791 279.19 223.992C267.211 225.263 255.224 226.467 243.252 227.803C237.131 228.487 231.006 229.183 224.913 230.084C221.907 230.53 218.893 230.991 215.931 231.679C213.039 232.351 210.247 233.384 207.501 234.495C196.07 239.119 185.186 245.064 174.351 250.883C168.927 253.796 163.514 256.728 158.06 259.586C152.609 262.442 147.109 265.207 141.629 268.007C130.765 273.556 119.876 279.06 108.952 284.495C98.2113 289.84 87.5301 295.308 76.7621 300.602C66.2598 305.766 55.5881 310.734 44.4865 314.535C39.0381 316.4 33.4582 318.012 27.7562 318.92C22.697 319.727 17.1943 320.12 12.272 318.435C10.1906 317.723 8.36541 316.595 6.8833 314.99C10.6774 318.458 16.0105 318.916 20.9532 318.552C26.6809 318.131 32.3083 316.588 37.7472 314.843C48.7525 311.312 59.3497 306.496 69.7 301.432C80.3473 296.223 90.817 290.663 101.401 285.331C112.219 279.88 123.05 274.459 133.881 269.035C144.867 263.531 155.835 257.998 166.684 252.238C177.49 246.5 188.309 240.718 199.479 235.683C204.911 233.235 210.495 230.802 216.368 229.59C222.318 228.363 228.406 227.715 234.442 227.039C246.323 225.707 258.241 224.7 270.149 223.631C281.759 222.588 293.376 221.555 304.957 220.228C310.638 219.578 316.355 218.922 321.955 217.754C326.898 216.723 331.719 215.126 336.498 213.532C337.936 213.054 339.37 212.567 340.796 212.058Z" fill="white"/>
<path d="M7.31724 306.596C5.85412 304.176 5.78089 301.043 6.22566 298.339C6.7111 295.382 7.67388 292.496 9.05836 289.828C9.70924 288.574 10.4686 287.363 11.3636 286.26C10.6761 289.603 9.73635 292.891 9.0814 296.243C8.70986 298.144 8.43051 300.063 8.12406 301.976C7.88133 303.496 7.73489 305.111 7.31724 306.596Z" fill="white"/>
<path d="M245.439 151.686C247.623 148.898 250.317 146.432 252.992 144.108C256.16 141.358 259.495 138.771 263.015 136.471C264.493 135.506 266.011 134.554 267.603 133.779C265.422 136.571 262.725 139.034 260.051 141.359C256.885 144.11 253.542 146.691 250.024 148.991C248.546 149.956 247.03 150.908 245.439 151.686Z" fill="white"/>
<path d="M89.3135 183.936L150.183 142.943L149.87 145.942L93.1984 184.198L89.3135 183.936Z" fill="#211C1D"/>
</svg>
