<svg width="78" height="77" viewBox="0 0 78 77" fill="none" xmlns="http://www.w3.org/2000/svg">
<path d="M24.9517 7.62939e-06C29.0888 8.92667 32.6429 18.116 36.1576 27.292C40.7341 39.2427 44.9567 51.352 48.7671 63.56C50.0661 67.724 51.3408 71.8987 52.4568 76.1147C48.3142 67.1894 44.7628 58 41.2481 48.824C36.6689 36.8734 32.4571 24.76 28.6454 12.5534C27.345 8.39069 26.0704 4.21468 24.9517 7.62939e-06Z" fill="white"/>
<path d="M0 51.58C9.07842 47.512 18.424 44.0174 27.756 40.5614C39.9098 36.0614 52.225 31.9093 64.6405 28.1627C68.8753 26.8853 73.1209 25.632 77.4086 24.5347C68.3315 28.608 58.986 32.1 49.654 35.556C37.5015 40.0587 25.1809 44.2 12.7667 47.948C8.53331 49.2267 4.28632 50.48 0 51.58Z" fill="white"/>
<path d="M49.3109 16.1307C43.1818 31.1227 36.0628 45.8507 28.0977 59.9841C34.2214 44.9894 41.3498 30.2667 49.3109 16.1307Z" fill="white"/>
<path d="M16.4048 27.6281C31.653 33.6534 46.63 40.6534 61.0036 48.4868C45.7541 42.4641 30.7811 35.4548 16.4048 27.6281Z" fill="white"/>
</svg>
