<svg width="179" height="268" viewBox="0 0 179 268" fill="none" xmlns="http://www.w3.org/2000/svg">
<path d="M176.01 254.698C175.995 262.058 170.021 268.016 162.661 268L13.3021 267.745C5.94272 267.729 -0.0104024 261.755 1.36476e-05 254.396L0.41668 14.6356C0.432306 7.27103 6.40626 1.3179 13.7656 1.33353L163.13 1.59394C170.484 1.60436 176.443 7.58353 176.427 14.9377L176.01 254.698Z" fill="#C4B78F"/>
<mask id="mask0_148_4390" style="mask-type:luminance" maskUnits="userSpaceOnUse" x="1" y="0" width="178" height="267">
<path d="M1 0H178.333V266.667H1V0Z" fill="white"/>
</mask>
<g mask="url(#mask0_148_4390)">
<mask id="mask1_148_4390" style="mask-type:luminance" maskUnits="userSpaceOnUse" x="1" y="0" width="177" height="267">
<path d="M177.01 253.365C176.995 260.724 171.021 266.682 163.661 266.667L14.3021 266.412C6.94272 266.396 0.989598 260.422 1.00001 253.063L1.41668 13.3021C1.43231 5.93753 7.40626 -0.0155946 14.7656 3.06889e-05L164.13 0.260447C171.484 0.270863 177.443 6.25003 177.427 13.6042L177.01 253.365Z" fill="white"/>
</mask>
<g mask="url(#mask1_148_4390)">
<mask id="mask2_148_4390" style="mask-type:luminance" maskUnits="userSpaceOnUse" x="1" y="0" width="177" height="267">
<path d="M177.01 253.365C176.995 260.724 171.021 266.682 163.661 266.667L14.3021 266.412C6.94272 266.396 0.989598 260.422 1.00001 253.063L1.41668 13.3021C1.43231 5.93753 7.40626 -0.0155946 14.7656 3.06889e-05L164.13 0.260447C171.484 0.270863 177.443 6.25003 177.427 13.6042L177.01 253.365Z" fill="white"/>
</mask>
<g mask="url(#mask2_148_4390)">
<path d="M-95.25 225.641L150.286 330.354L273.677 41.0312L28.1406 -63.6875L-95.25 225.641Z" fill="url(#paint0_linear_148_4390)"/>
</g>
</g>
</g>
<path fill-rule="evenodd" clip-rule="evenodd" d="M20.8805 42.3642C19.7398 42.3486 18.7503 42.9996 18.2763 43.9579C17.9065 44.385 17.344 44.5673 16.7711 44.6819C16.9117 43.9892 17.0784 43.234 17.6253 42.7913C18.594 42.3381 19.2763 41.3642 19.2919 40.2288C19.3128 38.6402 18.0471 37.3434 16.4638 37.3225C14.8805 37.3017 13.5784 38.5673 13.5523 40.1506C13.5419 41.2913 14.193 42.2809 15.1513 42.7548C15.6148 43.1038 15.8075 43.9423 15.9482 44.6715C15.3857 44.5413 14.8232 44.3434 14.469 43.9111C14.0211 42.9371 13.0471 42.26 11.9065 42.2444C10.3232 42.2184 9.02109 43.4892 9.00025 45.0725C8.97942 46.6559 10.245 47.9579 11.8336 47.9788C12.969 47.9944 14.068 47.234 14.5471 46.2756C14.9482 45.8434 15.4638 45.7392 16.0523 45.6402C16.0992 46.4527 16.0575 47.3277 15.9325 47.8381C15.3284 49.4944 13.8336 51.4631 13.0419 52.1298C14.12 51.2288 18.4325 51.2861 19.4794 52.2131C18.7086 51.5309 17.1669 49.4163 16.7138 47.8486C16.5732 47.2184 16.6044 46.0517 16.62 45.6402C17.219 45.76 17.7398 45.8694 18.1357 46.3225C18.5888 47.2965 19.6669 48.0829 20.8023 48.0986C22.3909 48.1194 23.693 46.8538 23.7086 45.2652C23.7294 43.6871 22.4638 42.385 20.8805 42.3642Z" fill="#191919"/>
<path fill-rule="evenodd" clip-rule="evenodd" d="M159.438 222.885C160.578 222.88 161.558 222.213 162.016 221.25C162.375 220.812 162.938 220.625 163.506 220.5C163.381 221.198 163.219 221.953 162.688 222.411C161.724 222.87 161.058 223.854 161.063 224.995C161.063 226.578 162.354 227.864 163.938 227.859C165.521 227.854 166.802 226.568 166.797 224.979C166.792 223.844 166.125 222.859 165.157 222.401C164.693 222.062 164.485 221.224 164.334 220.5C164.896 220.62 165.459 220.807 165.823 221.239C166.287 222.203 167.271 222.864 168.412 222.864C169.995 222.859 171.276 221.573 171.271 219.989C171.266 218.406 169.979 217.125 168.396 217.13C167.261 217.13 166.172 217.906 165.709 218.87C165.313 219.312 164.802 219.422 164.214 219.531C164.151 218.724 164.177 217.844 164.297 217.333C164.875 215.667 166.339 213.672 167.12 212.995C166.058 213.911 161.745 213.927 160.683 213.015C161.464 213.687 163.037 215.776 163.521 217.333C163.672 217.958 163.657 219.125 163.646 219.536C163.042 219.427 162.521 219.328 162.115 218.88C161.651 217.917 160.563 217.146 159.422 217.151C157.839 217.156 156.558 218.443 156.558 220.026C156.563 221.609 157.854 222.89 159.438 222.885Z" fill="#191919"/>
<path d="M17.3548 25.0208C17.4486 25.0208 17.5111 24.9427 17.4798 24.8438L16.3913 18.724H16.3288L15.3079 24.8698C15.2767 24.9688 15.3392 25.0208 15.4017 25.0208H17.3548ZM17.7871 26.5677C17.7559 26.4427 17.6621 26.3438 17.5111 26.3438H15.2142C15.1204 26.3438 15.0579 26.4167 15.0319 26.5156L14.5632 29.2656C14.5319 29.4375 14.5944 29.5885 14.7194 29.7135L15.4017 30.2917C15.5267 30.4167 15.709 30.5156 15.709 30.5885C15.709 30.6615 15.6465 30.7396 15.4954 30.7396H11.9277C11.8027 30.7396 11.7402 30.6615 11.7402 30.5885C11.7402 30.5156 11.8652 30.4167 11.959 30.3385L12.8288 29.6406C13.0163 29.4896 13.0475 29.2396 13.0736 29.0156L15.8965 12.2292C15.9277 12.099 15.9902 12 16.1465 12H17.2923C17.4486 12 17.5423 12.125 17.5736 12.276L20.5163 29.0417C20.5475 29.2917 20.6413 29.5677 20.86 29.7135L21.7559 30.3646C21.8496 30.4375 21.9434 30.5156 21.9434 30.5885C21.9434 30.6615 21.8809 30.7396 21.7246 30.7396H17.2611C17.1048 30.7396 17.0423 30.6615 17.0423 30.5885C17.0423 30.5156 17.1673 30.4375 17.2611 30.3646L18.0996 29.6927C18.2246 29.5885 18.2871 29.4167 18.2507 29.1927L17.7871 26.5677Z" fill="black"/>
<path d="M162.995 244.39C162.907 244.39 162.844 244.469 162.876 244.568L163.959 250.687H164.021L165.042 244.542C165.079 244.437 165.016 244.39 164.949 244.39H162.995ZM162.563 242.844C162.594 242.969 162.688 243.068 162.844 243.068H165.141C165.23 243.068 165.292 242.989 165.324 242.89L165.792 240.14C165.818 239.969 165.761 239.818 165.636 239.693L164.949 239.12C164.829 238.995 164.641 238.896 164.641 238.818C164.641 238.745 164.704 238.667 164.86 238.667H168.428C168.548 238.667 168.61 238.745 168.61 238.818C168.61 238.896 168.485 238.995 168.391 239.068L167.527 239.765C167.339 239.922 167.308 240.167 167.277 240.396L164.459 257.182C164.428 257.307 164.365 257.406 164.209 257.406H163.058C162.907 257.406 162.813 257.281 162.782 257.135L159.834 240.37C159.808 240.12 159.709 239.844 159.495 239.693L158.594 239.042C158.501 238.969 158.412 238.896 158.412 238.818C158.412 238.745 158.475 238.667 158.626 238.667H163.094C163.245 238.667 163.308 238.745 163.308 238.818C163.308 238.896 163.183 238.969 163.094 239.042L162.256 239.719C162.131 239.818 162.068 239.995 162.1 240.219L162.563 242.844Z" fill="black"/>
<path fill-rule="evenodd" clip-rule="evenodd" d="M126.797 115.906C117.396 115.864 109.276 121.328 105.432 129.26C102.427 132.807 97.7867 134.338 93.1044 135.338C94.1929 129.625 95.5367 123.364 99.9846 119.667C107.943 115.885 113.479 107.818 113.516 98.4166C113.573 85.3593 103.031 74.7291 89.9742 74.677C76.9169 74.6197 66.2867 85.1614 66.2294 98.2187C66.1929 107.62 71.6617 115.734 79.5835 119.583C83.4221 122.411 85.1096 129.333 86.2971 135.302C81.6356 134.266 77.021 132.693 74.0523 129.125C70.2762 121.167 62.2033 115.63 52.8023 115.594C39.7502 115.536 29.12 126.078 29.0627 139.135C29.0106 152.193 39.5523 162.818 52.6096 162.875C62.0054 162.917 71.0054 156.578 74.8492 148.651C78.1512 145.021 82.37 144.161 87.245 143.271C87.6877 149.963 87.4117 157.203 86.3856 161.417C81.5419 175.13 69.4012 191.474 62.9169 197C71.7242 189.5 107.255 189.646 115.995 197.219C109.563 191.641 96.7033 174.318 92.8335 161.437C91.62 156.281 91.8075 146.661 91.9169 143.25C96.87 144.203 101.156 145.062 104.479 148.776C108.255 156.734 117.198 163.146 126.594 163.187C139.651 163.239 150.281 152.703 150.339 139.646C150.391 126.583 139.854 115.958 126.797 115.906Z" fill="black"/>
<path d="M87.1882 189.036C87.2402 175.24 72.0892 190.703 70.209 192.391C72.0475 190.74 85.4382 182.432 87.1882 189.036Z" fill="white"/>
<path d="M91.8027 189.052C91.86 175.255 107.37 190.437 108.751 192.552C106.49 189.083 93.4486 183.401 91.8027 189.052Z" fill="white"/>
<path d="M90.1045 160.849C89.8597 158.37 89.7087 155.672 89.6826 152.703C89.693 153.693 89.6722 154.656 89.6357 155.589C89.5993 154.651 89.5889 153.693 89.6045 152.703C89.5524 155.667 89.3805 158.37 89.1149 160.844C87.5264 171.115 82.891 177.479 79.3232 181.974C80.3805 181.281 83.4899 180.063 85.3285 180.469C87.6097 180.964 89.5055 184.495 89.4847 189.016C89.5055 184.495 91.4378 180.974 93.7295 180.505C95.1045 180.26 98.667 181.354 99.7191 182.062C96.193 177.536 91.6097 171.13 90.1045 160.849Z" fill="white"/>
<path d="M57.8447 145.338C58.1364 142.703 62.6312 143.172 62.3395 145.812C62.0478 148.453 57.5531 147.979 57.8447 145.338ZM54.4228 133.875C53.902 138.62 45.8083 137.771 46.3343 133.026C46.8603 128.276 54.9489 129.125 54.4228 133.875ZM67.4124 137.442C66.4593 135.526 65.9801 133.427 66.2718 131.416L66.2197 131.411C66.4281 129.552 66.1937 127.479 65.2718 125.536C64.3187 123.484 62.6312 121.646 60.4958 120.328C58.3708 119.01 55.8135 118.182 53.1156 117.948C50.4228 117.708 47.5687 118.078 44.8968 119.109C42.2197 120.135 39.7562 121.833 37.7926 123.995C35.8187 126.161 34.3343 128.76 33.3187 131.526C32.2874 134.276 31.7093 137.349 31.9124 140.474C32.1103 143.588 33.0791 147.614 34.8083 150.401C36.5322 153.198 40.0583 156.797 43.0635 158.416C48.0843 161.12 60.6572 162.849 67.6937 155.052C65.2458 155.39 62.7666 155.448 60.3083 155.12C55.3708 154.474 50.6416 152.192 47.3499 148.646C44.0426 145.146 42.1885 140.442 42.501 135.781C42.6572 133.458 43.3343 131.156 44.501 129.078C45.6624 126.989 47.2978 125.125 49.2197 123.552C47.2197 125.041 45.4853 126.854 44.2041 128.927C42.9176 130.995 42.0999 133.323 41.8291 135.724C41.2666 140.531 42.9541 145.547 46.3031 149.422C49.6312 153.333 54.6416 156.031 59.9906 156.942C60.7458 157.073 61.5062 157.172 62.2666 157.239C59.4333 157.437 57.6989 159.078 52.3291 156.719C48.027 154.833 45.3135 152.416 42.5999 148.797C39.8708 145.182 38.3656 140.755 38.527 136.333C38.6103 134.13 39.1156 131.927 40.0843 129.901C41.0531 127.875 42.4801 126.026 44.2666 124.505C42.4072 125.942 40.8656 127.745 39.777 129.771C38.6885 131.791 38.0478 134.021 37.8499 136.291C37.4541 140.838 38.7718 145.515 41.4697 149.458C43.7822 152.875 47.2197 155.713 51.2666 157.453C43.4541 156.583 39.0478 150.406 37.5635 148.021C36.0791 145.635 35.2197 142.969 35.0322 140.297C34.8395 137.625 35.3031 134.974 36.1989 132.479C37.0895 129.984 38.3656 127.698 40.0374 125.812C41.6989 123.927 43.751 122.469 45.9906 121.567C48.2249 120.656 50.6312 120.297 52.9228 120.448C55.2093 120.599 57.3864 121.245 59.1833 122.302C60.9853 123.344 62.3968 124.797 63.2249 126.422C64.9281 129.692 64.1676 133.453 62.8291 136.036C62.1156 137.307 61.0531 138.26 59.9176 138.906C58.7926 139.552 57.6051 139.916 56.5114 140.13C58.0218 139.484 61.3239 137.01 61.5166 133.109C61.6051 131.26 60.8864 129.469 59.7041 128.052C58.527 126.635 56.8708 125.562 55.027 125.099C53.1885 124.62 51.2197 124.823 49.5583 125.515C51.2822 124.953 53.2041 124.916 54.8968 125.495C56.5947 126.057 58.0218 127.166 58.9697 128.521C59.5114 129.291 59.8864 130.151 60.0739 131.026C58.9801 128.88 56.7249 127.276 53.9645 126.989C49.7926 126.552 46.0739 129.271 45.652 133.067C45.5374 134.14 45.9281 136.088 45.9281 136.088C45.5635 137.406 45.5374 138.833 45.7718 140.156C46.0062 141.489 46.4853 142.765 47.1364 143.942C48.4489 146.291 50.4645 148.328 52.9697 149.531C50.626 148.094 48.9333 145.937 47.9645 143.62C47.4853 142.458 47.1885 141.245 47.1208 140.041C47.0843 139.359 47.126 138.703 47.2406 138.057C47.8291 138.75 48.5635 139.338 49.402 139.791C49.4958 139.953 50.0114 140.364 51.0478 140.734C52.2614 141.166 54.1833 141.567 56.6676 141.302C56.876 141.281 57.0947 141.245 57.3135 141.208C56.4281 141.849 55.7041 142.677 55.2458 143.625C54.6833 144.776 54.5374 146.099 54.8135 147.344C55.0895 148.599 55.7301 149.755 56.5374 150.786C58.1937 152.859 60.8187 154.219 63.5583 154.729C64.9385 154.995 66.3447 155.062 67.7354 155C68.1156 154.963 68.4958 154.817 68.8708 154.63C69.7249 153.89 70.5322 152.776 70.7874 152.354C68.6051 153.885 65.152 153.828 63.7614 153.64C61.2301 153.312 58.7614 152.224 57.0999 150.385C56.2614 149.484 55.6364 148.396 55.3656 147.25C55.0895 146.099 55.1989 144.885 55.6989 143.807C56.1885 142.729 57.0426 141.786 58.1156 141.135C58.1989 141.083 58.2822 141.041 58.3708 140.995C59.0218 140.833 59.6989 140.604 60.3708 140.297C60.8343 140.224 61.3083 140.203 61.777 140.26C62.4176 140.333 63.0374 140.547 63.5739 140.885C64.1051 141.219 64.6416 141.62 64.9541 142.156C65.3291 142.812 65.4854 143.328 65.501 144.224C65.4801 144.198 65.4541 144.177 65.4281 144.156C65.0583 142.552 64.0218 141.776 62.0426 141.567C59.5426 141.302 57.3135 142.932 57.0635 145.208C56.8603 147.005 57.9645 148.646 59.6624 149.396C60.0895 149.765 60.5531 150.099 61.0426 150.385C61.9072 150.896 62.8499 151.265 63.8083 151.526C65.7354 152.041 67.7249 152.109 69.6468 151.969C67.7145 151.906 65.7718 151.625 64.0322 150.942C63.2614 150.651 62.5531 150.265 61.9072 149.817C63.3499 149.646 64.3604 148.995 65.0635 148.255C66.9593 149.364 69.2041 149.984 71.4697 150.182C71.7041 150.203 71.7041 150.203 71.7458 151.015C72.3291 150.213 72.7145 149.609 72.9749 149.302C72.4801 149.354 71.9854 149.396 71.4854 149.401C69.3395 149.432 67.126 149.073 65.1312 148.177C66.1833 147.026 66.5062 145.687 66.5218 145.573C67.0114 146.01 67.5635 146.401 68.2249 146.771C69.7822 147.656 71.8499 147.838 73.6676 148.036C73.7874 148.052 73.9124 148.057 74.0322 148.067C74.2614 147.797 75.5583 146.942 75.7822 146.672C75.0947 146.719 72.7666 147.031 69.4229 146.26C68.5635 146.062 67.5062 145.625 66.5687 145.031C66.6312 143.703 66.3135 141.63 64.3135 140.13C63.7718 139.724 62.1989 139.38 61.9645 139.38C63.1833 138.698 63.527 138.234 64.3812 136.885C64.6156 136.51 64.8343 136.109 65.0218 135.692C65.0426 135.646 65.0583 135.594 65.0791 135.552C65.3708 136.396 65.751 137.208 66.1989 137.979C67.3864 140.01 69.0635 141.781 71.0687 143.13C72.8343 144.317 74.8656 145.146 76.9749 145.547C77.1468 145.427 77.3135 145.307 77.4906 145.192C75.3291 144.713 73.3083 143.776 71.6208 142.484C69.8187 141.109 68.3708 139.359 67.4124 137.442Z" fill="white"/>
<path d="M132.808 133.385C133.293 138.135 125.199 138.922 124.709 134.166C124.23 129.416 132.324 128.635 132.808 133.385ZM121.194 145.604C121.465 148.245 116.97 148.682 116.699 146.041C116.428 143.401 120.928 142.963 121.194 145.604ZM145.834 131.995C144.84 129.218 143.381 126.614 141.428 124.432C139.48 122.25 137.027 120.531 134.36 119.484C131.699 118.432 128.85 118.036 126.152 118.255C123.459 118.468 120.892 119.271 118.751 120.578C116.61 121.87 114.907 123.698 113.938 125.739C112.996 127.677 112.746 129.745 112.938 131.609H112.886C113.162 133.625 112.662 135.718 111.694 137.63C110.72 139.541 109.261 141.276 107.444 142.635C105.746 143.911 103.72 144.833 101.548 145.291C101.725 145.411 101.897 145.531 102.063 145.651C104.178 145.265 106.215 144.458 107.991 143.286C110.006 141.953 111.699 140.198 112.902 138.177C113.36 137.411 113.746 136.599 114.043 135.755C114.063 135.802 114.079 135.854 114.1 135.901C114.282 136.317 114.496 136.718 114.73 137.093C115.574 138.453 115.912 138.922 117.126 139.609C116.892 139.609 115.313 139.942 114.767 140.343C112.756 141.823 112.423 143.896 112.475 145.224C111.532 145.807 110.47 146.234 109.605 146.427C106.261 147.172 103.933 146.843 103.246 146.786C103.475 147.062 104.761 147.922 104.985 148.198C105.105 148.187 105.23 148.182 105.35 148.172C107.168 147.989 109.235 147.817 110.803 146.953C111.465 146.588 112.022 146.198 112.522 145.765C112.532 145.88 112.845 147.224 113.881 148.38C111.881 149.26 109.662 149.604 107.517 149.552C107.022 149.536 106.527 149.5 106.032 149.442C106.293 149.75 106.668 150.354 107.246 151.161C107.298 150.354 107.298 150.354 107.532 150.333C109.798 150.156 112.043 149.552 113.949 148.458C114.647 149.203 115.652 149.864 117.095 150.047C116.444 150.489 115.73 150.87 114.965 151.161C113.209 151.823 111.267 152.088 109.334 152.13C111.261 152.291 113.246 152.239 115.178 151.745C116.142 151.489 117.084 151.13 117.954 150.625C118.444 150.343 118.912 150.01 119.345 149.646C121.048 148.911 122.162 147.276 121.98 145.479C121.751 143.203 119.532 141.552 117.032 141.797C115.048 141.989 114.006 142.76 113.621 144.359C113.6 144.38 113.574 144.406 113.548 144.427C113.574 143.531 113.73 143.015 114.11 142.364C114.428 141.828 114.97 141.432 115.506 141.104C116.043 140.771 116.662 140.567 117.303 140.495C117.772 140.442 118.246 140.463 118.709 140.536C119.381 140.854 120.053 141.088 120.704 141.255C120.793 141.302 120.876 141.349 120.959 141.401C122.022 142.062 122.871 143.01 123.355 144.088C123.845 145.172 123.944 146.385 123.657 147.536C123.376 148.682 122.741 149.76 121.897 150.656C120.215 152.484 117.746 153.552 115.209 153.854C113.819 154.031 110.36 154.067 108.194 152.51C108.449 152.937 109.241 154.057 110.095 154.802C110.465 154.995 110.845 155.146 111.22 155.187C112.616 155.26 114.017 155.203 115.402 154.948C118.147 154.458 120.782 153.125 122.454 151.062C123.272 150.036 123.923 148.885 124.209 147.635C124.496 146.39 124.36 145.067 123.808 143.911C123.36 142.958 122.642 142.125 121.761 141.479C121.98 141.515 122.199 141.552 122.407 141.578C124.886 141.859 126.813 141.479 128.032 141.062C129.074 140.698 129.584 140.291 129.688 140.13C130.527 139.682 131.261 139.099 131.86 138.411C131.97 139.057 132.006 139.718 131.965 140.396C131.886 141.599 131.579 142.812 131.09 143.968C130.1 146.276 128.392 148.422 126.032 149.838C128.548 148.656 130.584 146.64 131.912 144.302C132.574 143.125 133.063 141.854 133.308 140.521C133.558 139.203 133.543 137.771 133.188 136.453C133.188 136.453 133.595 134.51 133.491 133.437C133.1 129.635 129.402 126.885 125.23 127.286C122.47 127.552 120.199 129.135 119.084 131.276C119.282 130.401 119.662 129.541 120.215 128.776C121.168 127.432 122.61 126.333 124.308 125.786C126.006 125.218 127.928 125.276 129.652 125.854C127.991 125.146 126.027 124.927 124.183 125.39C122.334 125.838 120.662 126.896 119.48 128.307C118.287 129.708 117.548 131.495 117.626 133.343C117.782 137.25 121.069 139.75 122.574 140.406C121.48 140.187 120.298 139.812 119.173 139.156C118.043 138.5 116.991 137.536 116.287 136.26C114.97 133.661 114.241 129.901 115.975 126.646C116.813 125.026 118.235 123.583 120.048 122.552C121.855 121.515 124.037 120.885 126.329 120.755C128.621 120.625 131.022 121.005 133.251 121.932C135.48 122.854 137.522 124.333 139.168 126.229C140.819 128.125 142.079 130.422 142.944 132.927C143.824 135.427 144.261 138.083 144.048 140.755C143.84 143.427 142.959 146.083 141.449 148.458C139.949 150.833 135.491 156.968 127.673 157.771C131.73 156.073 135.194 153.255 137.537 149.864C140.267 145.942 141.626 141.271 141.267 136.724C141.084 134.453 140.47 132.213 139.392 130.187C138.324 128.156 136.798 126.338 134.944 124.885C136.72 126.416 138.136 128.281 139.084 130.317C140.037 132.354 140.527 134.557 140.59 136.76C140.715 141.182 139.168 145.599 136.412 149.187C133.662 152.791 130.933 155.182 126.61 157.031C121.225 159.343 119.506 157.687 116.673 157.468C117.433 157.406 118.194 157.317 118.944 157.187C124.313 156.323 129.34 153.666 132.699 149.786C136.084 145.937 137.808 140.932 137.293 136.125C137.037 133.718 136.246 131.385 134.97 129.307C133.709 127.218 131.985 125.401 130.001 123.89C131.912 125.479 133.527 127.354 134.673 129.453C135.824 131.547 136.485 133.849 136.616 136.177C136.892 140.843 134.996 145.526 131.662 149C128.34 152.515 123.595 154.755 118.652 155.364C116.188 155.677 113.709 155.593 111.267 155.234C118.23 163.088 130.819 161.463 135.866 158.802C138.886 157.208 142.438 153.64 144.188 150.859C145.938 148.083 146.944 144.073 147.168 140.953C147.397 137.833 146.845 134.76 145.834 131.995Z" fill="white"/>
<path d="M78.4854 82.0521C82.1 82.0729 82.074 87.6094 78.4646 87.5938C74.85 87.5781 74.876 82.0417 78.4854 82.0521ZM101.251 87.6615C97.6417 87.6458 97.6625 82.1094 101.272 82.125C104.886 82.1406 104.86 87.6771 101.251 87.6615ZM73.5323 92.0417C74.0896 92.9844 74.9594 93.9062 76.1313 94.526C76.4229 94.6823 76.7302 94.8177 77.0479 94.9375C77.3552 95.0521 77.6729 95.1562 78.001 95.25C78.6573 95.4375 79.3552 95.5729 80.0948 95.6354C81.5531 95.7656 83.199 95.5521 84.7042 94.8281C86.2198 94.1094 87.5479 92.8854 88.4646 91.3698C89.1521 90.2396 89.626 88.9479 89.8604 87.5885C90.0844 88.9427 90.5427 90.2292 91.2198 91.3594C92.1208 92.8802 93.4385 94.1146 94.9438 94.8438C96.449 95.5885 98.0896 95.8073 99.5531 95.6927C100.293 95.6354 100.991 95.5052 101.647 95.3229C101.975 95.2344 102.298 95.1302 102.605 95.0208C102.923 94.9062 103.23 94.7708 103.527 94.6198C104.704 94.0052 105.579 93.0885 106.147 92.1562C106.715 91.2188 107.001 90.2708 107.152 89.4219C107.449 87.7083 107.225 86.3594 106.949 85.5052C106.668 84.6406 106.314 84.276 106.256 84.3177C106.251 84.3177 106.256 84.3281 106.256 84.3281C105.35 82.4635 103.444 81.1667 101.209 81.1562C98.1 81.1406 95.5635 83.6302 95.5531 86.7083C95.5375 89.7917 98.0531 92.2969 101.163 92.3073C103.475 92.3177 105.454 90.9531 106.334 88.9948C106.319 89.0833 106.308 89.1563 106.288 89.2448C106.09 90.0052 105.761 90.8229 105.22 91.5938C104.689 92.3594 103.928 93.0625 102.949 93.5156C100.949 94.3542 98.0896 94.75 95.699 93.4583C94.501 92.8281 93.4698 91.8021 92.751 90.5156C92.0323 89.2292 91.626 87.6979 91.6052 86.1094C91.5792 84.5156 91.9438 82.8594 92.7146 81.3438C93.3917 80.0052 94.3969 78.8021 95.6313 77.7865C91.7094 78.7344 90.2927 81.9896 89.8708 84.3229C89.4594 81.9896 88.0583 78.7396 84.1677 77.7656C85.3917 78.7865 86.3865 80 87.0479 81.3438C87.8083 82.8646 88.1625 84.526 88.1156 86.1198C88.0896 87.7083 87.6729 89.2396 86.9385 90.5156C86.2094 91.7969 85.1677 92.8125 83.9698 93.4323C81.5635 94.7083 78.7094 94.2865 76.7146 93.4271C75.7406 92.9688 74.9854 92.2604 74.4542 91.4896C73.9281 90.7135 73.6052 89.8906 73.4125 89.1302C73.3917 89.0417 73.3865 88.9688 73.3656 88.8854C74.2302 90.849 76.199 92.2292 78.5063 92.2396C81.6208 92.25 84.1573 89.7656 84.1677 86.6875C84.1833 83.6094 81.6677 81.099 78.5531 81.0885C76.324 81.0781 74.4073 82.3594 73.4854 84.2135C73.4854 84.2135 73.4906 84.2031 73.4854 84.2031C73.4281 84.1615 73.074 84.526 72.7823 85.3854C72.501 86.2396 72.2615 87.5833 72.5427 89.3021C72.6885 90.151 72.9698 91.099 73.5323 92.0417Z" fill="white"/>
<path d="M89.9225 92.3643C89.9225 92.5465 89.8861 92.734 89.8288 92.9215C89.7819 92.7445 89.7507 92.5622 89.7507 92.3851C89.7454 94.3799 86.4954 96.6038 83.4694 97.1299C83.0892 97.1872 82.7142 97.2236 82.3496 97.2184C82.4017 97.2184 82.4538 97.2288 82.5111 97.234C82.4017 97.234 82.2871 97.2445 82.1777 97.2445C85.4798 97.2601 89.8079 99.7393 89.7819 104.422C89.7819 104.422 89.86 102.099 90.5007 101.104C91.0163 100.317 91.6934 99.5986 92.4954 99.0101C93.5944 98.2236 94.9017 97.6507 96.1569 97.4111C96.3184 97.3851 96.4694 97.359 96.6257 97.3434C96.6361 97.3434 96.6465 97.3434 96.6569 97.3382C96.8704 97.3174 97.0788 97.307 97.2819 97.307C97.2298 97.307 97.1777 97.3018 97.1309 97.3018C97.235 97.2965 97.3496 97.2861 97.4538 97.2861C94.1517 97.2705 89.9121 94.6455 89.9225 92.3643Z" fill="white"/>
<path d="M89.5996 122.901C89.5996 122.901 86.7142 117.422 86.7194 115.916C86.7194 114.427 89.7507 111.317 89.7507 111.317C89.7507 111.317 92.5527 113.76 92.6413 115.843C92.7142 117.567 89.5996 122.901 89.5996 122.901ZM81.2871 103.698C83.4538 103.703 83.4434 107.026 81.2767 107.021C79.11 107.01 79.1257 103.687 81.2871 103.698ZM98.2715 107.062C96.1048 107.057 96.1204 103.734 98.2871 103.744C100.454 103.75 100.438 107.073 98.2715 107.062ZM109.553 137.031C110.626 135.411 111.068 133.401 111.053 132.073C111.037 130.744 110.657 128.224 109.011 126.76C110.652 129.494 110.324 131.369 110.266 132.666C110.214 133.968 109.678 135.369 108.969 136.484C107.548 138.744 104.87 140.26 102.193 140.885C99.2611 141.567 91.5579 141.713 89.9121 139.114C89.9121 138.953 89.9121 138.786 89.9173 138.63C90.1465 138.791 90.4902 138.828 90.9538 139.005C93.4694 139.458 95.7246 139.026 98.5059 137.755C100.141 137.005 102.646 135.005 103.766 133.703C102.537 134.922 101.021 135.869 99.3652 136.437C94.7611 138.021 90.6048 137.609 89.9538 135.369C89.9642 134.89 89.9694 134.63 89.9694 134.698C89.9121 133.562 90.3913 130.755 91.1829 127.541C91.1829 127.531 91.1882 127.526 91.1882 127.521C91.3652 126.802 91.5579 126.067 91.7611 125.328C91.9954 124.692 92.2975 124.088 92.6777 123.515C93.4642 122.307 94.5632 121.265 95.8027 120.343C98.2975 118.494 101.261 117.036 103.876 115.021C106.521 113.036 108.714 110.406 109.985 107.401C111.287 104.406 111.808 101.182 111.943 97.9997C111.6 101.156 110.87 104.302 109.438 107.109C109.417 106.5 109.313 105.937 109.1 105.172C109.646 104.369 109.761 102.989 109.985 102.135C110.24 101.01 110.355 99.8695 110.381 98.734C110.407 97.5934 110.329 96.458 110.11 95.3434C109.886 94.2497 109.532 93.0986 108.719 92.2965C109.459 93.1611 109.699 94.2965 109.834 95.3851C109.954 96.484 109.938 97.6038 109.824 98.6976C109.704 99.7965 109.501 100.885 109.173 101.922C108.995 102.442 108.798 102.979 108.542 103.448C108.318 102.906 108.048 102.38 107.719 101.88C106.985 100.76 106.021 99.7913 104.886 99.0934C103.756 98.3851 102.464 97.958 101.167 97.8382C99.8704 97.7132 98.584 97.8955 97.4225 98.2497C96.2507 98.5986 95.1465 99.1299 94.209 99.859C93.2767 100.583 92.5267 101.505 92.0527 102.515C91.5736 103.531 91.3704 104.614 91.4277 105.651C91.4746 106.692 91.7715 107.687 92.2871 108.521C92.7975 109.359 93.5319 110.036 94.3704 110.432C95.2038 110.833 96.11 110.942 96.9173 110.875C97.3236 110.838 97.709 110.76 98.0736 110.656C98.2559 110.604 98.4329 110.547 98.5996 110.484C98.7715 110.416 98.9486 110.343 99.1048 110.255C99.7559 109.906 100.235 109.396 100.537 108.875C100.798 108.437 100.933 107.994 101.021 107.583C101.214 107.187 101.334 106.75 101.334 106.276C101.339 104.573 99.9486 103.182 98.2194 103.177C96.4954 103.166 95.0944 104.547 95.084 106.25C95.0788 107.958 96.4694 109.349 98.1934 109.354C98.7298 109.359 99.2246 109.213 99.6621 108.984C99.4173 109.239 99.1361 109.479 98.7767 109.646C97.6829 110.125 96.1048 110.359 94.7715 109.661C94.11 109.317 93.5319 108.755 93.1309 108.047C92.7194 107.343 92.4902 106.494 92.4694 105.614C92.4434 104.734 92.6361 103.817 93.0579 102.968C93.4694 102.125 94.1152 101.359 94.9225 100.744C95.7402 100.13 96.7142 99.6768 97.7663 99.3695C98.8184 99.0622 99.9329 98.9215 101.042 99.0309C102.152 99.1455 103.24 99.5153 104.209 100.119C105.178 100.724 106.016 101.562 106.657 102.541C107.678 104.093 108.001 108.448 105.282 112.401C105.23 112.442 105.183 112.489 105.136 112.531C105.173 112.307 105.219 112.083 105.251 111.859C105.48 110.13 105.433 108.364 105.058 106.677C104.865 105.833 104.589 105.01 104.199 104.239C103.808 103.479 103.313 102.739 102.61 102.25C103.256 102.812 103.646 103.578 103.943 104.349C104.235 105.13 104.407 105.948 104.501 106.765C104.61 107.744 104.886 108.672 104.152 111.656C103.964 112.401 103.709 113.13 103.423 113.833C103.329 113.896 103.24 113.963 103.146 114.026C102.251 114.63 101.313 115.172 100.355 115.692C101.136 114.484 101.761 113.187 102.157 111.823C102.391 110.989 102.542 110.135 102.579 109.276C102.6 108.427 102.521 107.541 102.136 106.781C102.433 107.578 102.407 108.437 102.298 109.255C102.178 110.078 101.938 110.88 101.626 111.64C101.251 112.552 101.048 113.5 98.959 115.781C98.4434 116.343 97.8809 116.859 97.2923 117.333C96.4329 117.802 95.5736 118.291 94.7246 118.833C94.334 119.088 93.9538 119.359 93.5788 119.64C94.8757 116.177 96.334 113.505 97.6152 113.51C94.3079 113.5 90.0684 110.875 90.084 108.588C90.0788 108.958 90.084 108.588 89.7767 106.114C89.459 108.609 89.4538 108.968 89.459 108.609C89.4486 110.896 85.1882 113.484 81.8809 113.468C83.1621 113.474 84.5944 116.156 85.8652 119.635C85.4902 119.349 85.11 119.073 84.7298 118.817C83.8861 118.265 83.0267 117.771 82.1725 117.297C81.5892 116.812 81.0319 116.291 80.5163 115.729C78.4486 113.427 78.2559 112.479 77.8861 111.567C77.5788 110.802 77.3496 110 77.235 109.172C77.1361 108.354 77.1152 107.494 77.4173 106.698C77.0267 107.458 76.9434 108.343 76.959 109.192C76.9798 110.052 77.1257 110.911 77.3548 111.744C77.735 113.109 78.3496 114.416 79.1204 115.63C78.1673 115.099 77.235 114.552 76.3496 113.937C76.2559 113.875 76.1673 113.807 76.0736 113.744C75.7871 113.031 75.5475 112.307 75.3652 111.562C74.6465 108.567 74.9329 107.646 75.0527 106.666C75.1517 105.849 75.3288 105.036 75.6309 104.255C75.9329 103.489 76.3288 102.718 76.985 102.166C76.2715 102.646 75.7715 103.385 75.3757 104.14C74.9798 104.911 74.6986 105.734 74.5007 106.573C74.1048 108.26 74.0423 110.021 74.2611 111.755C74.2871 111.979 74.334 112.203 74.3704 112.427C74.3236 112.385 74.2767 112.338 74.2298 112.291C71.5371 108.317 71.8965 103.968 72.9329 102.422C73.5788 101.448 74.4225 100.619 75.3965 100.026C76.3704 99.4215 77.4642 99.0674 78.5788 98.9632C79.6829 98.859 80.7975 99.0101 81.8496 99.3278C82.8965 99.6403 83.8704 100.109 84.6777 100.729C85.485 101.343 86.1204 102.119 86.5267 102.968C86.9382 103.817 87.1257 104.739 87.0944 105.614C87.0632 106.494 86.8236 107.343 86.4121 108.041C86.0059 108.75 85.4173 109.307 84.7507 109.64C83.4173 110.328 81.8392 110.083 80.7454 109.593C80.3913 109.422 80.1152 109.187 79.8704 108.927C80.3079 109.156 80.8027 109.307 81.334 109.307C83.0632 109.317 84.4642 107.937 84.4746 106.234C84.4798 104.526 83.084 103.135 81.36 103.13C79.6361 103.119 78.2298 104.494 78.2246 106.208C78.2194 106.677 78.334 107.114 78.5215 107.515C78.6048 107.927 78.7402 108.369 78.9954 108.812C79.2975 109.328 79.7715 109.849 80.4173 110.198C80.5788 110.291 80.7454 110.364 80.9225 110.432C81.0892 110.494 81.2663 110.557 81.4434 110.614C81.8079 110.718 82.1934 110.797 82.5996 110.838C83.4069 110.916 84.3184 110.812 85.1517 110.416C85.9902 110.031 86.735 109.359 87.2507 108.526C87.7715 107.692 88.0788 106.703 88.1361 105.666C88.1986 104.625 88.0007 103.536 87.5371 102.521C87.0736 101.505 86.3288 100.578 85.4017 99.8434C84.4746 99.109 83.3704 98.5726 82.2038 98.208C81.0423 97.8486 79.7559 97.6559 78.459 97.7705C77.1621 97.8799 75.8704 98.2965 74.7298 98.9893C73.5944 99.682 72.6152 100.64 71.8757 101.755C71.5423 102.255 71.2715 102.776 71.0371 103.317C70.7871 102.843 70.5892 102.307 70.4225 101.781C70.0996 100.744 69.9069 99.6507 69.7975 98.5518C69.6934 97.458 69.6829 96.3434 69.8132 95.2393C69.959 94.1559 70.2038 93.0205 70.9538 92.1611C70.1361 92.958 69.7715 94.1038 69.5371 95.1976C69.3132 96.307 69.2246 97.4476 69.2402 98.583C69.2559 99.7184 69.3652 100.859 69.6048 101.989C69.8236 102.849 69.9225 104.229 70.4642 105.031C70.2454 105.797 70.1361 106.364 70.11 106.968C68.6986 104.151 68.0007 100.994 67.6777 97.833C67.7923 101.026 68.2871 104.25 69.5632 107.255C70.8027 110.271 72.9798 112.922 75.6048 114.927C78.1986 116.968 81.1569 118.453 83.6361 120.317C84.8652 121.25 85.9538 122.297 86.735 123.515C87.1048 124.088 87.4017 124.698 87.6361 125.333C87.834 126.078 88.0215 126.812 88.1882 127.531C88.1934 127.536 88.1934 127.547 88.1934 127.552C88.8548 130.333 89.1621 132.859 89.3236 134.937C89.0788 137.547 84.6986 138.073 79.8236 136.354C78.1725 135.771 76.6621 134.812 75.4434 133.583C76.5527 134.896 79.0371 136.916 80.6725 137.677C83.4434 138.974 85.6986 139.427 88.2142 138.994C88.8288 138.781 89.2298 138.781 89.4434 138.494C89.4434 138.646 89.4434 138.807 89.4486 138.963C87.985 141.703 80.0527 141.5 77.0736 140.776C74.3965 140.135 71.735 138.588 70.334 136.323C69.6309 135.203 69.11 133.797 69.0684 132.494C69.0163 131.192 68.709 129.317 70.3757 126.599C68.7142 128.047 68.3079 130.562 68.2871 131.896C68.2611 133.218 68.6829 135.234 69.7454 136.864C71.2715 139.213 73.4225 141.198 76.1517 142.13C77.4329 142.567 81.4225 143.734 87.3496 142.13C88.7194 141.599 89.3913 142.567 89.5632 144.031C89.7559 145.64 89.7559 145.01 89.7559 145.64C89.7559 145.01 89.7559 145.64 89.86 143.067C90.1725 142.187 90.8704 141.739 91.9069 142.151C97.8184 143.802 101.818 142.666 103.105 142.244C105.839 141.333 108.006 139.364 109.553 137.031Z" fill="white"/>
<path d="M89.5215 166.817L85.9902 174.515L89.5215 182.208L93.0579 174.515L89.5215 166.817Z" fill="black"/>
<defs>
<linearGradient id="paint0_linear_148_4390" x1="27.5178" y1="277.997" x2="150.91" y2="-11.3285" gradientUnits="userSpaceOnUse">
<stop stop-color="#E7E1D0"/>
<stop offset="0.015625" stop-color="#E7E1D0"/>
<stop offset="0.0195313" stop-color="#E7E2D1"/>
<stop offset="0.0234375" stop-color="#E8E2D2"/>
<stop offset="0.0273438" stop-color="#E8E2D2"/>
<stop offset="0.03125" stop-color="#E9E3D3"/>
<stop offset="0.0351563" stop-color="#E9E3D3"/>
<stop offset="0.0390625" stop-color="#E9E4D4"/>
<stop offset="0.0429688" stop-color="#EAE4D5"/>
<stop offset="0.046875" stop-color="#EAE5D5"/>
<stop offset="0.0507813" stop-color="#EAE5D6"/>
<stop offset="0.0546875" stop-color="#EBE5D6"/>
<stop offset="0.0585938" stop-color="#EBE6D7"/>
<stop offset="0.0625" stop-color="#EBE6D8"/>
<stop offset="0.0664063" stop-color="#ECE7D8"/>
<stop offset="0.0703125" stop-color="#ECE7D9"/>
<stop offset="0.0742188" stop-color="#ECE7D9"/>
<stop offset="0.078125" stop-color="#ECE8DA"/>
<stop offset="0.0820313" stop-color="#EDE8DA"/>
<stop offset="0.0859375" stop-color="#EDE9DB"/>
<stop offset="0.0898438" stop-color="#EDE9DB"/>
<stop offset="0.09375" stop-color="#EEE9DC"/>
<stop offset="0.0976563" stop-color="#EEEADD"/>
<stop offset="0.101563" stop-color="#EEEADD"/>
<stop offset="0.105469" stop-color="#EFEADE"/>
<stop offset="0.109375" stop-color="#EFEBDE"/>
<stop offset="0.113281" stop-color="#EFEBDF"/>
<stop offset="0.117188" stop-color="#EFECDF"/>
<stop offset="0.121094" stop-color="#F0ECE0"/>
<stop offset="0.125" stop-color="#F0ECE0"/>
<stop offset="0.128906" stop-color="#F0EDE1"/>
<stop offset="0.132813" stop-color="#F1EDE1"/>
<stop offset="0.140625" stop-color="#F1EDE2"/>
<stop offset="0.148438" stop-color="#F1EEE3"/>
<stop offset="0.15625" stop-color="#F2EFE4"/>
<stop offset="0.164063" stop-color="#F3EFE5"/>
<stop offset="0.171875" stop-color="#F3F0E6"/>
<stop offset="0.179688" stop-color="#F4F1E7"/>
<stop offset="0.1875" stop-color="#F4F1E7"/>
<stop offset="0.195313" stop-color="#F5F2E8"/>
<stop offset="0.203125" stop-color="#F5F3E9"/>
<stop offset="0.210938" stop-color="#F6F3EA"/>
<stop offset="0.21875" stop-color="#F6F4EB"/>
<stop offset="0.226563" stop-color="#F6F4EC"/>
<stop offset="0.234375" stop-color="#F7F5EC"/>
<stop offset="0.242188" stop-color="#F7F5ED"/>
<stop offset="0.25" stop-color="#F8F6EE"/>
<stop offset="0.257813" stop-color="#F8F6EF"/>
<stop offset="0.265625" stop-color="#F9F7EF"/>
<stop offset="0.273438" stop-color="#F9F7F0"/>
<stop offset="0.28125" stop-color="#F9F8F1"/>
<stop offset="0.289062" stop-color="#FAF8F1"/>
<stop offset="0.296875" stop-color="#FAF9F2"/>
<stop offset="0.304688" stop-color="#FAF9F3"/>
<stop offset="0.3125" stop-color="#FBFAF3"/>
<stop offset="0.320313" stop-color="#FBFAF4"/>
<stop offset="0.328125" stop-color="#FBFAF4"/>
<stop offset="0.335938" stop-color="#FCFBF5"/>
<stop offset="0.34375" stop-color="#FCFBF5"/>
<stop offset="0.359375" stop-color="#FCFCF6"/>
<stop offset="0.375" stop-color="#FDFCF7"/>
<stop offset="0.390625" stop-color="#FDFDF8"/>
<stop offset="0.40625" stop-color="#FEFDF9"/>
<stop offset="0.421875" stop-color="#FEFEF9"/>
<stop offset="0.4375" stop-color="#FEFEFA"/>
<stop offset="0.5" stop-color="#FFFFFB"/>
<stop offset="0.5625" stop-color="#FFFFFB"/>
<stop offset="0.59375" stop-color="#FFFFFA"/>
<stop offset="0.625" stop-color="#FEFEFA"/>
<stop offset="0.640625" stop-color="#FEFEF9"/>
<stop offset="0.65625" stop-color="#FEFDF9"/>
<stop offset="0.671875" stop-color="#FDFDF8"/>
<stop offset="0.6875" stop-color="#FDFCF7"/>
<stop offset="0.703125" stop-color="#FCFCF6"/>
<stop offset="0.71875" stop-color="#FCFBF6"/>
<stop offset="0.726563" stop-color="#FCFBF5"/>
<stop offset="0.734375" stop-color="#FBFAF4"/>
<stop offset="0.742187" stop-color="#FBFAF4"/>
<stop offset="0.75" stop-color="#FBF9F3"/>
<stop offset="0.757813" stop-color="#FAF9F2"/>
<stop offset="0.765625" stop-color="#FAF9F2"/>
<stop offset="0.773438" stop-color="#F9F8F1"/>
<stop offset="0.78125" stop-color="#F9F8F0"/>
<stop offset="0.789063" stop-color="#F9F7F0"/>
<stop offset="0.796875" stop-color="#F8F6EF"/>
<stop offset="0.804688" stop-color="#F8F6EE"/>
<stop offset="0.8125" stop-color="#F7F5ED"/>
<stop offset="0.820313" stop-color="#F7F5EC"/>
<stop offset="0.828125" stop-color="#F6F4EB"/>
<stop offset="0.835937" stop-color="#F6F3EA"/>
<stop offset="0.839844" stop-color="#F5F3E9"/>
<stop offset="0.84375" stop-color="#F5F2E9"/>
<stop offset="0.847656" stop-color="#F5F2E8"/>
<stop offset="0.851563" stop-color="#F4F2E8"/>
<stop offset="0.855469" stop-color="#F4F1E7"/>
<stop offset="0.859375" stop-color="#F4F1E7"/>
<stop offset="0.863281" stop-color="#F3F0E6"/>
<stop offset="0.867188" stop-color="#F3F0E6"/>
<stop offset="0.871094" stop-color="#F3F0E5"/>
<stop offset="0.875" stop-color="#F2EFE4"/>
<stop offset="0.878906" stop-color="#F2EFE4"/>
<stop offset="0.882813" stop-color="#F2EEE3"/>
<stop offset="0.886719" stop-color="#F1EEE3"/>
<stop offset="0.890625" stop-color="#F1EEE2"/>
<stop offset="0.894531" stop-color="#F1EDE1"/>
<stop offset="0.898438" stop-color="#F0EDE1"/>
<stop offset="0.902344" stop-color="#F0ECE0"/>
<stop offset="0.90625" stop-color="#F0ECE0"/>
<stop offset="0.910156" stop-color="#EFEBDF"/>
<stop offset="0.914063" stop-color="#EFEBDE"/>
<stop offset="0.917969" stop-color="#EFEADD"/>
<stop offset="0.921875" stop-color="#EEEADD"/>
<stop offset="0.925781" stop-color="#EEE9DC"/>
<stop offset="0.929687" stop-color="#EDE9DB"/>
<stop offset="0.933594" stop-color="#EDE8DB"/>
<stop offset="0.9375" stop-color="#EDE8DA"/>
<stop offset="0.941406" stop-color="#ECE7D9"/>
<stop offset="0.945313" stop-color="#ECE7D8"/>
<stop offset="0.949219" stop-color="#EBE6D8"/>
<stop offset="0.953125" stop-color="#EBE6D7"/>
<stop offset="0.957031" stop-color="#EAE5D6"/>
<stop offset="0.960938" stop-color="#EAE5D5"/>
<stop offset="0.964844" stop-color="#EAE4D5"/>
<stop offset="0.96875" stop-color="#E9E4D4"/>
<stop offset="0.972656" stop-color="#E9E3D3"/>
<stop offset="0.976563" stop-color="#E8E2D2"/>
<stop offset="0.980469" stop-color="#E8E2D1"/>
<stop offset="0.984375" stop-color="#E7E1D0"/>
<stop offset="1" stop-color="#E7E1D0"/>
</linearGradient>
</defs>
</svg>
