<svg width="179" height="268" viewBox="0 0 179 268" fill="none" xmlns="http://www.w3.org/2000/svg">
<path d="M176.01 254.698C175.995 262.058 170.021 268.016 162.661 268L13.3021 267.745C5.94272 267.729 -0.0104024 261.755 1.36476e-05 254.396L0.41668 14.6356C0.432306 7.27103 6.40626 1.3179 13.7656 1.33353L163.13 1.59394C170.484 1.60436 176.443 7.58353 176.427 14.9377L176.01 254.698Z" fill="#C4B78F"/>
<mask id="mask0_148_4426" style="mask-type:luminance" maskUnits="userSpaceOnUse" x="1" y="0" width="178" height="267">
<path d="M1 0H178.333V266.667H1V0Z" fill="white"/>
</mask>
<g mask="url(#mask0_148_4426)">
<mask id="mask1_148_4426" style="mask-type:luminance" maskUnits="userSpaceOnUse" x="1" y="0" width="177" height="267">
<path d="M177.01 253.365C176.995 260.724 171.021 266.682 163.661 266.667L14.3021 266.412C6.94272 266.396 0.989598 260.422 1.00001 253.063L1.41668 13.3021C1.43231 5.93753 7.40626 -0.0155946 14.7656 3.06889e-05L164.13 0.260447C171.484 0.270863 177.443 6.25003 177.427 13.6042L177.01 253.365Z" fill="white"/>
</mask>
<g mask="url(#mask1_148_4426)">
<mask id="mask2_148_4426" style="mask-type:luminance" maskUnits="userSpaceOnUse" x="1" y="0" width="177" height="267">
<path d="M177.01 253.365C176.995 260.724 171.021 266.682 163.661 266.667L14.3021 266.412C6.94272 266.396 0.989598 260.422 1.00001 253.063L1.41668 13.3021C1.43231 5.93753 7.40626 -0.0155946 14.7656 3.06889e-05L164.13 0.260447C171.484 0.270863 177.443 6.25003 177.427 13.6042L177.01 253.365Z" fill="white"/>
</mask>
<g mask="url(#mask2_148_4426)">
<path d="M-95.25 225.641L150.286 330.354L273.677 41.0312L28.1406 -63.6875L-95.25 225.641Z" fill="url(#paint0_linear_148_4426)"/>
</g>
</g>
</g>
<path fill-rule="evenodd" clip-rule="evenodd" d="M23.0052 46.5C21.5521 46.5156 15.0885 53.1458 15.1042 54.6042C15.0885 53.1458 8.45312 46.6823 7 46.6979C8.45312 46.6823 14.9219 40.0521 14.901 38.5938C14.9219 40.0521 21.5521 46.5156 23.0052 46.5Z" fill="#B50F00"/>
<path fill-rule="evenodd" clip-rule="evenodd" d="M169.672 218.573C168.219 218.578 161.693 225.146 161.698 226.604C161.693 225.146 155.12 218.62 153.667 218.625C155.12 218.62 161.651 212.052 161.646 210.594C161.651 212.052 168.219 218.578 169.672 218.573Z" fill="#B50F00"/>
<path d="M15.583 25.0208C15.6768 25.0208 15.7393 24.9427 15.708 24.8438L14.6195 18.724H14.557L13.5361 24.8698C13.5049 24.9688 13.5674 25.0208 13.6299 25.0208H15.583ZM16.0153 26.5677C15.9841 26.4427 15.8903 26.3438 15.7393 26.3438H13.4424C13.3486 26.3438 13.2861 26.4167 13.2601 26.5156L12.7913 29.2656C12.7601 29.4375 12.8226 29.5885 12.9476 29.7135L13.6299 30.2917C13.7549 30.4167 13.9372 30.5156 13.9372 30.5885C13.9372 30.6615 13.8747 30.7396 13.7236 30.7396H10.1559C10.0309 30.7396 9.97363 30.6615 9.97363 30.5885C9.97363 30.5156 10.0934 30.4167 10.1872 30.3385L11.057 29.6406C11.2445 29.4896 11.2705 29.2396 11.307 29.0156L14.1247 12.2292C14.1559 12.099 14.2184 12 14.3747 12H15.5205C15.6768 12 15.7653 12.125 15.8018 12.276L18.7445 29.0417C18.7757 29.2917 18.8695 29.5677 19.0882 29.7135L19.984 30.3646C20.0778 30.4375 20.1715 30.5156 20.1715 30.5885C20.1715 30.6615 20.1091 30.7396 19.9528 30.7396H15.4893C15.333 30.7396 15.2705 30.6615 15.2705 30.5885C15.2705 30.5156 15.3955 30.4375 15.4893 30.3646L16.3278 29.6927C16.4476 29.5885 16.5101 29.4167 16.484 29.1927L16.0153 26.5677Z" fill="#B50F00"/>
<path d="M161.229 244.39C161.135 244.39 161.073 244.469 161.104 244.568L162.188 250.687H162.25L163.271 244.542C163.307 244.437 163.245 244.39 163.182 244.39H161.229ZM160.792 242.844C160.823 242.969 160.917 243.068 161.073 243.068H163.37C163.458 243.068 163.521 242.989 163.552 242.89L164.021 240.14C164.047 239.969 163.984 239.818 163.865 239.693L163.182 239.12C163.057 238.995 162.87 238.896 162.87 238.818C162.87 238.745 162.932 238.667 163.089 238.667H166.651C166.776 238.667 166.839 238.745 166.839 238.818C166.839 238.896 166.714 238.995 166.62 239.068L165.755 239.765C165.568 239.922 165.536 240.167 165.505 240.396L162.688 257.182C162.651 257.307 162.594 257.406 162.438 257.406H161.286C161.135 257.406 161.042 257.281 161.01 257.135L158.062 240.37C158.036 240.12 157.938 239.844 157.724 239.693L156.823 239.042C156.729 238.969 156.641 238.896 156.641 238.818C156.641 238.745 156.703 238.667 156.854 238.667H161.318C161.474 238.667 161.536 238.745 161.536 238.818C161.536 238.896 161.411 238.969 161.318 239.042L160.484 239.719C160.359 239.818 160.297 239.995 160.328 240.219L160.792 242.844Z" fill="#B50F00"/>
<path fill-rule="evenodd" clip-rule="evenodd" d="M147.354 135.943C136.448 135.943 87.3594 185.036 87.3594 195.948C87.3594 185.036 38.2656 135.943 27.3594 135.943C38.2656 135.943 87.3594 86.8592 87.3594 75.9478C87.3594 86.8592 136.448 135.943 147.354 135.943Z" fill="#B50F00"/>
<path d="M87.3174 125.495C87.3226 123.745 90.5361 113.182 93.0413 113.182C90.5361 113.182 87.4632 110.995 87.3174 108.422C87.4632 110.995 84.0986 113.182 81.5986 113.182C84.0986 113.182 87.3226 123.745 87.3174 125.495Z" fill="white"/>
<path d="M81.4326 100.719C83.9326 100.719 87.1514 102.719 87.1514 104.474C87.1514 102.719 90.3649 100.719 92.8701 100.719C90.3649 100.719 87.292 86.9948 87.1514 84.4219C87.292 86.9948 83.9326 100.719 81.4326 100.719Z" fill="white"/>
<path d="M110.698 112.5C110.578 112.635 110.443 112.755 110.318 112.885C110.438 112.755 110.563 112.62 110.698 112.5ZM115.016 129.396C115.016 127.729 117.568 127.729 117.568 129.396C117.568 131.062 115.016 131.062 115.016 129.396ZM93.8438 108.224C92.1771 108.224 92.1771 105.677 93.8438 105.677C95.5156 105.677 95.5156 108.224 93.8438 108.224ZM93.474 93.6615C93.7396 94.5 93.9635 95.3542 94.0885 96.224C94.151 96.6615 94.1875 97.099 94.1667 97.5365C94.1406 97.9688 94.0833 98.4323 93.7917 98.7812C94.1094 98.4531 94.2083 97.9844 94.2708 97.5469C94.3333 97.1042 94.3281 96.651 94.3073 96.2083C94.2604 95.4896 94.1406 94.7865 93.9948 94.0833C94.2135 94.3958 94.4323 94.7083 94.6615 95.0312H94.6562C94.6719 95.0521 94.6927 95.0729 94.7083 95.0938C94.9115 95.3698 95.125 95.6615 95.3385 95.9427C95.5781 96.4375 95.7917 96.9375 95.9427 97.474C96.1927 98.3177 96.3073 99.2135 96.2552 100.109C96.224 100.557 96.151 101 96.0208 101.432C95.8802 101.859 95.7135 102.302 95.3646 102.609C95.75 102.344 95.974 101.906 96.1719 101.49C96.3594 101.063 96.4844 100.609 96.5781 100.151C96.724 99.3229 96.724 98.4688 96.6146 97.6302C96.7448 97.8021 96.8854 97.974 97.0312 98.1458C97.6198 99.1719 98.0833 100.281 98.3698 101.438C98.6667 102.656 98.7708 103.932 98.625 105.198C98.5573 105.828 98.4167 106.453 98.1875 107.052C97.9583 107.641 97.6562 108.234 97.151 108.661C97.7031 108.286 98.0833 107.719 98.3854 107.135C98.6875 106.547 98.901 105.917 99.0521 105.266C99.3542 103.974 99.3906 102.62 99.2188 101.286C99.1823 101.016 99.1354 100.75 99.0833 100.479C101.458 103.75 101.177 107.833 100.286 109.177C99.7917 109.927 99.1458 110.568 98.3958 111.026C97.651 111.49 96.8073 111.771 95.9479 111.849C95.0938 111.932 94.2396 111.823 93.4323 111.583C92.6198 111.344 91.8698 110.99 91.2448 110.516C90.625 110.042 90.125 109.453 89.8125 108.802C89.4896 108.151 89.3438 107.443 89.3698 106.771C89.3854 106.094 89.5677 105.443 89.8854 104.901C90.1979 104.359 90.6458 103.927 91.1562 103.667C92.1823 103.135 93.401 103.323 94.2448 103.693C94.5156 103.823 94.7344 104.005 94.9219 104.203C94.5833 104.026 94.2031 103.911 93.7917 103.911C92.4635 103.911 91.3854 104.979 91.3854 106.286C91.3854 107.599 92.4635 108.661 93.7917 108.661C95.1198 108.661 96.2031 107.599 96.2031 106.286C96.2031 105.927 96.1094 105.589 95.9688 105.281C95.8958 104.964 95.7969 104.63 95.5938 104.286C95.3646 103.891 94.9948 103.495 94.4948 103.229C94.375 103.161 94.2396 103.099 94.1042 103.047C93.9792 103 93.8385 102.953 93.7031 102.911C93.4219 102.833 93.125 102.771 92.8177 102.745C92.1927 102.682 91.4896 102.766 90.849 103.073C90.2031 103.375 89.6302 103.896 89.2396 104.531C88.8385 105.172 88.6042 105.938 88.5625 106.734C88.5208 107.531 88.6719 108.365 89.0365 109.146C89.3958 109.927 89.974 110.635 90.6927 111.198C91.3958 111.745 92.2344 112.151 93.1198 112.427L93.099 112.557C94.8594 112.693 96.6146 113.12 97.9271 114.135C99.25 115.13 99.8333 116.802 99.3802 118.344C98.974 119.885 97.724 121.208 96.1979 122.036C94.6562 122.885 92.8281 123.276 91.0104 123.312C92.8281 123.349 94.6927 123.031 96.3125 122.224C97.9271 121.432 99.3125 120.115 99.8438 118.453C100.109 117.63 100.151 116.729 99.8958 115.885C99.651 115.036 99.1094 114.266 98.4062 113.661C97.9271 113.25 97.3802 112.922 96.8073 112.651C97.5417 112.5 98.2656 112.219 98.9167 111.818C99.1667 111.661 99.4063 111.484 99.6406 111.297C99.6406 111.318 99.6302 111.333 99.6302 111.354C99.5781 112.104 99.75 112.917 100.203 113.578C101.115 114.932 102.766 115.484 104.234 115.578C105.74 115.672 107.229 115.323 108.469 114.641C108.557 114.594 108.63 114.536 108.714 114.484C108.661 114.568 108.604 114.641 108.557 114.729C107.875 115.969 107.526 117.458 107.62 118.964C107.714 120.432 108.266 122.078 109.62 122.995C110.281 123.448 111.094 123.625 111.844 123.568C111.896 123.562 111.943 123.552 111.99 123.547C111.781 123.797 111.594 124.052 111.422 124.328C111.016 124.99 110.734 125.719 110.583 126.469C110.307 125.865 109.964 125.292 109.542 124.792C108.932 124.089 108.161 123.542 107.318 123.302C106.469 123.047 105.568 123.089 104.75 123.354C103.089 123.885 101.771 125.271 100.974 126.88C100.167 128.505 99.849 130.37 99.8854 132.188C99.9219 130.37 100.313 128.542 101.161 127C101.995 125.474 103.313 124.229 104.859 123.812C106.396 123.365 108.068 123.948 109.062 125.271C110.083 126.578 110.51 128.339 110.641 130.099L110.797 130.078C110.797 130.078 110.797 130.083 110.802 130.083C111.073 130.984 111.484 131.833 112.047 132.552C112.604 133.271 113.318 133.844 114.094 134.203C114.875 134.568 115.708 134.719 116.505 134.677C117.302 134.635 118.068 134.401 118.708 134C119.344 133.609 119.87 133.036 120.167 132.396C120.469 131.75 120.557 131.052 120.495 130.427C120.469 130.115 120.406 129.818 120.328 129.536C120.286 129.401 120.24 129.26 120.193 129.135C120.141 129 120.083 128.865 120.01 128.745C119.745 128.245 119.349 127.88 118.953 127.646C118.609 127.443 118.276 127.344 117.958 127.276C117.651 127.13 117.313 127.042 116.953 127.042C115.646 127.042 114.583 128.12 114.583 129.448C114.583 130.776 115.646 131.854 116.953 131.854C118.26 131.854 119.328 130.776 119.328 129.448C119.328 129.036 119.214 128.656 119.036 128.318C119.234 128.505 119.417 128.724 119.547 128.995C119.917 129.844 120.104 131.057 119.573 132.083C119.313 132.594 118.88 133.042 118.339 133.354C117.797 133.672 117.151 133.854 116.474 133.875C115.797 133.896 115.089 133.75 114.438 133.427C113.786 133.115 113.198 132.62 112.724 131.995C112.25 131.37 111.896 130.62 111.656 129.812C111.417 129 111.307 128.146 111.391 127.292C111.474 126.438 111.755 125.594 112.214 124.844C112.672 124.099 113.318 123.448 114.068 122.953C115.401 122.063 119.49 121.786 122.766 124.156C122.495 124.104 122.224 124.057 121.953 124.021C120.62 123.849 119.266 123.891 117.974 124.188C117.323 124.339 116.693 124.552 116.104 124.854C115.521 125.156 114.948 125.542 114.583 126.089C115.005 125.589 115.599 125.281 116.188 125.052C116.786 124.823 117.417 124.688 118.042 124.615C119.307 124.464 120.583 124.573 121.802 124.87C122.958 125.156 124.062 125.62 125.094 126.208C125.271 126.354 125.438 126.495 125.615 126.625C124.771 126.516 123.917 126.516 123.094 126.667C122.63 126.755 122.177 126.88 121.75 127.068C121.333 127.266 120.896 127.49 120.63 127.875C120.938 127.526 121.38 127.365 121.807 127.224C122.234 127.089 122.682 127.016 123.13 126.984C124.026 126.932 124.922 127.052 125.771 127.297C126.302 127.453 126.807 127.661 127.297 127.901C127.578 128.115 127.87 128.333 128.151 128.531C128.167 128.552 128.188 128.568 128.203 128.589L128.208 128.583C128.531 128.812 128.844 129.026 129.151 129.245C128.453 129.099 127.75 128.979 127.031 128.938C126.589 128.911 126.135 128.906 125.693 128.969C125.255 129.031 124.786 129.13 124.458 129.448C124.807 129.161 125.271 129.099 125.703 129.073C126.141 129.052 126.583 129.089 127.016 129.151C127.88 129.276 128.74 129.5 129.578 129.766C129.823 129.849 130.057 129.938 130.302 130.026C136.167 133.938 140.495 135.438 142.443 135.896C137.427 133.094 137.786 133.115 135.177 131.438C131.922 129.349 128.922 126.776 124.438 122.521C122.974 120.953 120.969 119.51 120.24 118.688C118.974 117.26 117.323 115.052 115.891 113.755C116.667 114.911 119.318 118.521 118.307 119.833C114.688 116.318 113.807 118.63 110.365 116.885C110.854 118.776 111.615 120.651 112.599 121.578C111.792 121.984 110.969 122.109 110.234 121.745C109.318 121.297 108.677 120.109 108.474 118.844C108.26 117.568 108.422 116.182 108.932 114.953C109.068 114.625 109.234 114.307 109.427 114.005C110.031 113.526 110.536 112.953 110.927 112.328C111.089 112.198 111.245 112.063 111.417 111.953C111.271 112.021 111.141 112.115 111 112.198C111.083 112.057 111.177 111.927 111.25 111.786C111.135 111.958 111 112.115 110.875 112.276C110.25 112.667 109.672 113.167 109.193 113.776C108.891 113.964 108.573 114.13 108.245 114.266C107.021 114.776 105.63 114.938 104.354 114.724C103.089 114.521 101.896 113.88 101.453 112.964C101.083 112.229 101.214 111.401 101.625 110.594C102.531 111.599 104.432 112.375 106.354 112.875C104.609 109.432 106.927 108.557 103.406 104.932C104.719 103.927 108.328 106.573 109.484 107.349C108.193 105.917 105.979 104.266 104.552 103C103.729 102.271 102.286 100.266 100.719 98.8021C96.4635 94.3177 93.8906 91.3177 91.8021 88.0625C90.125 85.4531 90.151 85.8125 87.3438 80.7969C87.8073 82.7448 89.3021 87.0729 93.2135 92.9375C93.3021 93.1823 93.3906 93.4167 93.474 93.6615Z" fill="white"/>
<path d="M73.6091 162.099L73.7653 162.167C73.7236 162.229 73.6924 162.292 73.6559 162.349C73.6455 162.265 73.6299 162.182 73.6091 162.099ZM63.9841 159.219C64.0934 159.088 64.2236 158.969 64.3486 158.849C64.2236 158.974 64.1091 159.104 63.9841 159.219ZM61.057 149.484L61.1143 149.625C61.0413 149.609 60.9684 149.594 60.8903 149.583C60.9424 149.552 60.9997 149.521 61.057 149.484ZM59.6976 142.292C59.6976 143.932 57.1455 143.932 57.1455 142.292C57.1455 140.651 59.6976 140.651 59.6976 142.292ZM80.9476 163.542C82.5882 163.542 82.5882 166.094 80.9476 166.094C79.307 166.094 79.307 163.542 80.9476 163.542ZM81.3122 178.104C81.0466 177.265 80.8278 176.411 80.708 175.542C80.6507 175.104 80.6091 174.667 80.6351 174.229C80.6611 173.797 80.7132 173.333 80.9997 172.984C80.6872 173.312 80.5882 173.781 80.5257 174.219C80.4684 174.661 80.4736 175.114 80.4945 175.562C80.5413 176.276 80.6559 176.979 80.8018 177.682C80.5882 177.37 80.3747 177.057 80.1455 176.739L80.1507 176.734C80.1351 176.713 80.1195 176.693 80.0986 176.672C79.9007 176.396 79.6924 176.109 79.4841 175.823C79.2445 175.333 79.0361 174.828 78.8851 174.297C78.6403 173.448 78.5309 172.552 78.583 171.656C78.6091 171.208 78.682 170.765 78.8122 170.333C78.9476 169.911 79.1143 169.463 79.4528 169.156C79.0726 169.422 78.8538 169.859 78.6611 170.276C78.4788 170.703 78.3538 171.156 78.2653 171.62C78.1195 172.443 78.1195 173.297 78.2288 174.14C78.0934 173.969 77.958 173.797 77.8174 173.62C77.2341 172.594 76.7809 171.484 76.4997 170.328C76.208 169.109 76.1038 167.833 76.2497 166.573C76.3174 165.937 76.4528 165.312 76.6768 164.713C76.9059 164.125 77.208 163.536 77.6976 163.104C77.1611 163.479 76.7809 164.047 76.4841 164.63C76.1872 165.219 75.9788 165.854 75.8278 166.5C75.5361 167.792 75.4945 169.146 75.6611 170.479C75.6976 170.75 75.7497 171.021 75.8018 171.292C73.4684 168.015 73.7393 163.932 74.6143 162.588C75.0986 161.844 75.7393 161.198 76.4736 160.739C77.208 160.276 78.0413 160 78.8799 159.917C79.7184 159.833 80.5622 159.943 81.3591 160.187C82.1507 160.422 82.8903 160.776 83.5049 161.25C84.1143 161.724 84.6038 162.312 84.9163 162.969C85.2236 163.614 85.3747 164.323 85.3538 164.995C85.333 165.677 85.1507 166.323 84.8382 166.864C84.5361 167.406 84.0934 167.838 83.5882 168.099C82.5778 168.63 81.3851 168.443 80.557 168.073C80.2861 167.943 80.0778 167.76 79.8903 167.562C80.2236 167.739 80.5986 167.854 80.9997 167.854C82.307 167.854 83.3695 166.792 83.3695 165.479C83.3695 164.172 82.307 163.104 80.9997 163.104C79.6924 163.104 78.6351 164.172 78.6351 165.479C78.6351 165.844 78.7184 166.177 78.8643 166.484C78.932 166.802 79.0309 167.14 79.2288 167.479C79.458 167.875 79.8174 168.271 80.3122 168.542C80.4268 168.609 80.557 168.667 80.6924 168.719C80.8174 168.765 80.9476 168.812 81.0882 168.854C81.3643 168.932 81.6507 168.995 81.9632 169.021C82.5778 169.083 83.2653 169 83.8955 168.693C84.5309 168.39 85.0934 167.875 85.4788 167.234C85.8695 166.594 86.0986 165.828 86.1403 165.031C86.182 164.234 86.0309 163.401 85.6716 162.62C85.3174 161.844 84.7549 161.13 84.0466 160.573C83.3434 160.01 82.5049 159.599 81.6247 159.323C81.5986 159.318 81.5778 159.312 81.5518 159.307L81.5726 159.167C79.8174 159.031 78.057 158.604 76.7497 157.588C75.4268 156.594 74.8382 154.922 75.2861 153.38C75.7028 151.833 76.9476 150.515 78.4788 149.682C80.0205 148.833 81.8434 148.443 83.6663 148.411C81.8486 148.375 79.9841 148.687 78.3591 149.5C76.7497 150.292 75.3643 151.609 74.8278 153.271C74.5622 154.094 74.5257 154.995 74.7809 155.838C75.0205 156.687 75.5674 157.458 76.2653 158.062C76.7809 158.5 77.3695 158.849 77.9893 159.13C77.2809 159.281 76.5934 159.557 75.9684 159.948C75.6195 160.161 75.3018 160.422 74.9997 160.693C75.0153 160.588 75.0361 160.479 75.0413 160.37C75.0986 159.62 74.9216 158.807 74.4736 158.146C73.557 156.792 71.9111 156.239 70.4372 156.146C68.932 156.052 67.4424 156.401 66.208 157.078C66.1195 157.125 66.0413 157.187 65.958 157.239C66.0101 157.156 66.0726 157.078 66.1195 156.989C66.8018 155.755 67.1507 154.265 67.0518 152.76C66.958 151.286 66.4059 149.64 65.0518 148.724C64.3903 148.276 63.583 148.099 62.8278 148.156C62.7497 148.161 62.6716 148.177 62.5934 148.187C62.8486 147.901 63.0882 147.599 63.2913 147.271C63.6768 146.656 63.9476 145.974 64.1038 145.276C64.3799 145.875 64.7132 146.432 65.1351 146.932C65.7393 147.63 66.5101 148.177 67.3591 148.417C68.208 148.672 69.1038 148.63 69.9268 148.364C71.5882 147.833 72.9059 146.448 73.7028 144.838C74.5101 143.213 74.8226 141.349 74.7861 139.531C74.7549 141.349 74.3643 143.177 73.5153 144.719C72.682 146.25 71.3643 147.495 69.8174 147.906C68.2809 148.359 66.6038 147.771 65.6143 146.453C64.8747 145.5 64.4476 144.318 64.2184 143.068C64.1976 142.88 64.1663 142.698 64.1351 142.521C64.0934 142.219 64.057 141.922 64.0361 141.625L63.9216 141.64C63.9163 141.63 63.9163 141.625 63.9163 141.62C63.6403 140.734 63.2288 139.896 62.6663 139.193C62.1091 138.484 61.3955 137.922 60.6195 137.568C59.8382 137.208 59.0049 137.057 58.208 137.099C57.4111 137.14 56.6455 137.37 56.0049 137.76C55.3695 138.151 54.8434 138.708 54.5466 139.349C54.2445 139.979 54.1559 140.667 54.2132 141.276C54.2497 141.583 54.307 141.875 54.3851 142.151C54.4268 142.286 54.4736 142.422 54.5205 142.552C54.5726 142.682 54.6351 142.812 54.7028 142.932C54.9684 143.422 55.3643 143.786 55.7601 144.01C56.0986 144.208 56.4372 144.307 56.7549 144.375C57.0622 144.521 57.4007 144.604 57.7601 144.604C59.0726 144.604 60.1351 143.547 60.1351 142.239C60.1351 140.932 59.0726 139.875 57.7601 139.875C56.4528 139.875 55.3851 140.932 55.3851 142.239C55.3851 142.64 55.4997 143.015 55.6768 143.354C55.4788 143.161 55.2966 142.953 55.1663 142.682C54.7966 141.854 54.6091 140.661 55.1403 139.651C55.4007 139.146 55.833 138.703 56.3747 138.401C56.9163 138.088 57.5622 137.911 58.2445 137.885C58.9216 137.87 59.6247 138.01 60.2705 138.328C60.9268 138.635 61.5153 139.125 61.9893 139.734C62.4632 140.349 62.8174 141.088 63.0518 141.88C63.2966 142.677 63.4059 143.521 63.3226 144.364C63.2445 145.203 62.958 146.031 62.4997 146.765C62.0413 147.5 61.3955 148.135 60.6455 148.625C59.3122 149.5 55.2236 149.776 51.9476 147.437C52.2184 147.489 52.4893 147.542 52.7601 147.573C54.0934 147.745 55.4476 147.703 56.7393 147.411C57.3851 147.26 58.0205 147.052 58.6091 146.755C59.1924 146.458 59.7653 146.078 60.1351 145.547C59.708 146.036 59.1143 146.333 58.5257 146.562C57.9268 146.786 57.3018 146.922 56.6663 146.995C55.4111 147.14 54.1299 147.031 52.9111 146.739C51.7549 146.458 50.6507 146.005 49.6195 145.422C49.4424 145.281 49.2757 145.146 49.0986 145.01C49.9424 145.125 50.7966 145.125 51.6195 144.974C52.083 144.89 52.5361 144.76 52.9684 144.578C53.3799 144.385 53.8174 144.167 54.083 143.786C53.7757 144.13 53.3278 144.292 52.9059 144.427C52.4788 144.557 52.0309 144.63 51.583 144.656C50.6872 144.713 49.7913 144.599 48.9424 144.354C48.4111 144.203 47.9111 143.995 47.4163 143.76C47.1351 143.547 46.8434 143.338 46.5674 143.14C46.5465 143.12 46.5257 143.104 46.5101 143.088L46.4997 143.094C46.182 142.864 45.8695 142.656 45.557 142.437C46.2601 142.583 46.9684 142.698 47.682 142.745C48.1247 142.771 48.5778 142.771 49.0205 142.713C49.458 142.651 49.9268 142.552 50.2549 142.239C49.9059 142.526 49.4424 142.578 49.0101 142.609C48.5778 142.63 48.1351 142.588 47.6976 142.531C46.8278 142.411 45.9736 142.193 45.1351 141.927C44.8903 141.849 44.6507 141.76 44.4111 141.672C38.5413 137.828 34.2184 136.354 32.2705 135.901C37.2861 138.656 36.9268 138.635 39.5361 140.286C42.6038 142.219 45.4424 144.573 49.5101 148.338C50.932 150.245 53.6091 152.099 54.4736 153.078C55.7393 154.505 57.3903 156.719 58.8226 158.01C58.0413 156.859 55.3955 153.25 56.4059 151.932C60.0309 155.453 60.9059 153.135 64.3486 154.88C63.8486 152.958 63.0674 151.057 62.0622 150.151C62.8747 149.739 63.7028 149.609 64.4424 149.979C65.3591 150.422 65.9945 151.609 66.2028 152.875C66.4163 154.151 66.2549 155.542 65.7445 156.765C65.6038 157.099 65.4372 157.417 65.2497 157.719C64.6403 158.198 64.1403 158.771 63.7497 159.396C63.5882 159.526 63.432 159.656 63.2601 159.771C63.4007 159.698 63.5361 159.604 63.6716 159.526C63.5882 159.661 63.4945 159.797 63.4268 159.937C63.5413 159.765 63.6716 159.609 63.807 159.448C64.4268 159.057 64.9997 158.557 65.4788 157.948C65.7809 157.76 66.0986 157.594 66.432 157.458C67.6559 156.943 69.0413 156.786 70.3174 157C71.5882 157.203 72.7757 157.844 73.2184 158.755C73.5882 159.495 73.458 160.323 73.0518 161.125C72.1247 160.146 70.2497 159.38 68.3591 158.896C70.1038 162.333 67.7861 163.208 71.307 166.833C69.9893 167.844 66.3799 165.198 65.2288 164.417C66.5257 165.849 68.7341 167.5 70.1611 168.765C71.1403 169.63 72.9893 172.307 74.9007 173.729C78.6663 177.797 81.0257 180.635 82.958 183.703C84.6038 186.312 84.583 185.953 87.3382 190.974C86.8851 189.021 85.4111 184.698 81.5674 178.828C81.4841 178.588 81.3903 178.349 81.3122 178.104Z" fill="white"/>
<path d="M93.0413 158.589C90.5361 158.589 87.3226 148.974 87.3174 147.219C87.3226 148.974 84.0986 158.589 81.5986 158.589C84.0986 158.589 87.4632 160.771 87.3174 163.344C87.4632 160.771 90.5361 158.589 93.0413 158.589Z" fill="white"/>
<path d="M92.8701 171.047C90.3649 171.047 87.1514 169.047 87.1514 167.292C87.1514 169.047 83.9326 171.047 81.4326 171.047C83.9326 171.047 87.292 184.771 87.1514 187.344C87.292 184.771 90.3649 171.047 92.8701 171.047Z" fill="white"/>
<path d="M64.6559 130.198C64.6559 132.703 62.4684 135.776 59.8955 135.922C62.4684 135.776 64.6559 139.14 64.6559 141.64C64.6559 139.14 74.2653 135.917 76.0205 135.922C74.2653 135.917 64.6559 132.703 64.6559 130.198Z" fill="white"/>
<path d="M52.1924 130.37C52.1924 132.875 38.4684 135.948 35.8955 136.088C38.4684 135.948 52.1924 139.307 52.1924 141.812C52.1924 139.307 54.1924 136.088 55.9476 136.088C54.1924 136.088 52.1924 132.875 52.1924 130.37Z" fill="white"/>
<path d="M63.9788 112.5C64.1143 112.625 64.2445 112.76 64.3747 112.896C64.2393 112.766 64.0986 112.641 63.9788 112.5ZM73.7445 109.568L73.6195 109.62C73.6351 109.552 73.6455 109.484 73.6559 109.417C73.6872 109.469 73.7132 109.516 73.7445 109.568ZM80.9476 105.677C82.5882 105.677 82.5882 108.224 80.9476 108.224C79.307 108.224 79.307 105.677 80.9476 105.677ZM59.6976 129.396C59.6976 131.062 57.1455 131.062 57.1455 129.396C57.1455 127.729 59.6976 127.729 59.6976 129.396ZM45.1351 129.766C45.9736 129.5 46.8278 129.276 47.6976 129.151C48.1351 129.089 48.5778 129.052 49.0101 129.073C49.4424 129.099 49.9059 129.161 50.2549 129.448C49.9268 129.13 49.458 129.031 49.0205 128.969C48.5778 128.906 48.1247 128.911 47.682 128.938C46.9684 128.979 46.2601 129.099 45.557 129.245C45.8695 129.026 46.182 128.812 46.4997 128.583L46.5101 128.589C46.5257 128.568 46.5465 128.552 46.5674 128.531C46.8434 128.333 47.1351 128.115 47.4163 127.901C47.9111 127.661 48.4111 127.453 48.9424 127.297C49.7913 127.052 50.6872 126.932 51.583 126.984C52.0309 127.016 52.4788 127.089 52.9059 127.224C53.3278 127.365 53.7757 127.526 54.083 127.875C53.8174 127.49 53.3799 127.266 52.9684 127.068C52.5361 126.88 52.083 126.755 51.6195 126.667C50.7966 126.516 49.9424 126.516 49.0986 126.625C49.2757 126.495 49.4424 126.354 49.6195 126.208C50.6507 125.62 51.7549 125.156 52.9111 124.87C54.1299 124.573 55.4111 124.464 56.6663 124.615C57.3018 124.688 57.9268 124.823 58.5257 125.052C59.1143 125.281 59.708 125.589 60.1351 126.089C59.7653 125.542 59.1924 125.156 58.6091 124.854C58.0205 124.552 57.3851 124.339 56.7393 124.188C55.4476 123.891 54.0934 123.849 52.7601 124.021C52.4893 124.057 52.2184 124.104 51.9476 124.156C55.2236 121.786 59.3122 122.063 60.6455 122.953C61.3955 123.448 62.0413 124.099 62.4997 124.844C62.958 125.594 63.2445 126.438 63.3226 127.292C63.4059 128.146 63.2966 129 63.0518 129.812C62.8174 130.62 62.4632 131.37 61.9893 131.995C61.5153 132.62 60.9268 133.115 60.2705 133.427C59.6247 133.75 58.9216 133.896 58.2445 133.875C57.5622 133.854 56.9163 133.672 56.3747 133.354C55.833 133.042 55.4007 132.594 55.1403 132.083C54.6091 131.057 54.7966 129.844 55.1663 128.995C55.2966 128.724 55.4788 128.505 55.6768 128.318C55.4997 128.656 55.3851 129.036 55.3851 129.448C55.3851 130.776 56.4528 131.854 57.7601 131.854C59.0726 131.854 60.1351 130.776 60.1351 129.448C60.1351 128.12 59.0726 127.042 57.7601 127.042C57.4007 127.042 57.0622 127.13 56.7549 127.276C56.4372 127.344 56.0986 127.443 55.7601 127.646C55.3643 127.88 54.9684 128.245 54.7028 128.745C54.6351 128.865 54.5726 129 54.5205 129.135C54.4736 129.26 54.4268 129.401 54.3851 129.536C54.307 129.818 54.2497 130.115 54.2132 130.427C54.1559 131.052 54.2445 131.75 54.5466 132.396C54.8434 133.036 55.3695 133.609 56.0049 134C56.6455 134.401 57.4111 134.635 58.208 134.677C59.0049 134.719 59.8382 134.568 60.6195 134.203C61.3955 133.844 62.1091 133.271 62.6663 132.552C63.2288 131.833 63.6403 130.984 63.9163 130.083L64.0361 130.099C64.0622 129.708 64.1091 129.318 64.1716 128.932C64.1872 128.849 64.2028 128.766 64.2132 128.688C64.4424 127.422 64.8695 126.229 65.6143 125.271C66.6038 123.948 68.2809 123.365 69.8174 123.812C71.3643 124.229 72.682 125.474 73.5153 127C74.3643 128.542 74.7549 130.37 74.7861 132.188C74.8226 130.37 74.5101 128.505 73.7028 126.88C72.9059 125.271 71.5882 123.885 69.9268 123.354C69.1038 123.089 68.208 123.047 67.3591 123.302C66.5101 123.542 65.7393 124.089 65.1351 124.792C64.7184 125.276 64.3903 125.828 64.1195 126.411C63.9684 125.682 63.6872 124.974 63.2913 124.328C63.1247 124.052 62.932 123.802 62.7288 123.552C62.7653 123.557 62.7966 123.568 62.8278 123.568C63.583 123.625 64.3903 123.448 65.0518 122.995C66.4059 122.078 66.958 120.432 67.0518 118.964C67.1507 117.458 66.8018 115.969 66.1195 114.729C66.0726 114.641 66.0101 114.568 65.958 114.484C66.0466 114.536 66.1195 114.599 66.208 114.641C67.4424 115.323 68.932 115.672 70.4372 115.578C71.9111 115.484 73.557 114.932 74.4736 113.578C74.9216 112.917 75.0986 112.104 75.0413 111.354C75.0361 111.26 75.0205 111.167 75.0049 111.078C75.307 111.349 75.6247 111.604 75.9684 111.818C76.5778 112.198 77.2445 112.469 77.932 112.625C77.333 112.901 76.7653 113.234 76.2653 113.661C75.5674 114.266 75.0205 115.036 74.7809 115.885C74.5257 116.729 74.5622 117.63 74.8278 118.453C75.3643 120.115 76.7497 121.432 78.3591 122.224C79.9841 123.031 81.8486 123.349 83.6663 123.312C81.8434 123.276 80.0205 122.885 78.4788 122.036C76.9476 121.208 75.7028 119.885 75.2861 118.344C74.8382 116.802 75.4268 115.13 76.7497 114.135C77.6872 113.406 78.8538 112.984 80.0882 112.755C80.3799 112.724 80.6716 112.682 80.958 112.62C81.1611 112.594 81.3695 112.573 81.5726 112.557L81.557 112.458C81.583 112.453 81.6038 112.448 81.6247 112.443C82.5049 112.167 83.3434 111.755 84.0466 111.198C84.7549 110.635 85.3174 109.927 85.6716 109.146C86.0309 108.365 86.182 107.531 86.1403 106.734C86.0986 105.938 85.8695 105.172 85.4788 104.531C85.0934 103.896 84.5309 103.375 83.8955 103.073C83.2653 102.766 82.5778 102.682 81.9632 102.745C81.6507 102.771 81.3643 102.833 81.0882 102.911C80.9476 102.953 80.8174 103 80.6924 103.047C80.557 103.099 80.4268 103.161 80.3122 103.229C79.8174 103.495 79.458 103.891 79.2288 104.286C79.0309 104.63 78.932 104.964 78.8643 105.281C78.7184 105.589 78.6351 105.927 78.6351 106.286C78.6351 107.599 79.6924 108.661 80.9997 108.661C82.307 108.661 83.3695 107.599 83.3695 106.286C83.3695 104.979 82.307 103.911 80.9997 103.911C80.5986 103.911 80.2236 104.026 79.8903 104.203C80.0778 104.005 80.2861 103.823 80.557 103.693C81.3851 103.323 82.5778 103.135 83.5882 103.667C84.0934 103.927 84.5361 104.359 84.8382 104.901C85.1507 105.443 85.333 106.094 85.3538 106.771C85.3747 107.443 85.2236 108.151 84.9163 108.802C84.6038 109.453 84.1143 110.042 83.5049 110.516C82.8903 110.99 82.1507 111.344 81.3591 111.583C80.5622 111.823 79.7184 111.932 78.8799 111.849C78.0413 111.771 77.208 111.49 76.4736 111.026C75.7393 110.568 75.0986 109.927 74.6143 109.177C73.7393 107.833 73.4684 103.75 75.8018 100.479C75.7497 100.75 75.6976 101.016 75.6611 101.286C75.4945 102.62 75.5361 103.974 75.8278 105.266C75.9788 105.917 76.1872 106.547 76.4841 107.135C76.7809 107.719 77.1611 108.286 77.6976 108.661C77.208 108.234 76.9059 107.641 76.6768 107.052C76.4528 106.453 76.3174 105.828 76.2497 105.198C76.1038 103.932 76.208 102.656 76.4997 101.438C76.7809 100.281 77.2341 99.1719 77.8174 98.1458C77.958 97.974 78.0934 97.8021 78.2288 97.6302C78.1195 98.4688 78.1195 99.3229 78.2653 100.151C78.3538 100.609 78.4788 101.063 78.6611 101.49C78.8538 101.906 79.0726 102.344 79.4528 102.609C79.1143 102.302 78.9476 101.859 78.8122 101.432C78.682 101 78.6091 100.557 78.583 100.109C78.5309 99.2135 78.6403 98.3177 78.8851 97.474C79.0361 96.9375 79.2445 96.4375 79.4841 95.9427C79.6924 95.6615 79.9007 95.3698 80.0986 95.0938C80.1195 95.0729 80.1351 95.0521 80.1507 95.0312H80.1455C80.3747 94.7083 80.5882 94.3958 80.8018 94.0833C80.6559 94.7865 80.5413 95.4896 80.4945 96.2083C80.4736 96.651 80.4684 97.1042 80.5257 97.5469C80.5882 97.9844 80.6872 98.4531 80.9997 98.7812C80.7132 98.4323 80.6611 97.9688 80.6351 97.5365C80.6091 97.099 80.6507 96.6615 80.708 96.224C80.8278 95.3542 81.0466 94.5 81.3122 93.6615C81.3903 93.4167 81.4841 93.1823 81.5674 92.9375C85.4111 87.0729 86.8851 82.7448 87.3382 80.7969C84.583 85.8125 84.6038 85.4531 82.958 88.0625C81.0257 91.1302 78.6663 93.9688 74.9007 98.0365C72.9893 99.4583 71.1403 102.135 70.1611 103C68.7341 104.266 66.5257 105.917 65.2288 107.349C66.3799 106.573 69.9893 103.927 71.307 104.932C67.7861 108.557 70.1038 109.432 68.3591 112.875C70.2601 112.38 72.1455 111.615 73.0622 110.62C73.4632 111.422 73.583 112.24 73.2184 112.964C72.7757 113.88 71.5882 114.521 70.3174 114.724C69.0413 114.938 67.6559 114.776 66.432 114.266C66.0986 114.13 65.7861 113.964 65.4841 113.776C65.0049 113.167 64.4268 112.667 63.8018 112.271C63.6716 112.109 63.5413 111.953 63.4268 111.786C63.4945 111.927 63.5882 112.057 63.6716 112.198C63.5361 112.115 63.4007 112.021 63.2601 111.953C63.432 112.063 63.5882 112.198 63.7497 112.328C64.1403 112.953 64.6403 113.526 65.2549 114.01C65.4372 114.312 65.6038 114.625 65.7445 114.953C66.2549 116.182 66.4163 117.568 66.2028 118.844C65.9945 120.109 65.3591 121.297 64.4424 121.745C63.7132 122.104 62.8955 121.984 62.0986 121.589C63.0882 120.667 63.8538 118.786 64.3486 116.885C60.9059 118.63 60.0309 116.318 56.4059 119.833C55.3955 118.521 58.0413 114.911 58.8226 113.755C57.3903 115.052 55.7393 117.26 54.4736 118.688C53.7445 119.51 51.7393 120.953 50.2757 122.521C45.7913 126.776 42.7913 129.349 39.5361 131.438C36.9268 133.115 37.2861 133.094 32.2705 135.896C34.2184 135.438 38.5413 133.938 44.4111 130.026C44.6507 129.938 44.8903 129.849 45.1351 129.766Z" fill="white"/>
<path d="M113.557 149.63C113.552 149.63 113.552 149.635 113.552 149.635L113.625 149.469C113.693 149.51 113.76 149.547 113.823 149.583C113.734 149.599 113.646 149.609 113.557 149.63ZM110.693 159.213C110.563 159.104 110.453 158.979 110.339 158.864C110.458 158.979 110.583 159.088 110.693 159.213ZM101.104 162.083V162.078C101.104 162.083 101.104 162.083 101.104 162.083ZM93.8438 166.094C92.1771 166.094 92.1771 163.542 93.8438 163.542C95.5156 163.542 95.5156 166.094 93.8438 166.094ZM115.016 142.292C115.016 140.651 117.568 140.651 117.568 142.292C117.568 143.932 115.016 143.932 115.016 142.292ZM129.578 141.927C128.74 142.193 127.88 142.411 127.016 142.531C126.583 142.588 126.141 142.63 125.703 142.609C125.271 142.578 124.807 142.526 124.458 142.239C124.786 142.552 125.255 142.651 125.693 142.713C126.135 142.771 126.589 142.771 127.031 142.745C127.75 142.698 128.453 142.583 129.151 142.437C128.844 142.656 128.531 142.864 128.208 143.094L128.203 143.088C128.188 143.104 128.167 143.12 128.151 143.14C127.87 143.338 127.578 143.547 127.297 143.76C126.807 143.995 126.302 144.203 125.771 144.354C124.922 144.599 124.026 144.713 123.13 144.656C122.682 144.63 122.234 144.557 121.807 144.427C121.38 144.292 120.938 144.13 120.63 143.786C120.896 144.167 121.333 144.385 121.75 144.578C122.177 144.76 122.63 144.89 123.094 144.974C123.917 145.125 124.771 145.125 125.615 145.01C125.438 145.146 125.271 145.281 125.094 145.422C124.062 146.005 122.958 146.458 121.802 146.739C120.583 147.031 119.307 147.14 118.042 146.995C117.417 146.922 116.786 146.786 116.188 146.562C115.599 146.333 115.005 146.036 114.583 145.547C114.948 146.078 115.521 146.458 116.104 146.755C116.693 147.052 117.323 147.26 117.974 147.411C119.266 147.703 120.62 147.745 121.953 147.573C122.224 147.542 122.495 147.489 122.766 147.437C119.49 149.776 115.401 149.5 114.068 148.625C113.318 148.135 112.672 147.5 112.214 146.765C111.755 146.031 111.474 145.203 111.391 144.364C111.307 143.521 111.417 142.677 111.656 141.88C111.896 141.088 112.25 140.349 112.724 139.734C113.198 139.125 113.786 138.635 114.438 138.328C115.089 138.01 115.797 137.87 116.474 137.885C117.151 137.911 117.797 138.088 118.339 138.401C118.88 138.703 119.313 139.146 119.573 139.651C120.104 140.661 119.917 141.854 119.547 142.682C119.417 142.953 119.234 143.161 119.036 143.354C119.214 143.015 119.328 142.64 119.328 142.239C119.328 140.932 118.26 139.875 116.953 139.875C115.646 139.875 114.583 140.932 114.583 142.239C114.583 143.547 115.646 144.604 116.953 144.604C117.313 144.604 117.651 144.521 117.958 144.375C118.276 144.307 118.609 144.208 118.953 144.01C119.349 143.786 119.745 143.422 120.01 142.932C120.083 142.812 120.141 142.682 120.193 142.552C120.24 142.422 120.286 142.286 120.328 142.151C120.406 141.875 120.469 141.583 120.495 141.276C120.557 140.667 120.469 139.979 120.167 139.349C119.87 138.708 119.344 138.151 118.708 137.76C118.068 137.37 117.302 137.14 116.505 137.099C115.708 137.057 114.875 137.208 114.094 137.568C113.318 137.922 112.604 138.484 112.047 139.193C111.484 139.896 111.073 140.734 110.802 141.62C110.797 141.625 110.792 141.635 110.792 141.646L110.641 141.625C110.51 143.38 110.083 145.14 109.062 146.453C108.068 147.771 106.396 148.359 104.859 147.906C103.313 147.495 101.995 146.25 101.161 144.719C100.313 143.177 99.9219 141.349 99.8854 139.531C99.849 141.349 100.167 143.213 100.974 144.838C101.771 146.448 103.089 147.833 104.75 148.364C105.568 148.63 106.469 148.672 107.318 148.417C108.161 148.177 108.932 147.63 109.542 146.932C109.974 146.422 110.318 145.844 110.594 145.229C110.75 145.943 111.026 146.64 111.422 147.271C111.625 147.599 111.87 147.906 112.125 148.193C112.031 148.177 111.938 148.161 111.844 148.156C111.094 148.099 110.281 148.276 109.62 148.724C108.266 149.64 107.714 151.286 107.62 152.76C107.526 154.265 107.875 155.755 108.557 156.989C108.604 157.078 108.667 157.156 108.719 157.239C108.63 157.187 108.557 157.125 108.469 157.078C107.229 156.401 105.74 156.052 104.234 156.146C102.766 156.239 101.115 156.792 100.203 158.146C99.75 158.807 99.5781 159.62 99.6302 160.37C99.6354 160.406 99.6406 160.437 99.6458 160.474C99.4115 160.286 99.1667 160.104 98.9167 159.948C98.2448 159.536 97.4948 159.255 96.7344 159.099C97.3385 158.828 97.9062 158.489 98.4062 158.062C99.1094 157.458 99.651 156.687 99.8958 155.838C100.151 154.995 100.109 154.094 99.8438 153.271C99.3125 151.609 97.9271 150.292 96.3125 149.5C94.6927 148.687 92.8281 148.375 91.0104 148.411C92.8281 148.443 94.6562 148.833 96.1979 149.682C97.724 150.515 98.974 151.833 99.3802 153.38C99.8333 154.922 99.25 156.594 97.9271 157.588C96.6146 158.604 94.8594 159.031 93.099 159.167L93.1198 159.338C92.2344 159.609 91.401 160.021 90.6927 160.573C89.974 161.13 89.3958 161.844 89.0365 162.62C88.6719 163.401 88.5208 164.234 88.5625 165.031C88.6042 165.828 88.8385 166.594 89.2396 167.234C89.6302 167.875 90.2031 168.39 90.849 168.693C91.4896 169 92.1927 169.083 92.8177 169.021C93.125 168.995 93.4219 168.932 93.7031 168.854C93.8385 168.812 93.9792 168.765 94.1042 168.719C94.2396 168.667 94.375 168.609 94.4948 168.542C94.9948 168.271 95.3646 167.875 95.5938 167.479C95.7969 167.14 95.8958 166.802 95.9688 166.484C96.1094 166.177 96.2031 165.844 96.2031 165.479C96.2031 164.172 95.1198 163.104 93.7917 163.104C92.4635 163.104 91.3854 164.172 91.3854 165.479C91.3854 166.792 92.4635 167.854 93.7917 167.854C94.2031 167.854 94.5833 167.739 94.9219 167.562C94.7344 167.76 94.5156 167.943 94.2448 168.073C93.401 168.443 92.1823 168.63 91.1562 168.099C90.6458 167.838 90.1979 167.406 89.8854 166.864C89.5677 166.323 89.3854 165.677 89.3698 164.995C89.3438 164.323 89.4896 163.614 89.8125 162.969C90.125 162.312 90.625 161.724 91.2448 161.25C91.8698 160.776 92.6198 160.422 93.4323 160.187C94.2396 159.943 95.0938 159.833 95.9479 159.917C96.8073 160 97.651 160.276 98.3958 160.739C99.1458 161.198 99.7917 161.844 100.286 162.588C101.177 163.932 101.458 168.015 99.0833 171.292C99.1354 171.021 99.1823 170.75 99.2188 170.479C99.3906 169.146 99.3542 167.792 99.0521 166.5C98.901 165.854 98.6875 165.219 98.3854 164.63C98.0833 164.047 97.7031 163.479 97.151 163.104C97.6562 163.536 97.9583 164.125 98.1875 164.713C98.4167 165.312 98.5573 165.937 98.625 166.573C98.7708 167.833 98.6667 169.109 98.3698 170.328C98.0833 171.484 97.6198 172.594 97.0312 173.62C96.8854 173.797 96.7448 173.969 96.6146 174.14C96.724 173.297 96.724 172.443 96.5781 171.62C96.4844 171.156 96.3594 170.703 96.1719 170.276C95.974 169.859 95.75 169.422 95.3646 169.156C95.7135 169.463 95.8802 169.911 96.0208 170.333C96.151 170.765 96.224 171.208 96.2552 171.656C96.3073 172.552 96.1927 173.448 95.9427 174.297C95.7917 174.828 95.5781 175.333 95.3385 175.823C95.125 176.109 94.9115 176.396 94.7083 176.672C94.6927 176.693 94.6719 176.713 94.6562 176.734L94.6615 176.739C94.4323 177.057 94.2135 177.37 93.9948 177.682C94.1406 176.979 94.2604 176.276 94.3073 175.562C94.3281 175.114 94.3333 174.661 94.2708 174.219C94.2083 173.781 94.1094 173.312 93.7917 172.984C94.0833 173.333 94.1406 173.797 94.1667 174.229C94.1875 174.667 94.151 175.104 94.0885 175.542C93.9635 176.411 93.7396 177.265 93.474 178.104C93.3906 178.349 93.3021 178.588 93.2135 178.828C89.3021 184.698 87.8073 189.021 87.3438 190.974C90.151 185.953 90.125 186.312 91.8021 183.703C93.8906 180.448 96.4635 177.448 100.719 172.963C102.286 171.5 103.729 169.495 104.552 168.765C105.979 167.5 108.193 165.849 109.484 164.417C108.328 165.198 104.719 167.844 103.406 166.833C106.927 163.208 104.609 162.333 106.354 158.896C104.443 159.385 102.552 160.161 101.641 161.156C101.219 160.344 101.083 159.505 101.453 158.755C101.896 157.844 103.089 157.203 104.354 157C105.63 156.786 107.021 156.943 108.245 157.458C108.578 157.594 108.891 157.76 109.198 157.953C109.677 158.557 110.25 159.052 110.87 159.443C111 159.609 111.135 159.765 111.25 159.937C111.177 159.797 111.083 159.661 111 159.526C111.141 159.604 111.271 159.698 111.417 159.771C111.245 159.656 111.083 159.521 110.922 159.39C110.536 158.771 110.036 158.198 109.427 157.719C109.24 157.417 109.068 157.099 108.932 156.765C108.422 155.542 108.26 154.151 108.474 152.875C108.677 151.609 109.318 150.422 110.234 149.979C110.979 149.604 111.818 149.739 112.635 150.161C111.635 151.073 110.865 152.969 110.365 154.88C113.807 153.135 114.688 155.453 118.307 151.932C119.318 153.25 116.667 156.859 115.891 158.01C117.323 156.719 118.974 154.505 120.24 153.078C121.104 152.099 123.781 150.245 125.203 148.338C129.271 144.573 132.109 142.219 135.177 140.286C137.786 138.635 137.427 138.656 142.443 135.901C140.495 136.354 136.167 137.828 130.302 141.672C130.057 141.76 129.823 141.849 129.578 141.927Z" fill="white"/>
<path d="M110.058 130.198C110.058 132.703 99.5003 135.917 97.7451 135.922C99.5003 135.917 110.058 139.14 110.058 141.64C110.058 139.14 112.245 135.776 114.818 135.922C112.245 135.776 110.058 132.703 110.058 130.198Z" fill="white"/>
<path d="M122.521 130.37C122.521 132.875 120.521 136.088 118.766 136.088C120.521 136.088 122.521 139.307 122.521 141.812C122.521 139.307 136.245 135.948 138.818 136.088C136.245 135.948 122.521 132.875 122.521 130.37Z" fill="white"/>
<path d="M101.964 121.276C91.9375 131.302 82.3073 131.302 72.2812 121.276C82.3073 131.302 82.3073 140.932 72.2812 150.958C82.3073 140.932 91.9375 140.932 101.964 150.958C91.9375 140.932 91.9375 131.302 101.964 121.276Z" fill="white"/>
<path d="M101.964 121.276C91.9375 131.302 82.3073 131.302 72.2812 121.276C82.3073 131.302 82.3073 140.932 72.2812 150.958C82.3073 140.932 91.9375 140.932 101.964 150.958C91.9375 140.932 91.9375 131.302 101.964 121.276Z" fill="white"/>
<path d="M97.1097 136.14C94.9378 137.291 93.0212 138.692 91.3649 140.354C89.7035 142.015 88.2972 143.932 87.1462 146.104C84.8493 141.734 81.5055 138.396 77.1357 136.093C79.3076 134.942 81.2243 133.541 82.8857 131.88C84.5472 130.224 85.9482 128.302 87.0993 126.13C89.3962 130.5 92.7399 133.838 97.1097 136.14Z" fill="#B50F00"/>
<defs>
<linearGradient id="paint0_linear_148_4426" x1="27.5178" y1="277.997" x2="150.91" y2="-11.3285" gradientUnits="userSpaceOnUse">
<stop stop-color="#E7E1D0"/>
<stop offset="0.015625" stop-color="#E7E1D0"/>
<stop offset="0.0195313" stop-color="#E7E2D1"/>
<stop offset="0.0234375" stop-color="#E8E2D2"/>
<stop offset="0.0273438" stop-color="#E8E2D2"/>
<stop offset="0.03125" stop-color="#E9E3D3"/>
<stop offset="0.0351563" stop-color="#E9E3D3"/>
<stop offset="0.0390625" stop-color="#E9E4D4"/>
<stop offset="0.0429688" stop-color="#EAE4D5"/>
<stop offset="0.046875" stop-color="#EAE5D5"/>
<stop offset="0.0507813" stop-color="#EAE5D6"/>
<stop offset="0.0546875" stop-color="#EBE5D6"/>
<stop offset="0.0585938" stop-color="#EBE6D7"/>
<stop offset="0.0625" stop-color="#EBE6D8"/>
<stop offset="0.0664063" stop-color="#ECE7D8"/>
<stop offset="0.0703125" stop-color="#ECE7D9"/>
<stop offset="0.0742188" stop-color="#ECE7D9"/>
<stop offset="0.078125" stop-color="#ECE8DA"/>
<stop offset="0.0820313" stop-color="#EDE8DA"/>
<stop offset="0.0859375" stop-color="#EDE9DB"/>
<stop offset="0.0898438" stop-color="#EDE9DB"/>
<stop offset="0.09375" stop-color="#EEE9DC"/>
<stop offset="0.0976563" stop-color="#EEEADD"/>
<stop offset="0.101563" stop-color="#EEEADD"/>
<stop offset="0.105469" stop-color="#EFEADE"/>
<stop offset="0.109375" stop-color="#EFEBDE"/>
<stop offset="0.113281" stop-color="#EFEBDF"/>
<stop offset="0.117188" stop-color="#EFECDF"/>
<stop offset="0.121094" stop-color="#F0ECE0"/>
<stop offset="0.125" stop-color="#F0ECE0"/>
<stop offset="0.128906" stop-color="#F0EDE1"/>
<stop offset="0.132813" stop-color="#F1EDE1"/>
<stop offset="0.140625" stop-color="#F1EDE2"/>
<stop offset="0.148438" stop-color="#F1EEE3"/>
<stop offset="0.15625" stop-color="#F2EFE4"/>
<stop offset="0.164063" stop-color="#F3EFE5"/>
<stop offset="0.171875" stop-color="#F3F0E6"/>
<stop offset="0.179688" stop-color="#F4F1E7"/>
<stop offset="0.1875" stop-color="#F4F1E7"/>
<stop offset="0.195313" stop-color="#F5F2E8"/>
<stop offset="0.203125" stop-color="#F5F3E9"/>
<stop offset="0.210938" stop-color="#F6F3EA"/>
<stop offset="0.21875" stop-color="#F6F4EB"/>
<stop offset="0.226563" stop-color="#F6F4EC"/>
<stop offset="0.234375" stop-color="#F7F5EC"/>
<stop offset="0.242188" stop-color="#F7F5ED"/>
<stop offset="0.25" stop-color="#F8F6EE"/>
<stop offset="0.257813" stop-color="#F8F6EF"/>
<stop offset="0.265625" stop-color="#F9F7EF"/>
<stop offset="0.273438" stop-color="#F9F7F0"/>
<stop offset="0.28125" stop-color="#F9F8F1"/>
<stop offset="0.289062" stop-color="#FAF8F1"/>
<stop offset="0.296875" stop-color="#FAF9F2"/>
<stop offset="0.304688" stop-color="#FAF9F3"/>
<stop offset="0.3125" stop-color="#FBFAF3"/>
<stop offset="0.320313" stop-color="#FBFAF4"/>
<stop offset="0.328125" stop-color="#FBFAF4"/>
<stop offset="0.335938" stop-color="#FCFBF5"/>
<stop offset="0.34375" stop-color="#FCFBF5"/>
<stop offset="0.359375" stop-color="#FCFCF6"/>
<stop offset="0.375" stop-color="#FDFCF7"/>
<stop offset="0.390625" stop-color="#FDFDF8"/>
<stop offset="0.40625" stop-color="#FEFDF9"/>
<stop offset="0.421875" stop-color="#FEFEF9"/>
<stop offset="0.4375" stop-color="#FEFEFA"/>
<stop offset="0.5" stop-color="#FFFFFB"/>
<stop offset="0.5625" stop-color="#FFFFFB"/>
<stop offset="0.59375" stop-color="#FFFFFA"/>
<stop offset="0.625" stop-color="#FEFEFA"/>
<stop offset="0.640625" stop-color="#FEFEF9"/>
<stop offset="0.65625" stop-color="#FEFDF9"/>
<stop offset="0.671875" stop-color="#FDFDF8"/>
<stop offset="0.6875" stop-color="#FDFCF7"/>
<stop offset="0.703125" stop-color="#FCFCF6"/>
<stop offset="0.71875" stop-color="#FCFBF6"/>
<stop offset="0.726563" stop-color="#FCFBF5"/>
<stop offset="0.734375" stop-color="#FBFAF4"/>
<stop offset="0.742187" stop-color="#FBFAF4"/>
<stop offset="0.75" stop-color="#FBF9F3"/>
<stop offset="0.757813" stop-color="#FAF9F2"/>
<stop offset="0.765625" stop-color="#FAF9F2"/>
<stop offset="0.773438" stop-color="#F9F8F1"/>
<stop offset="0.78125" stop-color="#F9F8F0"/>
<stop offset="0.789063" stop-color="#F9F7F0"/>
<stop offset="0.796875" stop-color="#F8F6EF"/>
<stop offset="0.804688" stop-color="#F8F6EE"/>
<stop offset="0.8125" stop-color="#F7F5ED"/>
<stop offset="0.820313" stop-color="#F7F5EC"/>
<stop offset="0.828125" stop-color="#F6F4EB"/>
<stop offset="0.835937" stop-color="#F6F3EA"/>
<stop offset="0.839844" stop-color="#F5F3E9"/>
<stop offset="0.84375" stop-color="#F5F2E9"/>
<stop offset="0.847656" stop-color="#F5F2E8"/>
<stop offset="0.851563" stop-color="#F4F2E8"/>
<stop offset="0.855469" stop-color="#F4F1E7"/>
<stop offset="0.859375" stop-color="#F4F1E7"/>
<stop offset="0.863281" stop-color="#F3F0E6"/>
<stop offset="0.867188" stop-color="#F3F0E6"/>
<stop offset="0.871094" stop-color="#F3F0E5"/>
<stop offset="0.875" stop-color="#F2EFE4"/>
<stop offset="0.878906" stop-color="#F2EFE4"/>
<stop offset="0.882813" stop-color="#F2EEE3"/>
<stop offset="0.886719" stop-color="#F1EEE3"/>
<stop offset="0.890625" stop-color="#F1EEE2"/>
<stop offset="0.894531" stop-color="#F1EDE1"/>
<stop offset="0.898438" stop-color="#F0EDE1"/>
<stop offset="0.902344" stop-color="#F0ECE0"/>
<stop offset="0.90625" stop-color="#F0ECE0"/>
<stop offset="0.910156" stop-color="#EFEBDF"/>
<stop offset="0.914063" stop-color="#EFEBDE"/>
<stop offset="0.917969" stop-color="#EFEADD"/>
<stop offset="0.921875" stop-color="#EEEADD"/>
<stop offset="0.925781" stop-color="#EEE9DC"/>
<stop offset="0.929687" stop-color="#EDE9DB"/>
<stop offset="0.933594" stop-color="#EDE8DB"/>
<stop offset="0.9375" stop-color="#EDE8DA"/>
<stop offset="0.941406" stop-color="#ECE7D9"/>
<stop offset="0.945313" stop-color="#ECE7D8"/>
<stop offset="0.949219" stop-color="#EBE6D8"/>
<stop offset="0.953125" stop-color="#EBE6D7"/>
<stop offset="0.957031" stop-color="#EAE5D6"/>
<stop offset="0.960938" stop-color="#EAE5D5"/>
<stop offset="0.964844" stop-color="#EAE4D5"/>
<stop offset="0.96875" stop-color="#E9E4D4"/>
<stop offset="0.972656" stop-color="#E9E3D3"/>
<stop offset="0.976563" stop-color="#E8E2D2"/>
<stop offset="0.980469" stop-color="#E8E2D1"/>
<stop offset="0.984375" stop-color="#E7E1D0"/>
<stop offset="1" stop-color="#E7E1D0"/>
</linearGradient>
</defs>
</svg>
