<svg width="179" height="268" viewBox="0 0 179 268" fill="none" xmlns="http://www.w3.org/2000/svg">
<path d="M176.01 254.698C175.995 262.058 170.021 268.016 162.661 268L13.3021 267.745C5.94272 267.729 -0.0104024 261.755 1.36476e-05 254.396L0.41668 14.6356C0.432306 7.27103 6.40626 1.3179 13.7656 1.33353L163.13 1.59394C170.484 1.60436 176.443 7.58353 176.427 14.9377L176.01 254.698Z" fill="#C4B78F"/>
<mask id="mask0_148_4348" style="mask-type:luminance" maskUnits="userSpaceOnUse" x="1" y="0" width="178" height="267">
<path d="M1 0H178.333V266.667H1V0Z" fill="white"/>
</mask>
<g mask="url(#mask0_148_4348)">
<mask id="mask1_148_4348" style="mask-type:luminance" maskUnits="userSpaceOnUse" x="1" y="0" width="177" height="267">
<path d="M177.01 253.365C176.995 260.724 171.021 266.682 163.661 266.667L14.3021 266.412C6.94272 266.396 0.989598 260.422 1.00001 253.063L1.41668 13.3021C1.43231 5.93753 7.40626 -0.0155946 14.7656 3.06889e-05L164.13 0.260447C171.484 0.270863 177.443 6.25003 177.427 13.6042L177.01 253.365Z" fill="white"/>
</mask>
<g mask="url(#mask1_148_4348)">
<mask id="mask2_148_4348" style="mask-type:luminance" maskUnits="userSpaceOnUse" x="1" y="0" width="177" height="267">
<path d="M177.01 253.365C176.995 260.724 171.021 266.682 163.661 266.667L14.3021 266.412C6.94272 266.396 0.989598 260.422 1.00001 253.063L1.41668 13.3021C1.43231 5.93753 7.40626 -0.0155946 14.7656 3.06889e-05L164.13 0.260447C171.484 0.270863 177.443 6.25003 177.427 13.6042L177.01 253.365Z" fill="white"/>
</mask>
<g mask="url(#mask2_148_4348)">
<path d="M-95.25 225.641L150.286 330.354L273.677 41.0312L28.1406 -63.6875L-95.25 225.641Z" fill="url(#paint0_linear_148_4348)"/>
</g>
</g>
</g>
<path d="M16.7607 39.8489C14.6201 35.8072 9.03674 37.3072 9.00028 41.2968C8.95341 45.7655 14.7034 48.1041 16.6097 52.2864L16.6409 52.3437L16.667 52.2812C18.6617 48.1458 24.4534 45.9218 24.5003 41.453C24.5367 37.4635 18.9899 35.8489 16.7607 39.8489Z" fill="#B50F00"/>
<path d="M163.407 225.833C161.24 229.865 155.667 228.328 155.651 224.344C155.631 219.875 161.391 217.568 163.323 213.401L163.355 213.344L163.386 213.401C165.349 217.547 171.131 219.807 171.151 224.276C171.167 228.266 165.605 229.844 163.407 225.833Z" fill="#B50F00"/>
<path d="M17.641 23.3543C17.7347 23.3543 17.7972 23.2762 17.766 23.1772L16.6774 17.0575H16.6149L15.5941 23.2033C15.5628 23.3022 15.6253 23.3543 15.6878 23.3543H17.641ZM18.0732 24.9012C18.042 24.7762 17.9482 24.6772 17.7972 24.6772H15.5003C15.4066 24.6772 15.3441 24.7502 15.318 24.8543L14.8493 27.5991C14.818 27.771 14.8805 27.922 15.0055 28.047L15.6878 28.6252C15.8128 28.7502 15.9951 28.8491 15.9951 28.922C15.9951 28.995 15.9326 29.0731 15.7816 29.0731H12.2139C12.0889 29.0731 12.0264 28.995 12.0264 28.922C12.0264 28.8491 12.1514 28.7502 12.2451 28.672L13.1149 27.9741C13.3024 27.8231 13.3337 27.5731 13.3597 27.3491L16.1826 10.5627C16.2139 10.4325 16.2764 10.3335 16.4326 10.3335H17.5785C17.7347 10.3335 17.8285 10.4637 17.8597 10.6095L20.8024 27.3752C20.8337 27.6252 20.9274 27.9012 21.1462 28.047L22.042 28.6981C22.1357 28.771 22.2295 28.8491 22.2295 28.922C22.2295 28.995 22.167 29.0731 22.0107 29.0731H17.5472C17.391 29.0731 17.3285 28.995 17.3285 28.922C17.3285 28.8491 17.4535 28.771 17.5472 28.6981L18.3857 28.0262C18.5107 27.922 18.5732 27.7502 18.5368 27.5262L18.0732 24.9012Z" fill="#B50F00"/>
<path d="M163.282 242.724C163.193 242.724 163.131 242.797 163.162 242.901L164.245 249.021H164.308L165.328 242.875C165.365 242.771 165.302 242.724 165.235 242.724H163.282ZM162.849 241.172C162.881 241.302 162.974 241.401 163.131 241.401H165.427C165.516 241.401 165.578 241.323 165.61 241.224L166.078 238.479C166.104 238.302 166.047 238.151 165.922 238.026L165.235 237.453C165.115 237.328 164.927 237.229 164.927 237.151C164.927 237.078 164.99 237 165.146 237H168.714C168.834 237 168.896 237.078 168.896 237.151C168.896 237.229 168.771 237.328 168.677 237.401L167.813 238.099C167.625 238.25 167.594 238.5 167.563 238.729L164.745 255.516C164.714 255.641 164.651 255.74 164.495 255.74H163.344C163.193 255.74 163.099 255.615 163.068 255.464L160.12 238.703C160.094 238.453 159.995 238.177 159.782 238.026L158.881 237.375C158.787 237.302 158.698 237.229 158.698 237.151C158.698 237.078 158.761 237 158.912 237H163.381C163.532 237 163.594 237.078 163.594 237.151C163.594 237.229 163.469 237.302 163.381 237.375L162.542 238.052C162.417 238.151 162.354 238.328 162.386 238.552L162.849 241.172Z" fill="#B50F00"/>
<path d="M86.9691 102.151C71.9378 74.4737 33.6357 85.1925 33.6357 112.64C33.6357 143.385 73.3493 159.099 86.7607 187.724L86.9691 188.125L87.1722 187.724C100.584 159.099 140.302 143.385 140.302 112.64C140.302 85.1925 101.995 74.4737 86.9691 102.151Z" fill="#B50F00"/>
<path d="M106.615 111.74C101.047 111.74 101.047 103.219 106.615 103.219C112.187 103.219 112.187 111.74 106.615 111.74ZM125.974 115.88C124.88 114.917 123.615 114.125 122.198 113.688C120.781 113.255 119.229 113.255 117.828 113.708C116.672 114.078 115.625 114.74 114.771 115.583C114.839 115.365 114.911 115.141 114.958 114.922C115.568 112.37 115.339 110.323 114.99 109.01C114.687 107.885 114.271 107.307 114.094 107.188C113.672 106.26 113.073 105.438 112.344 104.745C113.109 104.693 113.88 104.729 114.661 104.844C116.047 105.047 117.422 105.5 118.708 106.135C121.281 107.406 123.573 109.411 124.958 112.021C123.865 109.276 121.755 106.943 119.187 105.312C117.896 104.495 116.479 103.849 114.958 103.453C113.453 103.052 111.792 102.917 110.224 103.146L110.25 103.312C109.193 102.807 108.005 102.516 106.755 102.516C102.302 102.516 98.6875 106.078 98.6875 110.469C98.6875 113.375 100.271 115.906 102.625 117.297C101.63 116.995 100.682 116.51 99.8489 115.854C98.3958 114.714 97.2864 113.094 96.8385 111.266C96.375 109.443 96.651 107.443 97.5156 105.708C96.5156 107.365 96.0364 109.385 96.3698 111.359C96.6771 113.328 97.7187 115.182 99.2239 116.568C100.719 117.958 102.714 118.911 104.865 119.036C106.484 119.151 108.151 118.708 109.568 117.917C111.266 117.297 112.682 116.13 113.62 114.63C113.24 115.745 112.672 116.938 111.786 118.036C110.896 119.146 109.661 120.141 108.099 120.74C104.937 121.833 100.49 122.193 96.901 120.047C95.1146 118.995 93.6042 117.359 92.6094 115.365C91.6094 113.37 91.1198 111.031 91.2292 108.63C91.3333 106.229 92.0417 103.766 93.3698 101.542C94.6927 99.3177 96.6354 97.349 99.0208 95.8333C101.411 94.3125 104.219 93.2448 107.224 92.6042C110.224 91.9531 113.354 91.776 116.432 92.2917C119.51 92.7917 122.495 93.9896 125.083 95.8125C127.672 97.6302 129.854 100.052 131.458 102.839C132.964 105.443 133.911 108.281 134.349 111.156C132.833 106.745 129.953 102.839 126.276 100.036C122.031 96.776 116.766 94.8698 111.443 94.7604C108.786 94.7083 106.12 95.1146 103.641 96.0208C101.161 96.9167 98.8854 98.3177 96.9896 100.089C98.9687 98.4062 101.286 97.1302 103.76 96.3542C106.229 95.5781 108.844 95.3021 111.411 95.4688C116.557 95.8073 121.51 97.8854 125.37 101.141C129.24 104.38 131.958 108.88 132.859 113.724C133.427 116.656 133.339 119.656 132.766 122.583C132.776 121.781 132.76 120.984 132.698 120.182C132.292 114.505 129.771 108.979 125.641 105.073C121.557 101.135 115.943 98.8073 110.297 98.8385C107.479 98.8438 104.682 99.4271 102.125 100.531C99.5625 101.63 97.2552 103.229 95.2812 105.141C97.3333 103.313 99.6979 101.828 102.26 100.859C104.823 99.8802 107.568 99.4375 110.286 99.5469C115.729 99.75 120.958 102.219 124.62 106.068C128.323 109.901 130.396 115.083 130.542 120.302C130.635 123.109 130.208 125.896 129.411 128.589C129.724 126.964 129.849 125.302 129.693 123.641C129.437 120.729 128.182 117.839 125.974 115.88ZM94.0677 155.536C92.2135 155.536 92.2135 152.693 94.0677 152.693C95.9271 152.693 95.9271 155.536 94.0677 155.536ZM96.5469 138.943C93.4531 138.943 93.4531 134.208 96.5469 134.208C99.6458 134.208 99.6458 138.943 96.5469 138.943ZM119.5 116.609C122.594 116.609 122.594 121.344 119.5 121.344C116.406 121.344 116.406 116.609 119.5 116.609ZM134.552 101.234C132.724 98.0521 130.203 95.25 127.167 93.1406C124.141 91.0156 120.609 89.6198 117.016 89.0625C113.417 88.4844 109.786 88.7396 106.464 89.4948C103.135 90.2396 99.9427 91.4844 97.1875 93.2917C94.4375 95.0885 92.1667 97.4583 90.6562 100.125C89.1354 102.792 88.3594 105.714 88.3073 108.547C88.25 111.38 88.8958 114.141 90.1667 116.505C91.4323 118.875 93.3594 120.844 95.6198 122.073C97.7656 123.255 100.141 123.734 102.323 123.734V123.792C104.693 123.714 107.068 124.458 109.177 125.667C111.281 126.885 113.135 128.594 114.51 130.63C115.885 132.661 116.771 135.042 116.995 137.516C117.234 139.984 116.802 142.521 115.891 144.87C116.943 142.578 117.557 140.047 117.474 137.484C117.401 134.922 116.646 132.37 115.323 130.13C114.005 127.885 112.156 125.938 109.943 124.469C109.109 123.911 108.208 123.422 107.266 123.021C107.323 123.005 107.38 122.995 107.437 122.979C107.943 122.828 108.432 122.651 108.896 122.443C110.562 121.714 111.865 120.594 112.802 119.401C112.776 119.646 112.76 119.891 112.766 120.135C112.792 120.865 112.99 121.583 113.349 122.219C113.714 122.859 114.219 123.38 114.76 123.854C115.839 124.802 117.271 125.401 118.724 125.365C118.943 125.365 119.167 125.344 119.385 125.312C119.406 125.312 119.427 125.312 119.443 125.312C121.833 125.312 123.807 123.604 124.198 121.359C124.641 122.083 124.995 122.865 125.25 123.698C125.823 125.589 125.917 127.646 125.75 129.661C126.151 127.677 126.312 125.599 125.948 123.536C125.766 122.505 125.448 121.484 124.964 120.526C124.693 119.979 124.359 119.464 123.984 118.974C123.323 117.12 121.552 115.786 119.443 115.786C116.776 115.786 114.609 117.917 114.609 120.552C114.609 122.781 116.177 124.646 118.276 125.161C117.036 125.047 115.859 124.479 114.943 123.651C114.437 123.182 113.958 122.661 113.635 122.068C113.312 121.474 113.141 120.802 113.13 120.125C113.12 119.63 113.198 119.141 113.339 118.667C113.781 118 114.13 117.323 114.396 116.661C114.458 116.578 114.521 116.495 114.589 116.417C115.479 115.375 116.672 114.594 117.984 114.203C119.297 113.807 120.719 113.833 122.016 114.255C123.318 114.667 124.5 115.443 125.448 116.422C127.375 118.365 128.339 121.052 128.406 123.724C128.49 126.411 127.786 129.083 126.698 131.568C125.901 133.359 124.922 135.057 123.812 136.682C123.88 136.099 123.932 135.516 123.943 134.932C124.005 132.047 123.391 129.125 121.911 126.693C123.099 129.266 123.349 132.146 122.984 134.859C122.797 136.224 122.453 137.552 121.953 138.818C121.849 139.083 121.734 139.344 121.615 139.599C121.292 140 120.958 140.396 120.62 140.786C120.891 139.573 121.042 138.339 121.042 137.104C121.036 135.073 120.641 133.036 119.771 131.208C118.906 129.38 117.542 127.807 115.891 126.693C117.448 127.938 118.646 129.578 119.328 131.396C120.021 133.203 120.234 135.161 120.083 137.073C119.932 138.979 119.422 140.854 118.609 142.568C118.458 142.885 118.286 143.193 118.12 143.495C117.714 143.906 117.312 144.312 116.901 144.708L116.958 144.76C115.635 146.01 114.323 147.224 113.052 148.417C112.609 148.828 112.172 149.234 111.734 149.641C111.896 149.349 112.078 149.068 112.234 148.766C112.646 147.984 113.068 147.141 113.401 146.25C113.734 145.37 113.995 144.448 114.172 143.5C114.901 139.729 114.234 135.521 111.979 132.031C110.854 130.297 109.365 128.792 107.609 127.698C105.865 126.594 103.865 125.922 101.854 125.729C99.8489 125.521 97.8489 125.781 96.0364 126.318C94.2187 126.849 92.5 127.661 91.0417 128.771C89.5833 129.88 88.4062 131.297 87.6614 132.854C86.9114 134.411 86.5885 136.089 86.6562 137.693C86.7239 139.302 87.1771 140.839 87.9635 142.135C88.7448 143.432 89.8802 144.484 91.1719 145.099C92.4583 145.729 93.8698 145.917 95.125 145.812C95.7552 145.76 96.3542 145.646 96.9219 145.484C97.1979 145.406 97.4739 145.318 97.7344 145.224C98.0104 145.125 98.276 145.01 98.526 144.875C99.5312 144.349 100.281 143.563 100.76 142.76C101.245 141.958 101.49 141.151 101.62 140.422C101.865 138.958 101.667 137.807 101.427 137.078C101.182 136.339 100.88 136.026 100.828 136.062V136.073C100.047 134.484 98.4062 133.38 96.4948 133.38C93.8229 133.38 91.6614 135.516 91.6614 138.146C91.6614 140.776 93.8229 142.911 96.4948 142.911C98.4739 142.911 100.167 141.74 100.917 140.062C100.896 140.135 100.891 140.198 100.875 140.271C100.703 140.922 100.427 141.625 99.9687 142.286C99.5156 142.943 98.8646 143.542 98.026 143.932C96.3177 144.661 93.8646 145.01 91.8073 143.917C90.7812 143.38 89.8906 142.505 89.2708 141.406C88.651 140.313 88.2969 139.005 88.276 137.646C88.25 136.286 88.5573 134.87 89.2135 133.568C89.8646 132.26 90.875 131.083 92.1406 130.151C93.4114 129.214 94.9271 128.516 96.5625 128.057C98.2031 127.589 99.9271 127.385 101.651 127.573C103.365 127.75 105.057 128.333 106.552 129.276C108.047 130.219 109.339 131.521 110.323 133.042C112.302 136.094 112.917 139.818 112.286 143.177C112.135 144.021 111.911 144.844 111.62 145.635C111.333 146.427 110.964 147.177 110.568 147.958C110.495 148.099 110.411 148.229 110.333 148.37C110.786 145.443 110.703 142.448 109.99 139.583C109.208 136.458 107.531 133.354 104.714 131.568C103.323 130.677 101.708 130.177 100.089 130.047C98.4635 129.917 96.8333 130.125 95.2812 130.526C96.8542 130.203 98.4792 130.073 100.062 130.286C101.641 130.49 103.167 131.047 104.443 131.958C107.026 133.781 108.453 136.781 109.052 139.792C109.651 142.833 109.516 146.01 108.776 148.995C108.391 150.5 107.849 151.979 107.115 153.328C106.974 153.505 106.839 153.688 106.698 153.859C107.229 152.052 107.5 150.193 107.495 148.333C107.49 146.297 107.161 144.26 106.458 142.359C105.755 140.458 104.646 138.708 103.187 137.328C104.531 138.823 105.469 140.62 106 142.505C106.536 144.396 106.687 146.37 106.536 148.302C106.385 150.234 105.937 152.146 105.193 153.906C104.75 154.922 104.198 155.932 103.516 156.755C103.63 155.677 103.542 154.557 103.24 153.474C103.703 152.786 103.906 152.01 104.089 151.281C104.307 150.313 104.401 149.344 104.422 148.37C104.437 147.401 104.365 146.422 104.177 145.474C103.974 144.536 103.672 143.557 102.969 142.875C103.609 143.609 103.818 144.583 103.937 145.51C104.047 146.453 104.036 147.406 103.937 148.344C103.844 149.281 103.672 150.214 103.391 151.099C103.245 151.547 103.078 152 102.859 152.406C102.661 151.948 102.432 151.495 102.151 151.073C101.516 150.115 100.682 149.292 99.7083 148.698C98.7344 148.099 97.625 147.74 96.5156 147.641C95.401 147.536 94.3021 147.698 93.3021 148C92.3021 148.307 91.3594 148.766 90.5573 149.391C89.7604 150.016 89.1198 150.802 88.7187 151.667C88.3125 152.536 88.1458 153.464 88.1927 154.354C88.2396 155.24 88.5 156.089 88.9427 156.802C89.3802 157.516 90.0156 158.094 90.7344 158.427C91.4479 158.766 92.2239 158.859 92.9219 158.797C93.2708 158.76 93.5989 158.693 93.9114 158.604C94.0625 158.562 94.2135 158.51 94.3594 158.458C94.5104 158.401 94.6562 158.333 94.7917 158.255C95.3489 157.958 95.7552 157.521 96.0156 157.078C96.2396 156.698 96.3542 156.323 96.4271 155.969C96.5937 155.63 96.6875 155.25 96.6875 154.854C96.6875 153.391 95.4896 152.208 94.0104 152.208C92.5312 152.208 91.3333 153.391 91.3333 154.854C91.3333 156.312 92.5312 157.49 94.0104 157.49C94.4687 157.49 94.8906 157.37 95.2656 157.172C95.0573 157.391 94.8177 157.594 94.5104 157.74C93.5729 158.151 92.2187 158.359 91.0781 157.766C90.5104 157.474 90.0104 156.995 89.6614 156.396C89.3073 155.792 89.1042 155.068 89.0833 154.312C89.0625 153.568 89.2239 152.776 89.5781 152.052C89.9323 151.328 90.4844 150.672 91.1719 150.146C91.8698 149.62 92.7031 149.224 93.6042 148.958C94.5052 148.693 95.4583 148.568 96.4114 148.661C97.3646 148.75 98.3021 149.063 99.1302 149.578C99.9635 150.089 100.687 150.802 101.24 151.641C102.229 153.13 102.542 157.672 99.8958 161.318C99.9531 161.021 100.01 160.714 100.047 160.417C100.24 158.932 100.198 157.427 99.8646 155.984C99.6979 155.266 99.4583 154.562 99.125 153.906C98.7864 153.255 98.3594 152.625 97.75 152.208C98.3073 152.688 98.6458 153.344 98.901 154C99.1562 154.667 99.3073 155.365 99.3906 156.068C99.5521 157.469 99.4375 158.891 99.1042 160.245C98.7864 161.536 98.2708 162.766 97.6146 163.911C97.4531 164.104 97.2969 164.297 97.151 164.49C97.2708 163.552 97.2708 162.604 97.1042 161.682C97.0104 161.167 96.8646 160.667 96.6562 160.188C96.4375 159.729 96.1927 159.24 95.7604 158.943C96.1458 159.286 96.3333 159.781 96.4896 160.25C96.6354 160.734 96.7135 161.229 96.75 161.729C96.8125 162.724 96.6771 163.714 96.4062 164.661C96.2344 165.25 95.9948 165.812 95.7292 166.359C95.4948 166.677 95.2552 167 95.026 167.312C95.0052 167.328 94.9896 167.354 94.9687 167.375L94.9792 167.38C94.7187 167.734 94.4792 168.083 94.2344 168.432C94.3958 167.651 94.5312 166.865 94.5781 166.073C94.6094 165.573 94.6146 165.073 94.5469 164.578C94.4792 164.089 94.3646 163.568 94.0104 163.203C94.3281 163.594 94.3958 164.104 94.4271 164.583C94.4531 165.073 94.4062 165.568 94.3385 166.047C94.2031 167.016 93.9531 167.969 93.6562 168.901C93.5677 169.172 93.4635 169.438 93.3646 169.703C89.0156 176.234 87.3437 181.047 86.8333 183.219C89.9531 177.635 89.9271 178.036 91.7969 175.13C94.5 170.911 97.9323 167.089 104.214 160.573C105.781 158.943 113.047 152.219 115.078 150.417C119.094 146.812 123.49 143.026 127.583 138.37C128.089 137.792 128.583 137.193 129.068 136.583L129.135 136.62C129.187 136.516 129.234 136.406 129.286 136.302C130.667 134.542 131.969 132.682 133.161 130.745C133.99 129.411 134.849 127.964 135.542 126.432C136.24 124.911 136.812 123.312 137.24 121.667C138.969 115.094 138.24 107.62 134.552 101.234Z" fill="white"/>
<path d="M67.3803 103.219C72.8594 103.219 72.8594 111.74 67.3803 111.74C61.9063 111.74 61.9063 103.219 67.3803 103.219ZM44.6928 123.641C44.5417 125.302 44.6667 126.964 44.974 128.589C44.1876 125.896 43.7709 123.109 43.8646 120.302C44.0053 115.083 46.0417 109.901 49.6824 106.068C53.2865 102.219 58.4219 99.75 63.7761 99.5469C66.4428 99.4375 69.1459 99.8802 71.6615 100.859C74.1824 101.828 76.5053 103.313 78.5261 105.141C76.5886 103.229 74.3178 101.63 71.7969 100.531C69.2865 99.4271 66.5313 98.8438 63.7605 98.8385C58.2136 98.8073 52.698 101.135 48.6771 105.073C44.6199 108.979 42.1459 114.505 41.7449 120.182C41.6824 120.984 41.6667 121.781 41.6771 122.583C41.1146 119.656 41.0261 116.656 41.5834 113.724C42.4688 108.88 45.1407 104.38 48.948 101.141C52.7396 97.8854 57.6094 95.8073 62.6667 95.4688C65.1928 95.3021 67.7605 95.5781 70.1928 96.3542C72.6199 97.1302 74.9011 98.4062 76.849 100.089C74.9792 98.3177 72.7396 96.9167 70.3074 96.0208C67.8699 95.1146 65.2501 94.7083 62.6407 94.7604C57.4063 94.8698 52.2292 96.776 48.0521 100.036C44.4376 102.839 41.6094 106.745 40.1199 111.156C40.5469 108.281 41.4792 105.443 42.9636 102.839C44.5365 100.052 46.6824 97.6302 49.2292 95.8125C51.7709 93.9896 54.7032 92.7917 57.7292 92.2917C60.7605 91.776 63.8334 91.9531 66.7865 92.6042C69.7396 93.2448 72.5001 94.3125 74.849 95.8333C77.1928 97.349 79.1042 99.3177 80.4011 101.542C81.7084 103.766 82.4063 106.229 82.5105 108.63C82.6146 111.031 82.1355 113.37 81.1511 115.365C80.1719 117.359 78.6876 118.995 76.9324 120.047C73.4063 122.193 69.0313 121.833 65.9219 120.74C64.3855 120.141 63.1771 119.146 62.2969 118.036C61.4271 116.938 60.8699 115.745 60.4949 114.63C61.4167 116.13 62.8178 117.297 64.4844 117.917C65.8751 118.708 67.5105 119.151 69.1042 119.036C71.2188 118.911 73.1824 117.958 74.6511 116.568C76.1251 115.182 77.1511 113.328 77.4532 111.359C77.7813 109.385 77.3126 107.365 76.3282 105.708C77.1771 107.443 77.448 109.443 76.9949 111.266C76.5521 113.094 75.4584 114.714 74.0313 115.854C73.2136 116.51 72.2813 116.995 71.3021 117.297C73.6199 115.906 75.1771 113.375 75.1771 110.469C75.1771 106.078 71.6251 102.516 67.2449 102.516C66.0157 102.516 64.849 102.807 63.8126 103.312L63.8386 103.146C62.2917 102.917 60.6615 103.052 59.1824 103.453C57.6876 103.849 56.2917 104.495 55.0261 105.312C52.5001 106.943 50.4219 109.276 49.3542 112.021C50.7084 109.411 52.9688 107.406 55.4949 106.135C56.7605 105.5 58.1094 105.047 59.474 104.844C60.2449 104.729 61.0001 104.693 61.7501 104.745C61.0313 105.438 60.448 106.26 60.0313 107.188C59.8542 107.307 59.448 107.885 59.1511 109.01C58.8074 110.323 58.5834 112.37 59.1771 114.922C59.2292 115.141 59.2969 115.365 59.3646 115.583C58.5261 114.74 57.5001 114.078 56.3594 113.708C54.9792 113.255 53.4532 113.255 52.0678 113.688C50.6719 114.125 49.4271 114.917 48.349 115.88C46.1771 117.839 44.948 120.729 44.6928 123.641ZM79.7188 152.693C81.5417 152.693 81.5417 155.536 79.7188 155.536C77.8907 155.536 77.8907 152.693 79.7188 152.693ZM77.2761 134.208C80.323 134.208 80.323 138.943 77.2761 138.943C74.2344 138.943 74.2344 134.208 77.2761 134.208ZM54.7188 121.344C51.6719 121.344 51.6719 116.609 54.7188 116.609C57.7605 116.609 57.7605 121.344 54.7188 121.344ZM37.2761 121.667C37.698 123.312 38.2605 124.911 38.948 126.432C39.6251 127.964 40.474 129.411 41.2865 130.745C42.4636 132.682 43.7396 134.542 45.099 136.302C45.1459 136.406 45.1928 136.516 45.2449 136.62L45.3126 136.583C45.7865 137.193 46.2761 137.792 46.7709 138.37C50.7969 143.026 55.1146 146.812 59.0678 150.417C61.0574 152.219 68.2032 158.943 69.7449 160.573C75.9219 167.089 79.2917 170.911 81.948 175.13C83.7865 178.036 83.7605 177.635 86.8282 183.219C86.323 181.047 84.6824 176.234 80.4063 169.703C80.3126 169.438 80.2084 169.172 80.1251 168.901C79.8282 167.969 79.5834 167.016 79.4532 166.047C79.3855 165.568 79.3386 165.073 79.3646 164.583C79.3959 164.104 79.4584 163.594 79.7761 163.203C79.4271 163.568 79.3178 164.089 79.2449 164.578C79.1824 165.073 79.1876 165.573 79.2136 166.073C79.2657 166.865 79.3959 167.651 79.5521 168.432C79.3126 168.083 79.0782 167.734 78.823 167.38L78.8334 167.375C78.8126 167.354 78.7917 167.328 78.7761 167.312C78.5521 167 78.3178 166.677 78.0834 166.359C77.823 165.812 77.5886 165.25 77.4219 164.661C77.1511 163.714 77.0209 162.724 77.0834 161.729C77.1146 161.229 77.198 160.734 77.3386 160.25C77.4949 159.781 77.6719 159.286 78.0521 158.943C77.6303 159.24 77.3855 159.729 77.1719 160.188C76.9688 160.667 76.823 161.167 76.7292 161.682C76.5678 162.604 76.5678 163.552 76.6928 164.49C76.5417 164.297 76.3855 164.104 76.2292 163.911C75.5834 162.766 75.0782 161.536 74.7657 160.245C74.4428 158.891 74.323 157.469 74.4844 156.068C74.5678 155.365 74.7136 154.667 74.9636 154C75.2188 153.344 75.5521 152.688 76.099 152.208C75.5001 152.625 75.0782 153.255 74.7501 153.906C74.4167 154.562 74.1824 155.266 74.0157 155.984C73.6928 157.427 73.6511 158.932 73.8386 160.417C73.8751 160.714 73.9324 161.021 73.9896 161.318C71.3907 157.672 71.698 153.13 72.6667 151.641C73.2136 150.802 73.9219 150.089 74.7396 149.578C75.5574 149.063 76.4792 148.75 77.4115 148.661C78.349 148.568 79.2865 148.693 80.1719 148.958C81.0574 149.224 81.8803 149.62 82.5626 150.146C83.2449 150.672 83.7813 151.328 84.1303 152.052C84.4792 152.776 84.6407 153.568 84.6146 154.312C84.5938 155.068 84.3959 155.792 84.0469 156.396C83.7084 156.995 83.2136 157.474 82.6563 157.766C81.5365 158.359 80.2032 158.151 79.2813 157.74C78.9844 157.594 78.7449 157.391 78.5365 157.172C78.9115 157.37 79.3282 157.49 79.7761 157.49C81.2292 157.49 82.4063 156.312 82.4063 154.854C82.4063 153.391 81.2292 152.208 79.7761 152.208C78.323 152.208 77.1407 153.391 77.1407 154.854C77.1407 155.25 77.2396 155.63 77.3959 155.969C77.474 156.323 77.5834 156.698 77.8021 157.078C78.0574 157.521 78.4584 157.958 79.0053 158.255C79.1407 158.333 79.2813 158.401 79.4324 158.458C79.573 158.51 79.7188 158.562 79.8751 158.604C80.1771 158.693 80.5001 158.76 80.8438 158.797C81.5261 158.859 82.2917 158.766 82.9949 158.427C83.7032 158.094 84.3282 157.516 84.7553 156.802C85.1928 156.089 85.448 155.24 85.4949 154.354C85.5417 153.464 85.3751 152.536 84.974 151.667C84.5834 150.802 83.9532 150.016 83.1667 149.391C82.3803 148.766 81.4532 148.307 80.4688 148C79.4896 147.698 78.4063 147.536 77.3126 147.641C76.2188 147.74 75.1303 148.099 74.1719 148.698C73.2136 149.292 72.3959 150.115 71.7761 151.073C71.4949 151.495 71.2709 151.948 71.073 152.406C70.8646 152 70.698 151.547 70.5521 151.099C70.2761 150.214 70.1094 149.281 70.0105 148.344C69.9219 147.406 69.9115 146.453 70.0157 145.51C70.1355 144.583 70.3386 143.609 70.9636 142.875C70.2761 143.557 69.9792 144.536 69.7813 145.474C69.5938 146.422 69.5261 147.401 69.5417 148.37C69.5626 149.344 69.6563 150.313 69.8646 151.281C70.0469 152.01 70.2449 152.786 70.7032 153.474C70.4063 154.557 70.3178 155.677 70.4271 156.755C69.7605 155.932 69.2136 154.922 68.7813 153.906C68.0469 152.146 67.6094 150.234 67.4584 148.302C67.3126 146.37 67.4636 144.396 67.9896 142.505C68.5105 140.62 69.4324 138.823 70.7501 137.328C69.323 138.708 68.2292 140.458 67.5365 142.359C66.8438 144.26 66.5209 146.297 66.5157 148.333C66.5157 150.193 66.7761 152.052 67.3021 153.859C67.1667 153.688 67.0261 153.505 66.8907 153.328C66.1719 151.979 65.6355 150.5 65.2605 148.995C64.5365 146.01 64.3959 142.833 64.9844 139.792C65.573 136.781 66.9792 133.781 69.5157 131.958C70.7709 131.047 72.2709 130.49 73.823 130.286C75.3803 130.073 76.9792 130.203 78.5261 130.526C76.9949 130.125 75.3959 129.917 73.7969 130.047C72.2084 130.177 70.6199 130.677 69.2553 131.568C66.4844 133.354 64.8334 136.458 64.0626 139.583C63.3646 142.448 63.2813 145.443 63.724 148.37C63.6511 148.229 63.573 148.099 63.5001 147.958C63.1042 147.177 62.7449 146.427 62.4584 145.635C62.1771 144.844 61.9532 144.021 61.8074 143.177C61.1876 139.818 61.7917 136.094 63.7396 133.042C64.7032 131.521 65.974 130.219 67.448 129.276C68.9115 128.333 70.5782 127.75 72.2657 127.573C73.9584 127.385 75.6563 127.589 77.2657 128.057C78.8751 128.516 80.3646 129.214 81.6094 130.151C82.8542 131.083 83.849 132.26 84.4896 133.568C85.1355 134.87 85.4376 136.286 85.4115 137.646C85.3907 139.005 85.0417 140.313 84.4324 141.406C83.823 142.505 82.9428 143.38 81.9376 143.917C79.9167 145.01 77.5105 144.661 75.8282 143.932C75.0001 143.542 74.3646 142.943 73.9167 142.286C73.4636 141.625 73.1928 140.922 73.0261 140.271C73.0105 140.198 73.0001 140.135 72.9896 140.062C73.724 141.74 75.3855 142.911 77.3334 142.911C79.9532 142.911 82.0834 140.776 82.0834 138.146C82.0834 135.516 79.9532 133.38 77.3334 133.38C75.4532 133.38 73.8386 134.484 73.073 136.073V136.062C73.0209 136.026 72.724 136.339 72.4844 137.078C72.2501 137.807 72.0521 138.958 72.2969 140.422C72.4219 141.151 72.6615 141.958 73.1355 142.76C73.6094 143.563 74.3438 144.349 75.3334 144.875C75.5834 145.01 75.8438 145.125 76.1094 145.224C76.3699 145.318 76.6407 145.406 76.9167 145.484C77.4688 145.646 78.0574 145.76 78.6824 145.812C79.9115 145.917 81.2917 145.729 82.5678 145.099C83.8334 144.484 84.9532 143.432 85.7188 142.135C86.4949 140.839 86.9376 139.302 87.0053 137.693C87.073 136.089 86.7501 134.411 86.0157 132.854C85.2813 131.297 84.1251 129.88 82.6928 128.771C81.2605 127.661 79.573 126.849 77.7813 126.318C76.0001 125.781 74.0365 125.521 72.0626 125.729C70.0886 125.922 68.1199 126.594 66.4011 127.698C64.6824 128.792 63.2188 130.297 62.1094 132.031C59.8907 135.521 59.2396 139.729 59.9532 143.5C60.1303 144.448 60.3855 145.37 60.7136 146.25C61.0417 147.141 61.4532 147.984 61.8594 148.766C62.0157 149.068 62.1928 149.349 62.349 149.641C61.9219 149.234 61.4896 148.828 61.0574 148.417C59.8074 147.224 58.5157 146.01 57.2136 144.76L57.2709 144.708C56.8646 144.312 56.4688 143.906 56.0782 143.495C55.9063 143.193 55.7396 142.885 55.5886 142.568C54.7917 140.854 54.2917 138.979 54.1459 137.073C53.9949 135.161 54.2032 133.203 54.8855 131.396C55.5574 129.578 56.7344 127.938 58.2657 126.693C56.6407 127.807 55.3021 129.38 54.4532 131.208C53.5938 133.036 53.2032 135.073 53.198 137.104C53.198 138.339 53.349 139.573 53.6199 140.786C53.2813 140.396 52.9584 140 52.6355 139.599C52.5209 139.344 52.4115 139.083 52.3074 138.818C51.8178 137.552 51.474 136.224 51.2917 134.859C50.9324 132.146 51.1771 129.266 52.349 126.693C50.8907 129.125 50.2865 132.047 50.349 134.932C50.3646 135.516 50.4115 136.099 50.4792 136.682C49.3907 135.057 48.4219 133.359 47.6407 131.568C46.573 129.083 45.8751 126.411 45.9636 123.724C46.0313 121.052 46.974 118.365 48.8699 116.422C49.8021 115.443 50.9636 114.667 52.2396 114.255C53.5157 113.833 54.9167 113.807 56.2084 114.203C57.4949 114.594 58.6719 115.375 59.5417 116.417C59.6094 116.495 59.6719 116.578 59.7344 116.661C59.9949 117.323 60.3386 118 60.7709 118.667C60.9115 119.141 60.9896 119.63 60.9792 120.125C60.9688 120.802 60.8021 121.474 60.4844 122.068C60.1615 122.661 59.6928 123.182 59.198 123.651C58.2969 124.479 57.1407 125.047 55.9167 125.161C57.9844 124.646 59.5209 122.781 59.5209 120.552C59.5209 117.917 57.3959 115.786 54.7709 115.786C52.7032 115.786 50.9584 117.12 50.3074 118.974C49.9428 119.464 49.6146 119.979 49.3438 120.526C48.8699 121.484 48.5574 122.505 48.3751 123.536C48.0209 125.599 48.1771 127.677 48.573 129.661C48.4115 127.646 48.5053 125.589 49.0678 123.698C49.3126 122.865 49.6667 122.083 50.099 121.359C50.4844 123.604 52.4219 125.312 54.7709 125.312C54.7917 125.312 54.8074 125.312 54.8282 125.312C55.0417 125.344 55.2605 125.365 55.4792 125.365C56.9115 125.401 58.3178 124.802 59.3803 123.854C59.9063 123.38 60.4011 122.859 60.7605 122.219C61.1146 121.583 61.3126 120.865 61.3334 120.135C61.3438 119.891 61.3282 119.646 61.3021 119.401C62.224 120.594 63.5001 121.714 65.1407 122.443C65.599 122.651 66.0782 122.828 66.5782 122.979C66.6303 122.995 66.6876 123.005 66.7449 123.021C65.8178 123.422 64.9324 123.911 64.1094 124.469C61.9376 125.938 60.1199 127.885 58.823 130.13C57.5209 132.37 56.7761 134.922 56.7084 137.484C56.6251 140.047 57.2292 142.578 58.2657 144.87C57.3699 142.521 56.9428 139.984 57.1771 137.516C57.4011 135.042 58.2709 132.661 59.6251 130.63C60.974 128.594 62.7917 126.885 64.8646 125.667C66.9376 124.458 69.2709 123.714 71.6042 123.792V123.734C73.7501 123.734 76.0782 123.255 78.1876 122.073C80.4167 120.844 82.3074 118.875 83.5521 116.505C84.8021 114.141 85.4376 111.38 85.3803 108.547C85.3334 105.714 84.5678 102.792 83.073 100.125C81.5834 97.4583 79.349 95.0885 76.6511 93.2917C73.9428 91.4844 70.8074 90.2396 67.5313 89.4948C64.2657 88.7396 60.6928 88.4844 57.1615 89.0625C53.6251 89.6198 50.1511 91.0156 47.1771 93.1406C44.198 95.25 41.7188 98.0521 39.9167 101.234C36.2969 107.62 35.5782 115.094 37.2761 121.667Z" fill="white"/>
<path d="M96.3757 123.583C92.1934 123.583 86.8079 127.13 86.8079 129.896C86.8079 127.13 81.4277 123.583 77.2402 123.583C81.4277 123.583 86.8079 118.182 86.8079 115.417C86.8079 118.182 92.1934 123.583 96.3757 123.583Z" fill="white"/>
<path d="M93.1725 147.182C90.3861 147.182 86.9694 149.609 86.8079 152.474C86.9694 149.609 83.2246 147.182 80.4434 147.182C83.2246 147.182 86.8079 144.953 86.8079 143C86.8079 144.953 90.3861 147.182 93.1725 147.182Z" fill="white"/>
<path d="M92.9844 161.047C90.1979 161.047 86.776 176.318 86.6146 179.187C86.776 176.318 83.0365 161.047 80.25 161.047C83.0365 161.047 86.6198 158.818 86.6146 156.87C86.6198 158.818 90.1979 161.047 92.9844 161.047Z" fill="white"/>
<defs>
<linearGradient id="paint0_linear_148_4348" x1="27.5178" y1="277.997" x2="150.91" y2="-11.3285" gradientUnits="userSpaceOnUse">
<stop stop-color="#E7E1D0"/>
<stop offset="0.015625" stop-color="#E7E1D0"/>
<stop offset="0.0195313" stop-color="#E7E2D1"/>
<stop offset="0.0234375" stop-color="#E8E2D2"/>
<stop offset="0.0273438" stop-color="#E8E2D2"/>
<stop offset="0.03125" stop-color="#E9E3D3"/>
<stop offset="0.0351563" stop-color="#E9E3D3"/>
<stop offset="0.0390625" stop-color="#E9E4D4"/>
<stop offset="0.0429688" stop-color="#EAE4D5"/>
<stop offset="0.046875" stop-color="#EAE5D5"/>
<stop offset="0.0507813" stop-color="#EAE5D6"/>
<stop offset="0.0546875" stop-color="#EBE5D6"/>
<stop offset="0.0585938" stop-color="#EBE6D7"/>
<stop offset="0.0625" stop-color="#EBE6D8"/>
<stop offset="0.0664063" stop-color="#ECE7D8"/>
<stop offset="0.0703125" stop-color="#ECE7D9"/>
<stop offset="0.0742188" stop-color="#ECE7D9"/>
<stop offset="0.078125" stop-color="#ECE8DA"/>
<stop offset="0.0820313" stop-color="#EDE8DA"/>
<stop offset="0.0859375" stop-color="#EDE9DB"/>
<stop offset="0.0898438" stop-color="#EDE9DB"/>
<stop offset="0.09375" stop-color="#EEE9DC"/>
<stop offset="0.0976563" stop-color="#EEEADD"/>
<stop offset="0.101563" stop-color="#EEEADD"/>
<stop offset="0.105469" stop-color="#EFEADE"/>
<stop offset="0.109375" stop-color="#EFEBDE"/>
<stop offset="0.113281" stop-color="#EFEBDF"/>
<stop offset="0.117188" stop-color="#EFECDF"/>
<stop offset="0.121094" stop-color="#F0ECE0"/>
<stop offset="0.125" stop-color="#F0ECE0"/>
<stop offset="0.128906" stop-color="#F0EDE1"/>
<stop offset="0.132813" stop-color="#F1EDE1"/>
<stop offset="0.140625" stop-color="#F1EDE2"/>
<stop offset="0.148438" stop-color="#F1EEE3"/>
<stop offset="0.15625" stop-color="#F2EFE4"/>
<stop offset="0.164063" stop-color="#F3EFE5"/>
<stop offset="0.171875" stop-color="#F3F0E6"/>
<stop offset="0.179688" stop-color="#F4F1E7"/>
<stop offset="0.1875" stop-color="#F4F1E7"/>
<stop offset="0.195313" stop-color="#F5F2E8"/>
<stop offset="0.203125" stop-color="#F5F3E9"/>
<stop offset="0.210938" stop-color="#F6F3EA"/>
<stop offset="0.21875" stop-color="#F6F4EB"/>
<stop offset="0.226563" stop-color="#F6F4EC"/>
<stop offset="0.234375" stop-color="#F7F5EC"/>
<stop offset="0.242188" stop-color="#F7F5ED"/>
<stop offset="0.25" stop-color="#F8F6EE"/>
<stop offset="0.257813" stop-color="#F8F6EF"/>
<stop offset="0.265625" stop-color="#F9F7EF"/>
<stop offset="0.273438" stop-color="#F9F7F0"/>
<stop offset="0.28125" stop-color="#F9F8F1"/>
<stop offset="0.289062" stop-color="#FAF8F1"/>
<stop offset="0.296875" stop-color="#FAF9F2"/>
<stop offset="0.304688" stop-color="#FAF9F3"/>
<stop offset="0.3125" stop-color="#FBFAF3"/>
<stop offset="0.320313" stop-color="#FBFAF4"/>
<stop offset="0.328125" stop-color="#FBFAF4"/>
<stop offset="0.335938" stop-color="#FCFBF5"/>
<stop offset="0.34375" stop-color="#FCFBF5"/>
<stop offset="0.359375" stop-color="#FCFCF6"/>
<stop offset="0.375" stop-color="#FDFCF7"/>
<stop offset="0.390625" stop-color="#FDFDF8"/>
<stop offset="0.40625" stop-color="#FEFDF9"/>
<stop offset="0.421875" stop-color="#FEFEF9"/>
<stop offset="0.4375" stop-color="#FEFEFA"/>
<stop offset="0.5" stop-color="#FFFFFB"/>
<stop offset="0.5625" stop-color="#FFFFFB"/>
<stop offset="0.59375" stop-color="#FFFFFA"/>
<stop offset="0.625" stop-color="#FEFEFA"/>
<stop offset="0.640625" stop-color="#FEFEF9"/>
<stop offset="0.65625" stop-color="#FEFDF9"/>
<stop offset="0.671875" stop-color="#FDFDF8"/>
<stop offset="0.6875" stop-color="#FDFCF7"/>
<stop offset="0.703125" stop-color="#FCFCF6"/>
<stop offset="0.71875" stop-color="#FCFBF6"/>
<stop offset="0.726563" stop-color="#FCFBF5"/>
<stop offset="0.734375" stop-color="#FBFAF4"/>
<stop offset="0.742187" stop-color="#FBFAF4"/>
<stop offset="0.75" stop-color="#FBF9F3"/>
<stop offset="0.757813" stop-color="#FAF9F2"/>
<stop offset="0.765625" stop-color="#FAF9F2"/>
<stop offset="0.773438" stop-color="#F9F8F1"/>
<stop offset="0.78125" stop-color="#F9F8F0"/>
<stop offset="0.789063" stop-color="#F9F7F0"/>
<stop offset="0.796875" stop-color="#F8F6EF"/>
<stop offset="0.804688" stop-color="#F8F6EE"/>
<stop offset="0.8125" stop-color="#F7F5ED"/>
<stop offset="0.820313" stop-color="#F7F5EC"/>
<stop offset="0.828125" stop-color="#F6F4EB"/>
<stop offset="0.835937" stop-color="#F6F3EA"/>
<stop offset="0.839844" stop-color="#F5F3E9"/>
<stop offset="0.84375" stop-color="#F5F2E9"/>
<stop offset="0.847656" stop-color="#F5F2E8"/>
<stop offset="0.851563" stop-color="#F4F2E8"/>
<stop offset="0.855469" stop-color="#F4F1E7"/>
<stop offset="0.859375" stop-color="#F4F1E7"/>
<stop offset="0.863281" stop-color="#F3F0E6"/>
<stop offset="0.867188" stop-color="#F3F0E6"/>
<stop offset="0.871094" stop-color="#F3F0E5"/>
<stop offset="0.875" stop-color="#F2EFE4"/>
<stop offset="0.878906" stop-color="#F2EFE4"/>
<stop offset="0.882813" stop-color="#F2EEE3"/>
<stop offset="0.886719" stop-color="#F1EEE3"/>
<stop offset="0.890625" stop-color="#F1EEE2"/>
<stop offset="0.894531" stop-color="#F1EDE1"/>
<stop offset="0.898438" stop-color="#F0EDE1"/>
<stop offset="0.902344" stop-color="#F0ECE0"/>
<stop offset="0.90625" stop-color="#F0ECE0"/>
<stop offset="0.910156" stop-color="#EFEBDF"/>
<stop offset="0.914063" stop-color="#EFEBDE"/>
<stop offset="0.917969" stop-color="#EFEADD"/>
<stop offset="0.921875" stop-color="#EEEADD"/>
<stop offset="0.925781" stop-color="#EEE9DC"/>
<stop offset="0.929687" stop-color="#EDE9DB"/>
<stop offset="0.933594" stop-color="#EDE8DB"/>
<stop offset="0.9375" stop-color="#EDE8DA"/>
<stop offset="0.941406" stop-color="#ECE7D9"/>
<stop offset="0.945313" stop-color="#ECE7D8"/>
<stop offset="0.949219" stop-color="#EBE6D8"/>
<stop offset="0.953125" stop-color="#EBE6D7"/>
<stop offset="0.957031" stop-color="#EAE5D6"/>
<stop offset="0.960938" stop-color="#EAE5D5"/>
<stop offset="0.964844" stop-color="#EAE4D5"/>
<stop offset="0.96875" stop-color="#E9E4D4"/>
<stop offset="0.972656" stop-color="#E9E3D3"/>
<stop offset="0.976563" stop-color="#E8E2D2"/>
<stop offset="0.980469" stop-color="#E8E2D1"/>
<stop offset="0.984375" stop-color="#E7E1D0"/>
<stop offset="1" stop-color="#E7E1D0"/>
</linearGradient>
</defs>
</svg>
