<svg width="179" height="268" viewBox="0 0 179 268" fill="none" xmlns="http://www.w3.org/2000/svg">
<path d="M176.01 254.698C175.995 262.058 170.021 268.016 162.661 268L13.3021 267.745C5.94272 267.729 -0.0104024 261.755 1.36476e-05 254.396L0.41668 14.6356C0.432306 7.27103 6.40626 1.3179 13.7656 1.33353L163.13 1.59394C170.484 1.60436 176.443 7.58353 176.427 14.9377L176.01 254.698Z" fill="#C4B78F"/>
<mask id="mask0_148_4441" style="mask-type:luminance" maskUnits="userSpaceOnUse" x="1" y="0" width="178" height="267">
<path d="M1 0H178.333V266.667H1V0Z" fill="white"/>
</mask>
<g mask="url(#mask0_148_4441)">
<mask id="mask1_148_4441" style="mask-type:luminance" maskUnits="userSpaceOnUse" x="1" y="0" width="177" height="267">
<path d="M177.01 253.365C176.995 260.724 171.021 266.682 163.661 266.667L14.3021 266.412C6.94272 266.396 0.989598 260.422 1.00001 253.063L1.41668 13.3021C1.43231 5.93753 7.40626 -0.0155946 14.7656 3.06889e-05L164.13 0.260447C171.484 0.270863 177.443 6.25003 177.427 13.6042L177.01 253.365Z" fill="white"/>
</mask>
<g mask="url(#mask1_148_4441)">
<mask id="mask2_148_4441" style="mask-type:luminance" maskUnits="userSpaceOnUse" x="1" y="0" width="177" height="267">
<path d="M177.01 253.365C176.995 260.724 171.021 266.682 163.661 266.667L14.3021 266.412C6.94272 266.396 0.989598 260.422 1.00001 253.063L1.41668 13.3021C1.43231 5.93753 7.40626 -0.0155946 14.7656 3.06889e-05L164.13 0.260447C171.484 0.270863 177.443 6.25003 177.427 13.6042L177.01 253.365Z" fill="white"/>
</mask>
<g mask="url(#mask2_148_4441)">
<path d="M-95.25 225.641L150.286 330.354L273.677 41.0312L28.1406 -63.6875L-95.25 225.641Z" fill="url(#paint0_linear_148_4441)"/>
</g>
</g>
</g>
<path d="M22.0312 47.0312C22.0312 42.4062 16.0625 40.0469 14.0521 35.7448L14.0208 35.6875L13.9896 35.7448C11.974 40.0469 6.00521 42.401 6 47.026C6 50.8906 11.1094 52.3854 13.6042 49.151C13.6615 48.9844 13.599 50.1771 13.4323 50.849C12.8333 52.8333 10.6823 55.724 9.63542 56.6198C11.0833 55.3802 16.9427 55.3802 18.3906 56.625C17.3438 55.724 15.2969 52.9375 14.599 50.849C14.4531 50.2708 14.3698 49.6875 14.3281 49.1042C16.7604 52.6146 22.0312 50.974 22.0312 47.0312Z" fill="black"/>
<path d="M162.328 216.536C162.37 215.953 162.453 215.37 162.599 214.792C163.297 212.703 165.344 209.917 166.391 209.016C164.943 210.26 159.083 210.26 157.635 209.021C158.682 209.917 160.833 212.807 161.432 214.792C161.599 215.464 161.661 216.651 161.604 216.49C159.109 213.255 154 214.75 154 218.62C154.005 223.24 159.974 225.594 161.99 229.896L162.021 229.958L162.052 229.896C164.062 225.594 170.031 223.234 170.031 218.609C170.031 214.667 164.76 213.026 162.328 216.536Z" fill="black"/>
<path d="M15.2549 23.0208C15.3486 23.0208 15.4111 22.9427 15.3799 22.8438L14.2913 16.724H14.2288L13.208 22.8698C13.1768 22.9688 13.2393 23.0208 13.3018 23.0208H15.2549ZM15.6872 24.5677C15.6559 24.4427 15.5622 24.3438 15.4111 24.3438H13.1143C13.0205 24.3438 12.958 24.4167 12.932 24.5208L12.4632 27.2656C12.432 27.4375 12.4945 27.5885 12.6195 27.7135L13.3018 28.2917C13.4268 28.4167 13.609 28.5156 13.609 28.5885C13.609 28.6615 13.5466 28.7396 13.3955 28.7396H9.8278C9.7028 28.7396 9.64551 28.6615 9.64551 28.5885C9.64551 28.5156 9.7653 28.4167 9.85905 28.3385L10.7288 27.6406C10.9163 27.4896 10.9424 27.2396 10.9788 27.0156L13.7965 10.2292C13.8278 10.099 13.8903 10 14.0465 10H15.1924C15.3486 10 15.4372 10.1302 15.4736 10.276L18.4163 27.0417C18.4476 27.2917 18.5413 27.5677 18.7601 27.7135L19.6559 28.3646C19.7497 28.4375 19.8434 28.5156 19.8434 28.5885C19.8434 28.6615 19.7809 28.7396 19.6247 28.7396H15.1611C15.0049 28.7396 14.9424 28.6615 14.9424 28.5885C14.9424 28.5156 15.0674 28.4375 15.1611 28.3646L15.9997 27.6927C16.1195 27.5885 16.182 27.4167 16.1559 27.1927L15.6872 24.5677Z" fill="black"/>
<path d="M160.901 242.39C160.807 242.39 160.745 242.463 160.776 242.568L161.859 248.687H161.922L162.943 242.542C162.979 242.437 162.917 242.39 162.854 242.39H160.901ZM160.464 240.838C160.495 240.969 160.589 241.068 160.745 241.068H163.042C163.13 241.068 163.193 240.989 163.224 240.89L163.693 238.146C163.719 237.969 163.656 237.818 163.536 237.693L162.854 237.12C162.729 236.995 162.542 236.896 162.542 236.818C162.542 236.745 162.604 236.667 162.76 236.667H166.323C166.448 236.667 166.51 236.745 166.51 236.818C166.51 236.896 166.385 236.995 166.292 237.068L165.427 237.765C165.24 237.917 165.208 238.167 165.177 238.396L162.359 255.182C162.323 255.307 162.266 255.406 162.109 255.406H160.958C160.807 255.406 160.714 255.281 160.682 255.13L157.734 238.37C157.708 238.12 157.609 237.844 157.396 237.693L156.495 237.042C156.401 236.969 156.312 236.896 156.312 236.818C156.312 236.745 156.375 236.667 156.526 236.667H160.99C161.146 236.667 161.208 236.745 161.208 236.818C161.208 236.896 161.083 236.969 160.99 237.042L160.156 237.719C160.031 237.818 159.969 237.995 160 238.219L160.464 240.838Z" fill="black"/>
<path d="M137.364 139.396C137.364 110.567 100.13 95.8382 87.557 69.0049L87.3643 68.6299L87.1716 69.0049C74.5986 95.8382 37.3643 110.567 37.3643 139.396C37.3643 163.515 69.2601 172.833 84.807 152.646C85.1403 151.619 84.7757 159.062 83.7288 163.244C79.9997 175.635 66.583 193.661 60.057 199.265C69.0882 191.51 105.646 191.51 114.672 199.265C108.151 193.661 95.3799 176.26 90.9945 163.239C90.0986 159.635 89.557 156.005 89.3226 152.364C104.5 174.25 137.364 164.01 137.364 139.396Z" fill="black"/>
<path d="M106.214 148.479C100.87 148.479 100.87 140.307 106.214 140.307C111.557 140.307 111.557 148.479 106.214 148.479ZM128.349 128.89C128.5 127.297 128.375 125.703 128.073 124.146C128.839 126.729 129.25 129.401 129.156 132.094C129.021 137.099 127.036 142.068 123.479 145.745C119.969 149.437 114.953 151.807 109.729 152C107.125 152.104 104.49 151.682 102.036 150.745C99.5729 149.812 97.3125 148.385 95.3385 146.64C97.2291 148.474 99.4427 150.005 101.901 151.057C104.359 152.114 107.042 152.677 109.745 152.682C115.156 152.713 120.542 150.479 124.458 146.703C128.422 142.953 130.839 137.656 131.224 132.208C131.286 131.437 131.302 130.672 131.292 129.906C131.844 132.713 131.927 135.588 131.38 138.406C130.516 143.047 127.911 147.364 124.198 150.474C120.495 153.594 115.745 155.588 110.812 155.911C108.349 156.073 105.844 155.807 103.474 155.062C101.099 154.323 98.875 153.099 96.9791 151.479C98.7969 153.182 100.984 154.521 103.359 155.385C105.734 156.25 108.292 156.646 110.839 156.594C115.943 156.489 120.995 154.656 125.068 151.531C128.599 148.844 131.359 145.099 132.812 140.87C132.396 143.625 131.484 146.344 130.042 148.844C128.5 151.515 126.406 153.844 123.922 155.583C121.443 157.333 118.578 158.484 115.625 158.963C112.672 159.453 109.672 159.286 106.792 158.656C103.911 158.047 101.219 157.021 98.9323 155.562C96.6406 154.109 94.776 152.219 93.5052 150.083C92.2291 147.953 91.5521 145.588 91.4531 143.286C91.3489 140.984 91.8177 138.739 92.776 136.828C93.7291 134.917 95.1823 133.349 96.8958 132.344C100.333 130.276 104.604 130.625 107.635 131.677C109.13 132.25 110.318 133.203 111.172 134.265C112.021 135.318 112.562 136.469 112.932 137.536C112.036 136.099 110.667 134.979 109.042 134.38C107.682 133.62 106.089 133.198 104.531 133.312C102.469 133.427 100.552 134.344 99.1198 135.677C97.6771 137.005 96.6823 138.781 96.3802 140.672C96.0625 142.562 96.5208 144.5 97.4844 146.088C96.6562 144.427 96.3854 142.51 96.8333 140.755C97.2656 139.005 98.3281 137.453 99.7239 136.359C100.516 135.734 101.432 135.26 102.385 134.979C100.125 136.312 98.6041 138.739 98.6041 141.526C98.6041 145.739 102.073 149.151 106.344 149.151C107.547 149.151 108.682 148.875 109.698 148.396L109.672 148.547C111.177 148.765 112.771 148.635 114.214 148.255C115.667 147.875 117.031 147.255 118.271 146.474C120.729 144.906 122.76 142.667 123.807 140.036C122.479 142.536 120.276 144.463 117.812 145.687C116.573 146.297 115.26 146.724 113.927 146.922C113.177 147.036 112.437 147.062 111.708 147.021C112.406 146.354 112.979 145.562 113.385 144.677C113.557 144.557 113.953 144 114.245 142.922C114.578 141.667 114.797 139.703 114.214 137.25C114.167 137.047 114.099 136.828 114.036 136.62C114.854 137.427 115.859 138.062 116.964 138.417C118.312 138.849 119.802 138.854 121.156 138.437C122.516 138.021 123.729 137.26 124.781 136.333C126.896 134.458 128.104 131.682 128.349 128.89ZM94.1771 101.026C92.3958 101.026 92.3958 98.3019 94.1771 98.3019C95.9583 98.3019 95.9583 101.026 94.1771 101.026ZM96.5573 118.755C93.5885 118.755 93.5885 114.213 96.5573 114.213C99.526 114.213 99.526 118.755 96.5573 118.755ZM118.568 131.094C121.542 131.094 121.542 135.635 118.568 135.635C115.599 135.635 115.599 131.094 118.568 131.094ZM135.589 130.786C135.177 129.203 134.625 127.672 133.953 126.208C133.292 124.745 132.469 123.359 131.672 122.078C130.526 120.219 129.281 118.432 127.953 116.75C127.906 116.646 127.865 116.542 127.812 116.437L127.75 116.474C127.281 115.89 126.807 115.318 126.323 114.765C122.396 110.302 118.177 106.667 114.328 103.203C112.38 101.479 105.411 95.0259 103.906 93.4686C97.8802 87.2134 94.5937 83.5519 91.9948 79.505C90.2083 76.7186 90.2291 77.0988 87.2396 71.7446C87.7291 73.8228 89.3281 78.4425 93.5 84.7082C93.5989 84.9634 93.6927 85.2186 93.776 85.479C94.0625 86.3696 94.3073 87.2863 94.4375 88.2134C94.5 88.6821 94.5469 89.1509 94.5208 89.6196C94.4896 90.078 94.4271 90.5728 94.1198 90.9425C94.4583 90.5936 94.5677 90.0936 94.6354 89.63C94.6979 89.1509 94.6927 88.6665 94.6666 88.1925C94.6198 87.4321 94.4896 86.6769 94.3333 85.9269C94.5677 86.2603 94.8021 86.5936 95.0469 86.9373L95.0416 86.9425C95.0573 86.9634 95.0781 86.9842 95.0989 87.005C95.3125 87.3019 95.5416 87.6092 95.7708 87.9165C96.026 88.4373 96.2552 88.979 96.4166 89.5415C96.6771 90.453 96.8073 91.4061 96.7448 92.3592C96.7135 92.8384 96.6406 93.3123 96.4948 93.7759C96.3489 94.229 96.1719 94.703 95.7969 95.0311C96.2135 94.7498 96.4479 94.2759 96.6562 93.8332C96.8594 93.3748 96.9948 92.8957 97.0885 92.4009C97.25 91.5207 97.25 90.6092 97.1302 89.7082C97.276 89.8957 97.4271 90.0832 97.5781 90.2655C98.2083 91.3592 98.7031 92.5415 99.0052 93.7811C99.3229 95.0832 99.4375 96.4425 99.2812 97.7915C99.2031 98.4634 99.0521 99.13 98.8125 99.7707C98.5677 100.401 98.2396 101.031 97.7083 101.489C98.2916 101.088 98.7031 100.484 99.026 99.8592C99.3437 99.2342 99.5729 98.5571 99.7344 97.8696C100.052 96.4842 100.099 95.0363 99.9166 93.6196C99.875 93.328 99.8229 93.0363 99.7656 92.7498C102.302 96.2498 102 100.609 101.052 102.036C100.526 102.838 99.8333 103.521 99.0364 104.015C98.2344 104.51 97.3333 104.807 96.4271 104.896C95.5104 104.979 94.5989 104.864 93.7291 104.604C92.8698 104.354 92.0677 103.974 91.401 103.469C90.7344 102.963 90.2083 102.333 89.875 101.64C89.5312 100.943 89.375 100.187 89.3958 99.4686C89.4166 98.7446 89.6094 98.0519 89.9479 97.479C90.2812 96.8957 90.7604 96.4373 91.3073 96.1561C92.401 95.5884 93.6979 95.7915 94.6041 96.1873C94.8906 96.3228 95.125 96.5207 95.3281 96.729C94.9635 96.5363 94.5573 96.4217 94.1198 96.4217C92.7031 96.4217 91.5521 97.5571 91.5521 98.953C91.5521 100.354 92.7031 101.489 94.1198 101.489C95.5416 101.489 96.6927 100.354 96.6927 98.953C96.6927 98.5728 96.5989 98.2082 96.4375 97.88C96.3698 97.5415 96.2604 97.1821 96.0469 96.8228C95.7916 96.3957 95.401 95.9738 94.875 95.6873C94.7396 95.6144 94.5989 95.5519 94.4531 95.4946C94.3177 95.4425 94.1719 95.4009 94.026 95.354C93.7239 95.2655 93.4062 95.203 93.0729 95.1717C92.4114 95.1092 91.6614 95.1978 90.9791 95.5259C90.2864 95.8488 89.6771 96.4009 89.2604 97.0832C88.8333 97.7655 88.5833 98.5832 88.5416 99.4321C88.4948 100.286 88.6562 101.177 89.0469 102.01C89.4323 102.838 90.0416 103.594 90.8073 104.193C91.5729 104.792 92.4844 105.234 93.4427 105.526C94.401 105.818 95.4531 105.969 96.5208 105.87C97.5885 105.776 98.6562 105.432 99.5885 104.859C100.521 104.286 101.323 103.5 101.927 102.583C102.198 102.172 102.422 101.745 102.609 101.302C102.818 101.687 102.979 102.125 103.12 102.552C103.385 103.406 103.552 104.302 103.646 105.198C103.734 106.099 103.745 107.01 103.646 107.917C103.526 108.807 103.328 109.739 102.714 110.443C103.385 109.786 103.677 108.849 103.87 107.953C104.052 107.036 104.12 106.104 104.104 105.172C104.089 104.239 103.995 103.307 103.786 102.38C103.609 101.682 103.422 100.932 102.974 100.276C103.266 99.2394 103.344 98.1613 103.24 97.13C103.891 97.9165 104.422 98.8853 104.844 99.8592C105.557 101.547 105.99 103.38 106.135 105.239C106.281 107.094 106.13 108.984 105.62 110.802C105.109 112.609 104.208 114.328 102.927 115.76C104.318 114.432 105.38 112.76 106.057 110.937C106.734 109.114 107.052 107.156 107.057 105.203C107.057 103.422 106.802 101.64 106.286 99.9061C106.427 100.073 106.557 100.245 106.693 100.417C107.391 101.713 107.917 103.13 108.281 104.573C108.99 107.437 109.125 110.479 108.547 113.401C107.979 116.292 106.604 119.161 104.125 120.917C102.901 121.786 101.437 122.323 99.9271 122.521C98.4062 122.719 96.8489 122.594 95.3385 122.286C96.8281 122.667 98.3906 122.875 99.9479 122.745C101.505 122.625 103.052 122.146 104.385 121.292C107.089 119.578 108.698 116.599 109.448 113.599C110.13 110.849 110.214 107.979 109.781 105.172C109.849 105.307 109.932 105.427 110 105.568C110.38 106.318 110.734 107.036 111.01 107.797C111.286 108.557 111.505 109.349 111.656 110.151C112.255 113.375 111.667 116.943 109.766 119.875C108.823 121.333 107.583 122.583 106.151 123.484C104.719 124.39 103.094 124.948 101.448 125.125C99.7969 125.302 98.1406 125.104 96.5677 124.656C94.9948 124.213 93.5469 123.547 92.3281 122.646C91.1146 121.75 90.1458 120.625 89.5156 119.37C88.8854 118.125 88.5937 116.76 88.6198 115.458C88.6458 114.151 88.9791 112.901 89.5729 111.849C90.1666 110.797 91.026 109.958 92.0104 109.443C93.9844 108.396 96.3281 108.729 97.9739 109.422C98.776 109.802 99.401 110.375 99.8385 111.01C100.276 111.64 100.542 112.312 100.703 112.937C100.724 113.01 100.729 113.073 100.745 113.14C100.026 111.531 98.401 110.406 96.5052 110.406C93.9427 110.406 91.8698 112.453 91.8698 114.979C91.8698 117.5 93.9427 119.547 96.5052 119.547C98.3385 119.547 99.9062 118.489 100.661 116.969C100.661 116.969 100.656 116.979 100.661 116.979C100.708 117.01 101 116.713 101.234 116.005C101.464 115.307 101.656 114.203 101.417 112.797C101.292 112.099 101.057 111.318 100.599 110.547C100.135 109.781 99.4166 109.026 98.4479 108.521C98.2135 108.396 97.9531 108.286 97.6979 108.187C97.4375 108.099 97.1771 108.015 96.9114 107.937C96.3698 107.786 95.7916 107.677 95.1875 107.63C93.9844 107.526 92.6354 107.703 91.3958 108.307C90.1562 108.901 89.0677 109.906 88.3229 111.151C87.5625 112.396 87.1302 113.87 87.0625 115.411C87 116.948 87.3125 118.562 88.0312 120.052C88.7448 121.547 89.875 122.906 91.2708 123.969C92.6719 125.036 94.3229 125.812 96.0625 126.318C97.8021 126.833 99.7187 127.088 101.646 126.89C103.573 126.703 105.49 126.057 107.167 125C108.844 123.953 110.276 122.51 111.354 120.844C113.521 117.495 114.156 113.463 113.458 109.844C113.286 108.932 113.036 108.047 112.719 107.203C112.401 106.354 111.995 105.536 111.599 104.792C111.448 104.505 111.276 104.234 111.12 103.953C111.542 104.344 111.964 104.734 112.385 105.125C113.604 106.271 114.865 107.437 116.13 108.635L116.078 108.682C116.474 109.068 116.859 109.458 117.245 109.849C117.406 110.14 117.573 110.432 117.719 110.739C118.495 112.38 118.984 114.177 119.13 116.01C119.271 117.838 119.068 119.713 118.401 121.458C117.75 123.193 116.604 124.771 115.109 125.963C116.693 124.896 118 123.385 118.828 121.635C119.667 119.88 120.047 117.922 120.047 115.979C120.047 114.792 119.901 113.609 119.641 112.443C119.969 112.818 120.286 113.198 120.604 113.583C120.714 113.828 120.823 114.078 120.922 114.333C121.401 115.547 121.734 116.823 121.911 118.13C122.266 120.734 122.026 123.495 120.88 125.963C122.302 123.635 122.891 120.828 122.828 118.062C122.818 117.5 122.771 116.943 122.708 116.38C123.771 117.943 124.714 119.573 125.474 121.292C126.516 123.672 127.193 126.234 127.109 128.812C127.047 131.37 126.125 133.953 124.271 135.818C123.365 136.755 122.229 137.5 120.984 137.896C119.74 138.302 118.375 138.323 117.115 137.943C115.859 137.573 114.714 136.818 113.859 135.823C113.797 135.745 113.734 135.667 113.672 135.583C113.417 134.953 113.083 134.302 112.661 133.661C112.526 133.208 112.453 132.739 112.458 132.26C112.469 131.614 112.63 130.974 112.943 130.401C113.255 129.828 113.714 129.333 114.198 128.88C115.073 128.083 116.203 127.536 117.396 127.432C115.38 127.927 113.88 129.713 113.88 131.854C113.88 134.38 115.958 136.427 118.516 136.427C120.536 136.427 122.234 135.146 122.875 133.37C123.229 132.901 123.547 132.401 123.812 131.88C124.276 130.963 124.583 129.979 124.755 128.995C125.104 127.015 124.948 125.021 124.562 123.114C124.724 125.052 124.63 127.021 124.083 128.838C123.844 129.635 123.495 130.385 123.073 131.083C122.703 128.927 120.807 127.286 118.516 127.286C118.495 127.286 118.479 127.292 118.458 127.292C118.25 127.26 118.036 127.239 117.823 127.239C116.427 127.203 115.057 127.776 114.021 128.687C113.505 129.14 113.021 129.64 112.672 130.255C112.323 130.859 112.135 131.557 112.109 132.25C112.104 132.489 112.12 132.724 112.146 132.958C111.245 131.812 110 130.739 108.396 130.036C107.953 129.838 107.484 129.667 107 129.526C106.943 129.51 106.885 129.5 106.833 129.484C107.74 129.099 108.604 128.63 109.401 128.099C111.526 126.693 113.297 124.818 114.562 122.667C115.833 120.521 116.557 118.068 116.625 115.614C116.708 113.156 116.12 110.729 115.109 108.531C115.979 110.786 116.396 113.213 116.167 115.583C115.948 117.958 115.104 120.239 113.781 122.193C112.464 124.14 110.687 125.776 108.667 126.948C106.646 128.109 104.365 128.818 102.094 128.75V128.802C100 128.802 97.7239 129.26 95.6666 130.396C93.4948 131.573 91.651 133.463 90.4375 135.734C89.2135 138.005 88.5937 140.646 88.651 143.37C88.6979 146.083 89.4427 148.89 90.901 151.443C92.3541 154.005 94.5312 156.276 97.1666 158C99.8125 159.734 102.87 160.927 106.068 161.64C109.255 162.37 112.734 162.609 116.187 162.062C119.635 161.526 123.026 160.182 125.927 158.146C128.833 156.125 131.255 153.432 133.005 150.38C136.547 144.26 137.245 137.088 135.589 130.786Z" fill="white"/>
<path d="M68.5779 140.307C73.8331 140.307 73.8331 148.479 68.5779 148.479C63.3227 148.479 63.3227 140.307 68.5779 140.307ZM50.3227 136.333C51.3592 137.26 52.5467 138.021 53.8852 138.437C55.2185 138.854 56.6821 138.849 58.005 138.417C59.0987 138.062 60.0831 137.427 60.8852 136.62C60.8227 136.828 60.7602 137.047 60.7133 137.25C60.1404 139.703 60.354 141.667 60.6821 142.922C60.9685 144 61.3592 144.557 61.5258 144.677C61.9269 145.562 62.4894 146.354 63.1769 147.021C62.4581 147.062 61.729 147.036 60.9946 146.922C59.6821 146.724 58.3904 146.297 57.1769 145.687C54.755 144.463 52.5883 142.536 51.2862 140.036C52.3123 142.667 54.3071 144.906 56.7237 146.474C57.9425 147.255 59.281 147.875 60.7133 148.255C62.13 148.635 63.6977 148.765 65.1769 148.547L65.156 148.396C66.1508 148.875 67.2654 149.151 68.4477 149.151C72.6508 149.151 76.0519 145.739 76.0519 141.526C76.0519 138.739 74.5623 136.312 72.3383 134.979C73.2758 135.26 74.1717 135.734 74.9581 136.359C76.3279 137.453 77.3748 139.005 77.7967 140.755C78.2342 142.51 77.9737 144.427 77.156 146.088C78.104 144.5 78.5519 142.562 78.2394 140.672C77.9477 138.781 76.9685 137.005 75.5519 135.677C74.1404 134.344 72.2602 133.427 70.229 133.312C68.7029 133.198 67.13 133.62 65.7967 134.38C64.2029 134.979 62.8592 136.099 61.9737 137.536C62.3331 136.469 62.8696 135.318 63.7029 134.265C64.5467 133.203 65.7081 132.25 67.1769 131.677C70.1612 130.625 74.3592 130.276 77.7394 132.344C79.4217 133.349 80.8487 134.917 81.781 136.828C82.729 138.739 83.1925 140.984 83.0883 143.286C82.9894 145.588 82.3227 147.953 81.0675 150.083C79.8227 152.219 77.9894 154.109 75.7394 155.562C73.4894 157.021 70.8383 158.047 68.005 158.656C65.1769 159.286 62.2237 159.453 59.3227 158.963C56.4217 158.484 53.604 157.333 51.1665 155.583C48.7237 153.844 46.6665 151.515 45.156 148.844C43.7342 146.344 42.8383 143.625 42.4321 140.87C43.8592 145.099 46.5727 148.844 50.0415 151.531C54.0467 154.656 59.0102 156.489 64.031 156.594C66.5362 156.646 69.0467 156.25 71.38 155.385C73.7185 154.521 75.8696 153.182 77.656 151.479C75.7915 153.099 73.604 154.323 71.2706 155.062C68.9425 155.807 66.479 156.073 64.0571 155.911C59.2081 155.588 54.5362 153.594 50.8956 150.474C47.2498 147.364 44.6821 143.047 43.8331 138.406C43.2967 135.588 43.38 132.713 43.9269 129.906C43.9165 130.672 43.9269 131.437 43.9894 132.208C44.3696 137.656 46.7446 142.953 50.6404 146.703C54.4946 150.479 59.781 152.713 65.1092 152.682C67.7654 152.677 70.4008 152.114 72.8175 151.057C75.229 150.005 77.406 148.474 79.2706 146.64C77.3279 148.385 75.104 149.812 72.6821 150.745C70.2706 151.682 67.6821 152.104 65.1196 152C59.9842 151.807 55.0571 149.437 51.604 145.745C48.1092 142.068 46.156 137.099 46.0206 132.094C45.9321 129.401 46.3331 126.729 47.0883 124.146C46.7862 125.703 46.6665 127.297 46.8175 128.89C47.0571 131.682 48.2394 134.458 50.3227 136.333ZM80.4112 98.3019C82.1612 98.3019 82.1612 101.026 80.4112 101.026C78.6612 101.026 78.6612 98.3019 80.4112 98.3019ZM78.0675 114.213C80.9894 114.213 80.9894 118.755 78.0675 118.755C75.1508 118.755 75.1508 114.213 78.0675 114.213ZM56.4321 135.635C53.5102 135.635 53.5102 131.094 56.4321 131.094C59.3487 131.094 59.3487 135.635 56.4321 135.635ZM42.2342 150.38C43.9633 153.432 46.3383 156.125 49.2029 158.146C52.0519 160.182 55.3852 161.526 58.7706 162.062C62.1612 162.609 65.5883 162.37 68.7185 161.64C71.8644 160.927 74.8748 159.734 77.4685 158C80.0571 156.276 82.2029 154.005 83.63 151.443C85.0623 148.89 85.7967 146.083 85.8435 143.37C85.8956 140.646 85.2915 138.005 84.0883 135.734C82.8956 133.463 81.0779 131.573 78.9425 130.396C76.9217 129.26 74.6821 128.802 72.6248 128.802V128.75C70.3904 128.818 68.156 128.109 66.1665 126.948C64.1769 125.776 62.4321 124.14 61.1404 122.193C59.8383 120.239 59.005 117.958 58.7915 115.583C58.5675 113.213 58.979 110.786 59.8331 108.531C58.8383 110.729 58.2654 113.156 58.3435 115.614C58.406 118.068 59.1196 120.521 60.3696 122.667C61.6092 124.818 63.3592 126.693 65.4425 128.099C66.229 128.63 67.0779 129.099 67.9685 129.484C67.9165 129.5 67.8592 129.51 67.8071 129.526C67.3279 129.667 66.8696 129.838 66.4269 130.036C64.854 130.739 63.63 131.812 62.7446 132.958C62.7706 132.724 62.7862 132.489 62.7758 132.25C62.755 131.557 62.5675 130.859 62.229 130.255C61.8852 129.64 61.406 129.14 60.9008 128.687C59.88 127.776 58.5362 127.203 57.1612 127.239C56.9529 127.239 56.7446 127.26 56.5362 127.292C56.5206 127.292 56.4998 127.286 56.4842 127.286C54.229 127.286 52.3696 128.927 51.9998 131.083C51.5883 130.385 51.2446 129.635 51.0102 128.838C50.4737 127.021 50.38 125.052 50.5415 123.114C50.156 125.021 50.005 127.015 50.3487 128.995C50.5206 129.979 50.8227 130.963 51.2758 131.88C51.5362 132.401 51.8487 132.901 52.2029 133.37C52.8227 135.146 54.4946 136.427 56.4842 136.427C58.9998 136.427 61.0415 134.38 61.0415 131.854C61.0415 129.713 59.5623 127.927 57.5831 127.432C58.755 127.536 59.8644 128.083 60.7237 128.88C61.2029 129.333 61.656 129.828 61.9581 130.401C62.2706 130.974 62.4269 131.614 62.4373 132.26C62.4425 132.739 62.3696 133.208 62.2394 133.661C61.8227 134.302 61.4946 134.953 61.2446 135.583C61.1821 135.667 61.1248 135.745 61.0571 135.823C60.2237 136.818 59.0987 137.573 57.8592 137.943C56.6196 138.323 55.281 138.302 54.0571 137.896C52.8331 137.5 51.7185 136.755 50.8227 135.818C49.005 133.953 48.0987 131.37 48.0362 128.812C47.9529 126.234 48.6144 123.672 49.6456 121.292C50.3956 119.573 51.3227 117.943 52.3644 116.38C52.3019 116.943 52.255 117.5 52.2394 118.062C52.1821 120.828 52.7654 123.635 54.156 125.963C53.0362 123.495 52.7967 120.734 53.1456 118.13C53.3227 116.823 53.6508 115.547 54.1196 114.333C54.2185 114.078 54.3227 113.828 54.4373 113.583C54.7394 113.198 55.0519 112.818 55.38 112.443C55.1196 113.609 54.979 114.792 54.979 115.979C54.9842 117.922 55.354 119.88 56.1769 121.635C56.9894 123.385 58.2758 124.896 59.8331 125.963C58.3644 124.771 57.2394 123.193 56.5935 121.458C55.9373 119.713 55.7394 117.838 55.88 116.01C56.0258 114.177 56.505 112.38 57.2706 110.739C57.4112 110.432 57.5727 110.14 57.7342 109.849C58.1092 109.458 58.4894 109.068 58.88 108.682L58.8279 108.635C60.0727 107.437 61.3123 106.271 62.5102 105.125C62.9269 104.734 63.3383 104.344 63.755 103.953C63.604 104.234 63.4321 104.505 63.281 104.792C62.8956 105.536 62.4946 106.354 62.1821 107.203C61.8696 108.047 61.6196 108.932 61.4529 109.844C60.7706 113.463 61.3904 117.495 63.5258 120.844C64.5831 122.51 65.9894 123.953 67.6404 125C69.2862 126.057 71.1717 126.703 73.0675 126.89C74.9633 127.088 76.8487 126.833 78.5519 126.318C80.2706 125.812 81.8904 125.036 83.2654 123.969C84.6404 122.906 85.7498 121.547 86.4477 120.052C87.156 118.562 87.4633 116.948 87.4008 115.411C87.3331 113.87 86.906 112.396 86.1665 111.151C85.4321 109.906 84.3644 108.901 83.1456 108.307C81.9269 107.703 80.5987 107.526 79.4165 107.63C78.8227 107.677 78.255 107.786 77.7237 107.937C77.4581 108.015 77.2029 108.099 76.9477 108.187C76.6977 108.286 76.4425 108.396 76.2081 108.521C75.2602 109.026 74.5519 109.781 74.0987 110.547C73.6456 111.318 73.4165 112.099 73.2915 112.797C73.0571 114.203 73.2446 115.307 73.4737 116.005C73.7029 116.713 73.9894 117.01 74.0362 116.979V116.969C74.7758 118.489 76.3227 119.547 78.1248 119.547C80.6404 119.547 82.6769 117.5 82.6769 114.979C82.6769 112.453 80.6404 110.406 78.1248 110.406C76.2602 110.406 74.6612 111.531 73.9529 113.14C73.9685 113.073 73.979 113.01 73.9946 112.937C74.156 112.312 74.4165 111.64 74.8435 111.01C75.2758 110.375 75.8852 109.802 76.6769 109.422C78.2915 108.729 80.604 108.396 82.5415 109.443C83.505 109.958 84.3487 110.797 84.9321 111.849C85.5206 112.901 85.8487 114.151 85.8748 115.458C85.9008 116.76 85.6092 118.125 84.9894 119.37C84.3748 120.625 83.4217 121.75 82.229 122.646C81.031 123.547 79.604 124.213 78.0571 124.656C76.5154 125.104 74.8852 125.302 73.2654 125.125C71.6456 124.948 70.0467 124.39 68.6404 123.484C67.229 122.583 66.0102 121.333 65.0883 119.875C63.2185 116.943 62.6404 113.375 63.229 110.151C63.3748 109.349 63.5883 108.557 63.8592 107.797C64.13 107.036 64.479 106.318 64.854 105.568C64.9269 105.427 64.9998 105.307 65.0727 105.172C64.6456 107.979 64.7237 110.849 65.3956 113.599C66.1404 116.599 67.7185 119.578 70.3748 121.292C71.6821 122.146 73.2081 122.625 74.7342 122.745C76.2654 122.875 77.8019 122.667 79.2706 122.286C77.781 122.594 76.2498 122.719 74.7602 122.521C73.2706 122.323 71.8279 121.786 70.6248 120.917C68.1925 119.161 66.8435 116.292 66.281 113.401C65.7133 110.479 65.8487 107.437 66.5467 104.573C66.9008 103.13 67.4217 101.713 68.1092 100.417C68.2394 100.245 68.3748 100.073 68.505 99.9061C67.9998 101.64 67.7498 103.422 67.7498 105.203C67.755 107.156 68.0623 109.114 68.729 110.937C69.3904 112.76 70.4373 114.432 71.8123 115.76C70.5467 114.328 69.6612 112.609 69.156 110.802C68.656 108.984 68.5102 107.094 68.656 105.239C68.7967 103.38 69.2185 101.547 69.9217 99.8592C70.3383 98.8853 70.8644 97.9165 71.4998 97.13C71.3956 98.1613 71.479 99.2394 71.7654 100.276C71.3227 100.932 71.1404 101.682 70.9581 102.38C70.7602 103.307 70.6665 104.239 70.6508 105.172C70.6352 106.104 70.7029 107.036 70.88 107.953C71.0675 108.849 71.3592 109.786 72.0154 110.443C71.4165 109.739 71.2185 108.807 71.104 107.917C71.005 107.01 71.0102 106.099 71.104 105.198C71.1925 104.302 71.3592 103.406 71.6196 102.552C71.7602 102.125 71.9165 101.687 72.1196 101.302C72.3071 101.745 72.5258 102.172 72.7915 102.583C73.3852 103.5 74.1717 104.286 75.0935 104.859C76.0102 105.432 77.0571 105.776 78.104 105.87C79.1508 105.969 80.1925 105.818 81.13 105.526C82.0727 105.234 82.9633 104.792 83.7185 104.193C84.4737 103.594 85.0779 102.838 85.4529 102.01C85.8383 101.177 85.9946 100.286 85.9477 99.4321C85.906 98.5832 85.6612 97.7655 85.2446 97.0832C84.8331 96.4009 84.2342 95.8488 83.5519 95.5259C82.88 95.1978 82.1456 95.1092 81.4894 95.1717C81.1612 95.203 80.854 95.2655 80.5571 95.354C80.4165 95.4009 80.2706 95.4425 80.1352 95.4946C79.9946 95.5519 79.8592 95.6144 79.729 95.6873C79.2081 95.9738 78.8175 96.3957 78.5727 96.8228C78.3644 97.1821 78.255 97.5415 78.1821 97.88C78.031 98.2082 77.9373 98.5728 77.9373 98.953C77.9373 100.354 79.0727 101.489 80.4633 101.489C81.8644 101.489 82.9894 100.354 82.9894 98.953C82.9894 97.5571 81.8644 96.4217 80.4633 96.4217C80.0362 96.4217 79.6352 96.5363 79.2758 96.729C79.479 96.5207 79.7081 96.3228 79.9894 96.1873C80.88 95.7915 82.156 95.5884 83.229 96.1561C83.7654 96.4373 84.2394 96.8957 84.5675 97.479C84.8956 98.0519 85.0883 98.7446 85.1092 99.4686C85.13 100.187 84.979 100.943 84.6456 101.64C84.3123 102.333 83.7915 102.963 83.1404 103.469C82.4842 103.974 81.6977 104.354 80.8435 104.604C79.9946 104.864 79.0987 104.979 78.2029 104.896C77.3071 104.807 76.4217 104.51 75.6352 104.015C74.8487 103.521 74.1717 102.838 73.6508 102.036C72.7133 100.609 72.4217 96.2498 74.9165 92.7498C74.8592 93.0363 74.8071 93.328 74.7706 93.6196C74.5935 95.0363 74.63 96.4842 74.9425 97.8696C75.104 98.5571 75.3279 99.2342 75.6456 99.8592C75.9633 100.484 76.3696 101.088 76.9373 101.489C76.4165 101.031 76.0935 100.401 75.8487 99.7707C75.6144 99.13 75.4737 98.4634 75.3904 97.7915C75.2342 96.4425 75.3487 95.0832 75.6612 93.7811C75.9581 92.5415 76.4477 91.3592 77.0675 90.2655C77.2185 90.0832 77.3644 89.8957 77.505 89.7082C77.3904 90.6092 77.3904 91.5207 77.5467 92.4009C77.6352 92.8957 77.7758 93.3748 77.9685 93.8332C78.1717 94.2759 78.4112 94.7498 78.8175 95.0311C78.4477 94.703 78.2758 94.229 78.13 93.7759C77.9894 93.3123 77.9165 92.8384 77.8852 92.3592C77.8227 91.4061 77.9477 90.453 78.2081 89.5415C78.3696 88.979 78.5935 88.4373 78.8435 87.9165C79.0675 87.6092 79.2915 87.3019 79.505 87.005C79.5258 86.9842 79.5415 86.9634 79.5623 86.9425L79.5519 86.9373C79.7967 86.5936 80.0258 86.2603 80.255 85.9269C80.104 86.6769 79.9737 87.4321 79.9269 88.1925C79.9008 88.6665 79.8956 89.1509 79.9581 89.63C80.0258 90.0936 80.13 90.5936 80.4633 90.9425C80.1612 90.5728 80.104 90.078 80.0727 89.6196C80.0467 89.1509 80.0935 88.6821 80.156 88.2134C80.281 87.2863 80.5206 86.3696 80.8019 85.479C80.8852 85.2186 80.979 84.9634 81.0727 84.7082C85.1717 78.4425 86.7498 73.8228 87.229 71.7446C84.2862 77.0988 84.3123 76.7186 82.5519 79.505C79.9998 83.5519 76.7706 87.2134 70.8435 93.4686C69.3696 95.0259 62.5102 101.479 60.604 103.203C56.8123 106.667 52.6665 110.302 48.8123 114.765C48.3331 115.318 47.8696 115.89 47.406 116.474L47.3435 116.437C47.2915 116.542 47.255 116.646 47.2029 116.75C45.9008 118.432 44.6769 120.219 43.5467 122.078C42.7706 123.359 41.9581 124.745 41.3071 126.208C40.6456 127.672 40.104 129.203 39.7029 130.786C38.0727 137.088 38.7602 144.26 42.2342 150.38Z" fill="white"/>
<path d="M96.3903 128.948C92.3747 128.948 87.2132 125.541 87.2132 122.896C87.2132 125.541 82.0466 128.948 78.0361 128.948C82.0466 128.948 87.2132 134.13 87.2132 136.776C87.2132 134.13 92.3747 128.948 96.3903 128.948Z" fill="white"/>
<path d="M84.9062 190.817C84.9062 176.099 68.8073 192.666 66.8125 194.479C68.7656 192.703 83.0104 183.781 84.9062 190.817Z" fill="white"/>
<path d="M89.833 190.818C89.833 176.099 106.448 192.224 107.927 194.479C105.505 190.786 91.5674 184.781 89.833 190.818Z" fill="white"/>
<path d="M87.8955 160.734C87.6195 158.089 87.4528 155.208 87.4059 152.047C87.4268 153.104 87.4059 154.125 87.3695 155.125C87.3278 154.125 87.3174 153.104 87.3278 152.047C87.2861 155.208 87.1143 158.089 86.8434 160.734C85.1924 171.698 80.2705 178.51 76.4893 183.323C77.6143 182.578 80.9215 181.26 82.8851 181.693C85.3278 182.203 87.3695 185.964 87.3643 190.786C87.3643 185.964 89.4111 182.203 91.8538 181.693C93.3174 181.422 97.1247 182.578 98.2549 183.323C94.4684 178.51 89.5466 171.698 87.8955 160.734Z" fill="white"/>
<path d="M93.318 106.312C90.6462 106.312 87.3649 103.979 87.2139 101.234C87.3649 103.979 83.7764 106.312 81.1045 106.312C83.7764 106.312 87.2139 108.453 87.2139 110.323C87.2139 108.453 90.6462 106.312 93.318 106.312Z" fill="white"/>
<path d="M93.1354 93.0101C90.4635 93.0101 87.1823 78.359 87.0312 75.6143C87.1823 78.359 83.5937 93.0101 80.9219 93.0101C83.5937 93.0101 87.0312 95.1455 87.0312 97.0205C87.0312 95.1455 90.4635 93.0101 93.1354 93.0101Z" fill="white"/>
<path d="M87.4115 167.396L83.875 175.088L87.4115 182.786L90.9427 175.088L87.4115 167.396Z" fill="black"/>
<defs>
<linearGradient id="paint0_linear_148_4441" x1="27.5178" y1="277.997" x2="150.91" y2="-11.3285" gradientUnits="userSpaceOnUse">
<stop stop-color="#E7E1D0"/>
<stop offset="0.015625" stop-color="#E7E1D0"/>
<stop offset="0.0195313" stop-color="#E7E2D1"/>
<stop offset="0.0234375" stop-color="#E8E2D2"/>
<stop offset="0.0273438" stop-color="#E8E2D2"/>
<stop offset="0.03125" stop-color="#E9E3D3"/>
<stop offset="0.0351563" stop-color="#E9E3D3"/>
<stop offset="0.0390625" stop-color="#E9E4D4"/>
<stop offset="0.0429688" stop-color="#EAE4D5"/>
<stop offset="0.046875" stop-color="#EAE5D5"/>
<stop offset="0.0507813" stop-color="#EAE5D6"/>
<stop offset="0.0546875" stop-color="#EBE5D6"/>
<stop offset="0.0585938" stop-color="#EBE6D7"/>
<stop offset="0.0625" stop-color="#EBE6D8"/>
<stop offset="0.0664063" stop-color="#ECE7D8"/>
<stop offset="0.0703125" stop-color="#ECE7D9"/>
<stop offset="0.0742188" stop-color="#ECE7D9"/>
<stop offset="0.078125" stop-color="#ECE8DA"/>
<stop offset="0.0820313" stop-color="#EDE8DA"/>
<stop offset="0.0859375" stop-color="#EDE9DB"/>
<stop offset="0.0898438" stop-color="#EDE9DB"/>
<stop offset="0.09375" stop-color="#EEE9DC"/>
<stop offset="0.0976563" stop-color="#EEEADD"/>
<stop offset="0.101563" stop-color="#EEEADD"/>
<stop offset="0.105469" stop-color="#EFEADE"/>
<stop offset="0.109375" stop-color="#EFEBDE"/>
<stop offset="0.113281" stop-color="#EFEBDF"/>
<stop offset="0.117188" stop-color="#EFECDF"/>
<stop offset="0.121094" stop-color="#F0ECE0"/>
<stop offset="0.125" stop-color="#F0ECE0"/>
<stop offset="0.128906" stop-color="#F0EDE1"/>
<stop offset="0.132813" stop-color="#F1EDE1"/>
<stop offset="0.140625" stop-color="#F1EDE2"/>
<stop offset="0.148438" stop-color="#F1EEE3"/>
<stop offset="0.15625" stop-color="#F2EFE4"/>
<stop offset="0.164063" stop-color="#F3EFE5"/>
<stop offset="0.171875" stop-color="#F3F0E6"/>
<stop offset="0.179688" stop-color="#F4F1E7"/>
<stop offset="0.1875" stop-color="#F4F1E7"/>
<stop offset="0.195313" stop-color="#F5F2E8"/>
<stop offset="0.203125" stop-color="#F5F3E9"/>
<stop offset="0.210938" stop-color="#F6F3EA"/>
<stop offset="0.21875" stop-color="#F6F4EB"/>
<stop offset="0.226563" stop-color="#F6F4EC"/>
<stop offset="0.234375" stop-color="#F7F5EC"/>
<stop offset="0.242188" stop-color="#F7F5ED"/>
<stop offset="0.25" stop-color="#F8F6EE"/>
<stop offset="0.257813" stop-color="#F8F6EF"/>
<stop offset="0.265625" stop-color="#F9F7EF"/>
<stop offset="0.273438" stop-color="#F9F7F0"/>
<stop offset="0.28125" stop-color="#F9F8F1"/>
<stop offset="0.289062" stop-color="#FAF8F1"/>
<stop offset="0.296875" stop-color="#FAF9F2"/>
<stop offset="0.304688" stop-color="#FAF9F3"/>
<stop offset="0.3125" stop-color="#FBFAF3"/>
<stop offset="0.320313" stop-color="#FBFAF4"/>
<stop offset="0.328125" stop-color="#FBFAF4"/>
<stop offset="0.335938" stop-color="#FCFBF5"/>
<stop offset="0.34375" stop-color="#FCFBF5"/>
<stop offset="0.359375" stop-color="#FCFCF6"/>
<stop offset="0.375" stop-color="#FDFCF7"/>
<stop offset="0.390625" stop-color="#FDFDF8"/>
<stop offset="0.40625" stop-color="#FEFDF9"/>
<stop offset="0.421875" stop-color="#FEFEF9"/>
<stop offset="0.4375" stop-color="#FEFEFA"/>
<stop offset="0.5" stop-color="#FFFFFB"/>
<stop offset="0.5625" stop-color="#FFFFFB"/>
<stop offset="0.59375" stop-color="#FFFFFA"/>
<stop offset="0.625" stop-color="#FEFEFA"/>
<stop offset="0.640625" stop-color="#FEFEF9"/>
<stop offset="0.65625" stop-color="#FEFDF9"/>
<stop offset="0.671875" stop-color="#FDFDF8"/>
<stop offset="0.6875" stop-color="#FDFCF7"/>
<stop offset="0.703125" stop-color="#FCFCF6"/>
<stop offset="0.71875" stop-color="#FCFBF6"/>
<stop offset="0.726563" stop-color="#FCFBF5"/>
<stop offset="0.734375" stop-color="#FBFAF4"/>
<stop offset="0.742187" stop-color="#FBFAF4"/>
<stop offset="0.75" stop-color="#FBF9F3"/>
<stop offset="0.757813" stop-color="#FAF9F2"/>
<stop offset="0.765625" stop-color="#FAF9F2"/>
<stop offset="0.773438" stop-color="#F9F8F1"/>
<stop offset="0.78125" stop-color="#F9F8F0"/>
<stop offset="0.789063" stop-color="#F9F7F0"/>
<stop offset="0.796875" stop-color="#F8F6EF"/>
<stop offset="0.804688" stop-color="#F8F6EE"/>
<stop offset="0.8125" stop-color="#F7F5ED"/>
<stop offset="0.820313" stop-color="#F7F5EC"/>
<stop offset="0.828125" stop-color="#F6F4EB"/>
<stop offset="0.835937" stop-color="#F6F3EA"/>
<stop offset="0.839844" stop-color="#F5F3E9"/>
<stop offset="0.84375" stop-color="#F5F2E9"/>
<stop offset="0.847656" stop-color="#F5F2E8"/>
<stop offset="0.851563" stop-color="#F4F2E8"/>
<stop offset="0.855469" stop-color="#F4F1E7"/>
<stop offset="0.859375" stop-color="#F4F1E7"/>
<stop offset="0.863281" stop-color="#F3F0E6"/>
<stop offset="0.867188" stop-color="#F3F0E6"/>
<stop offset="0.871094" stop-color="#F3F0E5"/>
<stop offset="0.875" stop-color="#F2EFE4"/>
<stop offset="0.878906" stop-color="#F2EFE4"/>
<stop offset="0.882813" stop-color="#F2EEE3"/>
<stop offset="0.886719" stop-color="#F1EEE3"/>
<stop offset="0.890625" stop-color="#F1EEE2"/>
<stop offset="0.894531" stop-color="#F1EDE1"/>
<stop offset="0.898438" stop-color="#F0EDE1"/>
<stop offset="0.902344" stop-color="#F0ECE0"/>
<stop offset="0.90625" stop-color="#F0ECE0"/>
<stop offset="0.910156" stop-color="#EFEBDF"/>
<stop offset="0.914063" stop-color="#EFEBDE"/>
<stop offset="0.917969" stop-color="#EFEADD"/>
<stop offset="0.921875" stop-color="#EEEADD"/>
<stop offset="0.925781" stop-color="#EEE9DC"/>
<stop offset="0.929687" stop-color="#EDE9DB"/>
<stop offset="0.933594" stop-color="#EDE8DB"/>
<stop offset="0.9375" stop-color="#EDE8DA"/>
<stop offset="0.941406" stop-color="#ECE7D9"/>
<stop offset="0.945313" stop-color="#ECE7D8"/>
<stop offset="0.949219" stop-color="#EBE6D8"/>
<stop offset="0.953125" stop-color="#EBE6D7"/>
<stop offset="0.957031" stop-color="#EAE5D6"/>
<stop offset="0.960938" stop-color="#EAE5D5"/>
<stop offset="0.964844" stop-color="#EAE4D5"/>
<stop offset="0.96875" stop-color="#E9E4D4"/>
<stop offset="0.972656" stop-color="#E9E3D3"/>
<stop offset="0.976563" stop-color="#E8E2D2"/>
<stop offset="0.980469" stop-color="#E8E2D1"/>
<stop offset="0.984375" stop-color="#E7E1D0"/>
<stop offset="1" stop-color="#E7E1D0"/>
</linearGradient>
</defs>
</svg>
